/* XPM */
static char *ff5b9f54a0f44df082650e4198ee3685pjbMATNCxQDLpaXj[] = {
/* columns rows colors chars-per-pixel */
"64 64 237 2 ",
"   c None",
".  c #7A7874",
"X  c #8F5327",
"o  c #8E542C",
"O  c #90562A",
"+  c #94592C",
"@  c #9B5F32",
"#  c #9D612F",
"$  c #9B6033",
"%  c #996136",
"&  c #9E6334",
"*  c #A06233",
"=  c #A76530",
"-  c #A56532",
";  c #A46632",
":  c #A76732",
">  c #A16435",
",  c #A26637",
"<  c #A76734",
"1  c #A46736",
"2  c #A46737",
"3  c #A66736",
"4  c #A66737",
"5  c #A66A35",
"6  c #A86833",
"7  c #AD6A33",
"8  c #AF6A32",
"9  c #A96936",
"0  c #AA6B36",
"q  c #AE6A34",
"w  c #AE6A35",
"e  c #AB6C37",
"r  c #AE6C37",
"t  c #A36738",
"y  c #A46739",
"u  c #A6693A",
"i  c #A4693D",
"p  c #AA6D39",
"a  c #A96C3A",
"s  c #AE6E39",
"d  c #AD6E3A",
"f  c #B36E35",
"g  c #B46F36",
"h  c #B26F39",
"j  c #B97235",
"k  c #BB7435",
"l  c #B97537",
"z  c #B27039",
"x  c #B5713A",
"c  c #B4713B",
"v  c #B6723B",
"b  c #B0703C",
"n  c #B1703C",
"m  c #B5753F",
"M  c #B9743B",
"N  c #B9743C",
"B  c #B8753F",
"V  c #BD763E",
"C  c #BF7A38",
"Z  c #BD783E",
"A  c #BE793F",
"S  c #C27D3C",
"D  c #C47D3E",
"F  c #C47F3E",
"G  c #CA7E3D",
"H  c #9E6B41",
"J  c #8F6E55",
"K  c #AC6F40",
"L  c #A67347",
"P  c #A87044",
"I  c #AB7548",
"U  c #B67640",
"Y  c #B47742",
"T  c #B57745",
"R  c #B67A47",
"E  c #B97942",
"W  c #B87A42",
"Q  c #BD7942",
"!  c #BA7C41",
"~  c #BF7E43",
"^  c #BD7C45",
"/  c #B47D4B",
"(  c #B47B4F",
")  c #BB7F4E",
"_  c #82766B",
"`  c #C17A41",
"'  c #C37D43",
"]  c #C37D46",
"[  c #C2813E",
"{  c #CE843E",
"}  c #BE8148",
"|  c #BF8249",
" . c #B88251",
".. c #BE8452",
"X. c #9C8E7F",
"o. c #A18573",
"O. c #C78340",
"+. c #C58347",
"@. c #C98040",
"#. c #CD8342",
"$. c #C98145",
"%. c #CB8144",
"&. c #C98545",
"*. c #C88447",
"=. c #C88647",
"-. c #CD8747",
";. c #C1804A",
":. c #C68048",
">. c #C68249",
",. c #C7834B",
"<. c #CB874A",
"1. c #CD8749",
"2. c #D08741",
"3. c #D18543",
"4. c #D08745",
"5. c #D18B41",
"6. c #D68840",
"7. c #D58844",
"8. c #D48847",
"9. c #D78A48",
"0. c #D58C4C",
"q. c #D98F49",
"w. c #DA8E4A",
"e. c #D6944C",
"r. c #D6944F",
"t. c #DD904C",
"y. c #DD914C",
"u. c #D9944F",
"i. c #DD954D",
"p. c #C28751",
"a. c #C08455",
"s. c #C48754",
"d. c #CA8750",
"f. c #C88951",
"g. c #D58F56",
"h. c #CE9157",
"j. c #D49151",
"k. c #D99257",
"l. c #DA9356",
"z. c #DB975D",
"x. c #EA9A4D",
"c. c #E09554",
"v. c #E49B58",
"b. c #E5A055",
"n. c #E8A757",
"m. c #DE9E64",
"M. c #D8A87E",
"N. c #E9A96C",
"B. c #EEAB6F",
"V. c #F8AF64",
"C. c #E3AC72",
"Z. c #E2AD77",
"A. c #EDAD73",
"S. c #EDAE75",
"D. c #E4AE7B",
"F. c #ECB27A",
"G. c #F1B071",
"H. c #F2B776",
"J. c #AB968A",
"K. c #A59D92",
"L. c #AAA094",
"P. c #BCAC9E",
"I. c gray63",
"U. c #B2ACA2",
"Y. c #B3ADA4",
"T. c #B7AEA6",
"R. c #B2AFAC",
"E. c #BFB1A2",
"W. c #B8B0A8",
"Q. c #B8B3AE",
"!. c #B9B4AD",
"~. c #BCB4AC",
"^. c #BEB6AD",
"/. c #BCB5AE",
"(. c #BCB7B1",
"). c #BCB6B5",
"_. c #BCB9B7",
"`. c #BFBBB7",
"'. c #E4B384",
"]. c #E4BA8A",
"[. c #EEBF8A",
"{. c #E9BE8D",
"}. c #EABC94",
"|. c #E9BF9C",
" X c #C7BFB0",
".X c #EEC28F",
"XX c #F8C584",
"oX c #F9C58C",
"OX c #E8C29E",
"+X c #F6C691",
"@X c #F6C692",
"#X c #F5C594",
"$X c #F4C994",
"%X c #F8CC92",
"&X c #F1C999",
"*X c #F8CC98",
"=X c #F9CF9F",
"-X c #C9C2BD",
";X c #EECCA7",
":X c #FAD7A8",
">X c #FBD7A9",
",X c #F7D8AE",
"<X c #FADAAA",
"1X c #F8DAAD",
"2X c #FAD9AF",
"3X c #F8DFB2",
"4X c #F6DFBB",
"5X c #F6DFBF",
"6X c #DDD2CC",
"7X c #DAD4CD",
"8X c #F5E4C9",
"9X c #E7E4DC",
"0X c #E7E5E3",
"qX c #E4E2E4",
"wX c #E9E8E6",
"eX c #EEEAE6",
"rX c #F0ECE2",
"tX c #F6F0E2",
"yX c #F1F0E9",
"uX c #F3F1EB",
"iX c #F2F2EC",
"pX c #F2F1EF",
"aX c #F5F3F0",
"sX c #F9F4F0",
"dX c #F6F8F7",
"fX c #FAFAF7",
"gX c #F9F9F8",
"hX c #F9F9F9",
"jX c #F8FAF8",
"kX c #F9FAF8",
"lX c #FAFAF9",
"zX c #FAFBF9",
"xX c #FBFBFA",
"cX c #FBFBFC",
"vX c #FCFBFC",
"bX c #FEFEFD",
"nX c #FEFEFE",
/* pixels */
"                                                                                                                                ",
"                                                                                                                                ",
"                                                                                                                                ",
"                                                                                                                                ",
"                                                                                                                                ",
"                                                                                                                                ",
"                                                                                                                                ",
"                                                                                                                                ",
"                                                                                                                                ",
"                                                                                                                                ",
"                                                                                                                                ",
"                                                                                                                                ",
"                                                                                                                                ",
"                                                                        '.rX                                                    ",
"                                                                      j.t.}.uX                                                  ",
"                                                                      0.w.t.OXpX                                                ",
"                                                                      8.q.q.i.OXpX                                              ",
"                                                                    1.-.i.{ { i.;X                                              ",
"                                                                    1.#.e.e.{ n.H.5X                                            ",
"                                                                  f.1.{ D [ { v.XX<X                                            ",
"                                                                  >.&.D j k G v.%X                                              ",
"                                                                s.' =.&.S S 2.G.>X                                              ",
"                                                                ;.` Z g l D c.oX                                                ",
"                                                                Q V v 8 g %.B.>X                                                ",
"                                                              p.=.v q q Q l.+X                                                  ",
"                                                              ^ ^ z = q %.F.3X                                                  ",
"                                                            ) B z 6 6 h k.+X                                                    ",
"                                                            R m s - r +.S.2X                                                    ",
"                                                          ( U W W 0 N z.*X                                                      ",
"                                                          T b 0 - 0 ] A.<X                                                      ",
"                                                          W 4 # & z g.#X                                                        ",
"                                                        / | p 5 4 ,.N.2X                                                        ",
"                                                        K a > R ..d.C.4X                                                        ",
"                                                      P 4 y @ ^ .X{.].                                                          ",
"                                                      % o o O s m.&X                                                            ",
"                                                      u , - h Z.D.                                                              ",
"                                                    I 5 y h.x.V.$X                                                              ",
"                                                    L & +  .[.=X                                                                ",
"                                                    H @ i ..M.8XtX                                                              ",
"                                                    J o.J.P.6XsXxX                                                              ",
"                                                    . I.`.).qXdXnXdX                                                            ",
"                                                    R.Q.T.-XaXxXnXxX                                                            ",
"                                                    `.(.T.^.wXcXnXfX                                                            ",
"                                                    ^.!.Y.!.0XcXnXxX                                                            ",
"                                                      U.K.L.7XeXfXdX                                                            ",
"                                                          _ X.E.9XyX                                                            ",
"                                                                 X                                                              ",
"                                                                                                                                ",
"                                                                                                                                ",
"                                                                                                                                ",
"                                                                                                                                ",
"                                                                                                                                ",
"                                                                                                                                ",
"                                                                                                                                ",
"                                                                                                                                ",
"                                                                                                                                ",
"                                                                                                                                ",
"                                                                                                                                ",
"                                                                                                                                ",
"                                                                                                                                ",
"                                                                                                                                ",
"                                                                                                                                ",
"                                                                                                                                ",
"                                                                                                                                "
};
