/* XPM */
static char *_3aa494e19804679cab40cf793fa6636VI6HZRx1IkLiEV2b[] = {
/* columns rows colors chars-per-pixel */
"64 64 179 2 ",
"   c None",
".  c #030202",
"X  c #0A0505",
"o  c #0C0B0B",
"O  c #0B0807",
"+  c #1F0303",
"@  c #130D0D",
"#  c #1B0D0B",
"$  c #15100F",
"%  c #141313",
"&  c #1A1514",
"*  c #1D1A1A",
"=  c #240403",
"-  c #2A0505",
";  c #2B0C0A",
":  c #370806",
">  c #3B0906",
",  c #320808",
"<  c #300705",
"1  c #29130E",
"2  c #251A19",
"3  c #381A19",
"4  c #39221B",
"5  c #2A2424",
"6  c #272729",
"7  c #342524",
"8  c #372B2C",
"9  c #3C3332",
"0  c #363538",
"q  c #420C0A",
"w  c #4E110E",
"e  c #4F1110",
"r  c #4E1B13",
"t  c #541411",
"y  c #5D1916",
"u  c #5A1713",
"i  c #611B16",
"p  c #691E1A",
"a  c #6D211D",
"s  c #76261F",
"d  c #77281F",
"f  c #7A2B1F",
"g  c #432E2C",
"h  c #452121",
"j  c #5D2E2A",
"k  c #47302A",
"l  c #453232",
"z  c #523C3A",
"x  c #742621",
"c  c #7A2721",
"v  c #7B2A22",
"b  c #7E3027",
"n  c #623431",
"m  c #56413E",
"M  c #78483F",
"N  c #49484E",
"B  c #525254",
"V  c #654B4A",
"C  c #6C524C",
"Z  c #7D5048",
"A  c #6D5958",
"S  c #6F6B6C",
"D  c #7D6D6E",
"F  c #73676D",
"G  c #696873",
"H  c #776B71",
"J  c #7F7375",
"K  c #822E25",
"L  c #873327",
"P  c #8A342A",
"I  c #8E3A2C",
"U  c #823C29",
"Y  c #923C2E",
"T  c #964334",
"R  c #9B4534",
"E  c #9C4A35",
"W  c #9E4C38",
"Q  c #A14D39",
"!  c #A4533C",
"~  c #A9563E",
"^  c #A9593F",
"/  c #AD5B41",
"(  c #A05A40",
")  c #B25E42",
"_  c #A76147",
"`  c #AD6248",
"'  c #B26345",
"]  c #B66B4A",
"[  c #BA6B4B",
"{  c #BC714E",
"}  c #B5734D",
"|  c #BC7C54",
" . c #B67C5C",
".. c #866D6A",
"X. c #8E776F",
"o. c #837477",
"O. c #937372",
"+. c #A37A6D",
"@. c #C37A54",
"#. c #98827C",
"$. c #A98479",
"%. c #CA8257",
"&. c #C7825A",
"*. c #CC8459",
"=. c #CB8B5F",
"-. c #D0875A",
";. c #CA8F62",
":. c #D18E62",
">. c #D59463",
",. c #DA9A66",
"<. c #D5996B",
"1. c #DB9C6B",
"2. c #D49769",
"3. c #CDA07F",
"4. c #DFA775",
"5. c #E1A472",
"6. c #E7AC7A",
"7. c #E8AE7D",
"8. c #E8B27E",
"9. c #8D7E85",
"0. c #89878A",
"q. c #958B8C",
"w. c #938F94",
"e. c #9B959D",
"r. c #969096",
"t. c #A48D87",
"y. c #A68986",
"u. c #A2969E",
"i. c #BA9B97",
"p. c #BAA59D",
"a. c #9C97A0",
"s. c #AAA4A8",
"d. c #BBA5A1",
"f. c #BCA8A9",
"g. c #B1ADB7",
"h. c #B8B3BC",
"j. c #DEB593",
"k. c #ECB584",
"l. c #EBB787",
"z. c #F1BA8D",
"x. c #E7B890",
"c. c #ECBD93",
"v. c #F3BF95",
"b. c #CEADA0",
"n. c #D1B4A8",
"m. c #CCBBB7",
"M. c #E1BDA2",
"N. c #EEC19A",
"B. c #F3C195",
"V. c #F5C39B",
"C. c #D8C2B9",
"Z. c #F1C6A3",
"A. c #F5C9A4",
"S. c #F4D0A8",
"D. c #ECCDB1",
"F. c #EED1B8",
"G. c #BDBCC4",
"H. c #C6C3CE",
"J. c #C7C3C7",
"K. c #DFD1CD",
"L. c #C7C5D2",
"P. c #DEDADC",
"I. c #D4D1DB",
"U. c #EAD3CA",
"Y. c #EAD4C8",
"T. c #F2DACC",
"R. c #ECDFDC",
"E. c #F6E2D3",
"W. c #F7E8DD",
"Q. c #DBDAE6",
"!. c #DEDEE8",
"~. c #E9E6EC",
"^. c #F8EBE4",
"/. c #F9EEEC",
"(. c #F9F3EC",
"). c #EDEBF2",
"_. c #F4F4FA",
"`. c #FDFCFB",
"'. c #F8F4F6",
/* pixels */
"                                                                                                                                ",
"                                                                                                                                ",
"                                                                                                                                ",
"                                                                                                                                ",
"                                                                                                                                ",
"                                                                                                                                ",
"                                                                                                                                ",
"                                                                                                                                ",
"                                                                                                                                ",
"                                                                                                                                ",
"                                                                                                                                ",
"                                                                                                                                ",
"                                                                                                                                ",
"                                                                                                                                ",
"                                                                                                                                ",
"                                                                                                                                ",
"                                                                                                                                ",
"                    F.D.                                                                                                        ",
"                j.x.N.B.B.z.B.B.V.B.V.V.A.A.S.A.A.Z.V.                                                                          ",
"              3.<.<.<.<.1.5.5.8.8.6.6.8.k.8.l.l.l.z.v.v.B.B.z.l.v.Z.B.B.B.B.E.`.`.`.'.^.(.W./.`./.f.o.P.w.0.J.G.G o O .         ",
"               .] ] ;.;.{ %.&.<.:.%.>.>.>.>.>.8.5.2.1.1.,.,.,.,.1.5.l.8.5.c.'.`.`.`.^.E.^.T.'.'.R.d.D S 0 5 6 B N 8 6           ",
"              _ ! ! &.} ^ / ' ` ' ] | @.{ [ @.<.&.&.;.@.*.@.*.*.-.%.1.:.-.M._._._.).U.U.Y.Y.)./.U.t.9 . . o . . o % &           ",
"              E R R E E E ! ! E Q ! ~ ~ / / ) ' ' [ [ ] [ @.[ [ [ [ ' ' ' b.!.!.Q.I.n.C.n.m.~.P.m.A 2 * o . . . . o &           ",
"              T Y Y P I U T ^ I Y T T T R W ~ ^ Q ! / / ~ ' ! Q / Q R Q R i.L.H.H.h.+.d.$.p.H.J.d.m * * o . . . . . o           ",
"              b c c x s s c U f s d v K v L L U Y Y I P P P P L P L P L P t.G.g.g.u.Z 9.T q.s.s.t.g 2 . . . @                   ",
"              i t e e u t t w w w w w w t y t t u y i i i y i p p p p a x O.a.e.a.9.j ..j ..r.q.X.4 O X . . 9                   ",
"              r , + + = - , - = = = = = - , = = = ; = = - - < : : > > q q V F F H A 3 V h C J D C 1 O $ . . %                   ",
"                                                                        = 3 8 l l 9 # 7 & 7 z z g 1 . . O . @                   ",
"                                                                                          @ 1 1 # X . . . O .                   ",
"                                                                                                                                ",
"                                                                                                                                ",
"                                                                                                                                ",
"                                                                                                                                ",
"                                                                                                                                ",
"                                                                                                                                ",
"                                                                                                                                ",
"                                                                                                                                ",
"                                                                                                                                ",
"                                                                                                                                ",
"                                                                                                                                ",
"                                                                                                                                ",
"                                                                                                                                ",
"                                                                                                                                ",
"                                                                                                                                ",
"                                                                                                                                ",
"                                                                                                                                ",
"                                                                                                                                ",
"                                                                                                                                ",
"                                                                                                                                ",
"                                                                                                                                ",
"                                                                                                                                ",
"                                                                                                                                ",
"                                                                                                                                ",
"                                                                                                                                ",
"                                                                                                                                ",
"                                                                                                                                ",
"                                                                                                                                ",
"                                                                                                                                ",
"                                                                                                                                ",
"                                                                                                                                ",
"                                                                                                                                ",
"                                                                                                                                ",
"                                                                                                                                ",
"                                                                                                                                "
};
