/* XPM */
static char *dc899162fa2d4874b359a15cca6378ca7FmCjxOD1uXJ4WJb[] = {
/* columns rows colors chars-per-pixel */
"64 64 171 2 ",
"   c None",
".  c #141516",
"X  c #141618",
"o  c #16191A",
"O  c #1A1C1D",
"+  c #201611",
"@  c #251A15",
"#  c #281D17",
"$  c #271D19",
"%  c #2A1F19",
"&  c #2D211B",
"*  c #32251E",
"=  c #38261F",
"-  c #1B1E21",
";  c #1E2125",
":  c #1C242A",
">  c #1B2A32",
",  c #212326",
"<  c #22262A",
"1  c #26292C",
"2  c #2A2C2C",
"3  c #362720",
"4  c #352923",
"5  c #3B2B24",
"6  c #342D2A",
"7  c #3D2F28",
"8  c #3E3029",
"9  c #2A2E32",
"0  c #2E3235",
"q  c #323335",
"w  c #32363A",
"e  c #35393C",
"r  c #3F3632",
"t  c #44362F",
"y  c #4D362C",
"u  c #50382E",
"i  c #423532",
"p  c #463933",
"a  c #4A3A32",
"s  c #523E35",
"d  c #4D403D",
"f  c #5B4237",
"g  c #54423B",
"h  c #5D483D",
"j  c #63473A",
"k  c #734C3D",
"l  c #142D42",
"z  c #183347",
"x  c #16354A",
"c  c #1B364B",
"v  c #1B394D",
"b  c #153145",
"n  c #1B3D53",
"m  c #213F54",
"M  c #1E4057",
"N  c #1E425A",
"B  c #224157",
"V  c #22445B",
"C  c #29475D",
"Z  c #2A485F",
"A  c #384957",
"S  c #354C5E",
"D  c #234761",
"F  c #244A63",
"G  c #2A4D66",
"H  c #244E6A",
"J  c #2A4F68",
"K  c #27526E",
"L  c #2C526C",
"P  c #39556C",
"I  c #265472",
"U  c #2A5572",
"Y  c #275877",
"T  c #2D5977",
"R  c #275878",
"E  c #2D5D7C",
"W  c #345770",
"Q  c #315974",
"!  c #325D7A",
"~  c #2E607F",
"^  c #34607E",
"/  c #38617E",
"(  c #5F4B46",
")  c #44505B",
"_  c #6C4E40",
"`  c #664E43",
"'  c #784F43",
"]  c #6B5348",
"[  c #745144",
"{  c #7B5847",
"}  c #72574B",
"|  c #77584A",
" . c #7D5A4E",
".. c #795F53",
"X. c #595A60",
"o. c #505C68",
"O. c #5E636A",
"+. c #6D696B",
"@. c #67666C",
"#. c #915D50",
"$. c #8C6455",
"%. c #8E6854",
"&. c #986658",
"*. c #966E5D",
"=. c #9A6C5B",
"-. c #A26B5C",
";. c #A0715F",
":. c #9A7667",
">. c #AE6F66",
",. c #A97562",
"<. c #AB7964",
"1. c #A87967",
"2. c #B27D65",
"3. c #B17E6C",
"4. c #AE816D",
"5. c #BE886F",
"6. c #B6836F",
"7. c #A98174",
"8. c #B38571",
"9. c #BA8371",
"0. c #BA8874",
"q. c #B68C79",
"w. c #BF8E79",
"e. c #BD907D",
"r. c #C38D74",
"t. c #C08C7D",
"y. c #CA9174",
"u. c #C5927B",
"i. c #CA957C",
"p. c #CF987C",
"a. c #2E6383",
"s. c #336483",
"d. c #396683",
"f. c #3D6885",
"g. c #34698A",
"h. c #3C6B8A",
"j. c #3D708F",
"k. c #3C7090",
"l. c #426E8C",
"z. c #45718E",
"x. c #49728F",
"c. c #5C758B",
"v. c #457392",
"b. c #4A7694",
"n. c #4B7897",
"m. c #4D7A98",
"M. c #527F9D",
"N. c #647485",
"B. c #6A7787",
"V. c #677688",
"C. c #787C87",
"Z. c #747D8B",
"A. c #52809F",
"S. c #6C8094",
"D. c #5684A3",
"F. c #5987A6",
"G. c #5A88A7",
"H. c #5B89A8",
"J. c #CD9983",
"K. c #CB9D8A",
"L. c #D39E85",
"P. c #D7A186",
"I. c #D6A28A",
"U. c #DAA58C",
"Y. c #DEA98F",
"T. c #DDA991",
"R. c #DBAB98",
"E. c #E1AE95",
"W. c #EAB79F",
"Q. c #E7B49B",
"!. c #EBB9A2",
/* pixels */
"                                                                                                                                ",
"                                                                                                                                ",
"                                                        5 & # $ &                                                               ",
"                                                      t 3 & + $ $ * 4                                                           ",
"                                                    a 5 & 3 3 5 * & *                                                           ",
"                                                    5 & 3 *.K.K.8.f * *                                                         ",
"                                                  p 5 j %.8.q.R.q.[ * &                                                         ",
"                                                  t & j 8.3.:.q.:. .3 & 4                                                       ",
"                                                  7 % % _ J.J.0.J.$.% & 4                                                       ",
"                                                  7 % @ = =.9.,.4.s % & 3                                                       ",
"                                                  8 $ @ @ ' ,.4.[ + % % &                                                       ",
"                                                  4 $ $ y -.e.u.{ @ # % 4                                                       ",
"                                                    g ..1.i.U.I.r.%.h p                                                         ",
"                                                J.I.T.T.U.Y.T.I.U.L.p.y.y.                                                      ",
"                                              J.E.!.W.Q.E.Y.U.Y.E.E.E.U.U.p.                                                    ",
"                                            } 4.I.T.T.Y.P.p.i.u.u.u.u.1.*.|                                                     ",
"                                            O 2 p g ` ] } ..] g a p i 2 O .                                                     ",
"                                            , , O O ; ; ; ; ; ; , , 1 2 2 O                                                     ",
"                                          q 1 , o o ; 1 9 9 0 w w w e e q O                                                     ",
"                                          e 1 O .   . O , 1 1 2 2 2 1 < , O                                                     ",
"                                          w 1 O     . . O O O O ; O O o . O                                                     ",
"                                          q , .     . . . X o o X o O X o O                                                     ",
"                                          0 ; .       k g y t t a g f y o O                                                     ",
"                                          2 O         4.5.r.i.i.y.5.2.k . O                                                     ",
"                                          0 O       S ) O.@.@.@.+.X.o.A ; o ,                                                   ",
"                                          0 O       L T ^ Y Y I Q H T E M X ;                                                   ",
"                                          0 O     d.f.z.j.j.g.a.~ Y ^ s.^ > - ,                                                 ",
"                                        e 1 O     h.j.b.k.k.k.a.E L d.j.^ V O ,                                                 ",
"                                        w 1 O     s.s.j.g.j.g.a.T K s.g.d.K : O                                                 ",
"                                        q , O   T E g.g.g.g.a.R I H ~ s.~ K v O ;                                               ",
"                                        1 , o   L E g.g.g.g.~ I K K ~ ^ ~ L M 6 p                                               ",
"                                        , -     Z E g.a.a.a.K D N D K ~ ^ Y M   8.e.                                            ",
"                                        6 p s   V I s.s.a.a.I n x D U ^ ^ L N   3.0.                                            ",
"                                        0.i.u.  n L d.h.s.! U n n E l.z.d.H n   &.,.                                            ",
"                                        U.I.r.  n T l.n.v.d.J z B z.M.m.f.F x   #.,.                                            ",
"                                        9.u.    m U v.D.M.l.J z C b.M.b.s.N     -.                                              ",
"                                          2.    V W b.F.D.l.G l C x.m.v.Q n                                                     ",
"                                            <.    L b.G.D.l.G l C z.b.f.U v                                                     ",
"                                                  G v.F.D.l.F l C z.b.d.H x                                                     ",
"                                                  D l.M.M.l.D l G z.v.s.V                                                       ",
"                                                  V / b.b.d.N l G z.x.! M                                                       ",
"                                                  V Q z.v.! n l L z.l.L n                                                       ",
"                                                  n W h.h.T n l L f.d.H x                                                       ",
"                                                  n J d.s.L v l W l.^ H                                                         ",
"                                                    J ! s.K n z W f./ C                                                         ",
"                                                    J ! d.J m c Q / E N                                                         ",
"                                                    D ! d.J m v ! / L v                                                         ",
"                                                    D s.d.J v m ! ^ L                                                           ",
"                                                    F s.d.G c m ! ! F                                                           ",
"                                                    F d.l.G m m s.! M                                                           ",
"                                                    J s.s.D c m Q L n                                                           ",
"                                                    G J J J P W Q W                                                             ",
"                                                    c.V.V.V.N.C.Z.S.                                                            ",
"                                                      ` ( s 0 r i                                                               ",
"                                                      - X X > - X                                                               ",
"                                                      , - - - - o                                                               ",
"                                                      ; < - ; < -                                                               ",
"                                                      ; < - ; , - X                                                             ",
"                                                    9 ; ; - - - : -                                                             ",
"                                                    9 < - 9 O O : ; ,                                                           ",
"                                                      , - 1 1 O - , 9 ;                                                         ",
"                                                        - 1 c & - 1 1 :                                                         ",
"                                                        , : , , -   1 :                                                         ",
"                                                            :                                                                   "
};
