/* XPM */
static char *d5b2727a74844235a9353dcecac636e4nkuyk7nkpRF2LqMe[] = {
/* columns rows colors chars-per-pixel */
"64 64 213 2 ",
"   c None",
".  c #15151C",
"X  c #19161D",
"o  c #1B191E",
"O  c #121116",
"+  c #231E1E",
"@  c #25211F",
"#  c #171924",
"$  c #1D1C23",
"%  c #1D1E29",
"&  c #141825",
"*  c #191D30",
"=  c #211E24",
"-  c #201E29",
";  c #1F2027",
":  c #1F212A",
">  c #1B2339",
",  c #212126",
"<  c #2A2424",
"1  c #23232B",
"2  c #29262C",
"3  c #2B292B",
"4  c #2A2829",
"5  c #332B2C",
"6  c #392826",
"7  c #252531",
"8  c #282732",
"9  c #272934",
"0  c #2B2B33",
"q  c #2E2E3A",
"w  c #262938",
"e  c #322E33",
"r  c #312F39",
"t  c #2E313C",
"y  c #353234",
"u  c #3C3734",
"i  c #33323C",
"p  c #3A363D",
"a  c #3D3B3B",
"s  c #3E3936",
"d  c #35302E",
"f  c #443230",
"g  c #4C3532",
"h  c #433D3A",
"j  c #483B36",
"k  c #5D3F35",
"l  c #4C2F28",
"z  c #623E35",
"x  c #44413E",
"c  c #4D463E",
"v  c #5C463F",
"b  c #674539",
"n  c #75483B",
"m  c #2F3243",
"M  c #333442",
"N  c #393641",
"B  c #3D3B44",
"V  c #3D3D4A",
"C  c #353A4C",
"Z  c #423F46",
"A  c #3F4049",
"S  c #3E4356",
"D  c #4E4943",
"F  c #44434C",
"G  c #4C464D",
"H  c #4C4A4C",
"J  c #444545",
"K  c #514A44",
"L  c #524C4B",
"P  c #584A48",
"I  c #58514A",
"U  c #434553",
"Y  c #4A4651",
"T  c #464953",
"R  c #4B4B54",
"E  c #464A5A",
"W  c #4B4C5A",
"Q  c #524C54",
"!  c #555253",
"~  c #54535A",
"^  c #5A545B",
"/  c #5C585E",
"(  c #5A5656",
")  c #4E535A",
"_  c #694D43",
"`  c #704F42",
"'  c #7B594B",
"]  c #635A57",
"[  c #735653",
"{  c #765A53",
"}  c #685A4D",
"|  c #6D665F",
" . c #4B4E61",
".. c #4C546B",
"X. c #4D5162",
"o. c #555562",
"O. c #5A5760",
"+. c #5B5A63",
"@. c #5D5E6B",
"#. c #535767",
"$. c #585F70",
"%. c #625F68",
"&. c #5E626E",
"*. c #5E6171",
"=. c #64636B",
"-. c #6A666D",
";. c #656369",
":. c #746866",
">. c #626472",
",. c #6B6A73",
"<. c #6B6E7A",
"1. c #666976",
"2. c #6F727E",
"3. c #74747C",
"4. c #7F7A7E",
"5. c #804F3E",
"6. c #8A5645",
"7. c #865746",
"8. c #93594C",
"9. c #885B51",
"0. c #995E54",
"q. c #8E614F",
"w. c #87655E",
"e. c #9B6355",
"r. c #936B5C",
"t. c #986657",
"y. c #9B705B",
"u. c #A5735C",
"i. c #AA665D",
"p. c #856762",
"a. c #936F61",
"s. c #947467",
"d. c #A66D61",
"f. c #A96B63",
"g. c #A87769",
"h. c #B67A69",
"j. c #B77B71",
"k. c #A97E70",
"l. c #8F867C",
"z. c #A78578",
"x. c #BB8D7C",
"c. c #B88577",
"v. c #CB8C72",
"b. c #C48A7C",
"n. c #C68979",
"m. c #CC927A",
"M. c #DB9A7D",
"N. c #6D6F81",
"B. c #6C7285",
"V. c #6C7589",
"C. c #727483",
"Z. c #7A7A84",
"A. c #7C7D8B",
"S. c #757B8A",
"D. c #817F87",
"F. c #7E808E",
"G. c #7D8598",
"H. c #81828C",
"J. c #8B898E",
"K. c #88858C",
"L. c #818392",
"P. c #8B8A94",
"I. c #8B8C9A",
"U. c #858897",
"Y. c #908B91",
"T. c #8F919E",
"R. c #93939A",
"E. c #98999D",
"W. c #B79487",
"Q. c #BD9E93",
"!. c #A98E86",
"~. c #8F94A1",
"^. c #9496A3",
"/. c #9B9BA4",
"(. c #959BAA",
"). c #9B9EAA",
"_. c #969AA3",
"`. c #858EA7",
"'. c #A29EA3",
"]. c #9DA0AC",
"[. c #9FA6B4",
"{. c #A8A6AE",
"}. c #AEADB3",
"|. c #A5AAB6",
" X c #B0AFB8",
".X c #BAB7BB",
"XX c #C38981",
"oX c #CA8C80",
"OX c #C69384",
"+X c #C79A8A",
"@X c #D79C86",
"#X c #D99E92",
"$X c #D68E85",
"%X c #CFA089",
"&X c #DCA188",
"*X c #C9A799",
"=X c #D6A391",
"-X c #DAA395",
";X c #DCA69A",
":X c #D9AA99",
">X c #D2B19E",
",X c #E4A88B",
"<X c #E3AC96",
"1X c #E9B59C",
"2X c #DEB2A6",
"3X c #E2B9A4",
"4X c #EBBBA3",
"5X c #E5B3A7",
"6X c #E3ACA0",
"7X c #EDC1A9",
"8X c #E8C4B5",
"9X c #BCBAC0",
"0X c #C2BEC5",
/* pixels */
"                                                                                                                                ",
"                                                                                                                                ",
"                                                                                                                                ",
"                                                                                                                                ",
"                                                                                                                                ",
"                                                                                                                                ",
"                                                                    v ` r.g.k.                                                  ",
"                                                                  b r.c.x.b.W.z.s.                                              ",
"                                                                P a.k.m.#X#X#X2X+X                                              ",
"                                                              n q.y.u.c.#X<X6X5X;Xz.                                            ",
"                                                              b 5.y.h.x.#X-X<X<X:XW.                                            ",
"                                                              n q.e.t.t.j.#X;X#X=XW.                                            ",
"                                                              6.8.u.9.8.6.j.i.h.OXz.                                            ",
"                                                              6.q.h.XXXXh.b.h.D.OX                                              ",
"                                                              n 5.u.oXn.XX;X#X;X;X                                              ",
"                                                            8 z 5.e.j.e.j.$X$X#X                                                ",
"                                            0X).U.`.S.$.U > & 6 z 8.0.0.i.n.n.oX                                                ",
"                                          0X.XR.U.B.B.C.U * & = l ` 0.0.i.h.j.!. X                                              ",
"                                        `.9X'.Y.%.V E Z 7 * & = l l 6.f.j.f.[ ,.]./.}.                                          ",
"                                        (.].>X-.Z Z 8 & % % % $ k z z ` 0.g M E F.H.R. X                                        ",
"                                      U.U.}.K.G N i Z - $ 1 % $ g b n 9.' < C U E V Z.).                                        ",
"                                      {.~.{./ Q r r B 8 & # # & 6 b 7.t.u r Y W E V M F. X                                      ",
"                                    T.^.{.%.Q F 8 m q B $ & & & $ ` d._ 0 i r m M i 0 A F.                                      ",
"                                    ^.{.Y.F F B 7 r - Z r % 7 8 - L !.y 1 T q % 1 9 1 9 @./.                                    ",
"                                  V.).}.^ Q Q M % w - r Y 8 7 8 N B ( B Q s.#.w 1 : 1 7 q 1.                                    ",
"                                  N.}.=.Z O.%.Z # 7 7 - Z N - - e i B p Z G N 7 $ # : 7 q +.                                    ",
"                                ,.P.H.q m ~ -.Z # - - % r W 8 1 1 0 9 i Z F t 1 # $ ; 1 7 N F.                                  ",
"                              .X,.A.Z V B ~ ^ 8 # * % % 7 Y Z - 1 9 0 F Q V 1 $ . X 1 % ; 7 M B.                                ",
"                            }.E.R.V & 7 i r 8 % # - % % % m W 8 8 0 7 G F 7 - $ O . $ $ # $ % S C.                              ",
"                          <.R.R.R.V i 1 7 q 8 % $ # - - - - Z r 0 0 1 1 7 % %     X . X # $ q >.A.                              ",
"                          >.@.^.%.8 i V w 8 7 % $ $ * - - # N N q 0 1 0 1 1 =       $ . # 7 w S (.F.                            ",
"                          X.U.{.K.o.R U W r % # * $ - - - - 8 N i i i 8 2 1         o 1 C ..S.(.~.(.                            ",
"                          E B.R.P.E./.I.%.R M 7 % * # - % - - e B i 0 0 1 =         R W F.|.|.).|.^.                            ",
"                          w =.H.P.I.H./.R.Z.U.Z.o.Z Z N - = % 8 i 0 e 0 %         ] Q #.2.(.|.|.I.o.                            ",
"                            S 1.N.X.%.C.3.3.K.U.I./.,.%.F 1 $ - 3 2 1 1 0       Q.*XW.;.o.Z./.A.V w                             ",
"                            ......S m U %.Z.A.L.^.-.O.%.:.:.2 $ % , - % r     :X3X8X8XQ.^ %.o.$ : V X.                          ",
"                        B...$.1.<.1.#.V 7 W C.S.-.Q Z :.>X3Xz.j X = $ 1 5 p.oXm.=X3X8X*XP p 1 1 N T +.&.                        ",
"                        V...&.=.;.,.2.-.7 . 7 T Y N Z *X7X7X7X>X[ 2 8 r p.XXm.v.v.M.1Xp.5 % 1 3 q B ~ =.,.                      ",
"                      ).<.o.;.;.^ / ;.,.9 # 7 7 7 7 _ #X1X1X1X4X<XZ 1 e 9.b.v.m.v.m.x.6 # = 1 1 4 p R +.;.                      ",
"                      Z.) J ! ~ ~ ( R F 9 # : r q 8 Z k.1X,X,X,X1Xp.1 - = g 7.u.h.m.[ X $ 1 = < , 1 p J !                       ",
"                      F.F 3 i J F F H 0 t : : t t q N [ +X,XM.M.,X+Xj + # X + < f g < X X ; 1 1 , = 1 y                         ",
"                        F $ : 1 9 9 0 t ; ; : 9 1 1 0 h g.1X@XM.v.c.[ $ $ o # o X X # $ o , , , $ = 1 3                         ",
"                        R : ; ; ; 1 3 0 ; ; : 1 , = 1 , v a.r.' g < = = $ $ $ $ X X X = $ , , $ , = 1                           ",
"                        =.3 ; ; , , : , ; ; ; , 1 , $ , = = 2 1 = = = + $ $ + o X o $ $ = = , = % <                             ",
"                          a 1 , ; 4 4 ; , : 4 ; , 1 ; ; , ; 1 , = = $ = $ $ o X = = = = = = = , <                               ",
"                          Q 4 , ; ; ; ; , 4 : ; , ; ; , = ; < 1 = = = $ o o X o $ = = = o = =                                   ",
"                            y ; ; ; ; ; ; 4 ; ; 1 1 , 1 1 , , , = = -     X o o + o o o = +                                     ",
"                              d ; ; ; ; ; 1 4     < 4                   X X X X X X $ =                                         ",
"                                , o o X $ $ X                       X X X o $ + = o =                                           ",
"                                  , o $ ; ; %                       o $ o X X o o o                                             ",
"                                  F ; o o , , 4                   J , 1 3 0 $ . o                                               ",
"                                  J , . , 3 y H                 ! :.D y y y y e                                                 ",
"                                  : O , J D ( ]                 p H L d 3 x y h                                                 ",
"                                t ; 4 H ( x x P                 0 4 , 4 u K s a                                                 ",
"                              W t 0 x L x x c K                 4 4 4 4 5 a u L K                                               ",
"                          T ) R A J H h x K I I                 @ @ @ @ < 3 5 ! ] |                                             ",
"                          J ( L x x h s c I }                     @ @ o @ < < y s h D | l.                                      ",
"                          s D D x x s                                       @ @ 3 d D :.l.                                      ",
"                                                                                                                                ",
"                                                                                                                                ",
"                                                                                                                                ",
"                                                                                                                                ",
"                                                                                                                                ",
"                                                                                                                                "
};
