/* XPM */
static char *_6d4d03b37244d909c9c8faf3f7a3b66aPHr3uPaX5Yvqgfy[] = {
/* columns rows colors chars-per-pixel */
"64 64 246 2 ",
"   c None",
".  c #020102",
"X  c #0B0201",
"o  c #01040C",
"O  c #0A050A",
"+  c #070C0B",
"@  c #160100",
"#  c #1A0100",
"$  c #140A07",
"%  c #000212",
"&  c #000B14",
"*  c #000C1C",
"=  c #030518",
"-  c #171717",
";  c #08110E",
":  c #390C00",
">  c #291705",
",  c #381600",
"<  c #251D17",
"1  c #230600",
"2  c #392719",
"3  c #30281A",
"4  c #000D24",
"5  c #000527",
"6  c #011323",
"7  c #00142C",
"8  c #001A2B",
"9  c #0C1925",
"0  c #001B36",
"q  c #0A122F",
"w  c #03263A",
"e  c #143036",
"r  c #342B25",
"t  c #2D2E36",
"y  c #2F3332",
"u  c #152023",
"i  c #4A1B00",
"p  c #48311A",
"a  c #543619",
"s  c #492809",
"d  c #653815",
"f  c #483626",
"g  c #543B24",
"h  c #453E38",
"j  c #513E30",
"k  c #5E4225",
"l  c #5B503A",
"z  c #785B3C",
"x  c #714B2E",
"c  c #001E45",
"v  c #022945",
"b  c #0B3B4C",
"n  c #073649",
"m  c #143B4C",
"M  c #183A46",
"N  c #002752",
"B  c #023C55",
"V  c #0C3C53",
"C  c #013D5C",
"Z  c #05395A",
"A  c #173D55",
"S  c #233A44",
"D  c #353C48",
"F  c #013D62",
"G  c #033B66",
"H  c #002D60",
"J  c #403E41",
"K  c #19424D",
"L  c #024255",
"P  c #02425C",
"I  c #0C415B",
"U  c #0B4355",
"Y  c #154358",
"T  c #24404E",
"R  c #364248",
"E  c #25475A",
"W  c #35505A",
"Q  c #024363",
"!  c #0B4463",
"~  c #034369",
"^  c #024A6C",
"/  c #084968",
"(  c #164A66",
")  c #0B546D",
"_  c #1A5469",
"`  c #014C74",
"'  c #014C7A",
"]  c #084C77",
"[  c #114B74",
"{  c #00527C",
"}  c #0A5577",
"|  c #135C75",
" . c #1B5A73",
".. c #165A7A",
"X. c #284D65",
"o. c #2C5A6C",
"O. c #275869",
"+. c #345A6D",
"@. c #285C76",
"#. c #385E74",
"$. c #1B647C",
"%. c #0E627E",
"&. c #39616C",
"*. c #26627C",
"=. c #2B627B",
"-. c #2C677A",
";. c #356477",
":. c #28606F",
">. c #4D4E4C",
",. c #795E43",
"<. c #785C45",
"1. c #6C5D4B",
"2. c #5B675A",
"3. c #76624D",
"4. c #7D634B",
"5. c #796243",
"6. c #6B6559",
"7. c #756855",
"8. c #6C624E",
"9. c #435A6C",
"0. c #476979",
"q. c #5C6E6B",
"w. c #666767",
"e. c #766C63",
"r. c #845635",
"t. c #82654A",
"y. c #976945",
"u. c #A37047",
"i. c #8F7A6E",
"p. c #805E43",
"a. c #B6865C",
"s. c #988574",
"d. c #91907E",
"f. c #A8846A",
"g. c #B58868",
"h. c #A88975",
"j. c #AB9276",
"k. c #C48D67",
"l. c #C49570",
"z. c #CFA47C",
"x. c #D7A06F",
"c. c #015382",
"v. c #075986",
"b. c #185C85",
"n. c #015287",
"m. c #225E81",
"M. c #09668A",
"N. c #156586",
"B. c #13658B",
"V. c #1B658B",
"C. c #1C6A8C",
"Z. c #186789",
"A. c #036694",
"S. c #0B6592",
"D. c #036B95",
"F. c #0C6C95",
"G. c #026B9C",
"H. c #0B6C9C",
"J. c #09669B",
"K. c #126493",
"L. c #136B93",
"P. c #126C9A",
"I. c #196A97",
"U. c #02719B",
"Y. c #067298",
"T. c #13719A",
"R. c #246384",
"E. c #276788",
"W. c #326785",
"Q. c #246A91",
"!. c #2E7693",
"~. c #026CA3",
"^. c #0C6DA2",
"/. c #046AA5",
"(. c #0471A2",
"). c #0B72A2",
"_. c #0372AA",
"`. c #1171A3",
"'. c #2572A0",
"]. c #4E7388",
"[. c #3F8293",
"{. c #57889B",
"}. c #638694",
"|. c #5095B3",
" X c #6B9BB2",
".X c #55A4C7",
"XX c #6EB6D6",
"oX c #76C6EB",
"OX c #958D86",
"+X c #98999A",
"@X c #859990",
"#X c #AD9A8D",
"$X c #B5B4AE",
"%X c #BAB7AE",
"&X c #AEB6B4",
"*X c #B4B5B4",
"=X c #BAB3B4",
"-X c #B5B8B4",
";X c #BABAB4",
":X c #B5B5BA",
">X c #BBB6BB",
",X c #B5BBB9",
"<X c #BABBBB",
"1X c #AFB0AD",
"2X c #97A4AC",
"3X c #DCBC9B",
"4X c #CEAA8B",
"5X c #E9B78B",
"6X c #F4B98A",
"7X c #EBBB94",
"8X c #E4BB9B",
"9X c #E6BA97",
"0X c #F3BB92",
"qX c #F2BF99",
"wX c #DABBA5",
"eX c #C9BAB0",
"rX c #E2BDA8",
"tX c #CB9F86",
"yX c #B9C0BA",
"uX c #EAC197",
"iX c #F5C197",
"pX c #D7C4AB",
"aX c #CDC6B7",
"sX c #E5C5AB",
"dX c #D9C098",
"fX c #8AB7CC",
"gX c #BBBCC2",
"hX c #AFC7CE",
"jX c #96D1EB",
"kX c #95EAFF",
"lX c #AAE4FC",
"zX c #B7E4F7",
"xX c #B9FBFF",
"cX c #A3DBF6",
"vX c #D2CDD0",
"bX c #C4DAE8",
"nX c #C5FDFF",
"mX c #CCFFFF",
"MX c #C1F3FF",
"NX c #D2FFFF",
"BX c #DBFFFF",
"VX c #C4EEFF",
"CX c #E4FEFF",
"ZX c #EBFFFF",
"AX c #F0EEEE",
"SX c #E1D8DB",
/* pixels */
"                                                        s.p a s z 4.@                                                           ",
"                                                      r j g a a a g <.f                                                         ",
"                                                    f g s a a k k k <.4.f                                                       ",
"                                                  p g f 4.4.k g g k ,.t.t.l                                                     ",
"                                                r f f > # @ @ @ # 1 1 # g j $                                                   ",
"                                              2.f # # <.h.h.h.f.f.i.g.f.x @ h                                                   ",
"                                                X f f.8X8XqX9X6X6X6X5XqX8Xh.@                                                   ",
"                                                > j.f.r.i 5X6XiX6X6X0X9X8Xh.                                                    ",
"                                                  #Xu.i.g.x 5X0X0Xd j.f.4Xk r                                                   ",
"                                                , i.l.i r.uXa.z.9X, 1 i.9X, i.                                                  ",
"                                                < i u.x.k.d l.0XqXu.k.k.5Xy.3X                                                  ",
"                                                  x k.k.iXx.u.0X5XqX0X0X0X9X>                                                   ",
"                                                  eXi.k.5X6Xu.4Xg.: 5XqXwX#XZX                                                  ",
"                                                  gXp a.7X0X5X5X3X3XqX8XaXD q bX                                                ",
"                                                X.T y s.8X9Xs i d qX0XrX% A [ #.9 bX                                            ",
"                                            % &.V ( S i.1 9XrXl.r.i 9XsXE [ ~ [ CXhXE S                                         ",
"                                        5 V   4 ) ( R wX8X0X9X, g.tXrX$ E ( V VXmX@.E ZX].v                                     ",
"                                      H   +.v  XC.-.- sX5X6Xl.uXg.rX$ D A 4 4 Z Z.Z.jXfX+.xX{                                   ",
"                                    H kX;.nXZ.Z.L.-.eXg.k.5X7Xs , f ; 0 7 / Z.M.F.F.M.Q.NX+.xX                                  ",
"                                  = kX@.mXZ.A.F.$.8 uXiXg.9XuXdXj.OXS 6 C.I.G.(.U.U.U.F.$.zX;.].                                ",
"                                5 jX+.xXP.A.T.$.W pXdXiXg.tXs.s.d.y B N.D.D.~.(.D.G.(.(.b.lX$.fX!.                              ",
"                                Y o.I ] F.H.B.w aXpXuXa.j.e.- 9 +X5 Z.F.G.(._.~.U.U.(.G.P.E.nX-.NX                              ",
"                              w MX-.xXV.C.N. .M yXpXdXs.@X;.R.@.0 W.L.H./.G././.G.A.A.).J.I.cX_ {.&.                            ",
"                            % NX-.nXQ.V.R.7 xXA t l OX; :.N.P.L.!.b.P.~._._.~.(.G.).{ S.^.P.N.NX-.NX6                           ",
"                            K +.XXR.Q.H nX-.BX7 E K A ( K.G.(.D.oXI.H./.~.(.(.~.~.H.{ v.).G.C.nX$.jX9.                          ",
"                          5 NX_ / R.N !.-.mXR.R.] N [ ' ).~.~.).|.Z.D.U.G.H.D.G.G.H.v ' G.^.Z.^ $.W.}.                          ",
"                        o {.+.mXR.| @.=.{.^ L.^.^.H.I.~ D.(.G.A.oXM.U.Y.F.L.F.F.T.{ v.` A./.S.M.xX:.BXv                         ",
"                        0 VX&.{.( v zX-.) M.A./.G.G.S.{ Y.(.U.H.XXL.Y.Y.M.xXM.F.F.v.C N n.K.D.M.xX*.zX9.                        ",
"                      .   w BX7 4 0.=.L L.F.^./.H.B.B { D.D.A.H.oXB.Y.Y.} lX.XS.Y.F.^ N [ ] `.H..X$.Y 9.                        ",
"                      . & 4 A +.CXX. .L.M.T.J./.B.Q { F.Y.U.).H.'.L.U.D.Z.Z.L.F.D.A.L.] 0 [ B.S.Q.|.-.E                         ",
"                      % zXE X.CXX.nXL.A.U.G./.`.B.` c.^.U.G.~.^.G I.Y.(.D.D.Y.A.~.^.S.^ ( c F [ ..NX-.;.0.                      ",
"                      % +.BX#.X.nXC.G.~.(.D.^.J.{ ` n.n./.~.~.G.K.I.A.U.U.U.U.(./.A.c.] 7 N c m.E.( =.BXW                       ",
"                        #.;.NX} C.A.(.~./.J.I.N ' ' ' n.v.G._.~.S.I.J.G.H.A.{ c.n.n.' b.] ^ ' b.m.cX=.jX#.                      ",
"                      7 NXmXV.C.D.(.(.~.^.S.I.n.n.K.I.K.H.G.G.G.~ B.J.`.] L.F.P.K.v.v.' S.H.K.Q.E.lX+. X;.                      ",
"                      . -.N.Z.D.U._.D.D.K.I.N ' ' ' c.K.S.P.H.L..X| b.' ` } N.B.c c.J.H.^.S.I.E.mX=._ ].@.                      ",
"                        * C.M.T.D.A.L.N.V.N ^ } ] ' c.N G ' ^ ] .XQ ~ K.E.*.B E.R.Z.S.F.P.I.XX!.*.BXE.Q I                       ",
"                        b L C v.B 0 4 * 4 6 L / / b.B.I.K.K.} F L.M.Z.:.M 9 W ].:.-.E.E.!.NX-.mX_ *.c Q @.7                     ",
"                      . L L Q Q Z A m m b U B L w } ] v.N.Q.m.G R.W._ yXaXwXO D 0.MXNX|.@.I NX-.n P / ^ Z G                     ",
"                      = L P G ~ F G Z I C P Q P P P 0 / [ / ( w D =XpXdXuX3XeX- q.0.zXVXmXo.:.8 B P C ~ F Z                     ",
"                      6 L P Q G ~ G ~ ! $.Q Q Q Q P P P B 6 6 & #X9XiXiXx.7XpXy R 9.@.m.@.7 U L L P F G Q F                     ",
"                      * Y L C Q Q C Q Q ) ..Q C F Q Q C I P I M pX5X7X0X7X8Xi.- D M V Q Q P B L L L G G ..7                     ",
"                      = U L P ! L P Q P C ..V G ~ Q F F Q C C K pXuXa.z.rX> h w.w.t T V b P Q P P Q G /  .Q                     ",
"                        6 m b B P P Q P L C 7 Z F Q F ! B P P b OXh.f.j.pXr 3 6.f 8.6.; e Y F C P C / / C                       ",
"                          M U P L P P Q P B @.I Q Q F Q ! B ! U y . 3 e.<X- 3 l > 4.4.8.q.K Z ~ Q C C @.%                       ",
"                          o U B ! ^ C Q ! F ..7 L Q Q C P Q C L b S 6 S * t $ 5.t.,.5.l 2.K L P Q Q P _                         ",
"                            Y B Z Q Q Q ~ Q } $.! B L L n V ! C U b m m b A $ 5.4.t.5.7.2.e Y L C Q $.w                         ",
"                            v K C P C Q ~ ~ %. .0 & M M A A V V U V Y A V e < 5.3.3.3.> q.M L L ^ L  .{                         ",
"                              6 b I P Q ~ Q Q  .M CXCXZX9.* 7 w w v e w 7 1Xf 5.5.2 3.$ >.K U L C  ._                           ",
"                                v V L Q F Q Q @.X.                          4.r.5.> 5.2 u m P P L  .v                           ",
"                                v m L P Q F P P O.}.                        z t.5.s 5.1.+ M P Q  .O.                            ",
"                                  8 U L Q Q L P ( 6                         7.,.5.t.z 8.9 U P C :.v                             ",
"                                  v U P C ^ P | | :.                        eX1.7.7.3.6.M L ~ ..Y                               ",
"                                    V Q Q ..} N.%. .].                            . w.9.V Q v.b.*                               ",
"                                    V B Q Q Q Q Q %.:.                          + M K e / { v.N.                                ",
"                                    v ! C F C P %.) o.                          e m w _ ..B.M.|                                 ",
"                                      b V A I B _ O.8                           e M b U L P ) _                                 ",
"                                      o M A O.+.8 = o +X                        & % e M b O.w .                                 ",
"                                    t   & = % % o o X . ZXSXSXvXvXvXvXvXSXAXAX  % o o & . +                                     ",
"                                  . O + o o o AX+XX . - %XyX*X<X,X*X=X=X>X>X1X1XO O . O . .                                     ",
"                                . . + O < o w.AXO $ h -XyX;X<X:X*X=Xy - >XgX:XeXeXh ZX. OX. . . .                               ",
"                            . . . . . . O vX>.eX<X,X*X-X,X<Xt :XeX=X-X,X:X=XgX>X,X<Xy >.- . . o O .                             ",
"                          o . . . O o . o =X:X;X*X:XyX-X*X*X:XgX=X>.<X&X>X+XO =X-X*XyXy . . o . . . u                           ",
"                            . X . . . O 1X$X;X$X,X:X&X-X=X$ :XgXgX*X<XyX-XyX1XgXyX$X*X*X. X . . . . O                           ",
"                            < 7.6.f =X*X*X%X%X;X;X*X;X; %X$X:X:X:X&X,X&X;X1X,X&X-X;X*X-X+X< X X . . +                           "
};
