/* XPM */
static char *_5aba84781df4cc2e2f7428a2f909d84Cf66VkBvNQFDM5Ex_8[] = {
/* columns rows colors chars-per-pixel */
"36 62 256 2 ",
"   c #03064C",
".  c #080826",
"X  c #0C1362",
"o  c #181866",
"O  c #1B1B47",
"+  c #181C57",
"@  c #172168",
"#  c #222667",
"$  c #202877",
"%  c #2A2963",
"&  c #2B2981",
"*  c #2B2B4A",
"=  c #283176",
"-  c #283269",
";  c #343565",
":  c #393537",
">  c #2A3786",
",  c #313979",
"<  c #3E3C4E",
"1  c #1D41A0",
"2  c #374279",
"3  c #1E438F",
"4  c #374A90",
"5  c #504C51",
"6  c #4B4D72",
"7  c #665137",
"8  c #38549E",
"9  c #495590",
"0  c #5E5866",
"q  c #685851",
"w  c #425A9F",
"e  c #585A84",
"r  c #5A5B5A",
"t  c #575E78",
"y  c #3D6491",
"u  c #556494",
"i  c #3865AC",
"p  c #4565A8",
"a  c #676668",
"s  c #776752",
"d  c #656889",
"f  c #696876",
"g  c #766966",
"h  c #636A9A",
"j  c #736B86",
"k  c #736B97",
"l  c #746B75",
"z  c #687399",
"x  c #6B736A",
"c  c #6B7376",
"v  c #6F7389",
"b  c #7C7568",
"n  c #767678",
"m  c #8C7659",
"M  c #6C78A9",
"N  c #767999",
"B  c #7A7B86",
"V  c #857B79",
"C  c #5A7DBA",
"Z  c #828479",
"A  c #848488",
"S  c #9B8458",
"D  c #7686AA",
"F  c #878AA9",
"G  c #8A8A97",
"H  c #938A71",
"J  c #838BB8",
"K  c #8D8C8B",
"L  c #948C96",
"P  c #948CAF",
"I  c #A98F34",
"U  c #AD8F58",
"Y  c #8C9482",
"T  c #8C9499",
"R  c #9194A8",
"E  c #8895B8",
"W  c #959598",
"Q  c #9A9781",
"!  c #AF9768",
"~  c #879AC8",
"^  c #979AB9",
"/  c #C79B53",
"(  c #9C9CA4",
")  c #A59C9D",
"_  c #A79C88",
"`  c #BE9C62",
"'  c #A1A275",
"]  c #9CA5AC",
"[  c #A1A5BF",
"{  c #A4A589",
"}  c #A5A5A4",
"|  c #A5A5B5",
" . c #A6A5AD",
".. c #ADA5A1",
"X. c #ADA5B5",
"o. c #BAA550",
"O. c #C8A763",
"+. c #96A8CB",
"@. c #B7A873",
"#. c #D1A957",
"$. c #CAAC72",
"%. c #A3ADD2",
"&. c #A4ADA1",
"*. c #A4ADBD",
"=. c #A5ADAD",
"-. c #A5ADB5",
";. c #A9ADC7",
":. c gray68",
">. c #ADADB5",
",. c #ADADBD",
"<. c #AEADA3",
"1. c #B5ADB7",
"2. c #D6AD73",
"3. c #D7AD64",
"4. c #B4B089",
"5. c #CCB232",
"6. c #ABB5A5",
"7. c #ACB5C9",
"8. c #ADB5BA",
"9. c gray71",
"0. c #B5B5BD",
"q. c #B6B5C7",
"w. c #B9B5A9",
"e. c #BDB5B5",
"r. c #DCB567",
"t. c #E9B55D",
"y. c #A6B7D8",
"u. c #CAB767",
"i. c #C8B87A",
"p. c #8DB9DA",
"a. c #DBB975",
"s. c #B4BDB3",
"d. c #B5BDBD",
"f. c #B5BDCE",
"g. c #BBBDD6",
"h. c #BCBDC6",
"j. c #BDBDBC",
"k. c #BDBDCE",
"l. c #C6BDC9",
"z. c #C7BD91",
"x. c #E7BD70",
"c. c #B2BFE1",
"v. c #DBC24A",
"b. c #C3C385",
"n. c #BDC6D2",
"m. c #C1C6A2",
"M. c #C5C6C6",
"N. c #C6C6CE",
"B. c #C6C6D7",
"V. c #CEC6C3",
"C. c #EDC678",
"Z. c #EDC769",
"A. c #D7C87A",
"S. c #F9CA69",
"D. c #D5CBAF",
"F. c #EFCB53",
"G. c #F6CD79",
"H. c #C5CEF1",
"J. c #C6CEC6",
"K. c #C6CECE",
"L. c #CDCEE7",
"P. c #CECEC6",
"I. c #CECECE",
"U. c #CECED9",
"Y. c #ECCF28",
"T. c #D6D08F",
"R. c #CDD6E8",
"E. c #CED6CE",
"W. c #D6D6DB",
"Q. c #D6D6E8",
"!. c #ECD769",
"~. c #FCD869",
"^. c #C6D9F9",
"/. c #E9D97C",
"(. c #EED9AF",
"). c #F8D98F",
"_. c #FEDA7D",
"`. c #E8DDD5",
"'. c #D6DED6",
"]. c #D6DEDE",
"[. c #DEDED5",
"{. c gray87",
"}. c #DEDEE7",
"|. c #DEDEF7",
" X c #DFDEEF",
".X c #E0DE95",
"XX c #E4E4AB",
"oX c #EBE689",
"OX c #DEE7DE",
"+X c #DEE7EE",
"@X c #E7E7E6",
"#X c #E7E7EF",
"$X c #E7E7F7",
"%X c #E7E7FF",
"&X c #EFE7E5",
"*X c #EFE7EF",
"=X c #ECEA98",
"-X c #FDEA78",
";X c #F5EBD1",
":X c #FEEB8A",
">X c #FDED98",
",X c #E6EFF7",
"<X c #E7EFE7",
"1X c #E7EFEF",
"2X c #E7EFFF",
"3X c #EFEFEE",
"4X c #EFEFF7",
"5X c #EFEFFF",
"6X c #F7EFFA",
"7X c #F6F69E",
"8X c #EFF7FA",
"9X c gray97",
"0X c #F7F7FF",
"qX c #FFF7F5",
"wX c #FFF7FF",
"eX c #F9F8EA",
"rX c #FEFA89",
"tX c #FFFB97",
"yX c #FEFCAA",
"uX c #F7FFFF",
"iX c #FFFFF5",
"pX c white",
"aX c None",
"sX c black",
"dX c black",
"fX c black",
"gX c black",
"hX c black",
"jX c black",
"kX c black",
"lX c black",
"zX c black",
"xX c black",
"cX c black",
"vX c black",
"bX c black",
"nX c black",
"mX c black",
"MX c black",
"NX c black",
"BX c black",
"VX c black",
"CX c black",
"ZX c black",
"AX c black",
"SX c black",
"DX c black",
"FX c black",
"GX c black",
"HX c black",
"JX c black",
"KX c black",
"LX c black",
"PX c black",
"IX c black",
"UX c black",
/* pixels */
"aXaXaXaXaXaXaXaXaXaXaXaXaXaXaXj.W h.{.M.aXaXaXaXaXaXaXaXaXaXaXaXaXaXaXaX",
"aXaXaXaXaXaXaXaXaXaXaX3X9X3XI.} n W q.0.I.aXaXaXaXaXaXaXaXaXaXaXaXaXaXaX",
"aXaXaXaXaXaXaXW.W.>.j.{.3X@XM.j.( T R ( 0.aXaXaXaXaXaXaXaXaXaXaXaXaXaXaX",
"aXaXaXaX9XU.:.j.9.9.I.}.{.U.h. .G G G F ,.N.aXaXaXaXaXaXaXaXaXaXaXaXaXaX",
"aXaXj.#X{.N.W.U.0.] >.0.k.{.I.,.( T G T ] q.W.aXaXaXaXaXaXaXaXaXaXaXaXaX",
"aXaXA @X9X#XR.k.| >.| ,.q.U.U.k.d.>. . .0.U.Q.3XaXaXaXaXaXaXaXaXaXaXaXaX",
"aXaX .U.U.+XQ.f.,.| >.h.{.3X3X4X#XW.h.>.8.B.}.}.aXaXaXaXaXaXaXaXaXaXaXaX",
"aXaX| Q.L.+X}.B.q.h.N.{.4X3X9X9XI.U.N.>.>.k.W.W.aXaXaXaXaXaXaXaXaXaXaXaX",
"aXI.|  X}.9X8XQ.N.U.W.{.4X9X<.) 4.<.h.0.=.0.W.}.#XaXaXaXaXaXaXaXaXaXaXaX",
"aX0.}.pXpX4X}.U.U.U.W.{.3X#XQ Q b.A K 0.:.0.U.}.}.aXaXaXaXaXaXaXaXaXaXaX",
"aXh.4X0X0X$XW.U.U.U.W.{.3X{.{ 4.{ Q Q h.>.>.B.}.}.aXaXaXaXaXaXaXaXaXaXaX",
"aX9.#X}.9X$XW.N.I.I.U.N.i./.4..X.X{ <.N.>.>.N.Q.Q.aXaXaXaXaXaXaXaXaXaXaX",
"aXw.N.9XpX4XQ.U.N.I.U.M.2.A.:XT.=Xb.K.I.9.:.h.B.Q.#XaXaXaXaXaXaXaXaXaXaX",
"aXw.4.8X9XW.U.} :.I.N.U.} w.oXT.=X:XM.W.>.G ,.N.Q.U.aXaXaXaXaXaXaXaXaXaX",
"aXaXV W.pX4XL.@._ I.N.I.9.A.A.oXT.>Xz.I.H S R N.}.}.aXaXaXaXaXaXaXaXaXaX",
"aXaXQ I.pX0X:.$.@.N.I._ 4.` A.A.7XtXw.w.` S G h.Q.Q.aXaXaXaXaXaXaXaXaXaX",
"aXaXW D.9X4X X4.a.4.:.` x.a.C.oX7XT.N.j.O.K  .h.W.W.W.aXaXaXaXaXaXaXaXaX",
"aXaXaXw.4X9X,X) $.C.@.r.O.x.i.4.b.( 9XW.@.W  .0.U.}.}.aXaXaXaXaXaXaXaXaX",
"aXaXaXG  XpX5XQ.X.a.@.a.O.C._.).>X0.pX#Xj.S ( >.N.Q.U.aXaXaXaXaXaXaXaXaX",
"aXaXaXH Q.0X0X XU.} $.S 3.x.C.i.>XT.#X9X}.} b R P D ^ aXaXaXaXaXaXaXaXaX",
"aXaXaX..q.8X0XU.N.N.h.@.x.$.@.A.:X>Xw.N.] e # = 4 w ^ }.aXaXaXaXaXaXaXaX",
"aXaXaXk.( $X4X<.i.4.$.C.a.2.H @.' a X o @ - 6 2 > w w N.aXaXaXaXaXaXaXaX",
"aXaXaXaXW U.+Xm.A.a.a.a.$.q   + v d R }.h.d U.N 2 h D q.aXaXaXaXaXaXaXaX",
"aXaXaXaX:.Q.#Xf.z.V m < f ; v 3XpXh.; 4X4X6 ].N , 4 p E aXaXaXaXaXaXaXaX",
"aXaXaXaX .D p p 4 , e G W.h.t 9XpX9Xd R pX0.{.N = 4 w M +XaXaXaXaXaXaXaX",
"aXaXaXaXaX2 p p w B.,.G U.T j 3XN.9XW.o W.3X}.G = 4 w w B.aXaXaXaXaXaXaX",
"aXaXaXaXaXe w p w f.B.% >.h. .@X .I.9XG N 9X#XR - > 8 w 7.aXaXaXaXaXaXaX",
"aXaXaXaXaXN 9 p w E W.; + t >.}.].{.pX3X2 N.,.- - 2 4 w F aXaXaXaXaXaXaX",
"aXaXaXaXaXR > M p u +X| R ( G }.( % I.pX| - # # - 2 4 w M U.aXaXaXaXaXaX",
"aXaXaXaXaX .2 w p u Q.].U. .( {.W   v v v o # e v d N w h U.aXaXaXaXaXaX",
"aXaXaXaXaXaXe w p u > - ; ; ; 6 6   + + d N R | G N e 8 w q.aXaXaXaXaXaX",
"aXaXaXaXaXaXv 4 p p h N v +   6 t T R R ( | ,.R N v 9 4 w F aXaXaXaXaXaX",
"aXaXaXaXaXaXT > p J u F v T W T ( ( T | ,.] G 6 # # 6 G D.D.@XaXaXaXaXaX",
"aXaXaXaXaXaX0., w +.h R d R G t ( G f t % X - v _ _ ! _ 0.f.{.aXaXaXaXaX",
"aXaXaXaXaXaXaXd 9 M h P 2 v 6 t *   + f ..D.=X(.z.} R  .h.U.W.aXaXaXaXaX",
"aXaXaXaXaXaXaXG 9 h J z = + + t K 4.T.(.D.P.W.W.{.h.:. .0.U.U.aXaXaXaXaX",
"aXaXaXaXaXaXaXG 2 w M F L _ z.z.4.w.M.W.4X3XuXeX`.V.:. .0.U.W.W.aXaXaXaX",
"aXaXaXaXaXaXaXM.H D.(.D...)  .>.M.M.M.e.{ _ 3X9X3XN.9. .>.N.W.U.aXaXaXaX",
"aXaXaXaXaXaXaXaXG 7.L.L.B.q.0.j.h...Q { M.M.W.#X:._ 9. . .h.U.W.aXaXaXaX",
"aXaXaXaXaXaXaXaX .h.U.Q.M.9.9.9.>.j.:.e.<.M.{ j.V.j.M. .( 0.U.B.aXaXaXaX",
"aXaXaXaXaXaXaXaX .,.Q.B.k.h.( L W H H H w.W.{.9XpX@XN.>.( >.N.U.@XaXaXaX",
"aXaXaXaXaXaXaXaX0.( U.Q.U.k.K V W ) 9.U.1XpXpXpXpX3XI.0.(  .k.N.U.aXaXaX",
"aXaXaXaXaXaXaXaXaX .N.Q.U.k. .8.0.9.N.U.@X{.M.@XpX9XW.j.}  .h.U.N.aXaXaX",
"aXaXaXaXaXaXaXaXaX} q.Q.L.k.0.>.0.0.Q S 4.@.A.z.D.z.M.M. .] 0.U.U.aXaXaX",
"aXaXaXaXaXaXaXaXaX . .U.Q.N.0.8.0.} U S ` a.i.b.b.i.{ I.>.( >.N.B.M.aXaX",
"aXaXaXaXaXaXaXaXaXN.( B.U.n.q.>.>.W U S @.<.Y :.{ { <.U.9.( | h.N.U.aXaX",
"aXaXaXaXaXaXaXaXaXaXG k.L.U.h. .Q U U _ j.m.z.D.j.j.@XW.d.}  .0.U.U.aXaX",
"aXaXaXaXaXaXaXaXaXaX( ,.U.U.k.0.Q m S W ! $.i.b.z.3X0X}.M. .( >.B.U.aXaX",
"aXaXaXaXaXaXaXaXaXaX:.] n.U.k.,.} H Q _ ! @.' 4.T.P.pX#XK.:.( >.N.U.}.aX",
"aXaXaXaXaXaXaXaXaXaXaXT k.U.n.,.>.>.9._ U ! H i.T.D.pX3XU.9.(  .0.U.U.aX",
"aXaXaXaXaXaXaXaXaXaXaXT q.U.B.0.>.>.>.) U ! $.i..X[.pX4XW.0.} ( 0.k.,.aX",
"aXaXaXaXaXaXaXaXaXaXaX( | B.k.0.>. .>.>._ ` ` i.m.9XpX9X}.h. .T F ^ k.aX",
"aXaXaXaXaXaXaXaXaXaXaX:.] k.k.q.>. .:.>.0.w.w.I.9XpXpXpX{.] A A  .0.q.}.",
"aXaXaXaXaXaXaXaXaXaXaXN.G q.k.k.>. . .>.9.h.W.@X9X@Xh.| q.h.>.( ( 0.h.I.",
"aXaXaXaXaXaXaXaXaXaXaXaXW ,.k.k.,. . . .9.:.]  .,.U.}.}.3XW.0.( W ( W aX",
"aXaXaXaXaXaXaXaXaXaXaXaXA ( q.;.R A B A A ( h.N.h.W.U.}.4X{.9.W l a aXaX",
"aXaXaXaXaXaXaXaXaXaXaXaX( B ^ [ | ] }  .T T j.h.}.0XpX0X@X9.K r : A aXaX",
"aXaXaXaXaXaXaXaXaXaXaXaXaXA ,.k.q. .(  .:.9.j.I.@X1XW.>.K n a r L aXaXaX",
"aXaXaXaXaXaXaXaXaXaXaXaXaXL ] q.>.W G W } j.N.M.9.W K K A A K aXaXaXaXaX",
"aXaXaXaXaXaXaXaXaXaXaXaXaXaXA x A K (  . .} } } } } } } 9.aXaXaXaXaXaXaX",
"aXaXaXaXaXaXaXaXaXaXaXaXaXaXaXaXn r l B A W 9.e.9.aXaXaXaXaXaXaXaXaXaXaX",
"aXaXaXaXaXaXaXaXaXaXaXaXaXaXaXaXaX:.} 9.aXaXaXaXaXaXaXaXaXaXaXaXaXaXaXaX"
};
