/* XPM */
static char *_5aba84781df4cc2e2f7428a2f909d84Cf66VkBvNQFDM5Ex_13[] = {
/* columns rows colors chars-per-pixel */
"28 62 256 2 ",
"   c #03064C",
".  c #080826",
"X  c #0C1362",
"o  c #181866",
"O  c #1B1B47",
"+  c #181C57",
"@  c #172168",
"#  c #222667",
"$  c #202877",
"%  c #2A2963",
"&  c #2B2981",
"*  c #2B2B4A",
"=  c #283176",
"-  c #283269",
";  c #343565",
":  c #393537",
">  c #2A3786",
",  c #313979",
"<  c #3E3C4E",
"1  c #1D41A0",
"2  c #374279",
"3  c #1E438F",
"4  c #374A90",
"5  c #504C51",
"6  c #4B4D72",
"7  c #665137",
"8  c #38549E",
"9  c #495590",
"0  c #5E5866",
"q  c #685851",
"w  c #425A9F",
"e  c #585A84",
"r  c #5A5B5A",
"t  c #575E78",
"y  c #3D6491",
"u  c #556494",
"i  c #3865AC",
"p  c #4565A8",
"a  c #676668",
"s  c #776752",
"d  c #656889",
"f  c #696876",
"g  c #766966",
"h  c #636A9A",
"j  c #736B86",
"k  c #736B97",
"l  c #746B75",
"z  c #687399",
"x  c #6B736A",
"c  c #6B7376",
"v  c #6F7389",
"b  c #7C7568",
"n  c #767678",
"m  c #8C7659",
"M  c #6C78A9",
"N  c #767999",
"B  c #7A7B86",
"V  c #857B79",
"C  c #5A7DBA",
"Z  c #828479",
"A  c #848488",
"S  c #9B8458",
"D  c #7686AA",
"F  c #878AA9",
"G  c #8A8A97",
"H  c #938A71",
"J  c #838BB8",
"K  c #8D8C8B",
"L  c #948C96",
"P  c #948CAF",
"I  c #A98F34",
"U  c #AD8F58",
"Y  c #8C9482",
"T  c #8C9499",
"R  c #9194A8",
"E  c #8895B8",
"W  c #959598",
"Q  c #9A9781",
"!  c #AF9768",
"~  c #879AC8",
"^  c #979AB9",
"/  c #C79B53",
"(  c #9C9CA4",
")  c #A59C9D",
"_  c #A79C88",
"`  c #BE9C62",
"'  c #A1A275",
"]  c #9CA5AC",
"[  c #A1A5BF",
"{  c #A4A589",
"}  c #A5A5A4",
"|  c #A5A5B5",
" . c #A6A5AD",
".. c #ADA5A1",
"X. c #ADA5B5",
"o. c #BAA550",
"O. c #C8A763",
"+. c #96A8CB",
"@. c #B7A873",
"#. c #D1A957",
"$. c #CAAC72",
"%. c #A3ADD2",
"&. c #A4ADA1",
"*. c #A4ADBD",
"=. c #A5ADAD",
"-. c #A5ADB5",
";. c #A9ADC7",
":. c gray68",
">. c #ADADB5",
",. c #ADADBD",
"<. c #AEADA3",
"1. c #B5ADB7",
"2. c #D6AD73",
"3. c #D7AD64",
"4. c #B4B089",
"5. c #CCB232",
"6. c #ABB5A5",
"7. c #ACB5C9",
"8. c #ADB5BA",
"9. c gray71",
"0. c #B5B5BD",
"q. c #B6B5C7",
"w. c #B9B5A9",
"e. c #BDB5B5",
"r. c #DCB567",
"t. c #E9B55D",
"y. c #A6B7D8",
"u. c #CAB767",
"i. c #C8B87A",
"p. c #8DB9DA",
"a. c #DBB975",
"s. c #B4BDB3",
"d. c #B5BDBD",
"f. c #B5BDCE",
"g. c #BBBDD6",
"h. c #BCBDC6",
"j. c #BDBDBC",
"k. c #BDBDCE",
"l. c #C6BDC9",
"z. c #C7BD91",
"x. c #E7BD70",
"c. c #B2BFE1",
"v. c #DBC24A",
"b. c #C3C385",
"n. c #BDC6D2",
"m. c #C1C6A2",
"M. c #C5C6C6",
"N. c #C6C6CE",
"B. c #C6C6D7",
"V. c #CEC6C3",
"C. c #EDC678",
"Z. c #EDC769",
"A. c #D7C87A",
"S. c #F9CA69",
"D. c #D5CBAF",
"F. c #EFCB53",
"G. c #F6CD79",
"H. c #C5CEF1",
"J. c #C6CEC6",
"K. c #C6CECE",
"L. c #CDCEE7",
"P. c #CECEC6",
"I. c #CECECE",
"U. c #CECED9",
"Y. c #ECCF28",
"T. c #D6D08F",
"R. c #CDD6E8",
"E. c #CED6CE",
"W. c #D6D6DB",
"Q. c #D6D6E8",
"!. c #ECD769",
"~. c #FCD869",
"^. c #C6D9F9",
"/. c #E9D97C",
"(. c #EED9AF",
"). c #F8D98F",
"_. c #FEDA7D",
"`. c #E8DDD5",
"'. c #D6DED6",
"]. c #D6DEDE",
"[. c #DEDED5",
"{. c gray87",
"}. c #DEDEE7",
"|. c #DEDEF7",
" X c #DFDEEF",
".X c #E0DE95",
"XX c #E4E4AB",
"oX c #EBE689",
"OX c #DEE7DE",
"+X c #DEE7EE",
"@X c #E7E7E6",
"#X c #E7E7EF",
"$X c #E7E7F7",
"%X c #E7E7FF",
"&X c #EFE7E5",
"*X c #EFE7EF",
"=X c #ECEA98",
"-X c #FDEA78",
";X c #F5EBD1",
":X c #FEEB8A",
">X c #FDED98",
",X c #E6EFF7",
"<X c #E7EFE7",
"1X c #E7EFEF",
"2X c #E7EFFF",
"3X c #EFEFEE",
"4X c #EFEFF7",
"5X c #EFEFFF",
"6X c #F7EFFA",
"7X c #F6F69E",
"8X c #EFF7FA",
"9X c gray97",
"0X c #F7F7FF",
"qX c #FFF7F5",
"wX c #FFF7FF",
"eX c #F9F8EA",
"rX c #FEFA89",
"tX c #FFFB97",
"yX c #FEFCAA",
"uX c #F7FFFF",
"iX c #FFFFF5",
"pX c white",
"aX c None",
"sX c black",
"dX c black",
"fX c black",
"gX c black",
"hX c black",
"jX c black",
"kX c black",
"lX c black",
"zX c black",
"xX c black",
"cX c black",
"vX c black",
"bX c black",
"nX c black",
"mX c black",
"MX c black",
"NX c black",
"BX c black",
"VX c black",
"CX c black",
"ZX c black",
"AX c black",
"SX c black",
"DX c black",
"FX c black",
"GX c black",
"HX c black",
"JX c black",
"KX c black",
"LX c black",
"PX c black",
"IX c black",
"UX c black",
/* pixels */
"aXaXaXaXaXaXaXaXaXaXaXaXaXaX3X}.M.9.U.}.aXaXaXaXaXaXaXaX",
"aXaXaXaXaX3XW.M.{.E.:.M.@X3X@XI.} a L N.8.aXaXaXaXaXaXaX",
"aXaX( I.@XW. .0.>.:.j.I.#X3X@XM.9.( ( 0.h.U.aXaXaXaXaXaX",
"aXaX} N.9X9X9XQ.q.]  .0.h.U.I.0.( G A G ] N.aXaXaXaXaXaX",
"aXaX .f.}.Q.}.f.7.0.8.| ,.W.{.h.-.( T G ] ,.}.aXaXaXaXaX",
"aXaX]  XL.#X Xf.,.| -.h.K.U.U.N.0. .T T ( ,.k.aXaXaXaXaX",
"aX0.7. X}.+X#X XN.h.N.W.#X3X4X9X#XW.j.>.0.B.Q.#XaXaXaXaX",
"aXh.8XpXpX9X#XU.I.U.W.}.4X9X4X3XW.W.M.>.>.N.}.+XaXaXaXaX",
"W.k.0X9X8X}.U.I.U.U.W.}.9X{.W W 4.q.N.>.>.N.Q.Q.aXaXaXaX",
"j.0.#X#X8X XB.I.I.U.W.@X9XI.{ 4.4.K :.>.>.k.Q.}.aXaXaXaX",
"aX<.4XpX0X XU.N.I.I.W.M.D.4.4.' 4.Q ) 9.>.h.Q.Q.aXaXaXaX",
"aXQ 4XpX}.Q.N.N.N.U.W.O._.T..XoX{ V K.9.>.h.W.}.aXaXaXaX",
"aXV I.pX4XL.Q _ I.K.U.) :./.T.=XT.9.U.9.:.h.W.Q.aXaXaXaX",
"aXQ {.pX4X<.$._ K.N.N.w.i.oXb.=X/.U.U.0.:.h.U.Q.aXaXaXaX",
"aX4.}.4X0Xj.2.4.N.j.<.( ! /.oX.X>Xj.I.W A 0.N.W.}.aXaXaX",
"aXQ Q.9X0XB.$.x.<.) 3.x.a.A.T.tX>X0.) S m -.U.}.W.aXaXaX",
"aXW U.0X0XQ.:.2.a.$.r.r.G./.oX.Xz.B.$.U b >.U.}.}.aXaXaX",
"aX..U.0X0X|.k.$.@.a.O.x.a.i.T.K }.@X$.A  .0.U.Q.W.aXaXaX",
"aXL q.0X0X XU.0.4.U O.x.G./.>Xw.pX3X..Q  .>.B.}.W.aXaXaX",
"aX( 0.4X#X<.e.N.9.` x.a.a.A.>Xz.9X9XW.H ( >.N.}.}.aXaXaX",
"aX:.>.+XU.T.2.` x.C.$.$.! ).:X>XM.9X{.( V ( ,.f.k.aXaXaX",
"aXM.h.#X}.w.2.a.$.x.$.s 0 H b x 6 = # - - , 9 p 7.aXaXaX",
"aXaXv J M G d H + 5 O + v T G 6 | ] - v 6 , 9 p 7.aXaXaX",
"aXaX2 p p w u N t U.h.O #XpX}.+ @X9X2 d.>., 4 E E aXaXaX",
"aXaXe w p w Q.0.G U.d.6 3X9XpXv | pXR U.( , 4 p E aXaXaX",
"aXaXe w p w g.,.; N.G G 3Xh.pXl.6 9XU.{.G = 4 w D @XaXaX",
"aXaXv h p w q.k.+ 6 >.U.@XB #X3X- U.4X@Xd , 4 w D }.aXaX",
"aXaXv 8 p w ;.W.T T 6 N.@XI.3XpX( F 9X{.t = 4 w M ].aXaX",
"aXaXB 9 p h ^ U.U.U.; {.U.  T pX}.e 0.e # - 4 w w ].aXaX",
"aXaXN 4 p w > = 6 j f d.>.  ; h.N # @ # # = 4 w w N.aXaX",
"aXaXN 4 p D h N v +         + + v - 6 e v t z w w k.aXaX",
"aXaXG 4 M J u R G f v B B ( R v R ] R | G v e w p k.aXaX",
"aXaXR 4 p ^ h R v T ( c ( ]  .0.] ,.N.G B d 2 8 w k.aXaX",
"aXaXF e w p M N ; B G c v B G B 6 e 6 - # 2 2 9 p ,.aXaX",
"aXaX( 2 h J h = % +         + ; t v A L K V Q z.(.P.aXaX",
"aXaXM.n  .>.} L H _ _ 4.i.T.(.yX7XXX.Xz...L W | f.U.aXaX",
"aXaX} A e.V.e...) ....<.e.M.U.W.W.@X}.@XM.>. .0.B.W.aXaX",
"aXaXaX( N.Q.Q.N.0.d.j.M.j.j.M.M.I.9XeX`.M.:.} 0.U.W.aXaX",
"aXaXaX( B.Q.W.h.9.e.j.h.) Q Q } ) 9X9X#XN.>. .0.U.W.}.aX",
"aXaXaXW B.U.B.k.0.>.( >.:.} V.N.I.I.I.<.} >. .0.U.W.W.aX",
"aXaXaX( k.Q.L.k.( V ) H H H 4.) e.w.M.e.0.9.}  .B.W.W.aX",
"aXaXaX:.h.Q.L.k. .) } } j.M.}.4XpXpXpX4XW.9.( >.N.W.N.aX",
"aXaXaX .q.Q.L.k.0.8.0.0.M.W.@X9XpXpXpX4XU.0.}  .k.W.{.aX",
"aXaXaX} ,.U.L.k.0.>.0.:.H ! j.{ 4.[.pX9XW.0.}  .h.B.U.aX",
"aXaXaX .| U.U.h.0.>.9._ S S O.i.b.z.m.D.W.d.}  .h.U.M.aX",
"aXaXaX . .U.L.k.,.>.Q ! S U @.! i.{ T.i.j.j. . .h.U.U.aX",
"aXaXaX>.( B.U.k.,.) S S ! 9.M...j.<.4.{ j.h. . .h.U.M.aX",
"aXaXaXM.W k.U.k.>.W S S Q _ a./.b.j.e.I.}.h. .] 0.N.U.aX",
"aXaXaXaXT k.U.k.,.>.W _ _ ! @.' b.T.@XuX@XM. .( >.N.N.aX",
"aXaXaXaXG k.U.k.0.-.>.0.! U ! H 4.T.E.pX@XM. .( >.B.U.aX",
"aXaXaXaX( h.B.h.,.-.>.>.Q U @.! 4..X[.pX@XN. .( >.N.U.aX",
"aXaXaXaXG 0.k.k.,. .:.>...` ` i.T..X4XuX#XN. .(  .N.B.aX",
"aXaXaXaXW ,.k.k.,. . .>.0.<.! $.m.@XpXpX#XI.:.(  .k.N.}.",
"aXaXaXaXW >.n.k.,. . .>.9.j.U.@X9XpXpX0X#XI.>.W T P ^ N.",
"aXaXaXaXG R k.k.,. . . .9.j.I.{.@X{.U.h.,.R A A ( ,.k.W.",
"aXaXaXaXW G ^ P G B B A A G W >.N.W.W.}.3XU.>.( ( 0.q.W.",
"aXaXaXaXK ( h.h.>.(  .} W ( 0.8.q.W.B.].3XU.>.( ( -. .aX",
"aXaXaXaX:.G q.q.,. .(  .>.0.N.{.4XpXpXpX#XN.} K l n 9.aX",
"aXaXaXaXaXK c A G K W ( >.h.I.{.@X{.I.j.( A a < 5 aXaXaX",
"aXaXaXaXaXaX:.x n L }  .:.:. .) W K K A n a r B :.aXaXaX",
"aXaXaXaXaXaXaX9.B n B A W  .9.:.} } } } W } aXaXaXaXaXaX",
"aXaXaXaXaXaXaXaXaXaXaXI.M.M.aXaXaXaXaXaXaXaXaXaXaXaXaXaX"
};
