/* XPM */
static char *_77941ad851849d9a14b3aabdedf9675jm9We3XNlYlIcvEW_9[] = {
/* columns rows colors chars-per-pixel */
"64 64 256 2 ",
"   c None",
".  c #794D3B",
"X  c #634939",
"o  c #634D45",
"O  c #6C4D43",
"+  c #7B4F41",
"@  c #6E5247",
"#  c #6D564C",
"$  c #675148",
"%  c #725246",
"&  c #78584A",
"*  c #715C52",
"=  c #7D5D51",
"-  c #6F5B51",
";  c #7D6052",
":  c #746459",
">  c #7B766B",
",  c #824E3C",
"<  c #8D4F3C",
"1  c #884E37",
"2  c #914E3B",
"3  c #855139",
"4  c #8B513B",
"5  c #965437",
"6  c #9C5936",
"7  c #95543B",
"8  c #995639",
"9  c #95583F",
"0  c #9C5A3C",
"q  c #995637",
"w  c #A55C34",
"e  c #A35D3D",
"r  c #AE5D2F",
"t  c #8E673C",
"y  c #B9692E",
"u  c #B66529",
"i  c #AB6233",
"p  c #AA623B",
"a  c #B66A34",
"s  c #BE7239",
"d  c #BE702F",
"f  c #BF6E17",
"g  c #CD761B",
"h  c #D47D1B",
"j  c #C47325",
"k  c #CB7524",
"l  c #CB762B",
"z  c #C8762B",
"x  c #D47C24",
"c  c #D07A27",
"v  c #C67737",
"b  c #C46E29",
"n  c #835542",
"m  c #8D5B4C",
"M  c #895A44",
"N  c #935942",
"B  c #9B5B41",
"V  c #965945",
"C  c #905E50",
"Z  c #8E5D50",
"A  c #A15D41",
"S  c #A15E4A",
"D  c #856247",
"F  c #866349",
"G  c #8A644B",
"H  c #8B6748",
"J  c #956549",
"K  c #9A7549",
"L  c #826354",
"P  c #8A6959",
"I  c #936B54",
"U  c #966954",
"Y  c #987358",
"T  c #A4634A",
"R  c #A86646",
"E  c #B26C45",
"W  c #BA7446",
"Q  c #A36952",
"!  c #A26350",
"~  c #B26F51",
"^  c #A47559",
"/  c #A6795C",
"(  c #A57659",
")  c #B57454",
"_  c #B57A5B",
"`  c #B87A56",
"'  c #A2784A",
"]  c #8F7263",
"[  c #9A7765",
"{  c #947C71",
"}  c #A37B63",
"|  c #AA7A63",
" . c #B27C63",
".. c #C67B45",
"X. c #C17C54",
"o. c #7E8275",
"O. c #DD841C",
"+. c #DB8314",
"@. c #DC8105",
"#. c #E68B0A",
"$. c #EE9108",
"%. c #F49602",
"&. c #F79802",
"*. c #F99A01",
"=. c #F69908",
"-. c #E48916",
";. c #F29818",
":. c #FCA000",
">. c #DD8527",
",. c #D0802F",
"<. c #E68D23",
"1. c #A98553",
"2. c #B1895B",
"3. c #8A8779",
"4. c #9B8578",
"5. c #A38165",
"6. c #A68469",
"7. c #AA866A",
"8. c #AE896C",
"9. c #AC8466",
"0. c #B4896B",
"q. c #B3956A",
"w. c #B8986A",
"e. c #AE8B71",
"r. c #A48879",
"t. c #B08D72",
"y. c #B59375",
"u. c #B99676",
"i. c #BE9A79",
"p. c #B79578",
"a. c #AF937F",
"s. c #C7845A",
"d. c #D68F56",
"f. c #C19D69",
"g. c #C19C7B",
"h. c #D19169",
"j. c #C6A366",
"k. c #C5A37A",
"l. c #C9A675",
"z. c #D0AC78",
"x. c #D1AF77",
"c. c #D5B27A",
"v. c #DCB77B",
"b. c #E3A17A",
"n. c #9A9489",
"m. c #958B80",
"M. c #A7968A",
"N. c #BE9D83",
"B. c #B59786",
"V. c #A99389",
"C. c #ADA396",
"Z. c #BBA696",
"A. c #BEA18A",
"S. c #BAADA2",
"D. c #BDB1A9",
"F. c #B7B2AD",
"G. c #C3A484",
"H. c #CCAB85",
"J. c #CDAE8B",
"K. c #C7A588",
"L. c #CEB28C",
"P. c #D5B689",
"I. c #C4AB9B",
"U. c #C7A994",
"Y. c #D6AE98",
"T. c #CCB59A",
"R. c #D1B594",
"E. c #D3BB9C",
"W. c #DABD99",
"Q. c #D8B797",
"!. c #E0BC83",
"~. c #CBB6A7",
"^. c #DABCA3",
"/. c #D2BDAC",
"(. c #D4B6A7",
"). c #C9BDB4",
"_. c #D8BFB4",
"`. c #C09F84",
"'. c #DAC19E",
"]. c #D9C096",
"[. c #E6C388",
"{. c #ECC88B",
"}. c #E6C387",
"|. c #EACA95",
" X c #F2D399",
".X c #EFD19D",
"XX c #DAC5A7",
"oX c #CBC3B9",
"OX c #D8C7B9",
"+X c #E6CCA6",
"@X c #F1D6A4",
"#X c #F6DBAB",
"$X c #E8D4B7",
"%X c #F4DCB4",
"&X c #E8CFB0",
"*X c #F2E1BB",
"=X c #FAE3BB",
"-X c #FAE1B7",
";X c #CBC6C5",
":X c #DBCEC3",
">X c #D3CCC7",
",X c #DCD2CA",
"<X c #DED1C6",
"1X c #DAD7D5",
"2X c #E2D5CA",
"3X c #E8DACA",
"4X c #F5DFC1",
"5X c #E5DDD8",
"6X c #F4E2C4",
"7X c #F9E5C6",
"8X c #F9E7C8",
"9X c #F9E8CC",
"0X c #F4E5CB",
"qX c #EBE2DB",
"wX c #E7E2D9",
"eX c #FAECD6",
"rX c #FAECD6",
"tX c #FAEBD3",
"yX c #FBEEDA",
"uX c #F2E7D8",
"iX c #FEF1DB",
"pX c #EDECEB",
"aX c #E9E6E3",
"sX c #F7EDE3",
"dX c #FAF2E7",
"fX c #FAF0E1",
"gX c #F9F4ED",
"hX c #EEEEF1",
"jX c #EEF0F5",
"kX c #F3F4F6",
"lX c #F5F6F8",
"zX c #F7F8F9",
"xX c gray98",
"cX c #FBF6F2",
"vX c black",
"bX c black",
"nX c black",
"mX c black",
"MX c black",
"NX c black",
"BX c black",
"VX c black",
"CX c black",
"ZX c black",
"AX c black",
"SX c black",
"DX c black",
"FX c black",
"GX c black",
"HX c black",
"JX c black",
"KX c black",
"LX c black",
"PX c black",
"IX c black",
"UX c black",
/* pixels */
"                                                                                                                                ",
"                                                                                                                                ",
"                                              cXcX                                                                              ",
"                    dXdXdXdXdXsXeXeXeXeXeXeXeXyXyXiXiXiXiXeXyXdXdXgXcXdXgXcX                                                    ",
"              dXdXsXyXeXeX9X9X7X=X7X8X8X8X9XrXeXyXiXiXyXeX9XtXyXiXyXyXeXyXeXeXfXdX                                              ",
"        dXdXsX0X0XeXyXtX8X8X9X7X7X7X8X8X8X8X9XtXyXiXiXyXsXyXiXiXiXyXtX9X8X7X*X4X8XrXfXdX                                        ",
"        eXtX0X7X9XeXeXtX8X8X8X9XtXrXrXeXeXeXiXiXiXiXiXyXyXeXeXeXeX9X8X8X=X=X#X%X%X%X6XuXdX                                      ",
"      6X*X*X*X*X6X8X8X8X8X8X7X8X8X8X9XrXeXeXeXeXeXeXeXeXrX9X8X7X=X=X=X=X#X#X@X X.X+X+X$XqX                                      ",
"    uX&X@X#X*X4X6X6X4X6X7X=X=X6X7X7X7X=X=X=X=X=X=X=X=X=X=X=X-X#X#X#X@X X X X|.|.{.{.|.+X$X                                      ",
"  wX3XXX+X&X%X%X*X*X#X#X*X#X#X#X#X#X@X@X@X@X@X@X@X X@X@X X X X|.|.{.{.{.{.}.}.}.}.!.W.'.XX3XqX                                  ",
"  5X3XXXXX+X+X&X$X%X%X&X+X|.{.{.{.{.{.{.}.[.[.[.[.}.[.}.}.}.!.!.!.!.!.!.!.v.v.v.c.c.P.P.E.2X5X                                  ",
"  wX2XE.Q.'.XXXX^.W.W.W.W.P.v.c.c.c.c.c.c.c.z.c.c.c.c.c.z.z.z.z.z.z.z.z.z.z.z.l.k.k.G.J.E.:X2X                                  ",
"    2XE.R.E.^.R.H.H.R.H.k.k.k.k.f.f.f.i.i.i.i.i.i.i.i.i.i.i.i.i.i.i.i.i.i.i.i.u.u.i.N.U.(.2XwX                                  ",
"      (.E.R.R.L.G.g.G.N.u.i.u.y.y.y.t.t.8.8.8.7.6.7.8.8.8.t.y.y.t.t.t.y.t.t.y.y.y.i.N.U.~.                                      ",
"      XXE.R.E.E.R.H.G.G.i.i.u.y.y.y.t.t.7.6.6.6.6.6.6.6.6.6.6.6.6.7.8.8.8.8.t.y.p.N.G.U.~.                                      ",
"      $XXXW.^.^.^.Q.J.G.N.i.i.i.i.y.t.8.7.6.6.6.5.} 5.6.6.6.6.6.6.5.} 5.7.8.t.y.p.N.U.~.).                                      ",
"      5XOX^.^.^.E.R.H.G.N.i.i.i.y.y.t.8.7.6.6.6.6.6.6.6.6.6.6.6.6.6.6.6.7.8.t.t.p.N.U.~.).                                      ",
"      ,XOXXX].W.Q.R.H.G.i.i.i.i.y.t.t.t.8.8.8.7.6.6.6.6.6.8.7.6.6.7.8.8.7.7.e.t.t.B.B.I./.qXkX                                  ",
"      5X/.U.Q.P.P.P.H.H.k.i.i.i.y.y.y.t.8.8.8.8.7.6.8.8.8.8.8.8.8.8.t.t.t.t.t.t.t.y.N.U./.wXpX                                  ",
"      qX~.B.N.G.H.H.H.H.k.i.i.i.i.u.y.y.t.t.t.8.8.8.e.8.8.e.t.t.8.8.t.t.t.t.y.y.y.y.i.U./.5XpX                                  ",
"      qX~.e./ 7.u.k.k.k.i.i.i.i.i.i.i.y.y.y.y.t.t.t.t.t.t.t.t.t.t.t.t.t.y.y.y.y.y.i.N.A.I.OX<X                                  ",
"      aX/.y./ ^ / 8.y.y.y.8.7.5.7.t.y.y.y.y.y.t.t.t.y.y.y.y.y.y.y.y.y.y.y.y.y.u.i.i.N.N.K.R.XX3X      kXxXxXxX                  ",
"        K.p./ ^ ^ ^ 9.7.} I U C C C U Y Y } 7.8.8.8.e.t.y.y.y.y.y.y.y.i.i.i.i.i.i.N.N.N.G.H.Q.^.(./.;X5XpXlXzXxXxX              ",
"        Z.B./ ^ ^ ^ ^ Y J M n n n 3 , n n M I Y } 5.5.7.8.e.t.y.y.u.i.i.i.i.i.i.i.N.G.G.G.H.H.K.K.Z.).1XpXkXkXlXxXxX            ",
"        I.B./ ^ ^ ^ ^ U J 7 < 3 3 3 3 3 , , n G I Y I I Y [ 6.t.y.u.i.i.i.i.i.N.G.G.G.G.H.P.L.T.).          kXkXlXzXxXxX        ",
"        I.B./ ^ /  .^ J N N 7 2 3 3 3 3 3 , , n M m m G I Y Y [ } 6.t.u.i.i.i.N.G.G.H.H.H.'.$X5X              hXkXkXlXzXzX      ",
"        Z.B. .) ) ) ) R e 8 7 2 2 4 3 3 3 3 3 , 1 < n n n m J J J ! ^ 7.y.u.i.i.i.G.H.H.E.$X3X                    hXkXlXzX      ",
"        Z.B. .` ) ~ ~ R e 8 q 8 9 7 < 3 , , . , 1 2 4 3 , 3 3 n 3 4 V Q | t.y.u.g.G.H.L.E.3XqX                    jXkXlXzXxX    ",
"        Z.N.` ) ) ) ) E w e 0 8 8 7 < 3 3 3 3 1 5 5 4 3 3 < 2 < n 4 7 A Q } e.u.g.G.H.R.XXuXdX                    kXjXkXkXkXlX  ",
"        Z.N.` ) ) ) ) E i w e e e 0 5 5 5 2 2 7 6 i 6 8 9 8 9 N 7 4 4 8 B Q 5.t.i.G.H.E.OX                          jXkXkXkXlXzX",
"        I.N.` W W ) ) E i w w w w w w e 0 5 q w i y i w 8 e B 9 8 9 B A e T } 7.p.N.K.^.<X                          jXkXkXkXkXkX",
"        Y.K.s.....W ) E i i i i i w w w i i w r b >.b i w e 0 8 9 B A A R T Q } 8.i.G.XX3X                          kXkXkXkXkXkX",
"        Y.K.s...v s W a u u u a y y y d d u u y k O.x y w q 7 7 N 9 8 9 B T R Q / t.I./.                            kXkXkXkXkXkX",
"        (.K.s.....v a u y u y b j z l c k l l k h -.O.b w q 5 8 9 7 8 a a s ,..._ t.(.OX                          zXlXkXkXkXlXzX",
"        (.U.s...v c z d d u g @.+.>.>.>.O.-.-.-.-.%.#.k w q 9 N 8 7 N S T R E E  .B.I./.                          zXlXkXkXkXlXzX",
"        OXY.s.v b l j j l b x -.%.&.&.*.&.%.%.%.%.&.&.+.i 6 9 N N B R A S S T S | N.~./.                          zXlXkXkXlXxXxX",
"        ^.Y.s.v j l b k x c O.%.*.*.*.*.*.&.%.%.&.*.*.#.u w B N N N B A S ! Q Q | N.T./.                      xXxXzXkXlXzXxXxX  ",
"        OXY.d.l k x c h -.>.<.;.*.*.*.*.&.%.%.%.&.*.*.$.+.k u w e B B A S T Q U | N.(._.                      zXzXzXkXlXzXxXxX  ",
"        OXY.d.c g x x -.%.%.%.%.*.*.*.*.&.%.%.%.&.*.*.*.&.%.-.c s R A S T T Q U 5.N./.OX                    zXzXzXzXlXkXkXkX    ",
"        OXY.s.l g g x >.<.=.&.&.*.*.*.*.*.&.%.&.*.&.*.*.*.*.$.h a 0 N N J J I I } N.(.OX                zXlXkXlXzXzXzXkXhX      ",
"        oXI.s.z g x x O.-.%.*.*.*.*.*.*.*.*.&.&.&.%.&.&.$.<.v e 8 N m m m m Z P [ B.~.oX              kXkXzXzXzXzXlXkXpXpX      ",
"        oX~.s.z k b k h -.%.*.*.*.*.*.*.*.*.*.&.&.&.&.-.l p B N m M n = L L = ; ] B.~.,XpX      1X5XpXkXzXzXzXzXlXkXaX1X        ",
"        ;X~.s.v w 3 B u @.%.*.&.*.*.*.*.*.*.*.*.*.&.#.f 6 9 M n = & % = = = = ; Y p.~.>X>X).>XpXkXxXxXzXxXxXzXkXpX1X            ",
"        OX^.h.T . X . w c $.*.&.$.%.*.*.*.*.*.*.*.$.j 6 3 n + @ @ @ @ @ # * = ; ] B.:XpXgXwXpXxXxXxXxXxXxXxXkXaX1X              ",
"        ,X_.i.L X X & e k #.*.*.&.&.*.*.*.*.*.*.$.x w < . % O O O O @ @ # * = ; ] B.,XkXxXxXxXxXxXxXxXlXkXaX1X                  ",
"        >XF.4.: $ o $ 9 z #.*.:.:.*.*.*.*.*.*.&.h 6 4 + @ O O O O O O @ # * = ; ] B.,XkXxXxXxXxXxXxXkXaX1X;X                    ",
"        ;XD.4.P ; * = M a >.;.:.:.:.*.*.*.*.&.O.a n % O O O o o O O O @ # * = ; ] B.,XkXxXxXkXpXaXwX1X1X                        ",
"        >XF.3.[ Y Q J V p j O.-.$.%.%.%.$.$.-.u 4 . O o o o o o o o o @ # * = L P r.oXpXxXpX1X).;X                              ",
"        ,X).B.[ Y ~ ~ E i y y y i e p e 6 6 9 4 . O o o o o o o o o o @ # * L ^ 0.g.~.5XpX,XOX:X                                ",
"        3XOXK.0._ X.s s W E p A V M n 3 . . % O O O O O O O O @ % & = n M J Q ) h.b.Q.oXoX                                      ",
"        wX:XK.0._ ) ) E E E R T A A B N N N m N N N N N N N N N B T T p p E W ..h.Y.OX,X                                        ",
"        qX:XC.3.> : * * - % % % = n + % @ % + , , . % % % % % % + n n n M G I [ a.I.OX2X                                        ",
"        5X2X~.M.3.> : * - $ o o o O O O O O % & M n n n + % @ % = F G G P { M.B.k.P.$X3X                                        ",
"        5X>XC.M.n.n.C.B.5.I J J F F D H J M % & D D D D F F F H ' 2.j.L.E.L.w.f.l.H.2XwX                                        ",
"        5X;XM.3.o.o.3.n.C.Z.Z.Z.B.r.[ Y I H t t H H Y 5.q.i.K.R.T.T.A.w.q.q.q.q.i.I.<XwX                                        ",
"            S.n.o.> > 3.m.n.M.M.C.D./.~.XX'.'.XXXXXX'.XXE.K.k.w.w.q.q.q.q.q.q.y.N.T.2XqX                                        ",
"            1X,XOXoXOXOXOXOXXX|.].W.'.].].W.P.c.c.v.v.c.l.j.j.j.j.j.j.j.l.l.z.H.E.OX                                            ",
"              ,X~.e.e.0.2.5.} / K I Y Y / 1.1.1.1.1.' ' K J J J J K K K Y Y q.G.XXwX                                            ",
"                  S.B.r.] P L L F F L L ; = = L L F D D D D D D D D G I Y 6.A.                                                  ",
"                    :XoXS.V.4.{ P : : : * * * * * * * * * = L P ] [ r.Z.oX:X                                                    ",
"                              oXD.S.C.C.n.m.4.4.r.r.4.r.V.B.Z.S.).2XuX                                                          ",
"                                              wXqXuX                                                                            ",
"                                                                                                                                ",
"                                                                                                                                "
};
