/* XPM */
static char *_5aba84781df4cc2e2f7428a2f909d84Cf66VkBvNQFDM5Ex_17[] = {
/* columns rows colors chars-per-pixel */
"34 62 256 2 ",
"   c #03064C",
".  c #080826",
"X  c #0C1362",
"o  c #181866",
"O  c #1B1B47",
"+  c #181C57",
"@  c #172168",
"#  c #222667",
"$  c #202877",
"%  c #2A2963",
"&  c #2B2981",
"*  c #2B2B4A",
"=  c #283176",
"-  c #283269",
";  c #343565",
":  c #393537",
">  c #2A3786",
",  c #313979",
"<  c #3E3C4E",
"1  c #1D41A0",
"2  c #374279",
"3  c #1E438F",
"4  c #374A90",
"5  c #504C51",
"6  c #4B4D72",
"7  c #665137",
"8  c #38549E",
"9  c #495590",
"0  c #5E5866",
"q  c #685851",
"w  c #425A9F",
"e  c #585A84",
"r  c #5A5B5A",
"t  c #575E78",
"y  c #3D6491",
"u  c #556494",
"i  c #3865AC",
"p  c #4565A8",
"a  c #676668",
"s  c #776752",
"d  c #656889",
"f  c #696876",
"g  c #766966",
"h  c #636A9A",
"j  c #736B86",
"k  c #736B97",
"l  c #746B75",
"z  c #687399",
"x  c #6B736A",
"c  c #6B7376",
"v  c #6F7389",
"b  c #7C7568",
"n  c #767678",
"m  c #8C7659",
"M  c #6C78A9",
"N  c #767999",
"B  c #7A7B86",
"V  c #857B79",
"C  c #5A7DBA",
"Z  c #828479",
"A  c #848488",
"S  c #9B8458",
"D  c #7686AA",
"F  c #878AA9",
"G  c #8A8A97",
"H  c #938A71",
"J  c #838BB8",
"K  c #8D8C8B",
"L  c #948C96",
"P  c #948CAF",
"I  c #A98F34",
"U  c #AD8F58",
"Y  c #8C9482",
"T  c #8C9499",
"R  c #9194A8",
"E  c #8895B8",
"W  c #959598",
"Q  c #9A9781",
"!  c #AF9768",
"~  c #879AC8",
"^  c #979AB9",
"/  c #C79B53",
"(  c #9C9CA4",
")  c #A59C9D",
"_  c #A79C88",
"`  c #BE9C62",
"'  c #A1A275",
"]  c #9CA5AC",
"[  c #A1A5BF",
"{  c #A4A589",
"}  c #A5A5A4",
"|  c #A5A5B5",
" . c #A6A5AD",
".. c #ADA5A1",
"X. c #ADA5B5",
"o. c #BAA550",
"O. c #C8A763",
"+. c #96A8CB",
"@. c #B7A873",
"#. c #D1A957",
"$. c #CAAC72",
"%. c #A3ADD2",
"&. c #A4ADA1",
"*. c #A4ADBD",
"=. c #A5ADAD",
"-. c #A5ADB5",
";. c #A9ADC7",
":. c gray68",
">. c #ADADB5",
",. c #ADADBD",
"<. c #AEADA3",
"1. c #B5ADB7",
"2. c #D6AD73",
"3. c #D7AD64",
"4. c #B4B089",
"5. c #CCB232",
"6. c #ABB5A5",
"7. c #ACB5C9",
"8. c #ADB5BA",
"9. c gray71",
"0. c #B5B5BD",
"q. c #B6B5C7",
"w. c #B9B5A9",
"e. c #BDB5B5",
"r. c #DCB567",
"t. c #E9B55D",
"y. c #A6B7D8",
"u. c #CAB767",
"i. c #C8B87A",
"p. c #8DB9DA",
"a. c #DBB975",
"s. c #B4BDB3",
"d. c #B5BDBD",
"f. c #B5BDCE",
"g. c #BBBDD6",
"h. c #BCBDC6",
"j. c #BDBDBC",
"k. c #BDBDCE",
"l. c #C6BDC9",
"z. c #C7BD91",
"x. c #E7BD70",
"c. c #B2BFE1",
"v. c #DBC24A",
"b. c #C3C385",
"n. c #BDC6D2",
"m. c #C1C6A2",
"M. c #C5C6C6",
"N. c #C6C6CE",
"B. c #C6C6D7",
"V. c #CEC6C3",
"C. c #EDC678",
"Z. c #EDC769",
"A. c #D7C87A",
"S. c #F9CA69",
"D. c #D5CBAF",
"F. c #EFCB53",
"G. c #F6CD79",
"H. c #C5CEF1",
"J. c #C6CEC6",
"K. c #C6CECE",
"L. c #CDCEE7",
"P. c #CECEC6",
"I. c #CECECE",
"U. c #CECED9",
"Y. c #ECCF28",
"T. c #D6D08F",
"R. c #CDD6E8",
"E. c #CED6CE",
"W. c #D6D6DB",
"Q. c #D6D6E8",
"!. c #ECD769",
"~. c #FCD869",
"^. c #C6D9F9",
"/. c #E9D97C",
"(. c #EED9AF",
"). c #F8D98F",
"_. c #FEDA7D",
"`. c #E8DDD5",
"'. c #D6DED6",
"]. c #D6DEDE",
"[. c #DEDED5",
"{. c gray87",
"}. c #DEDEE7",
"|. c #DEDEF7",
" X c #DFDEEF",
".X c #E0DE95",
"XX c #E4E4AB",
"oX c #EBE689",
"OX c #DEE7DE",
"+X c #DEE7EE",
"@X c #E7E7E6",
"#X c #E7E7EF",
"$X c #E7E7F7",
"%X c #E7E7FF",
"&X c #EFE7E5",
"*X c #EFE7EF",
"=X c #ECEA98",
"-X c #FDEA78",
";X c #F5EBD1",
":X c #FEEB8A",
">X c #FDED98",
",X c #E6EFF7",
"<X c #E7EFE7",
"1X c #E7EFEF",
"2X c #E7EFFF",
"3X c #EFEFEE",
"4X c #EFEFF7",
"5X c #EFEFFF",
"6X c #F7EFFA",
"7X c #F6F69E",
"8X c #EFF7FA",
"9X c gray97",
"0X c #F7F7FF",
"qX c #FFF7F5",
"wX c #FFF7FF",
"eX c #F9F8EA",
"rX c #FEFA89",
"tX c #FFFB97",
"yX c #FEFCAA",
"uX c #F7FFFF",
"iX c #FFFFF5",
"pX c white",
"aX c None",
"sX c black",
"dX c black",
"fX c black",
"gX c black",
"hX c black",
"jX c black",
"kX c black",
"lX c black",
"zX c black",
"xX c black",
"cX c black",
"vX c black",
"bX c black",
"nX c black",
"mX c black",
"MX c black",
"NX c black",
"BX c black",
"VX c black",
"CX c black",
"ZX c black",
"AX c black",
"SX c black",
"DX c black",
"FX c black",
"GX c black",
"HX c black",
"JX c black",
"KX c black",
"LX c black",
"PX c black",
"IX c black",
"UX c black",
/* pixels */
"aXaXaXaXaXaXaXaXaXaXaXaXaXaX( 9X9X4XI.aXaXaXaXaXaXaXaXaXaXaXaXaXaXaX",
"aXaXaXaXaXaXaXaXaXaXaXaXaX0.| {.{.h.W j.P.j.M.@XaXaXaXaXaXaXaXaXaXaX",
"aXaXaXaXaXaXaXaXaXaXaXaXaX( k.+X1X9X}.N.9.9.j.W.3X3X@XN.aXaXaXaXaXaX",
"aXaXaXaXaXaXaXaXaXaXaXaX>.k.Q.B.+XR.g.,.]  .N.@X3X@XM.9.l W W.aXaXaX",
"aXaXaXaXaXaXaXaXaXaXaXh.q.Q.}.Q.+XL.7.,.8.>.| h.U.N.8.>.( ( h.0.aXaX",
"aXaXaXaXaXaXaXaXaXaXI.N.0XpXpXpX9XQ.q.| | -.,.n.}.U.| G A G ,.0.aXaX",
"aXaXaXaXaXaXaXaXaXaX9.Q.pX9X4X#X}.U.N.h.N.U.W.U.U.N.-.( W G R ,.aXaX",
"aXaXaXaXaXaXaXaXaXaX_ #X{.9X$XW.U.U.U.W.{.@X4X3X3X#XI. .G G R ,.U.aX",
"aXaXaXaXaXaXaXaXaXaX' 4XpX0X XU.N.U.U.W.{.#X0X9XpX9X1XI.>.} ] ,.N.aX",
"aXaXaXaXaXaXaXaXaXj.Q 4XpX}.Q.U.I.I.U.W.}.3X#XW <.e.I.U.0.>.h.U.W.aX",
"aXaXaXaXaXaXaXaXaX<.w.3XpX}.B.1.N.I.U.U.M.@XM.{ Q 4.9.I.9.>.h.W.}.aX",
"aXaXaXaXaXaXaXaXaX4.P.0X9XU._ @.0.I.U.e.C.A.{ 4.4.4.K 9.>.=.N.W.}.aX",
"aXaXaXaXaXaXaXaXaX_ #X3X0Xw.$.@.N.I.K.e.4./.oX=X4.H H 9.>.>.N.}.W.aX",
"aXaXaXaXaXaXaXaXaXG #X9X5Xq.a.w.N.M.I.e.m./..X.X.X' 0.j.:.0.U.}.}.aX",
"aXaXaXaXaXaXaXaXe.:.5XpX$X) 2.a.0.Q _ _ i.T.b.7Xb.M.U.0.>.h.W.}.#XaX",
"aXaXaXaXaXaXaXaX) q.8X0X$XB.$.x.! r.x.a.A.oXb.7XT.{.N.>.>.h.Q.Q.aXaX",
"aXaXaXaXaXaXaXaXG U.8X4X XU.4.@.x.3.3.C./.oXtXtXz.{.>.] >.N.W.W.aXaX",
"aXaXaXaXaXaXaXaXW W.4XK.:.U.0.$.S O.x.i.@.oX.X.X0...S m ] N.U.}.aXaX",
"aXaXaXaXaXaXaXaX>. XQ.m.a...>._ $.x.C._.oXT.G U.I.a.S b >.B.}.U.aXaX",
"aXaXaXaXaXaXaX .F g.Q.w.a.a.x.C.x.$.a.@.oXT.#X9Xj.` K W h.W.}.}.aXaX",
"aXaXaXaXaXaXaXv 4 p p W V $.O.C.2.2.! /.>XT.3X3XI.! >.=.k.Q.Q.aXaXaX",
"aXaXaXaXaXaXaXN 9 p p 4 2 ; < r 5 ; g i./.=XW.9X{.H ( >.N.}.U.aXaXaX",
"aXaXaXaXaXaXaXd w p w g.B.6 N.h.O A v + + 6 v ,.h.K L 8.B.}.}.aXaXaX",
"aXaXaXaXaXaXh.2 w p 9 L.,.N U.U.+ {.pX#X; ] e # # # 6 N ;.B.U.aXaXaX",
"aXaXaXaXaXaX( 2 M p 9 Q.G t I.; W 4XpX3X+ }.9X6 N 2 , 4 w D aXaXaXaX",
"aXaXaXaXaXaXN 4 p p D #Xt + T 0.{.@XU.9X- W.9X- N.] , 9 w f.aXaXaXaX",
"aXaXaXaXaXaXv 8 p h ^ }.N.] t >.{.0.N.pX6 N.9XR W.t 2 h D *.aXaXaXaX",
"aXaXaXaXaXaX6 w p 8 > k 0.h.6 {.{.I.@X9Xd h.9XI.>.= > w w B.aXaXaXaX",
"aXaXaXaXaXh.2 w E M u d + ;  .{.( + {.pXG ,.9X{.d = 4 w M W.aXaXaXaX",
"aXaXaXaXaXG 9 p E u R G ;     B t   h.0X| -.}.0.- 2 4 p E aXaXaXaXaX",
"aXaXaXaXaXv 9 p M z F G G v t       ; d o o # # - 2 9 p [ aXaXaXaXaX",
"aXaXaXaXaXt h M h ^ e v A W B  .>.G 6 v 2 @ # # = > 8 w f.aXaXaXaXaX",
"aXaXaXaXI.V R M h > # t f f  .A G -.,.R F R R v 6 9 w w N.aXaXaXaXaX",
"aXaXaXaX} L D.(.D.L j ;     + t v G | q.,.,.G v e z w M U.aXaXaXaXaX",
"aXaXaXaX:.0.B.B.h.) @.z.i._ A t + + X - d e d N 2 9 p ^ aXaXaXaXaXaX",
"aXaXaXaX( k.U. XB.h.>. .:...z.(.(.D.w.W e = # 2 2 9 w ;.aXaXaXaXaXaX",
"aXaXaXaXW B.U.U.h.9.w.j.h.N.W.I.U.E.D..X(.T._ V A F D q.aXaXaXaXaXaX",
"aXaXaXaX( B.Q.U.k.0.0.j.h._ ) e.I.@XpX4XN.0.( K _ D.D.W.aXaXaXaXaXaX",
"aXaXaX9.] U.Q.B.h.V K K 9.9...{ ) <.9XeX`.M.>. .0.B.k.@XaXaXaXaXaXaX",
"aXaXaX} ,.Q.Q.n.,.K K L S H ) M.W.I.pX3X}.j.}  .0.B.W.aXaXaXaXaXaXaX",
"aXaXaX .0.Q.L.k.0.0.0.>.:...<._ M.4.{.9.:.j. . .h.W.W.aXaXaXaXaXaXaX",
"aXaXaXT k.U.B.h.0.9.9.0.N.W.@X4X3X'.I.w.) 0. .>.N.W.W.aXaXaXaXaXaXaX",
"aXaXh.W B.Q.B.q.>.9.0._ _ V.#XpXpXpXpX1XU.9.} >.B.Q.U.aXaXaXaXaXaXaX",
"aXaX:.( B.U.n.0.>.} W U S @.4.{ W.pXpX}.N.:.( 0.U.U.{.aXaXaXaXaXaXaX",
"aXaX( >.n.U.k.8.Q U U S S ` i.A.z.9X9X{.h. .( 0.U.B.aXaXaXaXaXaXaXaX",
"aXaX( ,.U.B.q.>.H m S _ 4.<.H b.b.i.D.].j.}  .q.W.W.aXaXaXaXaXaXaXaX",
"aXaXT q.U.B.0.-.W U S ..4.D.<.9.z.b.@.K.9.( | k.N.W.aXaXaXaXaXaXaXaX",
"aX0.( h.B.k.,.>.>. .) U $.a.T.V._ _ ..I.>.( >.N.U.0.aXaXaXaXaXaXaXaX",
"aX} ( k.h.q.>. .>.9.U U ! ' b.z.{.'.{.M.:.( 0.U.U.@XaXaXaXaXaXaXaXaX",
"aXW  .k.k.q.-. .>. .U U ! H b.T.#X9X{.h. .] 0.U.h.aXaXaXaXaXaXaXaXaX",
"aXG >.k.k.,. . .>.0.! ! @.i.b.m.9X9XW.0.(  .0.N.U.aXaXaXaXaXaXaXaXaX",
"aXf R k.k.>. . .>.0.<.` $.A.=X[.pX3XU.9.(  .h.U.U.aXaXaXaXaXaXaXaXaX",
"aXG *.P F R  . .>.j.h.M.D.V.@XpX9X#XN.:.( >.N.U.}.aXaXaXaXaXaXaXaXaX",
"( W q.k.,.T v B T >.N.{.3XpXpXpX9X}.M. .( >.B.U.aXaXaXaXaXaXaXaXaXaX",
":.A 0.q.>.(  . . .( T ] 0.{.4XpX9X{.j. .( >.B.U.aXaXaXaXaXaXaXaXaXaX",
"aXL n W ( ( } ( ( ( h.I.}.W.k.| ,.( G A G | ;.k.aXaXaXaXaXaXaXaXaXaX",
"aXaXZ B W W W ( >.h.N.U.W.U.,.}.#XI. .W R | k.h.aXaXaXaXaXaXaXaXaXaX",
"aXaX:.0 n W :.j.M.I.W.@X0XpXpX4X@XM. .W  .0.h.@XaXaXaXaXaXaXaXaXaXaX",
"aXaXaXaXK A K ) }  .9.M.W.{.@X}.I.9.( W  .q.N.aXaXaXaXaXaXaXaXaXaXaX",
"aXaXaXaXaXaX9.:.9.:.} W K K K A A B n a n ( aXaXaXaXaXaXaXaXaXaXaXaX",
"aXaXaXaXaXaXaXaXaXaX:.} } W A n a 5 5 l aXaXaXaXaXaXaXaXaXaXaXaXaXaX",
"aXaXaXaXaXaXaXaXaXaXaXaXaXaXaX9.( } :.aXaXaXaXaXaXaXaXaXaXaXaXaXaXaX"
};
