/* XPM */
static char *_5aba84781df4cc2e2f7428a2f909d84Cf66VkBvNQFDM5Ex_15[] = {
/* columns rows colors chars-per-pixel */
"28 62 256 2 ",
"   c #03064C",
".  c #080826",
"X  c #0C1362",
"o  c #181866",
"O  c #1B1B47",
"+  c #181C57",
"@  c #172168",
"#  c #222667",
"$  c #202877",
"%  c #2A2963",
"&  c #2B2981",
"*  c #2B2B4A",
"=  c #283176",
"-  c #283269",
";  c #343565",
":  c #393537",
">  c #2A3786",
",  c #313979",
"<  c #3E3C4E",
"1  c #1D41A0",
"2  c #374279",
"3  c #1E438F",
"4  c #374A90",
"5  c #504C51",
"6  c #4B4D72",
"7  c #665137",
"8  c #38549E",
"9  c #495590",
"0  c #5E5866",
"q  c #685851",
"w  c #425A9F",
"e  c #585A84",
"r  c #5A5B5A",
"t  c #575E78",
"y  c #3D6491",
"u  c #556494",
"i  c #3865AC",
"p  c #4565A8",
"a  c #676668",
"s  c #776752",
"d  c #656889",
"f  c #696876",
"g  c #766966",
"h  c #636A9A",
"j  c #736B86",
"k  c #736B97",
"l  c #746B75",
"z  c #687399",
"x  c #6B736A",
"c  c #6B7376",
"v  c #6F7389",
"b  c #7C7568",
"n  c #767678",
"m  c #8C7659",
"M  c #6C78A9",
"N  c #767999",
"B  c #7A7B86",
"V  c #857B79",
"C  c #5A7DBA",
"Z  c #828479",
"A  c #848488",
"S  c #9B8458",
"D  c #7686AA",
"F  c #878AA9",
"G  c #8A8A97",
"H  c #938A71",
"J  c #838BB8",
"K  c #8D8C8B",
"L  c #948C96",
"P  c #948CAF",
"I  c #A98F34",
"U  c #AD8F58",
"Y  c #8C9482",
"T  c #8C9499",
"R  c #9194A8",
"E  c #8895B8",
"W  c #959598",
"Q  c #9A9781",
"!  c #AF9768",
"~  c #879AC8",
"^  c #979AB9",
"/  c #C79B53",
"(  c #9C9CA4",
")  c #A59C9D",
"_  c #A79C88",
"`  c #BE9C62",
"'  c #A1A275",
"]  c #9CA5AC",
"[  c #A1A5BF",
"{  c #A4A589",
"}  c #A5A5A4",
"|  c #A5A5B5",
" . c #A6A5AD",
".. c #ADA5A1",
"X. c #ADA5B5",
"o. c #BAA550",
"O. c #C8A763",
"+. c #96A8CB",
"@. c #B7A873",
"#. c #D1A957",
"$. c #CAAC72",
"%. c #A3ADD2",
"&. c #A4ADA1",
"*. c #A4ADBD",
"=. c #A5ADAD",
"-. c #A5ADB5",
";. c #A9ADC7",
":. c gray68",
">. c #ADADB5",
",. c #ADADBD",
"<. c #AEADA3",
"1. c #B5ADB7",
"2. c #D6AD73",
"3. c #D7AD64",
"4. c #B4B089",
"5. c #CCB232",
"6. c #ABB5A5",
"7. c #ACB5C9",
"8. c #ADB5BA",
"9. c gray71",
"0. c #B5B5BD",
"q. c #B6B5C7",
"w. c #B9B5A9",
"e. c #BDB5B5",
"r. c #DCB567",
"t. c #E9B55D",
"y. c #A6B7D8",
"u. c #CAB767",
"i. c #C8B87A",
"p. c #8DB9DA",
"a. c #DBB975",
"s. c #B4BDB3",
"d. c #B5BDBD",
"f. c #B5BDCE",
"g. c #BBBDD6",
"h. c #BCBDC6",
"j. c #BDBDBC",
"k. c #BDBDCE",
"l. c #C6BDC9",
"z. c #C7BD91",
"x. c #E7BD70",
"c. c #B2BFE1",
"v. c #DBC24A",
"b. c #C3C385",
"n. c #BDC6D2",
"m. c #C1C6A2",
"M. c #C5C6C6",
"N. c #C6C6CE",
"B. c #C6C6D7",
"V. c #CEC6C3",
"C. c #EDC678",
"Z. c #EDC769",
"A. c #D7C87A",
"S. c #F9CA69",
"D. c #D5CBAF",
"F. c #EFCB53",
"G. c #F6CD79",
"H. c #C5CEF1",
"J. c #C6CEC6",
"K. c #C6CECE",
"L. c #CDCEE7",
"P. c #CECEC6",
"I. c #CECECE",
"U. c #CECED9",
"Y. c #ECCF28",
"T. c #D6D08F",
"R. c #CDD6E8",
"E. c #CED6CE",
"W. c #D6D6DB",
"Q. c #D6D6E8",
"!. c #ECD769",
"~. c #FCD869",
"^. c #C6D9F9",
"/. c #E9D97C",
"(. c #EED9AF",
"). c #F8D98F",
"_. c #FEDA7D",
"`. c #E8DDD5",
"'. c #D6DED6",
"]. c #D6DEDE",
"[. c #DEDED5",
"{. c gray87",
"}. c #DEDEE7",
"|. c #DEDEF7",
" X c #DFDEEF",
".X c #E0DE95",
"XX c #E4E4AB",
"oX c #EBE689",
"OX c #DEE7DE",
"+X c #DEE7EE",
"@X c #E7E7E6",
"#X c #E7E7EF",
"$X c #E7E7F7",
"%X c #E7E7FF",
"&X c #EFE7E5",
"*X c #EFE7EF",
"=X c #ECEA98",
"-X c #FDEA78",
";X c #F5EBD1",
":X c #FEEB8A",
">X c #FDED98",
",X c #E6EFF7",
"<X c #E7EFE7",
"1X c #E7EFEF",
"2X c #E7EFFF",
"3X c #EFEFEE",
"4X c #EFEFF7",
"5X c #EFEFFF",
"6X c #F7EFFA",
"7X c #F6F69E",
"8X c #EFF7FA",
"9X c gray97",
"0X c #F7F7FF",
"qX c #FFF7F5",
"wX c #FFF7FF",
"eX c #F9F8EA",
"rX c #FEFA89",
"tX c #FFFB97",
"yX c #FEFCAA",
"uX c #F7FFFF",
"iX c #FFFFF5",
"pX c white",
"aX c None",
"sX c black",
"dX c black",
"fX c black",
"gX c black",
"hX c black",
"jX c black",
"kX c black",
"lX c black",
"zX c black",
"xX c black",
"cX c black",
"vX c black",
"bX c black",
"nX c black",
"mX c black",
"MX c black",
"NX c black",
"BX c black",
"VX c black",
"CX c black",
"ZX c black",
"AX c black",
"SX c black",
"DX c black",
"FX c black",
"GX c black",
"HX c black",
"JX c black",
"KX c black",
"LX c black",
"PX c black",
"IX c black",
"UX c black",
/* pixels */
"aXaXaXaXaXaXaXaXaX3X4X{.I.W.aXaXaXaXaXaXaXaXaXaXaXaXaXaX",
"aXaXaXaXaXaXaXn }.{.N.L j.M.:.:.W.3X9X3XI.9.:.aXaXaXaXaX",
"aXaXaXaXaXaXM.,.8X9X9X#XU.h.h.N.}.#X#XM.N.K a 0.W.0.aXaX",
"aXaXaXaXaXaX0.f.R.U. XU.q.|  .0.h.N.U.h.>.( ( 8.h.0.aXaX",
"aXaXaXaXaXI.*. XL.#X4Xg.;.0.8.| ,.U.}.h.( G A G ( h.aXaX",
"aXaXaXaXaX>.Q.+X#X+X XB.,.| >.h.I.U.U.k.| W G N R q.aXaX",
"aXaXaXaXM.W.pXpX0X4X#XU.N.N.I.{.1X3X1X@XK.>.T T ] ,.N.aX",
"aXaXaXaX>. X3X9X$XW.U.I.U.W.{.@X9X9XpX9X3XU.0.>.>.N.W.aX",
"aXaXaXaX_ #X#X0X$XW.U.U.U.W.{.3X0XM.j.M.V.W.d.>.0.W.}.4X",
"aXaXaXaXQ @XpX9X$XU.N.I.I.W.{.3X4XQ K 4...N.0.>.0.U.}.4X",
"aXaXaXaXV {.pX}.Q.U.B.N.I.W.e.D.m.4.{ T.A ) 0.:.0.W.Q.].",
"aXaXaXaXH }.pX4XB.Q ..N.I.W.O._.T.b.T.Q Q ) 9.>.h.W.Q.aX",
"aXaXaXaX4.#XpX}.4.@.<.K.N.W.) <.:X.XoXb.Q K.9.>.h.Q.}.aX",
"aXaXaXaX<.5X3X4X4.a.>.N.N.I.@.A.>Xb.=Xz.I.N.>.>.l.Q.}.aX",
"aXaXaXM.R 4X9X+X..a.4.N.Q 4.Q i..Xb.tXA.}.N.>.>.N.Q.].aX",
"aXaXaX<.9.0XuX$X0.$.C.H 3.x.x.A.A..XtXb.].-.W ] N.U.}.aX",
"aXaXaX<.,.8X0X$XU.@.$.a.3.3.C.).oX7X7Xw.9.U m W N.W.W.aX",
"aXaXaXR q.4X8XQ.U.>.2.! ` x.a.@.b.' w.}.$.! m ( N.}.].aX",
"aXaXaXW N.#XQ.4.0.N.>.! r.x.G./.>X<.pX#X@.V ( 8.U.}.}.aX",
"aXaXaX9.U.4Xd.T.$.@.2.C.x.` $./.>Xj.pX#X.._  .8.U.Q.W.aX",
"aXaXaX] 7.B.f.z.2.a.C.x.$.` u.:X:Xz.pX4Xh.H  .0.U.}.].aX",
"aXaXaXe w p h v l b b S q 6 g ' @.4.0.U.h.V W 0.U.}.W.aX",
"aXaXaXd w p w h N % ] W   G T v - X o # # # = 9 M E #XaX",
"aXaXaXd w p w B.k.v W.W.+ W.pX4X% {.}.e v 6 = 4 w ^ aXaX",
"aXaXaX6 w p w B.,.t U.A f 3X9XpXt k.pXd 8.d., 4 w F aXaX",
"aXaX0.2 M p 8 U.| + ] 0.0.3X0.pXR R pXR W.R , 4 E ^ aXaX",
"aXaXh.6 p p u Q.0.6 ; B }.{.v pXh.e 9XB.{.t , 9 w [ aXaX",
"aXaX] , p p h B.W.U. .G @XI.W.pXW.X 3X3XN.- 2 9 p ;.aXaX",
"aXaX( > p p 4 = t ( f M.{.t 6 4X9X- ].3X| - > 8 p ;.aXaX",
"aXaXT > p J M N v +   j >.+   U.U.v N 6 # - > 8 w q.aXaX",
"aXaXG 4 M D 9 R G ; O       + + N o @ # # - > w w f.aXaX",
"aXaXN e p D M F v R ( G (  .T t v N v N v 6 u w w h.aXaX",
"aXaXB 9 M M P e j v G G A ] | 0.R R | R G d z w w U.aXaX",
"aXaXB u p M 9 - ; + f f t 6 R R ( | | N B 6 9 w h }.aXaX",
"aXaXK z.(.D...A A n f 6 %   + + X o - - # e > w M }.aXaX",
"aXaX( 7.B.N.:._ _ $.z.z.T.(.(.XXT.D.4._ V n L  . .U.aXaX",
"aXaX( n.Q.Q.n.0.0.0.9.0.h.U.W.E.P.P.D.<.Q K ..D.j.aXaXaX",
"aXW.W U.Q.N.j.9.e.j.M.:.w.V.I.@XpX9X@XN.>. .0.U.U.aXaXaX",
"aXh.W U.U.B.k.0.0.:.M.) Q { W <.9X&X`.j.<. .0.B.W.aXaXaX",
"aXW.( U.Q.U.h.V V W ) ..:.M.W.I.4X@XW.h.:. .h.W.W.aXaXaX",
"aXj.( U.Q.B.q.L W L Q H Q _ M.{ E.4.) :. . .h.W.W.aXaXaX",
"aX>.] U.Q.B.q.>.9.0.M.U.{.#X4X@X{.{.j.j. . .h.W.U.aXaXaX",
"aX>.| U.L.k.0.8.9.0.:.h.}.9XpXpXpX9X{.j. . .k.U.].aXaXaX",
"aX .-.U.L.k.0.>.9.) S U w.<.w.3XpX9XW.d. . .k.W.N.aXaXaX",
"aX} ,.U.U.k.,.=.) ! U U O.i.A.D.@X3XW.0.}  .h.W.].aXaXaX",
"aX( | B.U.h.>.H U ! U ! _ ' b.b.A.z.W.9.( >.k.N.U.aXaXaX",
"aXW 0.U.B.q.>.H m S  .j.j.} :.4.b.@.N.9.( >.N.U.0.aXaXaX",
"aXW ,.U.B.0.-.W S Q _ O.x.T.j...Q <.I.9.( >.N.W.W.aXaXaX",
"aX( ,.U.B.0.>.>.9.) U ` @.4.b.I.@X#XI.:.( >.N.B.h.aXaXaX",
"aXW k.N.h.,.-.>.9.Q U ! V 4.T.P.pX#XN.:.( >.h.N.aXaXaXaX",
"aXA q.k.k.,. .:.>._ U @.! 4.T.E.pX@XN. .(  .B.N.aXaXaXaX",
"aXG q.k.k.>. .:.>.:.` ` i.T..X3XpX@XM. .( 8.B.U.aXaXaXaX",
"aXG q.n.q.|  .:.>.0.w.@.@.D.@XpX9X}.h.} ( 0.B.W.aXaXaXaX",
"0.j F [ ,.|  . .>.j.M.{.3XpXpXpX4X{.h. .( -.B.U.aXaXaXaX",
"W T q.7.R N B B A ( >.I.@X9XpXpX9X{.d. .( ,.f.q.aXaXaXaX",
"} T q.h.,.] } =. .:.>.0.h.h.q.,.,.( N B N F ;.h.aXaXaXaX",
"aXB ( ,.-. .( } W ( 0.>.,.W.k.U.3XW.9.( ( 0.0.U.aXaXaXaX",
"aXj.n A L K L (  .9.K.{.9XpX9X9X3XU.>.( ( 0.h.W.aXaXaXaX",
"aXaXaXa n W :.9.j.N.I.{.#X3X3X#XW.d.( K A K } aXaXaXaXaX",
"aXaXaX:.B n A W ( } ) ( W W L K A n r < 5 ..aXaXaXaXaXaX",
"aXaXaXaXaXaX9.( 9.j.9.:.} W K A n a 0 A :.aXaXaXaXaXaXaX",
"aXaXaXaXaXaXaXaXaXaXaXaXaXaXh.9.M.aXaXaXaXaXaXaXaXaXaXaX"
};
