/* XPM */
static char *_77941ad851849d9a14b3aabdedf9675jm9We3XNlYlIcvEW_7[] = {
/* columns rows colors chars-per-pixel */
"64 64 256 2 ",
"   c None",
".  c #7A4D3B",
"X  c #6B4C3B",
"o  c #634D45",
"O  c #6C4D43",
"+  c #7A4E41",
"@  c #6E5247",
"#  c #6D564C",
"$  c #675148",
"%  c #725246",
"&  c #78584A",
"*  c #715C52",
"=  c #7D5C51",
"-  c #6F5B51",
";  c #7E6053",
":  c #736459",
">  c #7B766B",
",  c #824E3B",
"<  c #8D4F3C",
"1  c #8C4E36",
"2  c #914E3D",
"3  c #85513A",
"4  c #8A523B",
"5  c #8C573B",
"6  c #965437",
"7  c #9C5936",
"8  c #95543B",
"9  c #95583F",
"0  c #9D5A3C",
"q  c #995638",
"w  c #9E5926",
"e  c #A55C34",
"r  c #A35D3E",
"t  c #86673C",
"y  c #B5642C",
"u  c #BA6A2E",
"i  c #B86626",
"p  c #AB6233",
"a  c #A9623B",
"s  c #B46931",
"d  c #B66A36",
"f  c #BE7237",
"g  c #BE702F",
"h  c #BF6E17",
"j  c #D37C19",
"k  c #CD761A",
"l  c #C47225",
"z  c #CB7423",
"x  c #C4732C",
"c  c #CA752B",
"v  c #CC792B",
"b  c #D37C24",
"n  c #D07723",
"m  c #C9793A",
"M  c #C56F28",
"N  c #835542",
"B  c #8E5C4D",
"V  c #885C45",
"C  c #935942",
"Z  c #9B5B41",
"A  c #975B48",
"S  c #8A5D50",
"D  c #A25D41",
"F  c #A15F4B",
"G  c #86634A",
"H  c #8A644B",
"J  c #896648",
"K  c #956649",
"L  c #9A7549",
"P  c #826454",
"I  c #8B6958",
"U  c #966954",
"Y  c #957255",
"T  c #997359",
"R  c #A4644A",
"E  c #A76647",
"W  c #B26D45",
"Q  c #BA7345",
"!  c #A36A52",
"~  c #A26450",
"^  c #B26E51",
"/  c #A47559",
"(  c #A6795C",
")  c #A67759",
"_  c #B57454",
"`  c #B67A59",
"'  c #A2784A",
"]  c #8F7363",
"[  c #987664",
"{  c #957D72",
"}  c #A37B63",
"|  c #A97B65",
" . c #B47E63",
".. c #C57A45",
"X. c #C87B47",
"o. c #C17C53",
"O. c #7E8376",
"+. c #DE841D",
"@. c #DB8314",
"#. c #DD8107",
"$. c #E78B0A",
"%. c #EE9109",
"&. c #F39603",
"*. c #F79802",
"=. c #F99A01",
"-. c #F59609",
";. c #E48918",
":. c #F09519",
">. c #FDA000",
",. c #DB8427",
"<. c #CC802F",
"1. c #E18822",
"2. c #A88455",
"3. c #B1895A",
"4. c #8A8779",
"5. c #9B8578",
"6. c #A38166",
"7. c #A68469",
"8. c #AA866A",
"9. c #AE896C",
"0. c #AA8367",
"q. c #B4896C",
"w. c #B3956A",
"e. c #B9996A",
"r. c #AE8B71",
"t. c #A4897A",
"y. c #B18D72",
"u. c #B59375",
"i. c #B99676",
"p. c #B49278",
"a. c #BE9A79",
"s. c #BB9878",
"d. c #AF937F",
"f. c #C6835A",
"g. c #D48D53",
"h. c #C19E6B",
"j. c #C29B7B",
"k. c #D19169",
"l. c #C6A366",
"z. c #C5A379",
"x. c #CAA777",
"c. c #D0AC78",
"v. c #D5B27A",
"b. c #DAB67B",
"n. c #E3A17A",
"m. c #99988C",
"M. c #989185",
"N. c #A79689",
"B. c #BE9C83",
"V. c #B59786",
"C. c #AC8D80",
"Z. c #ADA496",
"A. c #BEA295",
"S. c #B7A996",
"D. c #BEA790",
"F. c #BAADA2",
"G. c #BDB1AA",
"H. c #B7B2AD",
"J. c #C3A484",
"K. c #CCAB85",
"L. c #CDAE8A",
"P. c #C8A589",
"I. c #D2B38B",
"U. c #D9B887",
"Y. c #C4AB9B",
"T. c #C8A994",
"R. c #D6AE99",
"E. c #CBB59A",
"W. c #D1B595",
"Q. c #D3BA9C",
"!. c #DABC9A",
"~. c #D7B798",
"^. c #CDB28A",
"/. c #E0BC83",
"(. c #CCB7A7",
"). c #DBBCA3",
"_. c #D2BDAC",
"`. c #D2B6A7",
"'. c #C9BDB3",
"]. c #D8BEB4",
"[. c #C09F84",
"{. c #D9C19B",
"}. c #E6C387",
"|. c #ECC88B",
" X c #E8C589",
".X c #EACA96",
"XX c #F2D399",
"oX c #F0D096",
"OX c #EFD19D",
"+X c #DBC5A7",
"@X c #CBC3BA",
"#X c #D8C6B9",
"$X c #E7CDA6",
"%X c #E9D1A9",
"&X c #F4D9A7",
"*X c #E3CBB5",
"=X c #E7D4B7",
"-X c #F1DBB6",
";X c #F6DDB3",
":X c #FAE3BA",
">X c #F5E1BA",
",X c #CBC6C5",
"<X c #DBCDC3",
"1X c #D3CCC7",
"2X c #DCD2CA",
"3X c #DED2C6",
"4X c #D9D6D4",
"5X c #E2D5CA",
"6X c #E8DAC9",
"7X c #E2DEDB",
"8X c #E7DDD7",
"9X c #F4E3C4",
"0X c #F9E5C6",
"qX c #F9E7C8",
"wX c #F9E8CC",
"eX c #F4E5CB",
"rX c #EBE2DA",
"tX c #E8E2D9",
"yX c #FAECD6",
"uX c #FAEBD4",
"iX c #FBEDD9",
"pX c #F2E7D8",
"aX c #FEF1DB",
"sX c #FEF1DC",
"dX c #EDECEB",
"fX c #E9E6E4",
"gX c #F5EDE4",
"hX c #FAF2E6",
"jX c #FBF4ED",
"kX c #EEEEF1",
"lX c #EEF0F5",
"zX c #F3F4F6",
"xX c #F5F7F8",
"cX c #F7F8F9",
"vX c gray98",
"bX c #FBF6F2",
"nX c black",
"mX c black",
"MX c black",
"NX c black",
"BX c black",
"VX c black",
"CX c black",
"ZX c black",
"AX c black",
"SX c black",
"DX c black",
"FX c black",
"GX c black",
"HX c black",
"JX c black",
"KX c black",
"LX c black",
"PX c black",
"IX c black",
"UX c black",
/* pixels */
"                                                                                                                                ",
"                                                                                                                                ",
"                                              bXbX                                                                              ",
"                    hXhXhXhXhXgXiXyXyXyXyXyXyXiXiXaXaXaXaXiXiXhXhXjXbXhXjXbX                                                    ",
"              hXhXgXiXyXyXwXwXqXqXqXqXqXqXwXyXiXaXaXaXaXaXiXiXiXaXsXaXyXiXyXyXiXgX                                              ",
"        hXhXgXeXeXyXiXuXqXqXqX0X0X0XqXqXqXqXwXuXiXaXaXaXaXaXaXaXaXiXuXwXqX0X>X9XeXuXhXhX                                        ",
"        yXuXeX0XwXyXyXuXqXqXqXwXuXuXuXyXyXyXaXaXaXaXaXaXaXaXaXaXyXwXqX0X:X:X;X-X-X-X9XeXgX                                      ",
"      9X>X>X>X>X9XqXqXqXqX0XwXyXyXwXwXuXyXyXyXwXqXqXqXqXqXqXqX0X:X:X:X;X;X&X&XXXOX$X$X=XrX                                      ",
"    pX=X%X&X>X9X0X0X9X9X0X:X:X:X0X0X:X:X:X:X:X:X:X:X:X:X:X:X:X;X&X&X&XXXXXoX.X|.|.|..X$X=X                                      ",
"  tX6X+X$X%X-X-X-X-X-X-X>X;X;X;X&X&X&X&X&X&XXXXXXXXXXXXXXXXXoX.X.X|.|.|.|. X}.}.}./.!.{.+X6XrX                                  ",
"  8X6X+X+X+X%X*X=X-X%X$X$X.X|.|.|.|.|.|. X}.}.}.}.}.}.}.}.}././././././././.U.b.v.I.I.I.Q.5XtX                                  ",
"  tX5XQ.Q.{.+X{.!.!.!.!.!.U.b.v.v.v.v.v.c.c.c.v.v.v.v.v.c.c.c.c.c.c.c.c.K.K.K.z.z.z.J.L.Q.<X5X                                  ",
"    5XQ.W.Q.).R.L.L.I.K.z.z.z.z.z.h.h.a.a.a.a.a.a.a.a.a.a.a.a.a.a.a.a.a.a.a.a.i.i.a.B.P.`.5XtX                                  ",
"      `.Q.W.W.W.T.J.J.J.a.a.s.u.u.u.y.y.9.9.9.8.7.8.9.9.9.y.u.u.y.y.y.u.u.u.u.u.i.a.B.T.`.                                      ",
"      +XQ.Q.).Q.W.K.P.J.a.a.i.u.u.y.9.y.8.7.7.7.7.7.7.7.7.7.7.7.7.8.9.9.9.9.y.u.s.B.J.T.(.                                      ",
"      =X+X!.).).Q.W.P.J.a.a.a.a.a.u.y.9.8.7.7.7.6.} 6.7.7.7.7.7.7.6.} 7.8.9.y.u.s.B.T.(.'.                                      ",
"      8X*X).).).).!.I.P.B.a.a.a.u.u.y.9.8.7.7.7.7.7.7.7.7.7.7.7.7.7.7.7.8.9.y.y.p.B.A.(.].                                      ",
"      2X#X+X{.!.!.W.L.J.a.a.a.a.u.u.y.9.9.9.9.8.7.7.7.8.9.9.8.7.7.8.9.9.8.8.r.y.p.V.V.Y._.8XdX                                  ",
"      8X_.T.~.I.I.I.K.K.z.a.a.a.u.u.u.y.9.9.9.9.8.7.8.9.9.9.9.9.9.9.9.y.y.y.y.y.p.V.V.T._.8XdX                                  ",
"      rXE.y.B.P.K.K.K.K.z.a.a.a.a.i.u.u.u.y.y.9.9.9.9.9.9.9.9.y.y.y.y.y.y.y.u.u.u.u.a.T._.6XrX                                  ",
"      rX(.9.( 8.i.z.z.j.a.a.a.a.a.a.s.u.u.u.u.y.y.y.y.y.y.y.y.y.y.y.y.y.u.u.u.u.i.a.B.D.Y.#X<X                                  ",
"      fX_.u.( / ( 9.u.u.u.9.8.7.8.y.u.u.u.u.u.y.y.y.u.u.u.u.u.u.u.u.u.u.u.u.u.s.a.a.B.B.P.W.+X6X      xXvXvXvX                  ",
"        P.p.( / / / 0.8.} U U B B B U Y T } 8.9.9.9.r.y.u.u.u.u.u.u.u.a.i.i.a.a.a.B.B.B.P.^.~.!.`._.1X7XdXcXcXvXvX              ",
"        A.V.( / / / / T K V N N , , , N N V Y [ } 7.7.8.9.r.y.u.u.i.a.a.a.a.a.a.a.B.J.J.P.K.K.K.P.T.#X7XdXzXzXcXvXvX            ",
"        Y.V.( / / / / U K C < 3 3 3 3 3 , , N H U Y Y Y T } 0.9.y.u.i.a.a.a.a.B.J.J.J.P.K.I.I.R.'.          zXzXcXcXvXvX        ",
"        Y.V.( / ( ` / ~ A Z 8 < 3 3 3 3 3 , , N V B B H U Y T / } 8.y.a.a.a.a.B.J.P.K.K.L.Q.*X6X              kXlXzXcXcXcX      ",
"        A.V._ ^ _ _ _ E D q 8 2 2 4 3 N 3 3 3 , , < , . N V H U U ! ( 8.y.u.a.a.a.J.K.L.Q.=X6X                    kXzXcXcX      ",
"        A.V. ._ ^ ^ ^ E r q 6 q 8 8 2 < 4 3 , , , 2 4 , , 3 3 3 3 5 A ! | 9.u.s.j.P.K.^.Q.5XtX                    lXzXcXcXcX    ",
"        A.B.` _ _ _ _ ^ D r r r q 8 < 4 3 3 3 1 6 6 4 3 3 < 2 4 N 3 4 Z R } r.i.a.J.K.W.+XpXgX                    zXlXzXzXzXzX  ",
"        A.B.` _ _ _ ` W p e r r r 0 6 6 8 2 2 8 7 p 7 8 9 8 8 C 8 4 4 6 0 R 6.r.s.J.K.Q.#X                          lXzXzXzXcXcX",
"        Y.B.` Q Q _ _ W p e e e e e e r 0 6 6 e p u s e q r Z 9 8 8 9 q 0 R } 8.p.B.K.).3X                          lXzXzXzXzXzX",
"        R.P.f.....Q _ W p p p p p e e e p p e y x ,.l y e r 0 8 9 Z D D E R ! } 9.a.P.+X6X                          zXzXzXzXzXzX",
"        R.P.f.....Q Q d y y y u u u u g g y y i n +.b u e 6 8 8 C 8 q 9 A R E E ( y.Y._.                            zXzXzXzXzXzX",
"        `.P.f.....m d y u y u l l c v n z c x b +.;.+.x e 6 6 8 9 8 q d d Q m X.` y.`.#X                          cXcXzXzXzXcXcX",
"        `.T.f...m v x g g i k #.;.;.,.,.+.@.;.;.:.&.$.z e 6 8 9 8 8 C F R E W E | C.Y._.                          cXcXzXzXzXcXcX",
"        #XR.f.m x c l l c M b ;.-.*.*.*.*.&.&.&.-.*.*.@.p 7 8 Z Z Z E D F F R U | B.(._.                          cXcXzXxXcXvXvX",
"        #XR.g.x l c x z b v +.-.*.=.=.=.*.*.&.&.&.*.*.$.i e Z Z Z Z Z D F ~ ! ! | B.E._.                      vXvXcXxXcXcXvXvX  ",
"        #XR.g.v l z b ,.;.#.;.:.=.=.=.*.*.*.*.*.*.*.*.%.@.z y e r Z Z D R ! ! U | B.`.].                      cXcXcXxXcXcXvXvX  ",
"        #XR.g.,.b b b ;.&.&.&.-.*.=.*.*.*.*.*.*.*.*.*.*.*.-.;.v d E D F R R ! U 6.B._.#X                    cXcXcXcXcXzXzXxX    ",
"        #XQ.f.v k n b ;.-.*.*.*.*.=.*.*.*.*.*.*.*.*.*.*.*.*.%.j s 0 Z Z A U U H } B.`.#X                cXcXxXcXcXcXcXzXkX      ",
"        @XY.f.v k b b ,.;.-.*.*.=.*.*.*.*.*.*.*.*.*.*.*.%.1.x e q C B B B B B H [ V.(.@X              kXxXcXcXcXcXcXzXdXdX      ",
"        @X(.f.v z M z j ;.-.*.*.=.=.*.*.*.*.*.*.*.*.*.;.c a Z Z B S = = P P = ; ] C.(.2XdX      4X7XdXxXcXcXcXcXcXzXfX4X        ",
"        ,X(.f.m e 3 9 i #.&.*.*.*.*.*.*.*.*.*.*.*.*.$.h 6 8 4 N = & % = = = = ; T p.(.1X1X'.1XdXxXvXvXcXvXvXcXxXdX4X            ",
"        #X).k.R . X . a b %.*.*.&.*.*.*.*.*.*.*.*.%.l 7 3 N + @ @ @ @ @ # * = ; ] V.<XdXzXrXdXvXvXvXvXvXvXcXzXfX4X              ",
"        2X].a.P X X . 0 l $.*.=.*.*.*.*.*.*.*.=.%.b e < . % O O O O @ @ # * = ; ] V.2XzXvXvXvXvXvXvXvXcXzXfX4X                  ",
"        1XH.5.: $ o $ 5 x $.=.>.>.=.*.*.*.=.=.*.j w 4 + @ O O O O O O @ # * = ; ] V.2XxXvXvXvXvXvXvXzXfX4X,X                    ",
"        ,XH.5.I ; * = C s ,.:.=.>.>.=.=.=.=.*.+.s 3 % O O O o o O O O @ # * = ; I t.1XzXvXvXxXdXdXtX4X4X                        ",
"        1XH.4.[ T ! K A a l ,.;.%.-.&.-.&.%.1.s 4 . O o o o o o o o o @ # * = P I t.@XdXcXdX4X'.,X                              ",
"        2X'.V.[ T ^ ^ W p s u u p e a r 0 7 6 4 . O o o o o o o o o o @ # * P / q.j.(.8XdX2X#X<X                                ",
"        6X*XP.q.` o.f f Q W a D A V N 3 . . % O O O O O O O O @ % & = N V K ! _ k.n.~.@X@X                                      ",
"        tX<XP.q.` Q ^ W W W E R D D Z C C C B C C C C C C C C C Z R R a a W Q ..k.R.#X2X                                        ",
"        rX<XS.4.> : * * - % % % = N + % @ % + , , . % % % % % % + N N N V H U [ d.Y.#X5X                                        ",
"        8X3XF.N.4.> : * - $ o o o O O O O O % & V N N N + % @ % = G J J I { N.V.z.I.=X6X                                        ",
"        7X1XZ.m.m.m.Z.V.6.Y K K G G G K K V % & G B G G G G G J ' 3.l.^.Q.^.e.h.x.L.5XtX                                        ",
"        7X,XN.4.O.O.4.m.Z.S.S.D.V.r.} Y I J t t J J Y 6.w.a.P.W.E.E.D.w.w.w.w.w.a.Y.3XtX                                        ",
"            F.M.O.> > 4.M.m.N.N.Z.G._.(.+X{.{.+X+X+X{.+XQ.P.z.e.e.w.w.w.w.w.w.u.B.W.5XrX                                        ",
"            4X2X#X'.#X#X#X#X+X{.{.!.{.{.{.U.U.v.v.b.b.v.x.l.l.l.l.l.l.l.x.x.x.c.Q.#X                                            ",
"              2X(.r.r.q.3.( ( ( L Y Y T ) 2.2.2.3.2.' ' L K K K K L L L Y 2.e.K.+XtX                                            ",
"                  F.V.t.] I P P G G ; P ; = = P P G G G G H H G G G H U Y 7.A.                                                  ",
"                    <X@XF.V.5.{ ] P : : * * * * * * * * * ; P I ] { t.D.@X<X                                                    ",
"                              @XG.F.S.Z.m.M.5.5.t.t.5.t.C.V.A.F.'.5XpX                                                          ",
"                                              tXrXpX                                                                            ",
"                                                                                                                                ",
"                                                                                                                                "
};
