/* XPM */
static char *_77941ad851849d9a14b3aabdedf9675jm9We3XNlYlIcvEW_8[] = {
/* columns rows colors chars-per-pixel */
"64 64 256 2 ",
"   c None",
".  c #7E4E3E",
"X  c #754C38",
"o  c #684B3A",
"O  c #634D45",
"+  c #6C4D43",
"@  c #7A4E41",
"#  c #6E5247",
"$  c #6D564C",
"%  c #675148",
"&  c #725245",
"*  c #78584A",
"=  c #715C52",
"-  c #7D5D51",
";  c #6F5B51",
":  c #7D6052",
">  c #756459",
",  c #7B766B",
"<  c #BA6A17",
"1  c #824E3C",
"2  c #8D4E3B",
"3  c #914E3D",
"4  c #855139",
"5  c #8A513B",
"6  c #9A5637",
"7  c #9C5936",
"8  c #95543B",
"9  c #95583F",
"0  c #9D593C",
"q  c #985538",
"w  c #92522C",
"e  c #A55C35",
"r  c #A35D3D",
"t  c #AE5D30",
"y  c #8E673C",
"u  c #BA6A2F",
"i  c #B6652A",
"p  c #AB6233",
"a  c #A9623B",
"s  c #B46932",
"d  c #B96B36",
"f  c #BE7237",
"g  c #BE702F",
"h  c #CD761B",
"j  c #D37D1B",
"k  c #C46E2A",
"l  c #CB7524",
"z  c #C3722D",
"x  c #CB762B",
"c  c #C77528",
"v  c #D47C24",
"b  c #D07722",
"n  c #C87839",
"m  c #835542",
"M  c #8D5C4C",
"N  c #895B44",
"B  c #935942",
"V  c #9B5B41",
"C  c #975B47",
"Z  c #A25D41",
"A  c #A15F4B",
"S  c #85634A",
"D  c #89634B",
"F  c #8A6648",
"G  c #946649",
"H  c #9A7549",
"J  c #826454",
"K  c #8A6958",
"L  c #926452",
"P  c #936B54",
"I  c #9B6A56",
"U  c #957155",
"Y  c #997359",
"T  c #A4644A",
"R  c #A76646",
"E  c #B26C44",
"W  c #B16C49",
"Q  c #BA7345",
"!  c #A36A52",
"~  c #A26450",
"^  c #B26F51",
"/  c #A47559",
"(  c #A6795C",
")  c #A67759",
"_  c #B57454",
"`  c #B67A5A",
"'  c #A2784A",
"]  c #8F7363",
"[  c #997664",
"{  c #947C71",
"}  c #A37B63",
"|  c #AA7C66",
" . c #B27D63",
".. c #C57A45",
"X. c #C87B47",
"o. c #C17C54",
"O. c #7E8376",
"+. c #DC8105",
"@. c #DD841D",
"#. c #DC8314",
"$. c #E58A0B",
"%. c #EE910A",
"&. c #F39603",
"*. c #F79802",
"=. c #F99A01",
"-. c #F49508",
";. c #E48917",
":. c #F19618",
">. c #FDA000",
",. c #DB8429",
"<. c #CC802F",
"1. c #E28821",
"2. c #A88455",
"3. c #B1895A",
"4. c #8A8779",
"5. c #9C8578",
"6. c #A38166",
"7. c #A68469",
"8. c #AA866A",
"9. c #AE896C",
"0. c #AA8367",
"q. c #B4896B",
"w. c #B3956A",
"e. c #B9996A",
"r. c #AE8B72",
"t. c #A4887A",
"y. c #B18D72",
"u. c #B59375",
"i. c #B99677",
"p. c #BE9A79",
"a. c #B79678",
"s. c #AF937F",
"d. c #C7845A",
"f. c #D69056",
"g. c #C19D6A",
"h. c #C19C79",
"j. c #D19169",
"k. c #C6A366",
"l. c #C5A379",
"z. c #CAA877",
"x. c #D0AC78",
"c. c #D5B27A",
"v. c #DAB67B",
"b. c #E3A17A",
"n. c #99988C",
"m. c #989185",
"M. c #A79689",
"N. c #BE9C83",
"B. c #B59786",
"V. c #AC8D80",
"C. c #ADA496",
"Z. c #BEA295",
"A. c #B8A996",
"S. c #BEA78D",
"D. c #BAADA2",
"F. c #BDB1A9",
"G. c #B4B0AB",
"H. c #C3A484",
"J. c #CCAB85",
"K. c #CCAE8A",
"L. c #C8A588",
"P. c #CDB28A",
"I. c #D2B48B",
"U. c #D8B886",
"Y. c #C4AB9B",
"T. c #C8A994",
"R. c #D6AE97",
"E. c #CBB59A",
"W. c #D3BB9C",
"Q. c #DABD99",
"!. c #D5B797",
"~. c #E0BC82",
"^. c #CBB6A7",
"/. c #DBBDA3",
"(. c #D2BDAB",
"). c #D4B7A6",
"_. c #C8BCB4",
"`. c #D8BFB4",
"'. c #C09F84",
"]. c #D9C19B",
"[. c #ECC88A",
"{. c #E6C388",
"}. c #E9C994",
"|. c #F2D399",
" X c #EFD19D",
".X c #DBC5A7",
"XX c #CBC4B9",
"oX c #D8C7B9",
"OX c #E6CCA6",
"+X c #F1D6A4",
"@X c #F5DAAB",
"#X c #E7D4B7",
"$X c #F4DCB4",
"%X c #E8CFB0",
"&X c #FAE3BA",
"*X c #F3E1BB",
"=X c #CCC7C6",
"-X c #DBCEC4",
";X c #D4CCC6",
":X c #DCD2CA",
">X c #DDD1C6",
",X c #DAD7D5",
"<X c #E2D5CA",
"1X c #E8DACA",
"2X c #E5DDD8",
"3X c #F4E2C4",
"4X c #F9E5C6",
"5X c #F9E7C8",
"6X c #F9E8CB",
"7X c #F4E5CB",
"8X c #ECE3DB",
"9X c #E9E3DA",
"0X c #FAECD6",
"qX c #FAEBD3",
"wX c #FBEDD9",
"eX c #F2E7D8",
"rX c #FEF1DB",
"tX c #FEF1DC",
"yX c #EDECEB",
"uX c #E9E6E4",
"iX c #F7EDE3",
"pX c #FAF2E7",
"aX c #FAF0E1",
"sX c #FBF4ED",
"dX c #EEEEF1",
"fX c #F3F4F6",
"gX c #F5F6F8",
"hX c #F7F8F9",
"jX c gray98",
"kX c #FBF6F2",
"lX c #EEF0F5",
"zX c black",
"xX c black",
"cX c black",
"vX c black",
"bX c black",
"nX c black",
"mX c black",
"MX c black",
"NX c black",
"BX c black",
"VX c black",
"CX c black",
"ZX c black",
"AX c black",
"SX c black",
"DX c black",
"FX c black",
"GX c black",
"HX c black",
"JX c black",
"KX c black",
"LX c black",
"PX c black",
"IX c black",
"UX c black",
/* pixels */
"                                                                                                                                ",
"                                                                                                                                ",
"                                              kXkX                                                                              ",
"                    pXpXpXpXpXiXwX0X0X0X0X0X0XwXwXrXrXrXrXwXwXpXpXpXpXpXsXkX                                                    ",
"              pXpXiXwX0X0X6X6X6X5X5X5X5X5X6X0XwXrXrXrXrXrXwXwXwXrXtXrXwXwX0X0XaXpX                                              ",
"        pXpXiX7X7X0XwXqX6X5X6X4X4X4X5X5X5X5X6XqXwXrXrXrXrXrXrXrXrXwXqX6X5X4X3X3X7X0XaXpX                                        ",
"        0XqX7X4X6X0X0XqX5X4X4X6XqX0X0X0XwXrXrXrXrXrXrXrXrX0XwXrX0X6X5X4X&X&X$X$X$X$X3XeXpX                                      ",
"      3X*X*X*X*X3X5X5X5X5X4X4X4X5X5X6X0X0X0X0X0X0X0X0XqX5X5X5X4X&X&X&X$X@X@X+X|. XOXOX#X8X                                      ",
"    eX%X+X@X*X3X4X4X3X3X4X&X&X&X4X4X&X&X&X&X&X&X&X&X&X&X&X&X&X$X@X@X+X|.|.|.}.[.[.{.}.OX#X                                      ",
"  9X1X.XOX%X$X$X$X$X@X@X*X$X$X$X@X@X+X+X+X+X+X+X+X|.+X+X|.|.|.}.}.[.[.[.[.{.{.{.{.~.Q.]..X1X8X                                  ",
"  2X1X.X.XOXOX%X#X#X$X%XOX}.[.[.[.[.[.[.{.{.{.{.{.{.{.{.{.{.~.~.~.~.~.~.~.~.~.v.c.c.I.I.W.<X9X                                  ",
"  9X<XW.!.]..X/./.Q.Q.Q.Q.U.v.c.c.c.c.c.x.x.x.c.c.c.c.c.x.x.x.x.x.x.x.x.x.x.x.z.l.l.H.K.W.-X<X                                  ",
"    <XW.!.W./.!.T.J.I.J.l.l.l.l.l.g.g.p.p.p.p.p.p.p.p.p.p.p.p.p.p.p.p.p.p.p.p.i.i.p.N.L.).<X9X                                  ",
"      ).W.!.!.E.L.h.H.H.p.p.i.u.u.u.y.y.9.9.9.8.7.8.9.9.9.y.u.u.y.y.y.u.u.u.u.u.i.p.N.T.^.                                      ",
"      .XW.!.W.W.I.J.L.H.p.p.i.u.u.u.y.y.8.7.7.7.7.7.7.7.7.7.7.7.7.8.9.9.9.9.y.u.a.N.H.T.^.                                      ",
"      #X.XQ./././.!.K.H.p.p.p.p.p.u.y.9.8.7.7.7.6.} 6.7.7.7.7.7.7.6.} 7.8.9.y.u.a.N.T.^._.                                      ",
"      2XoX/./././.Q.I.L.N.p.p.p.u.u.y.9.8.7.7.7.7.7.7.7.7.7.7.7.7.7.7.7.8.9.y.y.a.N.Z.^.`.                                      ",
"      :XoX.X].Q.Q.!.K.H.p.p.p.p.u.u.y.9.9.9.9.8.7.7.7.8.9.9.8.7.7.7.8.9.8.8.r.y.u.B.B.Y.(.8XfX                                  ",
"      2X(.T.!.I.I.I.J.J.l.p.p.p.u.u.u.y.9.9.9.9.8.7.8.9.9.9.9.9.9.9.9.y.r.y.u.y.y.u.N.T.(.1X8X                                  ",
"      8X^.s.N.L.J.J.J.J.l.p.p.p.p.i.u.u.u.y.y.9.9.9.9.9.9.r.y.y.y.y.y.y.y.y.u.u.u.u.p.T.(.1X8X                                  ",
"      8X^.r.( 9.i.l.l.h.p.p.p.p.p.p.p.u.u.u.u.y.y.y.y.y.y.y.y.y.y.y.y.y.u.u.u.u.i.p.N.S.Y.oX-X                                  ",
"      uX(.u.) / ( 9.u.u.u.9.8.7.8.y.u.u.u.u.u.y.y.y.u.u.u.u.u.u.u.u.u.u.u.u.u.i.p.p.N.N.H.E..X1X      fXjXjXjX                  ",
"        H.a.) / / ) 0.8.} P L L L M L U Y } 8.9.9.9.r.y.u.u.u.u.u.u.u.p.i.i.p.p.p.N.N.H.L.P.!.Q.).(.=X2XyXhXhXjXjX              ",
"        Z.B.( / / / / I G N m m m 4 1 m m M U [ } 7.7.8.9.r.y.u.u.i.p.p.p.p.p.p.p.N.H.H.L.J.J.J.H.A._.,XyXfXfXhXjXjX            ",
"        Y.B.( / / / / I G B 3 4 4 4 4 4 1 1 m D P U P P Y } 0.9.u.i.p.p.p.p.p.N.H.H.H.L.J.I.I.!.(.          fXfXhXhXhXhX        ",
"        Y.B.( / ( ` / ~ C C 8 3 4 4 4 4 4 1 1 m N M M L L U Y [ } 8.y.i.p.p.p.N.'.L.J.J.K.].#X2X              dXfXfXhXhXhX      ",
"        Z.B. ._ _ _ _ R Z q 8 3 3 5 4 4 4 4 4 1 1 3 1 . m N D L I ! ( 8.y.i.p.p.p.H.J.K.W.#X1X                    dXfXfXfX      ",
"        Z.B. ._ ^ ^ ^ W Z r 0 q 9 8 3 3 5 4 . 1 1 3 5 1 1 4 4 m 4 5 C ! | 9.u.i.h.H.J.P.W.1X8X                    lXfXhXhXjX    ",
"        Z.N.` _ _ _ _ W e r Z r q 8 3 5 4 4 4 2 q q 5 4 4 3 3 5 m 5 8 Z ! ( r.i.p.H.J.!..XeXpX                    fXlXfXfXfXhX  ",
"        Z.N.` _ _ _ ` W p e r r r 0 q q 8 3 3 8 7 e 7 q 9 q 9 B 8 5 5 q 0 ! 6.r.p.H.J.W.#X                          fXfXfXfXhXhX",
"        Y.N.` Q Q _ _ E p e e e e e e r 0 q 7 e p u p 7 q r V 9 q 9 9 q 0 T } 8.a.N.L./.>X                          lXfXfXfXfXfX",
"        E.L.d.X...Q _ W p p p p p e e e p p e t k ,.z p e r 0 q 9 V r r R T ! } 9.p.J..X1X                          fXfXfXfXfXfX",
"        E.L.d.X...Q Q d i i i u u u u g u s p u b @.v u e 7 8 8 9 9 q 9 C T R ! ( y.Y.(.                            fXfXfXfXfXfX",
"        ).L.d.X...n d i u i u k c c x b l x x l j ;.@.z e 7 q q 9 8 q d d Q n X.` y.).oX                          hXhXfXfXfXhXhX",
"        ).T.d.X.n x z g g i h j #.@.,.,.@.;.;.;.:.&.$.l e 7 9 C q 8 B A T R E W  .V.Y.(.                          hXhXfXfXfXhXhX",
"        oXR.d.n z x c c x k v ;.&.*.*.=.*.&.&.&.&.*.*.#.p 7 9 C C V R Z A A T ! | N.E.(.                          hXhXfXfXhXjXjX",
"        /.R.d.z c x z x v h #.&.=.=.=.=.=.*.&.&.*.=.=.$.i e V C C C V r A ~ ! ! | N.E.(.                      jXjXhXfXfXfXjXjX  ",
"        oXR.f.n l l v @.#.+.$.:.=.=.=.=.*.&.&.&.*.=.=.%.#.l u e r V V Z T ! ! I | N.).`.                      hXhXhXfXhXhXjXjX  ",
"        oXR.f.,.v v v ;.&.&.&.&.=.=.=.=.*.*.*.*.*.*.=.=.*.&.$.x d R Z A T T ! U } N.(.oX                    hXhXhXhXhXfXfXfX    ",
"        oXW.d.x h h v ;.&.=.*.*.=.=.=.=.=.*.=.*.*.=.=.=.=.=.%.j s 0 C C C I L L } N.).oX                hXhXfXhXhXhXhXfXdX      ",
"        XXY.d.x h v v ,.;.-.=.=.=.=.=.=.=.=.=.=.=.=.=.=.-.1.z e 7 B M M G G M L [ B.^.XX              dXfXhXhXhXhXhXfXyXyX      ",
"        XX^.d.x l k l j $.&.=.=.=.=.=.=.=.=.=.*.*.*.*.$.k a V C M N m - S S - : ] V.^.:XyX      ,X2XyXfXhXhXhXhXhXfXuX,X        ",
"        =X).d.f e 4 w < +.&.=.*.*.=.=.=.=.=.=.=.=.*.$.< 7 9 N m - * & - - - - : Y a.^.;X=X_.;XyXfXjXjXhXjXjXhXfXyX,X            ",
"        oX/.j.T X o . a v %.=.&.:.:.=.=.=.=.=.=.=.&.k 6 4 m @ # # # # # $ = - : ] B.-XyXfX8XyXjXjXjXjXjXjXjXfXuX,X              ",
"        :XXXp.J o o * r l %.=.=.*.*.=.=.=.=.=.=.%.v e 1 . & + + + + # # $ = - : ] B.:XfXjXjXjXjXjXjXjXhXfXuX,X                  ",
"        ;X_.t.> % O % 9 z $.=.>.>.=.=.=.=.=.=.*.j 6 4 @ # + + + + + + # $ = - : ] B.:XfXjXjXjXjXjXjXfXuX,X=X                    ",
"        =XF.5.K : = - N s ,.:.=.>.>.=.=.=.=.*.@.s m & + + + O O + + + # $ = - : K t.;XfXjXjXfXyXuX9X,X,X                        ",
"        ;XF.4.[ I ! L C a c @.;.%.&.&.&.%.%.;.i 5 X + O O O O O O O O # $ = - J K t.XXyXhXyX,X_.=X                              ",
"        :X_.B.[ Y ^ ^ E p s u u p r a r 7 6 7 5 @ + O O O O O O O O O # $ = J / q.h.).2XyX:XoX;X                                ",
"        1XoXL.q.` o.f f Q E a Z C N m 4 . X & + + + + + + + + # & * - m N L ! _ d.b.Q.XXXX                                      ",
"        9X-XL.q.` _ _ W E E R R Z Z V B B B M B B B B B B B B B V T T a a E Q ..j.R.oX:X                                        ",
"        8X-XA.4., > = = ; & & & - m @ & # & @ 1 1 . & & & & & & @ m m m N D P [ s.Y.oX<X                                        ",
"        9X>XD.M.4., > = ; % O O O + + + + + # * N m m m . . & & - S D L P { M.B.l.I.#X1X                                        ",
"        2X;XC.n.n.n.C.B.6.P G G S S S G G N & * D M D S S D S F ' 3.l.P.W.P.e.g.z.K.<X9X                                        ",
"        2X=XM.4.O.O.4.n.C.A.A.A.B.r.[ U P F y y F F U 6.w.p.L.E.E.E.S.w.w.w.w.w.p.Y.>X9X                                        ",
"            G.m.O., , 4.m.n.M.M.C.F.(.^..X].]..X.X.X]./.E.L.l.e.e.w.w.w.w.w.w.a.N.E.<X8X                                        ",
"            ,X:XoXXXoXoXoXoX.X].].Q.].].].Q.U.c.c.v.v.c.z.k.k.k.k.k.k.k.z.z.z.x.W.oX                                            ",
"              :X^.r.r.q.3.( ( ) H U U Y ) 2.2.2.2.2.' ' H G G G G H H H U 2.e.L..X9X                                            ",
"                  D.B.t.] K J J S S : J : - - J J S S D M M M S S S D P Y 7.Z.                                                  ",
"                    >XXXD.B.5.{ K > > > = = = = = = = = = - J K ] { t.A.XX-X                                                    ",
"                              XXF.D.A.C.n.m.5.5.t.t.5.t.V.B.Z.D._.<XeX                                                          ",
"                                              9X8XeX                                                                            ",
"                                                                                                                                ",
"                                                                                                                                "
};
