/* XPM */
static char *_77941ad851849d9a14b3aabdedf9675jm9We3XNlYlIcvEW_3[] = {
/* columns rows colors chars-per-pixel */
"64 64 256 2 ",
"   c None",
".  c #7D4D3E",
"X  c #754C39",
"o  c #634939",
"O  c #634D45",
"+  c #6C4D43",
"@  c #7A4F41",
"#  c #6E5147",
"$  c #6D564C",
"%  c #675148",
"&  c #725246",
"*  c #79584A",
"=  c #715C52",
"-  c #7D5C51",
";  c #6F5B51",
":  c #7E6053",
">  c #736459",
",  c #7C766B",
"<  c #824E3C",
"1  c #8D4F3C",
"2  c #864E37",
"3  c #914E3C",
"4  c #855139",
"5  c #8B513B",
"6  c #8E5E3F",
"7  c #965437",
"8  c #9D5A36",
"9  c #95543B",
"0  c #995639",
"q  c #95583F",
"w  c #9C593C",
"e  c #9A5637",
"r  c #9D5825",
"t  c #A55C34",
"y  c #A35D3D",
"u  c #B45F2D",
"i  c #8C673C",
"p  c #BA6A2E",
"a  c #B5662A",
"s  c #AB6233",
"d  c #A9623C",
"f  c #B66A33",
"g  c #BE7135",
"h  c #BF6D17",
"j  c #CD771D",
"k  c #D37D15",
"l  c #CB7424",
"z  c #C5722B",
"x  c #CB762B",
"c  c #C77527",
"v  c #D37C24",
"b  c #D07C2A",
"n  c #C47637",
"m  c #C36E27",
"M  c #835542",
"N  c #8D5C4C",
"B  c #885944",
"V  c #935942",
"C  c #9C5B41",
"Z  c #955946",
"A  c #855C50",
"S  c #A25D41",
"D  c #A25E4A",
"F  c #866349",
"G  c #8A634B",
"H  c #8B6748",
"J  c #96654A",
"K  c #9A7448",
"L  c #826454",
"P  c #8A6A5A",
"I  c #976A57",
"U  c #997457",
"Y  c #A46243",
"T  c #A4634B",
"R  c #AA6847",
"E  c #B36D43",
"W  c #B06C48",
"Q  c #B97346",
"!  c #A36A52",
"~  c #A16050",
"^  c #B26E51",
"/  c #A47559",
"(  c #A6795C",
")  c #A67759",
"_  c #B57454",
"`  c #B87958",
"'  c #A2784A",
"]  c #8F7362",
"[  c #987665",
"{  c #957D72",
"}  c #A37C64",
"|  c #A77B67",
" . c #B47E63",
".. c #C57A45",
"X. c #C87B40",
"o. c #C27C54",
"O. c #7E8276",
"+. c #DD841D",
"@. c #DB8315",
"#. c #DD8106",
"$. c #E78B07",
"%. c #EE9108",
"&. c #F49602",
"*. c #F79802",
"=. c #F99A01",
"-. c #E38915",
";. c #EE9319",
":. c #F59814",
">. c #FDA000",
",. c #DA8328",
"<. c #CD8034",
"1. c #EA9120",
"2. c #A98553",
"3. c #B58657",
"4. c #87877A",
"5. c #9A8578",
"6. c #A68469",
"7. c #AA866A",
"8. c #AE896C",
"9. c #A58265",
"0. c #B4896B",
"q. c #B3956A",
"w. c #B6986B",
"e. c #AE8B72",
"r. c #A48879",
"t. c #B08D72",
"y. c #B08F78",
"u. c #B59375",
"i. c #B99677",
"p. c #BD9977",
"a. c #BE9A79",
"s. c #B59479",
"d. c #AF937F",
"f. c #C7845A",
"g. c #D28D54",
"h. c #C09C69",
"j. c #C19C7A",
"k. c #D19169",
"l. c #C6A366",
"z. c #C4A27A",
"x. c #C9A776",
"c. c #D0AC78",
"v. c #D1AF77",
"b. c #D5B37A",
"n. c #DBB67A",
"m. c #E3A17A",
"M. c #99958A",
"N. c #998B80",
"B. c #A79689",
"V. c #B29384",
"C. c #BD9D83",
"Z. c #B69987",
"A. c #A6968D",
"S. c #ACA297",
"D. c #BDA295",
"F. c #B7A996",
"G. c #BEA78E",
"H. c #BAADA2",
"J. c #BDB1AA",
"K. c #B7B2AD",
"L. c #C3A484",
"P. c #CCAB84",
"I. c #CCAE8A",
"U. c #C7A589",
"Y. c #CDB28C",
"T. c #D6B688",
"R. c #C4AC9B",
"E. c #C8A994",
"W. c #D6AE9A",
"Q. c #CAB69B",
"!. c #D2B695",
"~. c #D3BB9C",
"^. c #D8BC9A",
"/. c #D7B997",
"(. c #E0BC83",
"). c #CCB7A7",
"_. c #DABCA2",
"`. c #D2BCAB",
"'. c #D1B3A7",
"]. c #C8BCB4",
"[. c #D2BAAF",
"{. c #DBC19D",
"}. c #D9C197",
"|. c #E5C387",
" X c #EAC78A",
".X c #EECC92",
"XX c #E2C598",
"oX c #F2D39A",
"OX c #F0D096",
"+X c #E8D39F",
"@X c #DBC5A7",
"#X c #CBC4B9",
"$X c #DBCAB3",
"%X c #D8C6BB",
"&X c #DFD1B9",
"*X c #E8D2A7",
"=X c #F1D7A5",
"-X c #F5DAAA",
";X c #E7D5B6",
":X c #F3DCB7",
">X c #E3CBAD",
",X c #FAE3BB",
"<X c #F4E1BC",
"1X c #CBC6C5",
"2X c #DBCDC3",
"3X c #D3CCC7",
"4X c #DCD2CA",
"5X c #DED2C6",
"6X c #DAD7D5",
"7X c #E2D6CB",
"8X c #E9DAC9",
"9X c #E9DFD9",
"0X c #E3DCD7",
"qX c #F6DFC2",
"wX c #F3E3C5",
"eX c #F9E6C5",
"rX c #F9E7C8",
"tX c #F8E7CA",
"yX c #ECE3DB",
"uX c #E9E1D9",
"iX c #FAEBD5",
"pX c #FAECD6",
"aX c #F9EAD1",
"sX c #FBEDD9",
"dX c #F1E7DD",
"fX c #FEF0DA",
"gX c #FDF0DD",
"hX c #EBE0CF",
"jX c #EDECEB",
"kX c #E9E6E4",
"lX c #F6EDE3",
"zX c #F8EEE2",
"xX c #FAF2E6",
"cX c #FAF3E8",
"vX c #EEEEF1",
"bX c #F3F4F6",
"nX c #F5F6F8",
"mX c #F7F8F9",
"MX c gray98",
"NX c #F8F7F7",
"BX c #EEF0F5",
"VX c black",
"CX c black",
"ZX c black",
"AX c black",
"SX c black",
"DX c black",
"FX c black",
"GX c black",
"HX c black",
"JX c black",
"KX c black",
"LX c black",
"PX c black",
"IX c black",
"UX c black",
/* pixels */
"                                                                                                                                ",
"                                                                                                                                ",
"                                              xXxX                                                                              ",
"                    xXxXlXlXsXpXpXiXiXiXiXpXfXfXfXfXfXfXfXpXsXgXxXcXxXxXxXxX                                                    ",
"              lXlXlXpXpXpXpXaXeX,X,X,X,X,XeXtXtXaXpXfXgXzXgXsXpXfXgXfXpXpXpXpXpXiX                                              ",
"        cXxXpXiXpXpXpXaXtXtXrXrXeXrXrXrXaXpXpXsXfXfXfXfXfXpXsXfXpXpXiXtXrXeX<XwXwXwXdXlX                                        ",
"        pXaXwXwXwXiXpXaXrXrXtXrXrXaXpXpXpXpXfXfXfXfXfXfXfXfXfXfXpXpXaXrX,X,X:X:X:X:X8XhXlX                                      ",
"      wX<X<XqXeXeXrXrXrXrXrXeXtXaXpXpXpXpXpXpXpXaXtXrXrXrXrXrXeX,X,X,X:X-X=X=XoXoXoX*X;XwX                                      ",
"    hX;X*X-X:X:X<XqX:X,XeX,X,XeXeXeX,X,XeXeXeX,X,X,X,X,X,X:X-X-X=X=X=XoXoXOX.X.X.X XXX>X;X                                      ",
"  9X8X@X>X*X:X:X:XwXqX:X<X-X-X=X=X-X-X=XoXoXoXoXoXoXoXoXoXoXOX.X.X.X.X X X X|.|.|.(.T./.@X8XyX                                  ",
"  9X8X@X@X@X*X;X:X:X*X+X=XoX.X.X X X|.|.|.|.|.|.|.|.|.|.|.|.(.(.(.(.(.(.(.T.b.b.b.T.T.T.@X7X9X                                  ",
"  uX7X~./.{.@X{.{.@X{.}.^.T.n.b.b.b.b.b.v.v.v.v.v.b.b.b.v.c.c.c.v.v.v.v.P.I.P.z.z.z.L.I.~.2X7X                                  ",
"    7X~.!.~.~.Y.U.L.I.P.j.z.z.p.h.h.h.p.a.a.a.a.a.a.a.a.a.a.a.a.a.a.a.a.a.a.a.a.a.a.a.G.Q.4XuX                                  ",
"      ).~.!.!.!.E.L.L.L.a.a.i.i.i.u.t.u.t.8.8.7.6.7.8.8.8.t.u.u.t.t.t.u.i.i.i.i.i.a.a.U.).                                      ",
"      @X~.!.!.!.!.E.U.z.a.a.i.i.a.u.e.8.8.7.6.6.6.6.6.6.6.6.6.6.6.7.8.8.8.8.t.u.i.C.L.E.).                                      ",
"      ;X@X^.}._._.~.I.L.C.a.a.a.a.u.e.8.7.6.6.} } } 6.6.6.6.6.6.6.} } 6.7.8.t.u.i.C.U.).[.                                      ",
"      0X$X_._._.^.!.I.L.a.a.a.a.i.u.t.8.7.6.6.6.6.6.6.6.6.6.6.6.6.6.6.6.7.8.t.t.y.Z.D.R.).                                      ",
"      4X$X@X}.^./.!.I.P.z.a.a.a.i.u.t.8.8.8.8.7.6.6.6.7.8.8.7.6.6.6.7.8.7.7.e.t.y.Z.Z.R.`.8XyX                                  ",
"      0X[.E.~.!.T.T.I.P.z.j.a.a.i.i.u.t.8.8.8.8.7.6.7.8.8.8.8.8.8.8.8.8.8.t.t.t.t.i.C.E.`.8XyX                                  ",
"      0X).V.C.U.P.I.I.P.z.z.j.a.a.i.i.u.t.t.t.8.8.8.8.8.8.8.8.t.t.t.t.e.t.t.u.t.t.i.a.E.`.7X9X                                  ",
"      yX).e.( 7.i.z.z.j.a.a.a.a.a.a.i.i.u.i.u.t.8.8.8.e.t.u.u.t.t.t.t.t.u.i.i.i.i.i.C.G.R.%X2X                                  ",
"      kX`.u.( / ( 8.u.i.u.t.8.8.7.t.u.u.u.u.u.t.t.e.e.e.t.t.u.i.u.u.u.u.i.i.i.i.i.a.C.C.U.!.@X8X      MXMXMXMX                  ",
"        U.s.( / / / 7.7.} I G F F N J U [ 6.8.8.t.e.e.e.t.u.i.i.u.i.i.i.i.a.a.a.a.C.C.C.L.P./.@X'.).%X0XjXmXmXMXMX              ",
"        D.V.( / / / / U J B M M < 2 < M M N I } 6.6.6.7.8.e.t.u.u.i.a.a.a.a.a.C.C.C.L.L.L.P.I.I.U.F.].6XjXbXbXmXMXMX            ",
"        R.Z.( / / / / I J 9 1 4 4 4 4 4 < . M N I U } } 6.6.7.8.u.i.a.a.a.a.a.C.C.C.L.U.I.T.Y.Q.[.          bXbXmXmXMXMX        ",
"        R.Z.( / ( ` / J V V 9 1 4 4 4 4 4 < < M B F F N N I U } 7.8.t.p.a.a.a.C.C.L.P.P.I.^.>X8X              vXbXbXmXmXmX      ",
"        D.V._ ^ _ _ _ R S C 9 3 3 5 4 4 4 4 4 < 2 1 < . < M N N J I ( 7.t.i.a.a.j.L.P.I.~.$X;X                    vXbXbXbX      ",
"        D.Z. ._ ^ ^ ^ R y 0 e 0 q 9 1 4 2 < . . < 3 5 < < 4 4 5 5 3 V ! } t.u.i.j.L.P.Y.~.;X8X                    BXbXmXmXmX    ",
"        D.C.` _ _ _ _ W t y w 0 0 7 1 4 4 4 4 5 7 7 5 4 4 1 3 5 M 5 9 S R } e.i.j.L.P.!.@X8XyX                    bXBXbXbXbXnX  ",
"        D.C.` E Q _ _ W s t y y y w 7 7 7 3 3 7 8 t e 0 q 0 q V 9 5 5 0 C ! 6.t.a.L.P./.$X                          bXbXbXbXmXmX",
"        R.C.` Q Q _ _ W s t t t t t t y w 7 e t s p s 8 0 y C q 0 q q 0 w T } 7.s.C.P.~.&X                          BXbXbXbXbXbX",
"        W.U.f.....Q _ W s s s s t t t t s s t s z ,.z s t y w 0 q C S S Y T ! } 8.a.U.`.5X                          bXbXbXbXbXbX",
"        W.U.f.....Q Q f a a a p p p p p p p s p j @.v f t e 7 9 V q 0 q C T R R ( y.R.`.                            bXbXbXbXbXbX",
"        '.U.f...X.n f u a p p m m x b l l x z v +.-.+.z t e 7 0 q 9 0 f f g b <.3.t.).&X                          mXmXbXbXbXmXmX",
"        '.U.f...n b m p p p j #.@.,.,.,.+.-.-.-.;.&.-.l t e q q 0 7 V D D Y R R | V.R.`.                          mXmXbXbXbXmXmX",
"        %XW.f.n z x m m x x ,.;.&.*.=.=.*.&.&.&.&.&.*.@.s e q V V C Y S Y T T I | C.).`.                          mXmXbXbXmXMXMX",
"        %XW.f.z m x z l v b ,.;.=.=.>.>.=.&.&.&.&.=.=.-.p y C V V V C S D T ~ I | C.Q.`.                      MXMXmXbXbXbXMXMX  ",
"        %XW.g.x l j j ,.-.#.-.1.=.=.=.=.=.&.&.&.&.&.*.%.@.l a t y C C S T ! ! I | C.'.[.                      mXmXmXbXmXmXMXMX  ",
"        %X^.g.b j v v -.&.&.;.;.=.=.=.=.&.&.&.&.&.*.=.=.*.&.$.k g Y S S Y T ! I | C.`.&X                    mXmXmXmXmXbXbXbX    ",
"        %XW.f.x j j v -.&.=.*.&.=.=.=.=.*.&.&.&.=.*.=.=.=.=.%.k f w V J J J J J [ Z.'.%X                mXmXbXmXmXmXmXbXvX      ",
"        #XR.f.x j j v +.-.&.=.=.=.=.=.=.=.=.*.=.&.&.*.&.%.+.n y 0 V N N N N F G [ Z.).#X              vXbXmXmXmXmXmXbXjXjX      ",
"        #X).f.x l x l k -.&.=.=.=.=.=.=.=.=.&.&.&.*.&.-.m t q V N A - - - - - : ] V.).4XjX      6X0XjXbXmXmXmXmXmXbXkX6X        ",
"        1X'.f.n t 4 9 a #.&.=.=.=.=.=.=.=.=.=.=.=.*.$.h e q B M - * & - - - - : ] s.).3X3X].3XjXbXMXMXmXMXMXmXbXjX6X            ",
"        &X_.k.T X o X 8 v %.=.&.%.&.=.=.=.=.=.=.=.%.m e 4 M @ # # # # # $ = - - ] Z.2XjXbXuXjXMXMXMXMXMXMXMXbXkX6X              ",
"        4X[.a.L o o * y l $.=.=.=.=.=.=.=.=.=.=.%.v t 1 . & + + + + + # $ = - : ] Z.4XbXMXMXMXMXMXMXMXmXbXkX6X                  ",
"        3XJ.5.> $ O % 6 z $.=.>.>.=.=.=.=.=.=.*.k r 2 @ # + + + + + + # $ = - : ] Z.4XbXMXMXMXMXMXMXbXkX6X1X                    ",
"        1XJ.5.P : = $ B f ,.:.=.>.>.=.=.=.=.*.+.f 4 & + + + O O + + + # $ = - : ] V.4XbXMXMXbXjXkXuX6X6X                        ",
"        3XK.4.[ I ! J Z d x +.;.%.&.&.&.&.%.-.a 5 X + O O O O O O O O # $ = - L P r.#XjXNXjX6X].1X                              ",
"        4X[.V.[ U ^ ^ W s p p p s y d y 8 e q 5 . + O O O O O O O O O # $ = L / 0.j.).0XjX4X%X2X                                ",
"        8X$XU.0.` o.g g Q E d S Z B M < . X & # + + + + + + + # & * - M N J ! _ f.m.^.#X#X                                      ",
"        uX2XU.0.` ` Q E E E R Y S S C V 5 V N V V V V V V V V V C Y Y d d E Q ..k.W.&X4X                                        ",
"        yX2XF.4., > = = ; # # & & @ @ & # & @ < < . & & & & # & @ M M M B G I [ d.R.%X7X                                        ",
"        9X5XH.B.4., > = ; % O O O + + + + + & * B M M M @ & # & - F G G P { B.Z.z.Y.;X8X                                        ",
"        0X3XS.A.A.A.F.Z.9.I J J F F F H J B & * F N F F F F F H ' 3.l.Y.~.Y.w.h.x.I.7XuX                                        ",
"        0X1XA.4.O.O.4.M.S.F.F.F.Z.r.[ I H i i i H H U 9.q.a.U.!.Q.Q.G.w.q.q.q.q.a.R.5XuX                                        ",
"            H.M.O., , 4.4.M.A.A.S.J.`.).{.{.{.@X@X@X{.@X~.U.z.p.w.q.q.q.q.q.q.u.C.Q.7XdX                                        ",
"            6X4X%X#X$X$X$X$X@X{.}.{.{.}.}./.T.b.b.n.n.b.x.l.l.l.l.l.l.l.x.x.c.P./.$X                                            ",
"              4X).e.e.0.3.( ( ( K U I U ) 2.2.2.2.2.' ' K J J J K K K K U U q.L.@XuX                                            ",
"                  H.Z.r.] P L L F F : L : - - L L F F G I I G F F F G I U 6.D.                                                  ",
"                    2X#XH.V.5.{ ] P > > = = = = = = = = = : L I ] { r.F.#X2X                                                    ",
"                              #XJ.H.F.S.M.N.5.5.r.r.5.r.V.Z.D.H.].7XdX                                                          ",
"                                              uXyXdX                                                                            ",
"                                                                                                                                ",
"                                                                                                                                "
};
