/* XPM */
static char *_77941ad851849d9a14b3aabdedf9675jm9We3XNlYlIcvEW_5[] = {
/* columns rows colors chars-per-pixel */
"64 64 256 2 ",
"   c None",
".  c #7E4E3E",
"X  c #754C38",
"o  c #6B4C3B",
"O  c #634D45",
"+  c #6C4D43",
"@  c #774E42",
"#  c #6E5247",
"$  c #6D564C",
"%  c #675148",
"&  c #725245",
"*  c #79584B",
"=  c #715C52",
"-  c #7D5D51",
";  c #6F5B51",
":  c #7D6052",
">  c #736459",
",  c #7B766B",
"<  c #824E3B",
"1  c #8D4F3C",
"2  c #8C4E36",
"3  c #914E3D",
"4  c #855139",
"5  c #8A513A",
"6  c #8E5E3F",
"7  c #9C5935",
"8  c #95543B",
"9  c #995639",
"0  c #95583F",
"q  c #9D5A3C",
"w  c #985537",
"e  c #985528",
"r  c #A55C34",
"t  c #A35D3D",
"y  c #AE5D30",
"u  c #86673C",
"i  c #BA6A2E",
"p  c #B5652B",
"a  c #AB6233",
"s  c #A8623B",
"d  c #B66934",
"f  c #BE7238",
"g  c #BE702F",
"h  c #CD761D",
"j  c #D37C19",
"k  c #D27A0E",
"l  c #CB7424",
"z  c #C4722C",
"x  c #CB762B",
"c  c #C77527",
"v  c #D37C25",
"b  c #D07A26",
"n  c #C67737",
"m  c #C36D29",
"M  c #835542",
"N  c #8D5B4C",
"B  c #895B45",
"V  c #935540",
"C  c #935941",
"Z  c #9B5B41",
"A  c #955D4C",
"S  c #885748",
"D  c #A25D41",
"F  c #A15F4C",
"G  c #866349",
"H  c #89644A",
"J  c #886548",
"K  c #956749",
"L  c #9A7549",
"P  c #826454",
"I  c #8A6958",
"U  c #926451",
"Y  c #996B57",
"T  c #987357",
"R  c #A76647",
"E  c #B26C43",
"W  c #B06D4B",
"Q  c #BA7446",
"!  c #A36851",
"~  c #B26F51",
"^  c #A47559",
"/  c #A6795C",
"(  c #A67759",
")  c #B57454",
"_  c #B77A58",
"`  c #A2784A",
"'  c #8F7362",
"]  c #987665",
"[  c #98786C",
"{  c #A37C64",
"}  c #A87C68",
"|  c #B37F64",
" . c #C57A45",
".. c #C87B40",
"X. c #C17C53",
"o. c #7E8376",
"O. c #DD841D",
"+. c #DB8315",
"@. c #DD8108",
"#. c #E78B09",
"$. c #EE9109",
"%. c #F49602",
"&. c #F69902",
"*. c #F99A01",
"=. c #F29508",
"-. c #E38916",
";. c #EE941A",
":. c #F29717",
">. c #FDA000",
",. c #DA8327",
"<. c #CC802F",
"1. c #E28920",
"2. c #A98553",
"3. c #B1895A",
"4. c #888779",
"5. c #9B8578",
"6. c #A48166",
"7. c #A68469",
"8. c #AB866A",
"9. c #AE896C",
"0. c #AC8466",
"q. c #B48A6C",
"w. c #B3956A",
"e. c #B8986A",
"r. c #AE8B72",
"t. c #A48879",
"y. c #B08D72",
"u. c #B08F78",
"i. c #B59375",
"p. c #B89676",
"a. c #BE9A79",
"s. c #B79578",
"d. c #AF937F",
"f. c #C7845A",
"g. c #D38B4E",
"h. c #C19E6B",
"j. c #C19C7A",
"k. c #D19366",
"l. c #C6A366",
"z. c #C4A279",
"x. c #C9A777",
"c. c #D0AD78",
"v. c #D5B27A",
"b. c #DBB67A",
"n. c #E3A27A",
"m. c #99988C",
"M. c #9B9488",
"N. c #A79689",
"B. c #B29383",
"V. c #BD9D83",
"C. c #B69987",
"Z. c #AC8D80",
"A. c #ACA496",
"S. c #BDA296",
"D. c #B8AA96",
"F. c #BEA790",
"G. c #BAADA2",
"H. c #BDB1AA",
"J. c #B7B2AD",
"K. c #C3A484",
"L. c #CCAB85",
"P. c #C9A88A",
"I. c #CEB28B",
"U. c #D5B689",
"Y. c #C4AB9B",
"T. c #C7A994",
"R. c #D5AE9B",
"E. c #CBB59A",
"W. c #D1B595",
"Q. c #D4BA9D",
"!. c #D9BC9B",
"~. c #D6B798",
"^. c #E0BB83",
"/. c #CBB6A7",
"(. c #DABCA3",
"). c #D2BDAB",
"_. c #D2B5A7",
"`. c #C9BDB4",
"'. c #D8BFB4",
"]. c #C09F84",
"[. c #D9C19B",
"{. c #E5C287",
"}. c #E9C68A",
"|. c #EBCA94",
" X c #F2D399",
".X c #F0D096",
"XX c #DBC5A7",
"oX c #CBC3BA",
"OX c #D9C6B9",
"+X c #DFD1B9",
"@X c #E6CDA5",
"#X c #E9D2A9",
"$X c #F1D6A5",
"%X c #F6DAA9",
"&X c #E8D5B6",
"*X c #F4DCB5",
"=X c #E1CBB9",
"-X c #F2E1BB",
";X c #FAE3BA",
":X c #FAE0B6",
">X c #CBC6C5",
",X c #DBCDC3",
"<X c #D3CCC7",
"1X c #DCD2CA",
"2X c #DED2C6",
"3X c #DAD7D5",
"4X c #E2D6CA",
"5X c #E8DACA",
"6X c #E6DDD8",
"7X c #F2E3C5",
"8X c #F9E6C5",
"9X c #F9E7C8",
"0X c #F9E8CC",
"qX c #F5E6C9",
"wX c #ECE2DB",
"eX c #E9E2D8",
"rX c #FAECD7",
"tX c #FAECD5",
"yX c #FAEBD3",
"uX c #FBEED9",
"iX c #F2E8DE",
"pX c #FEF0DA",
"aX c #FEF1DC",
"sX c #EDECEB",
"dX c #E9E6E4",
"fX c #F5EDE5",
"gX c #FAF2E7",
"hX c #FAF1E3",
"jX c #FAF3E8",
"kX c #EEEEF1",
"lX c #EFF0F5",
"zX c #F3F4F6",
"xX c #F5F6F8",
"cX c #F7F8F9",
"vX c gray98",
"bX c #FBF6F3",
"nX c #F3EFF2",
"mX c black",
"MX c black",
"NX c black",
"BX c black",
"VX c black",
"CX c black",
"ZX c black",
"AX c black",
"SX c black",
"DX c black",
"FX c black",
"GX c black",
"HX c black",
"JX c black",
"KX c black",
"LX c black",
"PX c black",
"IX c black",
"UX c black",
/* pixels */
"                                                                                                                                ",
"                                                                                                                                ",
"                                              bXbX                                                                              ",
"                    gXgXgXfXuXrXrXrXrXrXrXrXpXpXaXpXpXpXpXuXuXgXjXjXjXgXgXgX                                                    ",
"              gXgXfXuXrXrXrXyX9X9X9X9X9X9X9X9XyXuXpXpXpXpXpXuXuXpXaXpXuXrXrXrXuXpX                                              ",
"        jXhXrX0X0XrXuXyX9X9X9X9X9X9X9X9X9X9X9XyXuXpXpXuXuXrXrXrXuXuXtX9X9X9X7X7XqXtXiXfX                                        ",
"        rXyXqX7XqXtXrXyX9X9X9X9X9XyXrXrXrXrXpXpXpXpXpXpXpXpXpXpXrX0X9X8X;X:X*X*X*X*X5XeXfX                                      ",
"      7X-X-X-X-X7X7X9X9X9X8X0XrXtXtXtXtXrXyX9X9X9X9X9X9X9X9X9X8X;X:X:X*X%X%X$X X X X@X&XeX                                      ",
"    eX&X#X%X*X7X7X8X;X8X8X:X:X;X8X8X:X:X:X:X:X:X:X:X:X:X:X*X*X*X%X%X$X X X.X|.|.}.}.|.@X=X                                      ",
"  eX5XXX@X#X*X*X*X-X-X-X-X%X%X%X$X$X$X$X$X$X X X X X X X X X.X|.|.|.|.}.}.}.{.{.{.^.!.[.XX5XwX                                  ",
"  6X5XXXXXXX#X&X*X*X#X@X@X|.}.}.}.}.{.{.{.{.{.{.{.{.{.{.{.{.{.{.^.^.^.^.^.U.v.v.v.U.U.I.Q.4XeX                                  ",
"  eX4XQ.~.[.XX[.[.!.[.[.!.U.b.v.c.v.v.v.c.c.c.c.c.v.v.v.c.c.c.c.c.c.c.c.L.L.L.x.z.z.K.P.Q.,X4X                                  ",
"    4XQ.W.Q.(.R.T.P.I.L.j.z.z.z.z.h.h.a.a.a.a.a.a.a.a.a.a.a.a.a.a.a.a.a.a.a.a.p.p.a.V.T._.4XeX                                  ",
"      _.Q.W.W.W.T.K.K.K.z.j.p.i.i.i.y.i.y.9.9.7.7.7.9.9.9.y.i.i.y.y.y.i.i.i.i.i.p.a.V.T._.                                      ",
"      XXQ.W.W.W.W.L.K.K.a.a.p.i.i.i.y.9.9.9.7.7.7.7.{ { 7.7.7.7.7.7.9.9.9.9.y.i.p.V.K.T./.                                      ",
"      =XXX!.(.(.Q.W.P.z.a.a.a.a.i.i.y.9.7.7.7.7.6.{ 6.7.7.7.7.7.7.6.{ 7.7.9.y.i.p.V.T./.`.                                      ",
"      6X=X(.(.(.Q.W.I.K.V.a.a.a.i.i.y.9.7.7.7.7.7.7.7.7.7.7.7.7.7.7.7.7.7.9.y.y.s.V.T./.`.                                      ",
"      1XOXXX[.!.!.W.I.K.a.a.a.a.i.i.y.9.9.9.9.7.7.7.8.9.9.9.7.7.7.7.7.9.7.8.y.y.u.B.C.Y.).6XsX                                  ",
"      6X).T.(.W.U.I.L.L.z.j.a.a.i.i.i.y.9.9.9.9.7.7.9.9.9.9.9.9.9.9.9.9.9.y.y.y.u.B.C.T.).5XwX                                  ",
"      eX/.B.V.K.L.L.L.L.z.a.a.a.a.p.i.i.i.y.y.9.9.9.9.9.9.9.9.9.y.y.y.y.y.y.i.y.y.i.a.T.).5XwX                                  ",
"      eX/.r./ 8.p.z.z.j.a.a.a.a.a.a.a.i.i.i.y.y.9.9.r.y.y.y.y.y.y.y.y.y.i.i.i.i.i.a.V.F.Y.OX,X                                  ",
"      dX).i.( ^ / 9.i.i.i.9.8.8.8.y.i.i.i.i.y.y.y.y.y.y.y.i.i.i.i.i.i.i.i.i.i.i.p.a.V.K.P.W.XX5X      vXvXvXvX                  ",
"        K.s.( ^ ^ ( 0.7.{ Y U N N N U T T { 8.9.9.9.r.r.y.y.i.i.i.i.i.i.i.p.a.a.a.V.V.K.K.L.W.!._.).>X6XsXcXcXvXvX              ",
"        S.B./ ^ ^ ^ ^ T K S M M < < < M M B T T { 7.7.7.7.r.y.i.i.p.a.a.a.a.a.a.a.V.K.K.K.L.L.L.K.D.`.3XsXzXlXcXvXvX            ",
"        Y.C./ ^ ^ ^ ^ Y K 8 1 4 4 4 4 4 < < M H Y Y ] ] { 6.7.9.y.i.a.a.a.a.a.V.].K.K.P.L.U.W.R.`.          nXzXcXcXvXvX        ",
"        Y.C./ ^ / _ ^ K C C 8 3 4 4 4 4 4 < < M S N N U U T T ^ 6.8.y.i.p.a.a.V.V.K.L.L.I.Q.=X6X              kXlXzXcXcXcX      ",
"        S.C.| ) ) ) ) R D Z 8 3 3 5 4 4 4 4 4 < < 1 < < < M B N U Y / 8.y.p.a.a.a.K.L.I.Q.&X5X                    kXzXcXcX      ",
"        S.C.| ) ~ ~ ~ R D D q 9 8 8 3 1 5 4 < < < 3 5 < < 4 5 3 8 C Z ! { y.i.p.j.K.L.I.[.4X6X                    lXzXcXcXvX    ",
"        S.V._ ) ) ) ) W r t q w 9 8 1 5 4 4 4 2 w w 5 4 4 1 3 8 M 4 5 Z ! { r.p.j.K.L.W.XX5XwX                    zXlXzXcXcXzX  ",
"        S.V._ ) ) ) ) E a r t t t 7 e w 8 3 3 8 7 a 7 9 0 9 8 V 8 5 5 9 q ! 6.y.a.K.L.Q.OX                          lXzXzXzXcXcX",
"        Y.V._ Q Q ) ) E a r r r r r r t q w w r a i a r 9 t q 9 w 8 0 9 q R { 8.s.V.L.Q.+X                          lXzXzXzXzXzX",
"        R.P.f. . .Q ) E a a a a a r r r a a r y m ,.z a r t q 9 0 Z t t R R ! { 9.a.P.).2X                          zXzXzXzXzXzX",
"        R.P.f. . .Q Q d p p p i i i i g i d a i b +.v i r w 8 8 C 8 9 q A R R R / y.Y.).                            zXzXzXzXzXzX",
"        _.P.f. ...n d p p i i m c c b l b x c b O.-.O.z r w 9 9 0 8 9 d d f v n _ y._.+X                          cXcXzXzXzXcXcX",
"        _.P.f. .n x z g g i h k +.,.,.,.O.-.-.1.;.=.#.l r w 8 0 9 8 V F R R E R { B.Y.).                          cXcXzXzXzXcXcX",
"        OXR.f.n z x c c x x ,.;.=.&.*.*.%.%.%.;.;.%.%.+.a w 8 C C Z R D F F ! Y } V.E.).                          cXcXzXxXcXvXvX",
"        OXR.f.z c x c l v b ,.;.*.*.>.>.*.%.%.=.=.*.*.-.i t q C C C Z D F ! ! Y } V.E.).                      vXvXcXxXcXcXcXcX  ",
"        OXR.g.x l h h ,.-.@.#.=.*.*.*.*.*.%.%.%.%.%.&.$.+.l p r t Z Z D R ! ! Y } V._.'.                      cXcXcXxXcXcXvXvX  ",
"        OXR.g.b h v v -.%.%.:.;.*.*.*.*.*.%.%.%.%.&.*.*.&.=.#.k d R D F F ! ! Y } V.).+X                    cXcXcXcXcXzXzXxX    ",
"        OXR.f.x h h v -.=.*.&.%.*.*.*.*.*.&.*.&.*.*.*.*.*.*.$.j d q C C A U U U { V._.OX                cXcXxXcXcXcXcXzXkX      ",
"        oXY.f.x h v v O.-.=.*.*.*.*.*.*.*.*.*.*.*.*.*.%.$.1.n t 9 C N N N N N U ] C./.oX              nXxXcXcXcXcXcXzXsXsX      ",
"        oX/.f.x l x l j -.=.*.*.*.*.*.*.*.*.*.%.%.&.%.-.m r 8 C N B M - - - - : ' B./.1XsX      3X6XsXxXcXcXcXcXcXzXdX3X        ",
"        >X_.f.n r 4 e p O.=.*.&.*.*.*.*.*.*.*.*.*.&.-.z w 8 B M - * & - - - - : T s./.<X<X`.<XsXxXvXvXcXvXvXcXxXsX3X            ",
"        +X(.k.R X o . s b $.*.&.%.%.*.*.*.*.*.*.*.$.m 7 4 M @ # # # # # $ = - - ' C.,XsXzXwXsXvXvXvXvXvXvXcXzXdX3X              ",
"        1XOXa.P o o . q l #.*.*.&.%.*.*.*.*.*.*.$.v r 1 . & + + + + # # $ = - : ' C.1XzXvXvXvXvXvXvXvXcXzXdX3X                  ",
"        <XJ.5.> % O % 6 z #.*.>.>.*.*.*.*.*.*.&.k e < @ # + + + + + + # $ = - : ' C.1XxXvXvXvXvXvXvXzXdX3X>X                    ",
"        >XH.5.I : = - B d ,.:.*.>.>.*.*.*.*.&.O.d 4 & + + + O O + + + # $ = - : ' B.1XzXvXvXxXsXsXeX3X3X                        ",
"        <XJ.4.] Y ! U A s c O.-.$.=.%.=.%.$.-.p 5 X + O O O O O O O O # $ = - P I t.oXsXcXsX3X`.>X                              ",
"        1X`.B.] T ) ~ E a d i i a t s t 7 7 w 5 . + O O O O O O O O O # $ = P ^ q.j./.6XsX1XOX,X                                ",
"        5X=XP.q._ X.f f Q E s D A S M < . X & + + + + + + + + # & * - M B U ! ) k.n.!.OXoX                                      ",
"        eX,XP.q._ Q W W E E R R D q 9 C C C 1 C C C C C C C C C Z R R s s E Q  .k.!.+X1X                                        ",
"        eX,XD.4., > = = ; & & & - * . & # & . < < . & & & & & & @ M M M B H Y [ d.Y.OX4X                                        ",
"        6X2XG.N.4., > > ; % O O O + + + + + & * B M M M . . & & - G J J I [ N.C.z.I.&X5X                                        ",
"        6X<XA.m.m.m.A.C.6.Y K K G G G K K B & * H N G G G J G H ` 3.z.I.Q.I.e.h.x.I.4XeX                                        ",
"        6X>XN.4.o.o.4.M.A.D.D.D.B.t.{ Y U J u u J H T 6.w.a.P.W.E.E.F.e.w.w.w.w.a.Y.2XeX                                        ",
"            G.m.o., , 4.4.M.N.N.A.H.)./.XX[.[.XXXXXX[.XXQ.P.z.e.e.w.w.w.w.w.w.i.V.E.4XiX                                        ",
"            3X1XOX`.OXOXOXOXXX[.[.[.[.[.[.!.U.v.v.b.b.v.x.l.l.l.l.l.l.l.x.x.x.c.Q.OX                                            ",
"              1X/.r.r.q.3./ / ( L T Y T ( 2.2.2.2.2.` ` L K K K K L L L T T w.K.XXeX                                            ",
"                  G.C.t.' I P P G G P P : - - P P G G G G G G G G G H Y T 7.S.                                                  ",
"                    ,XoXG.B.5.[ ' I > > = = = = = = = = = - P Y ' [ t.D.oX,X                                                    ",
"                              oXH.G.D.A.M.M.5.5.t.t.5.t.Z.C.S.G.`.4XiX                                                          ",
"                                              eXwXiX                                                                            ",
"                                                                                                                                ",
"                                                                                                                                "
};
