/* XPM */
static char *_5aba84781df4cc2e2f7428a2f909d84Cf66VkBvNQFDM5Ex_18[] = {
/* columns rows colors chars-per-pixel */
"35 62 256 2 ",
"   c #03064C",
".  c #080826",
"X  c #0C1362",
"o  c #181866",
"O  c #1B1B47",
"+  c #181C57",
"@  c #172168",
"#  c #222667",
"$  c #202877",
"%  c #2A2963",
"&  c #2B2981",
"*  c #2B2B4A",
"=  c #283176",
"-  c #283269",
";  c #343565",
":  c #393537",
">  c #2A3786",
",  c #313979",
"<  c #3E3C4E",
"1  c #1D41A0",
"2  c #374279",
"3  c #1E438F",
"4  c #374A90",
"5  c #504C51",
"6  c #4B4D72",
"7  c #665137",
"8  c #38549E",
"9  c #495590",
"0  c #5E5866",
"q  c #685851",
"w  c #425A9F",
"e  c #585A84",
"r  c #5A5B5A",
"t  c #575E78",
"y  c #3D6491",
"u  c #556494",
"i  c #3865AC",
"p  c #4565A8",
"a  c #676668",
"s  c #776752",
"d  c #656889",
"f  c #696876",
"g  c #766966",
"h  c #636A9A",
"j  c #736B86",
"k  c #736B97",
"l  c #746B75",
"z  c #687399",
"x  c #6B736A",
"c  c #6B7376",
"v  c #6F7389",
"b  c #7C7568",
"n  c #767678",
"m  c #8C7659",
"M  c #6C78A9",
"N  c #767999",
"B  c #7A7B86",
"V  c #857B79",
"C  c #5A7DBA",
"Z  c #828479",
"A  c #848488",
"S  c #9B8458",
"D  c #7686AA",
"F  c #878AA9",
"G  c #8A8A97",
"H  c #938A71",
"J  c #838BB8",
"K  c #8D8C8B",
"L  c #948C96",
"P  c #948CAF",
"I  c #A98F34",
"U  c #AD8F58",
"Y  c #8C9482",
"T  c #8C9499",
"R  c #9194A8",
"E  c #8895B8",
"W  c #959598",
"Q  c #9A9781",
"!  c #AF9768",
"~  c #879AC8",
"^  c #979AB9",
"/  c #C79B53",
"(  c #9C9CA4",
")  c #A59C9D",
"_  c #A79C88",
"`  c #BE9C62",
"'  c #A1A275",
"]  c #9CA5AC",
"[  c #A1A5BF",
"{  c #A4A589",
"}  c #A5A5A4",
"|  c #A5A5B5",
" . c #A6A5AD",
".. c #ADA5A1",
"X. c #ADA5B5",
"o. c #BAA550",
"O. c #C8A763",
"+. c #96A8CB",
"@. c #B7A873",
"#. c #D1A957",
"$. c #CAAC72",
"%. c #A3ADD2",
"&. c #A4ADA1",
"*. c #A4ADBD",
"=. c #A5ADAD",
"-. c #A5ADB5",
";. c #A9ADC7",
":. c gray68",
">. c #ADADB5",
",. c #ADADBD",
"<. c #AEADA3",
"1. c #B5ADB7",
"2. c #D6AD73",
"3. c #D7AD64",
"4. c #B4B089",
"5. c #CCB232",
"6. c #ABB5A5",
"7. c #ACB5C9",
"8. c #ADB5BA",
"9. c gray71",
"0. c #B5B5BD",
"q. c #B6B5C7",
"w. c #B9B5A9",
"e. c #BDB5B5",
"r. c #DCB567",
"t. c #E9B55D",
"y. c #A6B7D8",
"u. c #CAB767",
"i. c #C8B87A",
"p. c #8DB9DA",
"a. c #DBB975",
"s. c #B4BDB3",
"d. c #B5BDBD",
"f. c #B5BDCE",
"g. c #BBBDD6",
"h. c #BCBDC6",
"j. c #BDBDBC",
"k. c #BDBDCE",
"l. c #C6BDC9",
"z. c #C7BD91",
"x. c #E7BD70",
"c. c #B2BFE1",
"v. c #DBC24A",
"b. c #C3C385",
"n. c #BDC6D2",
"m. c #C1C6A2",
"M. c #C5C6C6",
"N. c #C6C6CE",
"B. c #C6C6D7",
"V. c #CEC6C3",
"C. c #EDC678",
"Z. c #EDC769",
"A. c #D7C87A",
"S. c #F9CA69",
"D. c #D5CBAF",
"F. c #EFCB53",
"G. c #F6CD79",
"H. c #C5CEF1",
"J. c #C6CEC6",
"K. c #C6CECE",
"L. c #CDCEE7",
"P. c #CECEC6",
"I. c #CECECE",
"U. c #CECED9",
"Y. c #ECCF28",
"T. c #D6D08F",
"R. c #CDD6E8",
"E. c #CED6CE",
"W. c #D6D6DB",
"Q. c #D6D6E8",
"!. c #ECD769",
"~. c #FCD869",
"^. c #C6D9F9",
"/. c #E9D97C",
"(. c #EED9AF",
"). c #F8D98F",
"_. c #FEDA7D",
"`. c #E8DDD5",
"'. c #D6DED6",
"]. c #D6DEDE",
"[. c #DEDED5",
"{. c gray87",
"}. c #DEDEE7",
"|. c #DEDEF7",
" X c #DFDEEF",
".X c #E0DE95",
"XX c #E4E4AB",
"oX c #EBE689",
"OX c #DEE7DE",
"+X c #DEE7EE",
"@X c #E7E7E6",
"#X c #E7E7EF",
"$X c #E7E7F7",
"%X c #E7E7FF",
"&X c #EFE7E5",
"*X c #EFE7EF",
"=X c #ECEA98",
"-X c #FDEA78",
";X c #F5EBD1",
":X c #FEEB8A",
">X c #FDED98",
",X c #E6EFF7",
"<X c #E7EFE7",
"1X c #E7EFEF",
"2X c #E7EFFF",
"3X c #EFEFEE",
"4X c #EFEFF7",
"5X c #EFEFFF",
"6X c #F7EFFA",
"7X c #F6F69E",
"8X c #EFF7FA",
"9X c gray97",
"0X c #F7F7FF",
"qX c #FFF7F5",
"wX c #FFF7FF",
"eX c #F9F8EA",
"rX c #FEFA89",
"tX c #FFFB97",
"yX c #FEFCAA",
"uX c #F7FFFF",
"iX c #FFFFF5",
"pX c white",
"aX c None",
"sX c black",
"dX c black",
"fX c black",
"gX c black",
"hX c black",
"jX c black",
"kX c black",
"lX c black",
"zX c black",
"xX c black",
"cX c black",
"vX c black",
"bX c black",
"nX c black",
"mX c black",
"MX c black",
"NX c black",
"BX c black",
"VX c black",
"CX c black",
"ZX c black",
"AX c black",
"SX c black",
"DX c black",
"FX c black",
"GX c black",
"HX c black",
"JX c black",
"KX c black",
"LX c black",
"PX c black",
"IX c black",
"UX c black",
/* pixels */
"aXaXaXaXaXaXaXaXaXaXaXaXaXaXaXaXW 4X9X9X{.aXaXaXaXaXaXaXaXaXaXaXaXaXaX",
"aXaXaXaXaXaXaXaXaXaXaXaXaXaXaXI.] {.{.N.K M.W.N.M.aXaXaXaXaXaXaXaXaXaX",
"aXaXaXaXaXaXaXaXaXaXaXaXaXaXaX .q. X#X9X XN.>.:.9.W.3X9X3XaXaXaXaXaXaX",
"aXaXaXaXaXaXaXaXaXaXaXaXaXaX,.k.Q.B.+XQ.B.7.] 0.I.@X#X@XI.j.(  .aXaXaX",
"aXaXaXaXaXaXaXaXaXaXaXaXaXh.k.}.}.}.+XL.7.,.8. .8.M.U.{.h.j.K A N.W.aX",
"aXaXaXaXaXaXaXaXaXaXaXaXM.N.pXpXpXpX8XQ.q.| | | *.q.{.N.>.W G  .h.>.aX",
"aXaXaXaXaXaXaXaXaXaXaXaX}  X9X9X4X X}.U.N.h.M.N.N.U.U.N.-.R G G R 0.aX",
"aXaXaXaXaXaXaXaXaXaXaXaX{ $X@X0X$XW.U.I.U.W.{.@X3X3X#XW.0.( G N R ,.aX",
"aXaXaXaXaXaXaXaXaXaXaXV._ 4XpX0X XU.I.I.I.W.{.#X9X9X9X9X{.j.( T ] *.].",
"aXaXaXaXaXaXaXaXaXaXaX....3X9XQ.Q.U.N.I.U.W.}.4X3X9.I.U.@XI.0.>.>.k.B.",
"aXaXaXaXaXaXaXaXaXaXaX_ P.9X9X Xq.0.N.I.U.U.].9XM.Y K 4.M.N.9.>.k.W.}.",
"aXaXaXaXaXaXaXaXaXaXaX4.}.pX4Xj._ ! N.I.U.<.x.z.4.{ b.Q ) h.>.>.N.}.#X",
"aXaXaXaXaXaXaXaXaXaXaX) 4X3X4X4.$...K.N.U...i.).b..X{ ' H 0.:.>.B.}.}.",
"aXaXaXaXaXaXaXaXaXaX..1.8X0X X..x.>.N.N.I...w.:X.XoX4.H 0.0.>.0.W.}.}.",
"aXaXaXaXaXaXaXaXaXaX_ W.0X0XQ._ a.i.h.H :.@.T..Xb.=Xb.0.N.>.>.h.Q.Q.aX",
"aXaXaXaXaXaXaXaXaXaXG  X0X5X X0.2.2.` r.a.2.A.>XT.>XD.{.M.>.>.N.}.}.aX",
"aXaXaXaXaXaXaXaXaXM.( $X0X XW.q.2.@.r.O.x.C.A.T.tX>Xe.W.j.:.0.U.}.].aX",
"aXaXaXaXaXaXaXaXaX:.0.#X}.<.j.N...! ! x.x.$.T.tX=XT.N.) V G h.N.}.].aX",
"aXaXaXaXaXaXaXaXaX>.U.#Xd..X$.:.:.@.r.x.G.).T.Q w.W.<.O.m A h.U.Q.aXaX",
"aXaXaXaXaXaXaXaXaXv M ;.0.a.a.x.C.C.a.O.a.T.>X:.pX3X@.S V ( k.Q.W.aXaX",
"aXaXaXaXaXaXaXaXaX2 p p h j ! U x.a.$.` i.:XtXM.pX@X! W =.0.U.}.}.aXaX",
"aXaXaXaXaXaXaXaXR > p p w 9 - + < q * 0 i./.:XV.pX#X) W  .h.W.W.}.aXaX",
"aXaXaXaXaXaXaXaXG 9 p w ^ #Xd 0.W.f t v + + a B U.{. .H >.h.Q.W.aXaXaX",
"aXaXaXaXaXaXaXaXe h p w 7.B.; W.U.v 0.9X9Xv v 2 @ - 6 0 ( N.Q.}.aXaXaX",
"aXaXaXaXaXaXaX>.t w p 8 U.| + M.v t 3XpXpXe h.9XG 6 # = > w J K.aXaXaX",
"aXaXaXaXaXaXaXN > p p h #XR + f M.I.3XN.pXv 0.pXv >.,.= 4 w E @XaXaXaX",
"aXaXaXaXaXaXaXG 4 p h M W.U.0.v W @XN.>.pXG ,.pXN W.R , 4 p R aXaXaXaX",
"aXaXaXaXaXaXaXt w p M 9 , ( M.; W.@XN.{.9XG | 9Xh.I.= 2 9 J ;.aXaXaXaX",
"aXaXaXaXaXaXq., w ^ w h G + + ( {. .+ W.pX( ] 9X@XR = > w w B.aXaXaXaX",
"aXaXaXaXaXaXG d p E 9 F N t     f f   0.pX,.| 9XW.- , 4 w M }.aXaXaXaX",
"aXaXaXaXaXaXe u p p F G N T A f +     6 v 6 2 2 - - 2 4 p ^ aXaXaXaXaX",
"aXaXaXaXaXaXt u M M F 2 v B G B  .8.G ; N @ @ # # - > 8 w ;.aXaXaXaXaX",
"aXaXaXaXaX} Q m.| h , # 6 f t  .G A | ,.R G F G t 2 4 w w B.aXaXaXaXaX",
"aXaXaXaXaX .| l.D.D.4.K f +     6 A R | q.,.,.T N d z w M U.aXaXaXaXaX",
"aXaXaXaXaX .k.U.Q.q. ._ z.z.@.K f + + X 6 F v N G e u M E aXaXaXaXaXaX",
"aXaXaXaXW.W B.Q.W.l.q.0.>.:.<.z.(.(.D...v - = # 6 2 8 w q.aXaXaXaXaXaX",
"aXaXaXaX0.( U.U.n.h.9.w.j.M.M.].U.W.P.D.7X(.4.V f 9 w w N.aXaXaXaXaXaX",
"aXaXaXaXd.>.L.Q.B.q.>.>.0.h._ _ e.W.3X9XW.N.:.Q Q z.(.m.].aXaXaXaXaXaX",
"aXaXaXaX( h.Q.Q.N. .V Q K 0.:.<.<.Q M.9XeX{.h.:.] | k.k.aXaXaXaXaXaXaX",
"aXaXaXaXW k.Q.U.k. .( ) H H H w.j.W.@XpX@XI.e.} =.h.B.].aXaXaXaXaXaXaX",
"aXaXaXj.( B.Q.B.q.>.0.0.0.0.:.w.<.w.e.E.M.j.9. .>.k.Q.}.aXaXaXaXaXaXaX",
"aXaXaX} | U.U.h.0.>.0.0.d.I.{.4X9X{.I.M._ ..>. .0.U.W.].aXaXaXaXaXaXaX",
"aXaXaXW 0.U.U.k.8.>.9...S _ W.4XpXpXpX9X{.h. . .0.W.U.aXaXaXaXaXaXaXaX",
"aXaXaXW 0.U.B.q. .) ) ! S U 4.@.w.9XpX9XW.d.}  .k.U.U.aXaXaXaXaXaXaXaX",
"aXaXj.W N.U.k.0. .S U ! S ` $.@.T.E.0X3XU.9.(  .N.W.W.aXaXaXaXaXaXaXaX",
"aXaX( ] B.U.k.>.W S m Q w.M.Q @.b.i.z.W.N.:.( 8.N.U.].aXaXaXaXaXaXaXaX",
"aXaX( ,.B.B.q.>. .Q H _ @.i.m.M.{ T.i.e.h. .( 0.B.U.aXaXaXaXaXaXaXaXaX",
"aXaXG q.N.k.,.>.>.9...U ` $.A.m.w.Q { M.d. . .h.U.N.aXaXaXaXaXaXaXaXaX",
"aX>.G k.h.k.>. .>.9.Q U ! ' 4.z.I.'.W.U.9.} >.N.W.U.aXaXaXaXaXaXaXaXaX",
"aXW ( k.k.q.-. .:.9.! S @.H 4.T.[.pX@XN.:.( ,.B.N.I.aXaXaXaXaXaXaXaXaX",
"aXG ] k.k.0. . .>.0._ ` O.i.b..X@X9X{.h. .( 0.k.N.aXaXaXaXaXaXaXaXaXaX",
"aXK F P ,.>. . .>.9.d.@.$.i.oX[.pX4XW.0.( ] 0.U.B.aXaXaXaXaXaXaXaXaXaX",
":.G 0.k.R N A ] >.0.h.U.P.E.@XpX0X3XI.>.(  .k.U.W.aXaXaXaXaXaXaXaXaXaX",
" .G h.h.,. .( A A G 0.{.3XpXpXpX9X@XM. .( >.N.U.#XaXaXaXaXaXaXaXaXaXaX",
"aXB G >.-.] } ( ( >. .] >.N.}.9X9X{.j. .(  .N.U.aXaXaXaXaXaXaXaXaXaXaX",
"aXaXV K K G ( :. .=.0.h.}.@XU.,.,.] T G R ,.k.N.aXaXaXaXaXaXaXaXaXaXaX",
"aXaXK r K } } :.:.j.U.{.}.W.,.}.#XI. .G G R *.0.aXaXaXaXaXaXaXaXaXaXaX",
"aXaXaXK l K ( :.M.I.W.#X0XpXpX9X}.M. .(  .0.h.aXaXaXaXaXaXaXaXaXaXaXaX",
"aXaXaXaXaX( K ( } ) } 9.M.I.{.{.I.>.( W -.h.N.aXaXaXaXaXaXaXaXaXaXaXaX",
"aXaXaXaXaXaXaXM.j.9.} ( L A A A A n n f B ( N.aXaXaXaXaXaXaXaXaXaXaXaX",
"aXaXaXaXaXaXaXaXaXaXaX:.} ( K n r 5 5 n aXaXaXaXaXaXaXaXaXaXaXaXaXaXaX",
"aXaXaXaXaXaXaXaXaXaXaXaXaXaXaXj.} W } aXaXaXaXaXaXaXaXaXaXaXaXaXaXaXaX"
};
