/* XPM */
static char *_77941ad851849d9a14b3aabdedf9675jm9We3XNlYlIcvEW_4[] = {
/* columns rows colors chars-per-pixel */
"64 64 256 2 ",
"   c None",
".  c #7D4E3E",
"X  c #754C39",
"o  c #634939",
"O  c #634D45",
"+  c #6C4D43",
"@  c #7A4F41",
"#  c #6E5247",
"$  c #6D564C",
"%  c #675148",
"&  c #725245",
"*  c #78584A",
"=  c #715C52",
"-  c #7D5D51",
";  c #6F5B51",
":  c #7D6052",
">  c #736359",
",  c #7C766B",
"<  c #824E3B",
"1  c #8D4F3C",
"2  c #844E37",
"3  c #914E3B",
"4  c #855139",
"5  c #8B513A",
"6  c #965436",
"7  c #9D5A37",
"8  c #95543B",
"9  c #995639",
"0  c #95583F",
"q  c #9D5A3C",
"w  c #995637",
"e  c #985528",
"r  c #A55D34",
"t  c #A35D3D",
"y  c #AB5E32",
"u  c #85663B",
"i  c #9E663D",
"p  c #BA6A2F",
"a  c #B5652B",
"s  c #AB6233",
"d  c #AA623B",
"f  c #B66A34",
"g  c #BE7238",
"h  c #BE702F",
"j  c #CD771E",
"k  c #D37D15",
"l  c #C57325",
"z  c #CB7523",
"x  c #C4722C",
"c  c #CA762B",
"v  c #CC792B",
"b  c #D37C24",
"n  c #D47B24",
"m  c #C57736",
"M  c #C36D2A",
"N  c #835542",
"B  c #8C5B4C",
"V  c #8A5B44",
"C  c #935942",
"Z  c #9B5B41",
"A  c #965A47",
"S  c #804F40",
"D  c #A25D41",
"F  c #A25E4A",
"G  c #856246",
"H  c #866349",
"J  c #8A644B",
"K  c #8C6847",
"L  c #956649",
"P  c #9A7549",
"I  c #826454",
"U  c #886B5C",
"Y  c #986B57",
"T  c #987357",
"R  c #A36243",
"E  c #A4634B",
"W  c #A96847",
"Q  c #B26D44",
"!  c #BA7446",
"~  c #A46951",
"^  c #B26E51",
"/  c #A47559",
"(  c #A6795C",
")  c #A67759",
"_  c #B57454",
"`  c #B77959",
"'  c #A2784A",
"]  c #8F7362",
"[  c #987765",
"{  c #957D72",
"}  c #A27B64",
"|  c #A77B67",
" . c #B47E63",
".. c #C57A45",
"X. c #C87B40",
"o. c #C17C53",
"O. c #7E8276",
"+. c #DD841D",
"@. c #DB8316",
"#. c #DE8209",
"$. c #E88C0A",
"%. c #EE9108",
"&. c #F39602",
"*. c #F69802",
"=. c #F99A01",
"-. c #F29508",
";. c #E38916",
":. c #EE931A",
">. c #F29717",
",. c #FDA000",
"<. c #DA8427",
"1. c #D08030",
"2. c #E88F21",
"3. c #A98553",
"4. c #B5875B",
"5. c #87877A",
"6. c #9A8578",
"7. c #A48166",
"8. c #A68469",
"9. c #AA866A",
"0. c #AE896C",
"q. c #AC8466",
"w. c #B4896B",
"e. c #B3956A",
"r. c #B6986B",
"t. c #AE8B71",
"y. c #A48879",
"u. c #B08D72",
"i. c #B59375",
"p. c #B89676",
"a. c #B4927A",
"s. c #BE9A79",
"d. c #BB9978",
"f. c #AF937F",
"g. c #C7845A",
"h. c #D18A50",
"j. c #C19D69",
"k. c #C19C7A",
"l. c #D19169",
"z. c #C6A366",
"x. c #C4A27A",
"c. c #C9A777",
"v. c #D0AC78",
"b. c #D1AF77",
"n. c #D5B37A",
"m. c #DCB77B",
"M. c #E3A17A",
"N. c #99958A",
"B. c #998B80",
"V. c #A79689",
"C. c #BE9D83",
"Z. c #B59786",
"A. c #A6968D",
"S. c #ACA297",
"D. c #BEA295",
"F. c #B7A996",
"G. c #BEA790",
"H. c #BAADA2",
"J. c #BDB1AA",
"K. c #B7B2AD",
"L. c #C3A484",
"P. c #CCAB85",
"I. c #CCAE8A",
"U. c #C7A489",
"Y. c #D4B588",
"T. c #C6AA96",
"R. c #D6AE9A",
"E. c #CBB59A",
"W. c #D2B695",
"Q. c #D4BA9C",
"!. c #D6B998",
"~. c #CDB28B",
"^. c #E0BC83",
"/. c #CCB4A4",
"(. c #CBB7A8",
"). c #DABCA3",
"_. c #D2BDAB",
"`. c #D2B6A6",
"'. c #C9BDB4",
"]. c #D6BEB3",
"[. c #DAC29B",
"{. c #E5C387",
"}. c #EAC78A",
"|. c #EECC92",
" X c #E1C69A",
".X c #F2D399",
"XX c #F0D096",
"oX c #DBC5A7",
"OX c #CBC3BA",
"+X c #DCC0BA",
"@X c #D8C8B8",
"#X c #DFD1B9",
"$X c #E6CDA5",
"%X c #E9D2A9",
"&X c #F5D9A8",
"*X c #E8D5B6",
"=X c #F4DCB5",
"-X c #E1CBB9",
";X c #FAE3BB",
":X c #F2E0BB",
">X c #CBC6C5",
",X c #DBCDC3",
"<X c #D3CCC7",
"1X c #DCD2CA",
"2X c #DED2C6",
"3X c #DAD7D5",
"4X c #E2D6CB",
"5X c #E9DAC9",
"6X c #F5DFC2",
"7X c #E9DFD9",
"8X c #E4DCD7",
"9X c #F9E6C5",
"0X c #F9E7C8",
"qX c #F9E8CC",
"wX c #F3E2C6",
"eX c #ECE2DB",
"rX c #E9E1D9",
"tX c #FAECD7",
"yX c #FAEBD4",
"uX c #FBEDD9",
"iX c #F1E7DD",
"pX c #FEF0DA",
"aX c #FDF1DD",
"sX c #EBE0CF",
"dX c #EDECEB",
"fX c #E9E6E4",
"gX c #F6EDE3",
"hX c #F0ECEE",
"jX c #FAF2E5",
"kX c #FAF3E8",
"lX c #EEEEF1",
"zX c #EFF0F5",
"xX c #F3F4F6",
"cX c #F5F6F8",
"vX c #F7F8F9",
"bX c gray98",
"nX c #FBF6F3",
"mX c #F3EFF2",
"MX c black",
"NX c black",
"BX c black",
"VX c black",
"CX c black",
"ZX c black",
"AX c black",
"SX c black",
"DX c black",
"FX c black",
"GX c black",
"HX c black",
"JX c black",
"KX c black",
"LX c black",
"PX c black",
"IX c black",
"UX c black",
/* pixels */
"                                                                                                                                ",
"                                                                                                                                ",
"                                              nXnX                                                                              ",
"                    jXjXgXgXuXtXtXtXtXtXtXtXpXpXjXjXaXpXpXuXuXaXjXkXjXjXjXjX                                                    ",
"              gXgXgXuXtXtXtXyX9X;X9X0X0X0X0X0XyXuXuXpXpXpXpXuXuXpXaXpXuXtXtXtXtXtX                                              ",
"        kXjXtXqXqXtXuXyX0X0X0X0X9X0X0X0X0XqXtXtXuXpXpXuXtXtXuXpXuXuXtX0X0X9XwXwXwXwXiXgX                                        ",
"        tXyXwX6X0XtXtXyX0X0X0X0X0XyXtXtXtXtXpXpXpXpXpXpXpXpXpXpXtXtXyX0X;X;X=X=X=X=X5XsXgX                                      ",
"      wX:X:X6X6X9X0X0X0X0X9XqXtXtXtXtXtXtXyX0X0X0X0X0X0X0X0X0X9X;X;X;X=X&X&X&X.X.X.X$X*XwX                                      ",
"    sX*X%X&X=XwXwX9X;X9X9X;X;X;X9X9X;X;X9X9X9X;X;X;X;X;X;X=X=X=X&X&X&X.X.XXX|.|.|.}. X$X-X                                      ",
"  7X5XoX$X%X=X=X=X:X:X:X:X&X&X&X&X&X&X&X&X&X.X.X.X.X.X.X.X.XXX|.|.|.|.}.}.}.{.{.{.^.!.[.oX5XeX                                  ",
"  7X5XoX[. X%X*X=X=X%X$X$X|.|.|.}.}.{.}.}.{.{.{.{.{.{.{.{.{.^.^.^.^.^.^.m.m.n.n.n.Y.Y.Y.oX4X7X                                  ",
"  rX4XQ.!.[.oX[.[.oX[.[.!.Y.m.n.n.n.n.n.b.b.b.b.b.n.n.n.b.b.v.v.b.b.b.b.v.P.P.c.x.x.L.I.Q.,X4X                                  ",
"    4XQ.W.Q.).R.T.U.~.P.k.x.x.x.j.j.j.s.s.s.s.s.s.s.s.s.s.s.s.s.s.s.s.s.s.s.s.s.s.s.C.U.`.4XrX                                  ",
"      W.W.W.W.W.T.L.L.L.x.k.d.p.p.i.u.i.u.0.0.9.8.9.0.0.0.u.i.i.u.u.u.i.p.p.p.p.p.s.C.T.`.                                      ",
"      oXQ.W.W.W.W.P.L.L.s.s.p.p.s.i.t.0.0.0.8.8.7.8.8.8.8.8.8.8.8.9.0.0.0.0.u.i.p.C.L.T.`.                                      ",
"      -XoX!.).).Q.!.I.x.s.s.s.s.p.i.t.0.9.8.8.} } } 7.8.8.8.8.8.8.} } 7.9.0.u.i.p.C.U./.'.                                      ",
"      8X-X).).).Q.W.I.L.C.s.s.s.p.u.u.0.9.8.8.8.8.8.8.8.8.8.8.8.8.8.7.8.9.0.u.u.a.C.D./.].                                      ",
"      1X@XoX[.!.!.W.I.P.x.s.s.s.p.u.u.0.0.0.0.9.8.8.8.9.0.0.9.8.8.8.9.0.9.9.t.u.a.Z.Z.T._.7XdX                                  ",
"      8X_.T.Q.W.Y.Y.P.P.x.s.s.s.p.p.i.u.0.0.0.0.9.8.9.0.0.0.0.0.0.0.0.0.0.u.u.u.u.p.C.T._.8XeX                                  ",
"      eX/.a.C.L.P.P.P.P.x.s.s.s.s.p.p.i.u.u.u.0.0.0.0.0.0.0.0.u.u.u.u.t.u.u.i.u.u.p.s.T._.4X7X                                  ",
"      eX/.0.( q.p.x.x.x.s.s.s.s.s.s.d.p.p.i.u.u.0.0.0.t.u.u.u.u.u.u.u.u.i.p.p.i.p.s.C.G.T.@X,X                                  ",
"      fX_.i.( / ( 0.i.p.i.u.0.0.0.u.i.i.i.i.i.u.0.0.t.t.u.i.p.p.i.i.i.i.p.p.p.p.p.s.C.C.U.W.oX5X      bXbXbXbX                  ",
"        U.a.( / / / q.9.} Y J H H B J T [ 9.0.0.0.0.t.t.u.i.p.p.i.p.p.p.p.p.s.s.s.C.C.C.L.P.W.).`.(.>X8XdXvXvXbXbX              ",
"        D.Z.( / / / / T L V N N < 2 < N N B T T } 7.7.9.0.t.i.i.i.p.s.s.s.s.s.C.C.C.L.L.L.P.P.I.U.F.'.3XdXxXzXvXbXbX            ",
"        T.Z.( / / / / Y L 8 1 4 4 4 4 4 < < N J Y [ } } } 7.9.0.u.p.s.s.s.s.s.C.C.C.L.U.P.Y.~.R.'.          mXxXvXvXvXvX        ",
"        T.Z.( / (  ./ L C C 8 1 4 4 4 4 2 < < N V B J J Y T T } 8.9.u.s.s.s.s.C.C.L.P.P.I.Q.-X8X              lXzXxXvXvXbX      ",
"        D.Z._ ^ _ _ _ W t 9 8 3 3 5 4 4 4 < 2 2 2 1 < . < N B B L Y ( q.u.p.s.s.s.L.P.I.Q.*X5X                    lXxXcXcX      ",
"        D.Z. ._ ^ ^ ^ W t 9 w 8 8 8 1 4 2 < < < 2 3 5 < < 4 4 5 5 8 A ~ } u.i.d.k.L.P.~.Q.*X5X                    xXxXvXvXvX    ",
"        D.C.` _ _ _ _ Q r t q 9 8 8 1 4 4 4 4 5 6 6 5 4 4 1 3 5 N 4 5 Z ~ } u.p.k.L.P.W.oX5XeX                    xXzXxXxXxXxX  ",
"        D.C.` _ _ _ _ Q s r t t t q 6 6 6 3 3 8 7 s 7 8 0 8 8 C 8 5 5 8 q ~ 8.u.d.L.P.Q.@X                          zXxXxXxXvXvX",
"        T.C.` ! ! _ _ Q s r r r r r r t q 6 w q d p s r 9 t Z 0 8 8 0 9 q E } 9.a.C.P.Q.#X                          zXxXxXxXxXxX",
"        R.U.g.....! _ Q s r y s s s r r s s r y M <.x s r t q 8 0 Z t t R E ~ } 0.s.U._.2X                          xXxXxXxXxXxX",
"        R.U.g.....! ! f a a a p p p p h p f s p z @.z p r q 8 8 C 8 8 q A E W ~ ( u.T._.                            xXxXxXxXxXxX",
"        `.U.g...X.m f a a p p M l c z z z c x b +.;.+.M r w 8 8 0 8 9 f f g 1.h.4.u.`.#X                          vXvXxXxXxXvXvX",
"        `.U.g...m 1.x h h p l n @.+.<.<.+.;.;.2.:.-.$.z r w 8 0 8 8 C F F R ^ ^ | Z.`.+X                          vXvXxXxXxXvXvX",
"        +XR.g.m x c l l c M n 2.-.*.=.=.*.&.&.:.:.*.*.@.s w 8 C C Z R D R E E Y | C.E._.                          vXvXxXcXvXbXbX",
"        +XR.g.m l c x z n v <.:.=.=.,.,.=.*.&.-.-.=.=.;.p t q C C C Z D F E E Y | C.E._.                      bXbXvXcXvXvXbXbX  ",
"        +XR.h.c l j j <.;.#.;.:.=.=.=.=.=.*.&.&.&.*.*.%.@.z a r t Z Z D E ~ ~ Y | C._.#X                      vXvXvXcXvXvXbXbX  ",
"        +XR.h.1.n n n ;.&.&.>.:.=.=.=.=.*.&.&.&.*.*.=.=.*.-.$.k f R D D R E ~ Y | C._.#X                    vXvXvXvXvXxXxXcX    ",
"        +XR.g.v j j b ;.-.=.*.*.=.=.=.=.*.*.*.*.*.=.=.=.=.=.%.k f q C C A L L L } C.`.+X                vXvXcXvXvXvXvXxXlX      ",
"        OXE.g.c j j b +.;.-.=.=.=.=.=.=.=.=.=.*.=.=.=.*.%.+.m t 9 C B B B B H J [ Z.(.OX              mXcXvXvXvXvXvXxXdXdX      ",
"        OX/.g.c z c z k ;.-.=.=.=.=.=.=.=.=.*.*.*.*.*.;.M r 8 C B B N - - - - : ] Z./.1XdX      3X8XdXcXvXvXvXvXvXxXfX3X        ",
"        >X/.g.g r 4 e a +.-.=.=.*.=.=.=.=.=.=.=.=.*.;.x w 8 V N - * & - - - - : T a.(.<X<X'.<XdXcXbXbXvXbXbXvXcXdX3X            ",
"        #X).l.E X o X 7 b %.=.*.%.&.=.=.=.=.=.=.=.%.l w 4 N @ # # # # # $ = - - ] Z.,XdXxXeXdXbXbXbXbXbXbXbXxXfX3X              ",
"        1XOXs.I o o * i l $.=.=.*.*.=.=.=.=.=.=.%.b r 1 . & + + + + + # $ = - : ] Z.1XxXbXbXbXbXbXbXbXvXxXfX3X                  ",
"        <XJ.6.> % O % 0 x $.=.,.,.=.=.=.=.=.=.*.k e 2 @ # + + + + + + # $ = - : ] Z.1XcXbXbXbXbXbXbXxXfX3X>X                    ",
"        >XJ.6.U : = - V f <.>.=.,.,.=.=.=.=.*.+.f 4 & + + + O O + + + # $ = - : ] Z.1XxXbXbXcXdXdXrX3X3X                        ",
"        <XK.6.[ Y ~ L A d m <.;.%.-.-.-.&.%.;.a 5 X + O O O O O O O O # $ = - I U y.OXdXvXdX3X'.>X                              ",
"        1X'.Z.[ / ^ ^ Q s f p p s r d t 7 w 0 5 . + O O O O O O O O O # $ = I / w.k./.8XdX1X@X,X                                ",
"        5X-XU.w.` o.g g ! Q d D A V N < . X & + + + + + + + + # & * - N B L ~ _ g.M.!.OXOX                                      ",
"        rX,XU.w._ ! Q Q Q Q W R D D Z C C C B C C C C C C C C C Z R R d d Q ! ..l.R.#X1X                                        ",
"        eX,XF.5., > = = ; & & & - N @ & # & @ < < . & & & & & & @ N N N V J Y [ f.T.@X4X                                        ",
"        7X2XH.V.5., > = ; % O O O + + + + + & * V N N N . . & & - H H H U { V.Z.x.Y.*X5X                                        ",
"        8X<XS.A.A.A.F.Z.7.Y L L H G u K L V & * G G G H H H H K ' 4.z.~.Q.~.r.j.c.I.4XrX                                        ",
"        8X>XA.5.O.O.5.N.S.F.F.G.Z.t.} T K u u u K J T 7.e.s.U.W.E.E.G.r.e.e.e.e.s.T.2XrX                                        ",
"            H.N.O., , 5.5.N.A.A.S.J.(.(.[.[.[.oXoXoX[.).E.U.x.s.r.e.e.e.e.e.e.i.C.E.4XiX                                        ",
"            3X1XOX'.@X@X@X@XoX[.[.!.[.[.[.!.Y.n.n.m.m.n.c.z.z.z.z.z.z.z.z.c.v.P.Q.@X                                            ",
"              1X(.t.t.w.4.( ( ( P T T T ) 3.3.3.3.3.' ' P L L L L P P P T T e.L.oXrX                                            ",
"                  H.Z.y.] U I I H H : I : - - I I H G G G H H H H H J Y T 8.D.                                                  ",
"                    ,XOXH.Z.6.{ ] U > > = = = = = = = = = - I U ] { y.G.OX,X                                                    ",
"                              OXJ.H.F.S.N.B.6.6.y.y.6.y.V.Z.D.H.'.4XiX                                                          ",
"                                              rXeXiX                                                                            ",
"                                                                                                                                ",
"                                                                                                                                "
};
