/* XPM */
static char *_77941ad851849d9a14b3aabdedf9675jm9We3XNlYlIcvEW_1[] = {
/* columns rows colors chars-per-pixel */
"64 64 256 2 ",
"   c None",
".  c #7E4D3E",
"X  c #754C3A",
"o  c #634939",
"O  c #634D45",
"+  c #6C4D43",
"@  c #7A4F41",
"#  c #6E5247",
"$  c #6D564C",
"%  c #645248",
"&  c #725246",
"*  c #795849",
"=  c #715C52",
"-  c #7D5D51",
";  c #7E6053",
":  c #74655A",
">  c #666256",
",  c #7C766B",
"<  c #824E3B",
"1  c #8D4E3C",
"2  c #814D37",
"3  c #914E3C",
"4  c #855139",
"5  c #8B523B",
"6  c #8B5C3B",
"7  c #965437",
"8  c #9C5A36",
"9  c #95543C",
"0  c #995639",
"q  c #95583E",
"w  c #9C5A3C",
"e  c #995637",
"r  c #A55C34",
"t  c #A35D3D",
"y  c #AE5D30",
"u  c #86673C",
"i  c #BA6A2F",
"p  c #B6642A",
"a  c #BB712C",
"s  c #AB6233",
"d  c #A8643C",
"f  c #B56933",
"g  c #BB713B",
"h  c #BF6D17",
"j  c #CD771E",
"k  c #D47D1A",
"l  c #D27A0E",
"z  c #CB7523",
"x  c #C4722B",
"c  c #CB762B",
"v  c #C87528",
"b  c #D37C24",
"n  c #D47B22",
"m  c #C5773A",
"M  c #C7712E",
"N  c #845542",
"B  c #8C5B4B",
"V  c #885A44",
"C  c #945941",
"Z  c #9B5B41",
"A  c #965B47",
"S  c #8B5F51",
"D  c #A15D41",
"F  c #A25F4B",
"G  c #866349",
"H  c #89644B",
"J  c #8B6749",
"K  c #95664A",
"L  c #9A7549",
"P  c #816454",
"I  c #8B6958",
"U  c #976A56",
"Y  c #997356",
"T  c #A4634B",
"R  c #A86646",
"E  c #B36D45",
"W  c #B97345",
"Q  c #A36951",
"!  c #A16150",
"~  c #B26F51",
"^  c #A47559",
"/  c #A6795C",
"(  c #A67759",
")  c #B57454",
"_  c #B97A58",
"`  c #A2784A",
"'  c #8F7263",
"]  c #997765",
"[  c #947C71",
"{  c #A27C63",
"}  c #A87B66",
"|  c #B37E64",
" . c #C57A44",
".. c #C97A41",
"X. c #C27C54",
"o. c #7E8276",
"O. c #DD841B",
"+. c #DC8316",
"@. c #DD8104",
"#. c #E68B06",
"$. c #EE9107",
"%. c #F49602",
"&. c #F79801",
"*. c #F99A01",
"=. c #F0920A",
"-. c #E18614",
";. c #E48A13",
":. c #F09518",
">. c #FDA000",
",. c #DB8427",
"<. c #D4853A",
"1. c #E38B27",
"2. c #A98553",
"3. c #B48657",
"4. c #87877B",
"5. c #9A8577",
"6. c #A68469",
"7. c #AA866A",
"8. c #AE896C",
"9. c #A78267",
"0. c #B68A6B",
"q. c #B3956A",
"w. c #B6986B",
"e. c #AE8B71",
"r. c #A48879",
"t. c #B08C72",
"y. c #B08F78",
"u. c #B59375",
"i. c #B99676",
"p. c #BE9A79",
"a. c #B99678",
"s. c #AF937F",
"d. c #C7845A",
"f. c #D38A50",
"g. c #C09C69",
"h. c #C09E7B",
"j. c #C39176",
"k. c #D29169",
"l. c #C6A366",
"z. c #C4A27A",
"x. c #CBA977",
"c. c #D0AC78",
"v. c #D5B37A",
"b. c #DBB679",
"n. c #E3A17A",
"m. c #9A968B",
"M. c #998B80",
"N. c #A99689",
"B. c #BE9C83",
"V. c #B59886",
"C. c #A6968D",
"Z. c #BDA295",
"A. c #B7AA97",
"S. c #B5A291",
"D. c #BBADA5",
"F. c #B9B1AA",
"G. c #C3A484",
"H. c #CBAB84",
"J. c #CBAD8B",
"K. c #C8A688",
"L. c #CEB18B",
"P. c #D2B48A",
"I. c #D9B886",
"U. c #C5AC9B",
"Y. c #C8AA95",
"T. c #D7AE98",
"R. c #CBB59A",
"E. c #D1B696",
"W. c #D3BB9C",
"Q. c #D7BA99",
"!. c #D8AD8D",
"~. c #E0BC83",
"^. c #CEB9A6",
"/. c #C9B7A8",
"(. c #D3BDAB",
"). c #D6BAA4",
"_. c #C7BCB5",
"`. c #CEB6A8",
"'. c #DAC19A",
"]. c #E5C287",
"[. c #E6C388",
"{. c #EBC88B",
"}. c #EECC92",
"|. c #E2C598",
" X c #F2D39A",
".X c #F0D096",
"XX c #F0CF95",
"oX c #DCC4A3",
"OX c #DBC5A9",
"+X c #CBC4BA",
"@X c #DCCBBC",
"#X c #D8C6B8",
"$X c #DFD1B9",
"%X c #EAD2A9",
"&X c #F2D6A4",
"*X c #F7DBAA",
"=X c #E7D5B6",
"-X c #F5DDB6",
";X c #E4CBAC",
":X c #F2E1BD",
">X c #FBE3BB",
",X c #CBC6C5",
"<X c #D7CDC5",
"1X c #DCD2CA",
"2X c #DDD1C6",
"3X c #DAD7D5",
"4X c #E2D6CA",
"5X c #E8D9C9",
"6X c #E9DFD9",
"7X c #E4DCD7",
"8X c #F6DEC2",
"9X c #F3E3C6",
"0X c #F9E5C4",
"qX c #F9E7C8",
"wX c #F9E9CD",
"eX c #F5E6C8",
"rX c #ECE3DB",
"tX c #EAE1D7",
"yX c #FAECD6",
"uX c #FAECD6",
"iX c #FAEBD3",
"pX c #FBEDD9",
"aX c #F3E9DD",
"sX c #FEF1DB",
"dX c #FDF0DC",
"fX c #EBE0CF",
"gX c #EDECEB",
"hX c #E9E6E4",
"jX c #F6EDE3",
"kX c #F8EEE2",
"lX c #FAF2E6",
"zX c #F8F0E8",
"xX c #EEEEF1",
"cX c #EFF1F5",
"vX c #F3F4F6",
"bX c #F5F6F8",
"nX c #F7F8F9",
"mX c gray98",
"MX c #F8F7F7",
"NX c #F3EFF2",
"BX c black",
"VX c black",
"CX c black",
"ZX c black",
"AX c black",
"SX c black",
"DX c black",
"FX c black",
"GX c black",
"HX c black",
"JX c black",
"KX c black",
"LX c black",
"PX c black",
"IX c black",
"UX c black",
/* pixels */
"                                                                                                                                ",
"                                                                                                                                ",
"                                              lXlX                                                                              ",
"                    jXjXjXjXpXuXiXiXiXiXiXuXsXsXsXsXsXpXuXuXpXdXkXlXlXlXlXlX                                                    ",
"              jXaXyXuXuXuXyXiX0X>X>X>X>X>X>X>X0XwXuXsXsXsXyXuXyXsXpXyXuXwXeX9XfXrX                                              ",
"        lXlXuXwXwXuXyXiXqXqXqX0X0XwXiXqXiXuXsXsXsXsXsXsXsXsXsXsXsXpXiXqXqXeX:X:X:X9XaXjX                                        ",
"        9X9X9X:XeXuXuXiXqXqXqXqXqXiXuXuXuXyXsXsXsXsXsXsXsXsXsXsXuXuXiXqX0X0X-X-X-X-X5XfXjX                                      ",
"      9X:X:X8X0XwXiXeXeXqXqX0XqXiXuXuXuXuXuXuXuXuXuXuXuXuXuXiXqX>X>X>X-X*X*X&X X X X%X=X9X                                      ",
"    fX=X%X*X-X-X:X:X-X0XiXqX0X0X0X0X>X>X0X0X>X>X>X>X>X>X>X-X*X*X*X&X X XXX}.}.}.}.{.|.;X=X                                      ",
"  6X5XOX;X%X-X-X:X9X8X8X-X&X X&X*X*X*X&X&X&X&X X X X&X&X X X.X}.}.}.}.}.}.[.].].].~.I.I.oX4X6X                                  ",
"  6X5XOXOXOX;X=X-X-X%X%X&X X}.}.{.[.[.[.[.[.[.].].].[.[.].].~.~.~.~.~.~.~.I.v.v.v.P.P.P.'.4X6X                                  ",
"  tX4XW.Q.'.OXOXOXoX'.'.Q.I.b.v.v.v.v.v.c.c.c.c.c.v.v.v.c.c.c.c.c.c.c.c.H.H.H.x.z.z.G.J.W.2X4X                                  ",
"    4XW.E.E.E.J.G.h.H.G.h.z.z.p.g.g.g.p.i.u.u.a.p.p.p.p.p.p.p.p.p.p.p.p.p.p.p.i.i.p.B.B.R.1X6X                                  ",
"      ^.W.E.E.L.G.h.G.p.u.u.u.u.u.t.8.t.8.8.6.6.6.7.8.8.8.t.u.u.t.t.t.u.u.u.u.u.i.p.p.K.^.                                      ",
"      OXW.E.E.E.E.E.K.G.B.p.i.u.p.u.t.8.7.6.6.6.6.6.6.6.6.8.7.6.6.7.8.8.8.8.t.u.a.B.G.Y.^.                                      ",
"      =XOXQ.).).).Q.J.G.B.p.p.p.p.i.u.8.7.6.6.6.9.{ 9.6.6.6.6.6.6.9.{ 9.7.8.t.u.a.B.Y.U.^.                                      ",
"      7X@XW.'.).).Q.L.G.p.p.p.p.u.u.t.8.7.6.6.6.6.6.6.6.6.6.6.6.6.6.6.6.7.8.t.t.y.V.Z.U.^.                                      ",
"      1X$XoX'.Q.Q.E.J.z.z.p.p.p.u.u.t.8.8.8.8.7.6.6.6.7.8.7.6.6.6.6.7.8.7.7.e.t.y.V.V.U.(.tXzX                                  ",
"      7X(.Y.Q.P.P.P.H.H.z.h.p.p.u.u.u.t.8.8.8.7.6.6.8.8.8.8.8.8.8.8.8.8.8.t.t.t.t.u.B.Y.(.5XrX                                  ",
"      7XU.u.B.K.H.G.H.H.z.z.h.p.p.i.u.u.t.t.t.e.8.8.e.8.8.e.t.t.t.8.8.t.t.t.t.t.u.p.B.Y.(.4X6X                                  ",
"      tX/.e./ 7.u.z.z.h.p.p.p.p.p.p.a.u.u.u.t.t.e.8.e.t.t.t.t.t.t.t.t.t.u.u.u.u.u.u.B.B.U.#X2X                                  ",
"      hX(.u.( ^ / 8.u.u.u.t.e.e.e.t.u.u.u.u.u.u.u.t.t.t.t.t.u.u.u.u.u.u.u.u.u.u.i.p.B.B.G.E.OX5X      mXmXmXmX                  ",
"        G.u.( ^ ^ ( 7.7.{ U H G V B K Y ] 7.e.e.t.t.u.u.u.u.u.u.u.u.u.u.a.p.p.p.p.B.B.B.h.H.'.OXR./.,X7XgXnXnXmXmX              ",
"        Z.V./ ^ ^ ^ ^ Y K V N N < < < < 4 B Y { 7.8.e.e.t.u.u.u.u.i.p.p.p.p.p.p.p.B.G.G.G.L.P.J.G.A._.3XgXvXcXnXmXmX            ",
"        U.V./ ^ ^ ^ ^ Y K 9 1 4 4 4 4 4 < . N B U Y { { 9.7.8.t.u.i.p.p.p.p.p.p.B.B.G.G.H.P.P.E.(.          NXvXnXnXnXnX        ",
"        U.V./ ^ / | ^ K C C 9 1 4 4 4 4 2 < . N N N N V H I Y { 7.t.u.p.p.p.p.B.B.G.H.H.J.Q.#X2X              xXcXvXnXnXnX      ",
"        Z.V.| ) ) ) ) R D Z 9 3 3 5 4 N 4 2 < 2 < 1 < . < N B S K U / 7.t.i.p.p.p.G.H.J.E.$X=X                    xXvXnXnX      ",
"        B.a.| ) ~ ~ ~ R t 0 e 0 q 9 1 4 2 < . < < 3 5 < < 4 4 N 5 3 C Q } t.u.a.h.G.H.L.W.@X4X                    cXvXnXnXmX    ",
"        Z.B._ ) ) ) ) E r t w 0 0 9 1 4 4 4 4 1 9 0 5 4 4 4 5 5 N 5 9 D Q } t.i.h.G.H.E.OX5XrX                    vXcXvXvXvXnX  ",
"        Z.B._ E W ) ) E s r t t t w 7 7 7 3 3 9 8 r e 0 q 0 q C 5 4 5 0 w Q 9.t.a.G.H.Q.$X                          cXvXvXvXnXnX",
"        U.B._ W W ) ) E s r r r r r r t w 7 e r s i s 8 0 t Z C C C q 0 w T { 7.u.B.H.W.$X                          vXvXvXvXvXvX",
"        R.K.d. . .W ) E s s s s r r r r s s r y x ,.x s r t w 0 q Z D t R R Q { 8.p.K.(.2X                          vXvXvXvXvXvX",
"        R.K.d. . .W W W f p p i i i i a i i s i b +.z i r q 5 5 q C C Z A T R Q / t.J.W.                            vXvXvXvXvXvX",
"        `.K.d. .....f p p p i x z z c z j z x b O.#.O.x r e 7 0 q C 0 f g m 1.<.3.8.U.#X                          nXnXvXvXvXnXnX",
"        `.K.d. .m m M a a i z n +.-.,.,.O.+.-.1.:.=.;.z r e 0 C C 9 9 C A T T T } V.U.(.                          nXnXvXvXvXnXnX",
"        #XT.d.m x c v v c c ,.;.%.&.&.&.&.%.&.%.%.&.&.+.s 8 q C C Z R w D T T U } B.R.(.                          nXnXvXvXnXmXmX",
"        OX!.f.x v c x z b c O.%.*.>.>.>.&.&.&.%.%.&.&.-.i d Z C C C Z D F F ! U } B.R.(.                      mXmXnXvXvXvXmXmX  ",
"        #XT.f.c z z j k -.,.1.:.*.*.&.&.&.&.&.&.&.&.&.=.+.j i t w q Z D F T Q Q } B.(.@X                      nXnXnXvXnXnXmXmX  ",
"        #XT.f.,.n b b -.%.%.%.%.*.*.&.&.&.%.&.&.&.&.&.&.&.%.#.l f R D F T R Q U } B.(.@X                    nXnXnXnXnXvXvXvX    ",
"        +XR.d.c j j b -.%.&.&.&.&.&.&.&.&.&.&.&.&.&.&.&.&.&.=.k f w C C A K K K ] V.`.#X                nXnXvXnXnXnXnXvXxX      ",
"        +XU.d.c j j n O.;.%.&.&.*.*.&.&.&.&.&.&.%.%.&.&.$.;.x t Z A B B B S P ; ' V./.+X              NXvXnXnXnXnXnXvXgXgX      ",
"        ,X`.d.c z c z k -.%.&.&.*.&.&.&.&.&.&.&.&.&.&.-.x r 0 C B B N - P P - ; ' N./.1XgX      3X7XgXvXnXnXnXnXnXvXhX3X        ",
"        ,X^.d.m s 4 5 p @.%.&.&.&.&.&.&.&.&.&.&.&.&.#.h e q V N - * & - - - - ; ' N./.,X,X_.<XgXvXnXmXnXmXmXnXvXgX3X            ",
"        @X).k.T . o X 8 b =.&.%.;.=.&.&.&.&.&.&.&.$.x 8 4 N @ # # # # # $ = - ; ' V.<XjXvXrXhXmXmXmXmXmXmXmXvXhX3X              ",
"        1X(.j.H o o * d c =.*.>.*.&.&.&.&.&.&.*.=.b r 1 . & + + + + # # $ = - ; ' V.1XvXmXmXmXmXmXmXmXnXvXhX3X                  ",
"        <XF.5.: $ O # 6 x #.*.>.>.*.*.&.&.&.*.&.k 8 < @ # + + + + + + # $ = - ; ' V.1XvXmXmXmXmXmXmXvXhX3X,X                    ",
"        ,XF.5.I ; = $ 6 f ,.:.>.>.>.>.*.&.&.&.O.f N & + + + O O + + + # $ = - ; ' V.1XvXmXmXvXgXhXrX3X3X                        ",
"        ,XF.4.] U Q K A d c -.#.$.%.%.%.%.$.#.a 6 X + O O O O O O O O # $ = - P I r.+XgXMXgX3X_.,X                              ",
"        1X_.V.] ^ ~ ~ E s i i i s t t 8 w q q 5 X + O O O O O O O O O # $ = P ^ 0.j./.7XgX<X+X<X                                ",
"        5X@XK.0._ X.g g W E d D A V N < @ & & # + + + + + + + # & * - N B K Q ) d.n.Q.+X+X                                      ",
"        tX2XK.0._ _ W W W E R R Z D Z C C C B C C C C C C C C C Z R R d d E W  .k.T.@X1X                                        ",
"        tX2XA.4., : = = = # # & & @ @ & # & @ < < . & & & & & & @ N N N V H U ] s.U.@X4X                                        ",
"        6X4X/.N.4., : > > % O O O O O + + + & * V N N @ . . & & - G H H I [ C.V.z.P.=X5X                                        ",
"        7X,XS.C.C.C.A.V.6.U K K H G G J K V & * H B G G G H H J ` 3.z.L.W.J.w.g.x.J.4XtX                                        ",
"        7X,XC.4.o.o.4.m.A.A.A.A.V.e.] J J J u u J J Y { t.p.K.E.R.R.B.w.q.q.q.q.p.U.2XtX                                        ",
"            D.m.o., , 4.4.m.C.C.S.D./.^.oX'.'.OXOXoX'.oXW.K.z.p.w.q.q.q.q.q.q.u.B.R.4XrX                                        ",
"            3X3X<X+X#X#X#X#XOX|.'.Q.'.'.'.I.I.v.v.b.b.v.x.l.l.l.l.l.l.l.l.x.x.c.Q.$X                                            ",
"              1X/.e.e.0.3./ / ( L Y Y Y ( 2.2.2.2.2.` ` L K K K K L L L Y Y q.G.OXtX                                            ",
"                  D.V.r.' I P P H G ; P ; - - P P H G J I I H G G G J U Y 6.Z.                                                  ",
"                    2X+XD.N.5.[ I : : : = = = = = = = = = ; I U ' [ r.A.+X<X                                                    ",
"                              +XF.D.A.S.m.M.5.5.r.r.5.r.N.V.Z.D._.4XaX                                                          ",
"                                              rXrXaX                                                                            ",
"                                                                                                                                ",
"                                                                                                                                "
};
