/* XPM */
static char *_77941ad851849d9a14b3aabdedf9675jm9We3XNlYlIcvEW_2[] = {
/* columns rows colors chars-per-pixel */
"64 64 256 2 ",
"   c None",
".  c #66493A",
"X  c #7E4D3E",
"o  c #754C39",
"O  c #634D45",
"+  c #6C4D43",
"@  c #7A4F41",
"#  c #6E5146",
"$  c #6D564C",
"%  c #675148",
"&  c #725246",
"*  c #79584A",
"=  c #715C52",
"-  c #7D5C51",
";  c #6F5B51",
":  c #7D6053",
">  c #746559",
",  c #7C766B",
"<  c #824E3B",
"1  c #894E3A",
"2  c #914E3C",
"3  c #855139",
"4  c #8B513C",
"5  c #965437",
"6  c #9C5936",
"7  c #95553B",
"8  c #995639",
"9  c #95583F",
"0  c #9C5A3C",
"q  c #985737",
"w  c #9D5825",
"e  c #A55C34",
"r  c #A35D3D",
"t  c #AD5D2F",
"y  c #8C673C",
"u  c #BA6A2E",
"i  c #B6662A",
"p  c #AB6233",
"a  c #AA633B",
"s  c #B66A34",
"d  c #BE7133",
"f  c #CD771E",
"g  c #D37D15",
"h  c #C26E28",
"j  c #CB7523",
"k  c #C4722B",
"l  c #CB762C",
"z  c #C87527",
"x  c #D37C23",
"c  c #D87F21",
"v  c #C4773A",
"b  c #845542",
"n  c #8C5B4B",
"m  c #895A44",
"M  c #935942",
"N  c #9B5B41",
"B  c #965B48",
"V  c #8F5F50",
"C  c #A15D40",
"Z  c #A15E4A",
"A  c #86634A",
"S  c #8A634B",
"D  c #8A6648",
"F  c #95664A",
"G  c #9A7549",
"H  c #826454",
"J  c #896A5A",
"K  c #976A57",
"L  c #987357",
"P  c #A4634B",
"I  c #A86746",
"U  c #B36C42",
"Y  c #BA7344",
"T  c #B77149",
"R  c #A36851",
"E  c #B26E51",
"W  c #A47559",
"Q  c #A6795C",
"!  c #A67759",
"~  c #B57454",
"^  c #B97A59",
"/  c #A2784A",
"(  c #8F7262",
")  c #987765",
"_  c #947C71",
"`  c #A37C64",
"'  c #A77B67",
"]  c #B47E63",
"[  c #C57A45",
"{  c #C87B40",
"}  c #C27C54",
"|  c #7E8276",
" . c #DD841D",
".. c #DB8316",
"X. c #DD8206",
"o. c #E88C09",
"O. c #EE9208",
"+. c #F39602",
"@. c #F79802",
"#. c #F99A01",
"$. c #E18614",
"%. c #E48A17",
"&. c #EE931A",
"*. c #F39712",
"=. c #FDA000",
"-. c #DA8328",
";. c #D28438",
":. c #EA9120",
">. c #A98553",
",. c #B58657",
"<. c #87877A",
"1. c #988578",
"2. c #A68469",
"3. c #AA866A",
"4. c #AE896C",
"5. c #A58266",
"6. c #B58A6B",
"7. c #B3956A",
"8. c #B6986B",
"9. c #AE8B71",
"0. c #A48879",
"q. c #B08D72",
"w. c #B08F78",
"e. c #B59375",
"r. c #B99677",
"t. c #BC9977",
"y. c #BE9A79",
"u. c #B5937A",
"i. c #AF937F",
"p. c #C7845A",
"a. c #D38A50",
"s. c #C09C68",
"d. c #C19C79",
"f. c #D19169",
"g. c #C6A366",
"h. c #C4A27A",
"j. c #C9A776",
"k. c #D0AD78",
"l. c #D1AE77",
"z. c #D5B37A",
"x. c #DBB679",
"c. c #E3A17A",
"v. c #99958A",
"b. c #998B80",
"n. c #A79689",
"m. c #BE9C83",
"M. c #B59786",
"N. c #A6968D",
"B. c #ACA297",
"V. c #BDA295",
"C. c #B7A996",
"Z. c #BEA78E",
"A. c #BAADA5",
"S. c #B9B1AA",
"D. c #C09F82",
"F. c #C3A484",
"G. c #CCAB84",
"H. c #CCAE8B",
"J. c #C7A589",
"K. c #CEB18B",
"L. c #D3B48B",
"P. c #D9B885",
"I. c #C4AC9B",
"U. c #C8AA94",
"Y. c #D7AE98",
"T. c #CBB59B",
"R. c #D1B696",
"E. c #D3BB9B",
"W. c #D8BA99",
"Q. c #D8AD8D",
"!. c #E0BC83",
"~. c #CAB6A6",
"^. c #D2BDAB",
"/. c #D6BAA4",
"(. c #C8BCB4",
"). c #D1B9AC",
"_. c #DBC29D",
"`. c #D8C197",
"'. c #E5C387",
"]. c #EAC78A",
"[. c #EECC92",
"{. c #E1C69A",
"}. c #F2D39A",
"|. c #F0D096",
" X c #E8D39F",
".X c #DBC3A3",
"XX c #DBC4A9",
"oX c #CBC4B9",
"OX c #DBCAB3",
"+X c #DCCBBC",
"@X c #D6C4B9",
"#X c #DFD1B9",
"$X c #E8D2A7",
"%X c #F5D9A8",
"&X c #E7D5B6",
"*X c #F4DDB7",
"=X c #E4CBAC",
"-X c #F2E1BD",
";X c #FAE3BB",
":X c #CBC6C5",
">X c #D7CDC5",
",X c #DCD2CA",
"<X c #DDD1C6",
"1X c #DAD7D5",
"2X c #E2D6CB",
"3X c #E8D9C9",
"4X c #F5DFC1",
"5X c #E9DFD9",
"6X c #E3DDD7",
"7X c #F4E3C4",
"8X c #F9E6C6",
"9X c #F9E7C8",
"0X c #F6E6CA",
"qX c #ECE3DB",
"wX c #EAE1D8",
"eX c #FAECD6",
"rX c #FAEBD3",
"tX c #FBEDD9",
"yX c #F4E9DB",
"uX c #FEF0DB",
"iX c #FDF0DD",
"pX c #EBE0CF",
"aX c #EDECEB",
"sX c #E9E6E4",
"dX c #F6EDE3",
"fX c #F8EEE2",
"gX c #FAF2E7",
"hX c #EEEEF1",
"jX c #EEF0F5",
"kX c #F3F4F6",
"lX c #F5F6F8",
"zX c #F7F8F9",
"xX c gray98",
"cX c #F8F7F7",
"vX c black",
"bX c black",
"nX c black",
"mX c black",
"MX c black",
"NX c black",
"BX c black",
"VX c black",
"CX c black",
"ZX c black",
"AX c black",
"SX c black",
"DX c black",
"FX c black",
"GX c black",
"HX c black",
"JX c black",
"KX c black",
"LX c black",
"PX c black",
"IX c black",
"UX c black",
/* pixels */
"                                                                                                                                ",
"                                                                                                                                ",
"                                              gXgX                                                                              ",
"                    gXgXdXdXtXeXeXeXeXeXeXeXuXuXuXuXuXuXuXeXtXiXfXgXgXgXgXgX                                                    ",
"              dXiXeXeXeXeXeXrX8X;X;X;X;X;X;X;X8XrXeXuXiXdXeXeXeXuXiXuXeXeXrX0XrXeX                                              ",
"        dXdXeXeXeXeXeXrX9X9X9X8X8X8X9X9XrXeXeXtXuXuXuXuXuXeXtXuXuXtXeX9X9X8X-X4X7X7XyXdX                                        ",
"        qXwX7X7X7XeXeXrX9X9X9X8X9XrXeXeXeXeXuXuXuXuXuXuXuXuXuXuXeXeXrX9X8X8X*X*X*X*X3XpXdX                                      ",
"      7X-X-X4X8X8X9X9X9X9X8X8X9XrXeXeXeXeXeXeXeXeXeXeXrX9X9X9X8X;X;X;X*X%X%X%X}.}.}.$X&X7X                                      ",
"    pX&X$X%X*X*X-X-X*X;X8X;X;X8X8X8X;X;X8X8X8X;X;X;X;X;X;X*X%X%X%X%X%X}.}.|.[.[.[.].{.=X&X                                      ",
"  5X3XXX=X$X*X*X-X7X4X*X-X%X%X%X%X%X%X%X}.}.}.}.}.}.}.}.}.}.|.[.[.[.[.].].].'.'.'.!.P.W.XX2XwX                                  ",
"  5X3XXX_.{.$X&X*X*X$X X%X}.[.[.].].'.'.'.'.'.'.'.'.'.'.'.'.!.!.!.!.!.!.!.P.z.z.z.L.L.L._.2X5X                                  ",
"  wX2XE.W._.XX.X/.XX_.`.W.P.x.z.z.l.l.z.l.l.l.l.l.z.z.z.l.l.l.k.l.l.l.l.G.G.G.h.h.h.F.H.E.<X2X                                  ",
"    2XE.R.R.E.H.F.F.H.G.d.h.h.t.s.s.s.t.r.r.r.r.y.y.y.y.y.y.y.y.y.y.y.y.y.y.y.r.r.y.y.Z.T.,X5X                                  ",
"      R.R.R.R.K.J.D.F.F.y.y.r.r.r.q.4.q.4.4.4.3.2.3.4.4.4.q.e.e.q.q.q.e.r.r.r.r.r.y.y.J.~.                                      ",
"      XXE.R.R.R.R.U.J.h.y.y.r.r.y.e.q.4.4.3.2.2.2.2.2.2.2.2.2.2.2.3.4.4.4.4.q.e.r.m.F.U.).                                      ",
"      &XXXW.`././.E.H.F.m.y.y.y.y.e.q.4.3.2.2.2.5.` 5.2.2.2.2.2.2.` ` 5.3.4.q.e.r.m.J.~.(.                                      ",
"      6X+XE.`././.R.H.F.y.y.y.y.r.e.q.4.3.2.2.2.2.2.2.2.2.2.2.2.2.2.2.2.3.4.q.q.w.M.V.I.).                                      ",
"      ,XOX.X`.W.W.R.H.G.h.y.r.r.r.e.q.4.4.4.4.3.2.2.2.2.2.4.3.2.2.2.3.4.3.3.9.q.w.M.M.I.^.6XaX                                  ",
"      6X^.U.W.L.L.L.G.G.h.y.y.y.r.r.e.q.4.4.4.4.3.2.3.4.4.4.4.4.4.4.4.4.4.q.q.q.q.r.m.U.^.3XqX                                  ",
"      wX~.i.m.J.G.G.G.G.h.h.d.y.y.r.r.e.q.q.q.4.4.4.4.4.4.4.4.q.q.q.q.9.q.q.e.q.e.y.m.U.^.2X5X                                  ",
"      wX~.4.Q 4.r.h.h.h.y.y.y.y.y.y.t.r.e.r.e.q.9.9.9.9.q.e.e.q.q.q.q.q.e.r.r.r.r.r.m.Z.I.@X<X                                  ",
"      sX^.q.! W Q 4.e.r.e.q.4.4.4.q.e.e.e.e.e.q.q.9.9.9.q.q.q.q.e.e.e.e.r.r.r.r.r.y.m.m.F.R.XX3X      xXxXxXxX                  ",
"        F.u.! W W W 3.3.` K S A A n S L ) 3.9.9.q.q.9.9.q.e.r.r.e.r.r.r.r.y.y.y.y.m.m.D.h.G.W..XT.~.@X6XaXzXzXxXxX              ",
"        V.M.Q W W W W L F m b b < < < b b n K ` 3.4.4.4.4.e.r.r.e.r.y.y.y.y.y.y.y.m.F.F.F.K.L.K.F.C.(.1XaXkXkXzXxXxX            ",
"        I.m.Q W W W W L F 7 2 3 3 3 3 3 < X b n K L ` ` 5.3.4.q.e.r.y.y.y.y.y.m.m.m.F.J.G.L.L.T.).          kXkXzXzXxXxX        ",
"        I.m.Q W Q ^ W F M M 7 2 3 3 3 3 < < X b m A m m V K L ` 3.q.r.t.y.y.y.m.F.F.G.G.H.W.OX<X              hXjXkXzXxXxX      ",
"        V.M.~ E ~ ~ ~ I C N 7 2 2 4 3 3 3 < < < 1 2 < X < b m V F K Q 4.q.r.y.y.d.F.G.H.R.OX&X                    hXkXzXzX      ",
"        V.M.] ~ E E E I r 8 6 7 9 7 2 3 < < X < 1 2 4 < < 3 3 b 4 2 M R ` q.e.r.d.F.G.K.E.+X2X                    jXkXzXzXxX    ",
"        V.M.^ ~ ~ ~ ~ E C r 0 8 7 5 2 3 3 3 3 1 5 5 4 3 3 3 4 4 b 4 7 C I ` q.r.d.F.G.R.XX3XqX                    kXjXkXkXkXzX  ",
"        V.M.^ T T ~ ~ U p e r r r 0 5 5 5 2 2 5 6 e 6 7 9 7 7 M 4 3 4 7 0 I 5.q.t.F.G.R.OX                          jXkXkXkXzXzX",
"        I.D.^ Y Y ~ ~ U p e e e e e e r 0 5 6 e p u p 6 8 r N 9 7 7 9 8 0 P ` 3.u.m.G.E.#X                          jXkXkXkXkXkX",
"        Y.J.p.[ [ Y E U p p p p e e e e p p e t h -.k p e r 0 7 9 N C C I I R ` 4.y.J.^.<X                          kXkXkXkXkXkX",
"        Y.J.p.[ [ Y Y Y s i i u u u u d u u p u f ..j u e 0 4 4 M 7 7 0 B P I R Q q.H.E.                            kXkXkXkXkXkX",
"        ~.J.p.[ { v u t i u u h z l l j f j k x  .%. .k e 6 5 7 9 7 8 s s Y ;.a.,.q.T.^.                          zXzXkXkXkXzXzX",
"        ).J.p.[ v l h u d u j c .. .-.-. .$...$.o.O.o.j e 6 7 9 7 5 M Z P P I I ' M.I.^.                          zXzXkXkXkXzXzX",
"        @XY.p.v k l z z l h x %.+.@.@.#.@.+.+.+.+.@.@...p 6 7 M M N I 8 C P P K ' m.T.^.                          zXzXkXkXzXxXxX",
"        XXQ.a.k z l k l x l -.&.#.=.=.=.#.@.+.+.+.#.#.$.u r 0 M n n N C Z Z P K ' m.T.^.                      xXxXzXkXkXkXxXxX  ",
"        @XY.a.l z j f -.%.X.$.&.#.#.#.#.@.+.+.+.+.@.@.O...f i e r N N C Z P R K ' m.^.+X                      zXzXzXkXzXzXxXxX  ",
"        @XY.a.-.x x x $.+.+.*.&.#.#.#.#.@.+.+.+.@.@.#.#.@.+.o.g s I C C I I R K ' m.^.+X                    zXzXzXzXzXkXkXkX    ",
"        @XY.p.l f f x $.+.#.@.@.#.#.#.#.@.@.@.@.@.@.#.#.#.#.O.g s 0 M M B F F F ) M.).@X                zXzXkXzXzXzXzXkXhX      ",
"        oXI.p.l f f x  .$.+.#.#.#.#.#.#.#.#.@.@.+.@.@.@.O. .v r N m b n V n A A ( M.~.oX              hXkXzXzXzXzXzXkXaXaX      ",
"        :X~.p.l j l j g $.+.#.#.#.#.#.#.#.#.@.@.@.@.@.$.h e 7 M n m b - - - - : ( M.~.,XaX      1X6XaXkXzXzXzXzXzXkXsX1X        ",
"        :X~.p.v e 3 7 i X.+.#.#.#.#.#.#.#.#.#.#.#.@.%.k 6 7 4 b - * & - - - - : L u.~.:X:X(.>XaXkXxXxXzXxXxXzXkXaX1X            ",
"        +X/.f.P o . o 6 x O.#.@.&.*.#.#.#.#.#.#.#.O.h 6 3 b @ # # # # # $ = - - ( M.>XaXkXqXaXxXxXxXxXxXxXxXkXsX1X              ",
"        ,X^.y.H . . * r z o.#.#.#.#.#.#.#.#.#.#.O.x e 1 X & + + + + + # $ = - : ( M.,XkXxXxXxXxXxXxXxXzXkXsX1X                  ",
"        :XS.1.> $ O . q k o.#.=.=.#.#.#.#.#.#.@.g w 1 @ # + + + + + + # $ = - : ( M.,XkXxXxXxXxXxXxXkXsX1X:X                    ",
"        :XS.1.J : = - M s -.*.=.=.=.#.#.#.#.@. .s 3 & + + + O O + + + # $ = - : ( M.,XkXxXxXkXaXsXwX1X1X                        ",
"        :XS.<.) K K F B a l $.o.O.+.@.+.+.O.%.i 4 o + O O O O O O O O # $ = - H J 0.oXaXcXaX1X(.:X                              ",
"        ,X(.M.) L E E U p u u u p r r 6 6 6 9 4 X + O O O O O O O O O # $ = H W 6.d.~.6XaX<X@X>X                                ",
"        3X#XJ.6.^ } d d Y U I C B m b < X o & # + + + + + + + # & * - b m F R ~ p.c.W.oXoX                                      ",
"        wX<XF.6.^ ^ T U U U I P N C N M 4 M n M M M M M M M M M N I I a a U T [ f.Y.+X,X                                        ",
"        wX>XC.<., > = = ; & # & & @ @ & # & @ < < X & & & & & & @ b b b m S K ) i.I.+X2X                                        ",
"        5X<XA.n.1., > > ; % O O O O O + + + & * m b b @ X X & & - A S S K _ n.M.h.L.&X3X                                        ",
"        6X:XB.N.N.N.C.M.5.K F F A A A D F m & * A n A A A S A D / ,.g.K.E.K.8.s.j.H.2XwX                                        ",
"        6X:XN.<.| | <.v.B.C.C.C.M.9.) S D y y y D D L 5.7.y.J.R.T.T.Z.8.7.7.7.7.y.I.<XwX                                        ",
"            A.v.| , , <.<.v.N.N.B.A.).~._._._.XXXX.X_..XE.J.h.t.8.7.7.7.7.7.7.e.m.T.2XqX                                        ",
"            1X,X+XoXOXOXOXOXXX_.`._._.`.`.W.P.z.z.x.x.z.j.g.g.g.g.g.g.g.j.j.k.G.W.OX                                            ",
"              ,X~.9.9.6.,.Q Q ! G L L L ! >.>.>.>.>./ / G F F F F G G G L L 7.F.XXwX                                            ",
"                  A.M.0.( J H H A A : H : - - H H A A S K K S A A A S K L 2.V.                                                  ",
"                    <XoXA.M.1._ J > > > = = = = = = = = = : J K ( _ 0.C.oX>X                                                    ",
"                              oXS.A.C.B.v.b.1.1.0.0.1.0.n.M.V.A.(.2XyX                                                          ",
"                                              wXqXyX                                                                            ",
"                                                                                                                                ",
"                                                                                                                                "
};
