/* XPM */
static char *_5aba84781df4cc2e2f7428a2f909d84Cf66VkBvNQFDM5Ex_16[] = {
/* columns rows colors chars-per-pixel */
"31 62 256 2 ",
"   c #03064C",
".  c #080826",
"X  c #0C1362",
"o  c #181866",
"O  c #1B1B47",
"+  c #181C57",
"@  c #172168",
"#  c #222667",
"$  c #202877",
"%  c #2A2963",
"&  c #2B2981",
"*  c #2B2B4A",
"=  c #283176",
"-  c #283269",
";  c #343565",
":  c #393537",
">  c #2A3786",
",  c #313979",
"<  c #3E3C4E",
"1  c #1D41A0",
"2  c #374279",
"3  c #1E438F",
"4  c #374A90",
"5  c #504C51",
"6  c #4B4D72",
"7  c #665137",
"8  c #38549E",
"9  c #495590",
"0  c #5E5866",
"q  c #685851",
"w  c #425A9F",
"e  c #585A84",
"r  c #5A5B5A",
"t  c #575E78",
"y  c #3D6491",
"u  c #556494",
"i  c #3865AC",
"p  c #4565A8",
"a  c #676668",
"s  c #776752",
"d  c #656889",
"f  c #696876",
"g  c #766966",
"h  c #636A9A",
"j  c #736B86",
"k  c #736B97",
"l  c #746B75",
"z  c #687399",
"x  c #6B736A",
"c  c #6B7376",
"v  c #6F7389",
"b  c #7C7568",
"n  c #767678",
"m  c #8C7659",
"M  c #6C78A9",
"N  c #767999",
"B  c #7A7B86",
"V  c #857B79",
"C  c #5A7DBA",
"Z  c #828479",
"A  c #848488",
"S  c #9B8458",
"D  c #7686AA",
"F  c #878AA9",
"G  c #8A8A97",
"H  c #938A71",
"J  c #838BB8",
"K  c #8D8C8B",
"L  c #948C96",
"P  c #948CAF",
"I  c #A98F34",
"U  c #AD8F58",
"Y  c #8C9482",
"T  c #8C9499",
"R  c #9194A8",
"E  c #8895B8",
"W  c #959598",
"Q  c #9A9781",
"!  c #AF9768",
"~  c #879AC8",
"^  c #979AB9",
"/  c #C79B53",
"(  c #9C9CA4",
")  c #A59C9D",
"_  c #A79C88",
"`  c #BE9C62",
"'  c #A1A275",
"]  c #9CA5AC",
"[  c #A1A5BF",
"{  c #A4A589",
"}  c #A5A5A4",
"|  c #A5A5B5",
" . c #A6A5AD",
".. c #ADA5A1",
"X. c #ADA5B5",
"o. c #BAA550",
"O. c #C8A763",
"+. c #96A8CB",
"@. c #B7A873",
"#. c #D1A957",
"$. c #CAAC72",
"%. c #A3ADD2",
"&. c #A4ADA1",
"*. c #A4ADBD",
"=. c #A5ADAD",
"-. c #A5ADB5",
";. c #A9ADC7",
":. c gray68",
">. c #ADADB5",
",. c #ADADBD",
"<. c #AEADA3",
"1. c #B5ADB7",
"2. c #D6AD73",
"3. c #D7AD64",
"4. c #B4B089",
"5. c #CCB232",
"6. c #ABB5A5",
"7. c #ACB5C9",
"8. c #ADB5BA",
"9. c gray71",
"0. c #B5B5BD",
"q. c #B6B5C7",
"w. c #B9B5A9",
"e. c #BDB5B5",
"r. c #DCB567",
"t. c #E9B55D",
"y. c #A6B7D8",
"u. c #CAB767",
"i. c #C8B87A",
"p. c #8DB9DA",
"a. c #DBB975",
"s. c #B4BDB3",
"d. c #B5BDBD",
"f. c #B5BDCE",
"g. c #BBBDD6",
"h. c #BCBDC6",
"j. c #BDBDBC",
"k. c #BDBDCE",
"l. c #C6BDC9",
"z. c #C7BD91",
"x. c #E7BD70",
"c. c #B2BFE1",
"v. c #DBC24A",
"b. c #C3C385",
"n. c #BDC6D2",
"m. c #C1C6A2",
"M. c #C5C6C6",
"N. c #C6C6CE",
"B. c #C6C6D7",
"V. c #CEC6C3",
"C. c #EDC678",
"Z. c #EDC769",
"A. c #D7C87A",
"S. c #F9CA69",
"D. c #D5CBAF",
"F. c #EFCB53",
"G. c #F6CD79",
"H. c #C5CEF1",
"J. c #C6CEC6",
"K. c #C6CECE",
"L. c #CDCEE7",
"P. c #CECEC6",
"I. c #CECECE",
"U. c #CECED9",
"Y. c #ECCF28",
"T. c #D6D08F",
"R. c #CDD6E8",
"E. c #CED6CE",
"W. c #D6D6DB",
"Q. c #D6D6E8",
"!. c #ECD769",
"~. c #FCD869",
"^. c #C6D9F9",
"/. c #E9D97C",
"(. c #EED9AF",
"). c #F8D98F",
"_. c #FEDA7D",
"`. c #E8DDD5",
"'. c #D6DED6",
"]. c #D6DEDE",
"[. c #DEDED5",
"{. c gray87",
"}. c #DEDEE7",
"|. c #DEDEF7",
" X c #DFDEEF",
".X c #E0DE95",
"XX c #E4E4AB",
"oX c #EBE689",
"OX c #DEE7DE",
"+X c #DEE7EE",
"@X c #E7E7E6",
"#X c #E7E7EF",
"$X c #E7E7F7",
"%X c #E7E7FF",
"&X c #EFE7E5",
"*X c #EFE7EF",
"=X c #ECEA98",
"-X c #FDEA78",
";X c #F5EBD1",
":X c #FEEB8A",
">X c #FDED98",
",X c #E6EFF7",
"<X c #E7EFE7",
"1X c #E7EFEF",
"2X c #E7EFFF",
"3X c #EFEFEE",
"4X c #EFEFF7",
"5X c #EFEFFF",
"6X c #F7EFFA",
"7X c #F6F69E",
"8X c #EFF7FA",
"9X c gray97",
"0X c #F7F7FF",
"qX c #FFF7F5",
"wX c #FFF7FF",
"eX c #F9F8EA",
"rX c #FEFA89",
"tX c #FFFB97",
"yX c #FEFCAA",
"uX c #F7FFFF",
"iX c #FFFFF5",
"pX c white",
"aX c None",
"sX c black",
"dX c black",
"fX c black",
"gX c black",
"hX c black",
"jX c black",
"kX c black",
"lX c black",
"zX c black",
"xX c black",
"cX c black",
"vX c black",
"bX c black",
"nX c black",
"mX c black",
"MX c black",
"NX c black",
"BX c black",
"VX c black",
"CX c black",
"ZX c black",
"AX c black",
"SX c black",
"DX c black",
"FX c black",
"GX c black",
"HX c black",
"JX c black",
"KX c black",
"LX c black",
"PX c black",
"IX c black",
"UX c black",
/* pixels */
"aXaXaXaXaXaXaXaXaXaXaX} 3X9X9XW.I.W.aXaXaXaXaXaXaXaXaXaXaXaXaX",
"aXaXaXaXaXaXaXaXaXaXaXK ].{.I.W j.M.9.9.W.3X9X3XaXaXaXaXaXaXaX",
"aXaXaXaXaXaXaXaXaXaX0.| #X3X9X#XU.h.j.h.W.@X3XW.M.} K I.aXaXaX",
"aXaXaXaXaXaXaXaXaXaX] L.L.R.}.g.7.|  .8.h.}.3XI.M.( A 8.I.j.aX",
"aXaXaXaXaXaXaXaXaX-.k.Q.L. X}.g.7.8.>.| q.B.N.h.] G T >.h.d.aX",
"aXaXaXaXaXaXaXaXM.W.0XpXpX9X$XB.,.| >.h.h.U.W.0.( W G G ( h.aX",
"aXaXaXaXaXaXaXaX0.4XpXpX4X#XQ.U.N.N.I.{.#X#XW.k.>.W A G | h.aX",
"aXaXaXaXaXaXaXM.:.#X}.0X XU.U.I.U.W.}.3X3X3X9X3XU.9.( ( ] ,.aX",
"aXaXaXaXaXaXaXaXw.8XpX5X}.B.I.I.U.W.}.4X9X[.@X}.@XK.9.>.h.U.].",
"aXaXaXaXaXaXaX..w.0X9X XQ.U.I.I.U.W.@X9XP.K W 4.N.N.>.>.N.}.#X",
"aXaXaXaXaXaXaX) e.3X9XQ.B.h.N.I.U.N.V.I.) { 4.{ ) h.>.>.N.Q. X",
"aXaXaXaXaXaXaX_ P.pX9XL.Q ! M.I.U.w.G./.4.T.' ' H >.>.>.B.}.W.",
"aXaXaXaXaXaXaX@. X4X0X<.$._ N.K.I.9.../.oX.Xb.Z } d.>.0.U.}.}.",
"aXaXaXaXaXaXaXL $X9X5Xh.a.w.N.M.K.w.z.oXT.=XT.{ N.0.>.0.W.}.}.",
"aXaXaXaXaXaXj.) $X0X5X) a.a.d.Q @.Q @.T.b.=XA.].I.9.>.h.W.Q.aX",
"aXaXaXaXaXaXe. .5XuX$XB._ x.! r.r.a.A.A.b.tX/.U.N.>.>.k.Q.W.aX",
"aXaXaXaXaXaX} q.8X0X$XU.4.$.a.3.3.C._.>XtXtXz.U.L V ( N.N.}.aX",
"aXaXaXaXaXaXW B.4X#Xq.U.0.$.U ` x.a.@.b.b.b.N._ ! S W N.Q.W.aX",
"aXaXaXaXaXaX} U.#XM.z.:.q.} ` x.x.G.).>XW #X}.2.S V | N.}.].aX",
"aXaXaXaXaXaX-.Q.#Xj.A.a.2.C.C.r.$.@./.=XN.pX}.! T =.0.U.}.}.aX",
"aXaXaXaXaXaXd p C R @.$.$.C.a.$.! A.:XtXM.pX#X_ W  .h.W.W.W.aX",
"aXaXaXaXaXaX2 p p 8 & g % g s * 6 ! i.A.w.9X#X>.H =.h.W.Q.aXaX",
"aXaXaXaXaX .> p p M f.N N M.B 6 W v ; X X 2 v v a T q.W.W.aXaX",
"aXaXaXaXaXT 4 p p M $Xe h.W. .A 9XpX0.N N.F # # - , 8 p q.aXaX",
"aXaXaXaXaXA 9 M w E W.% | >.* I.9XpXh.d pXN.d 8.d > w D n.aXaX",
"aXaXaXaXaXB 8 p 8 [ W.X ; M.] 3XN.9XW.- 9XU.R I.2 > M w k.aXaX",
"aXaXaXaXaXe w p u B.Q.] A ; I.@XA 3X#XX #X].N.>.= 4 D M W.aXaX",
"aXaXaXaXW., w p h h 0.I.0.f {.W.W.3X3X- W.#X}.v = 4 w D W.aXaX",
"aXaXaXaX] , w M M u 2 6 t j.{.G ; #XpXe N.9XI.- 2 4 w ^ aXaXaX",
"aXaXaXaXT > p E u D G +   < ( 6   N.#XF ] ,.N - 2 9 p [ aXaXaX",
"aXaXaXaXG u M E u R G f 6 6     + + N o @ # # - > 8 w 7.aXaXaX",
"aXaXaXaXv u w w E d d T ] A  .>.T 6 d e 2 - # = > w w k.aXaXaX",
"aXaXaXaXd 9 M D N - v f B ( B T >.0.R F | | T e N w w N.aXaXaX",
"aXaXaXj.H w.e.R u - +   * 6 f t G | ,.0.,.G B e u w M W.aXaXaX",
"aXaXaXN.T h.V.D.z.@.4._ Z n 6 + + X X - 2 6 e e 4 w F aXaXaXaX",
"aXaXaX0.| B. XU.,.] } ..4.z.(.(..XD.w.W N t - , 4 w R aXaXaXaX",
"aXaXaX:.,.Q.Q.I.0.0.d.h.N.N.N.U.E.P.D.D.T.i._ _ z.D.M.aXaXaXaX",
"aXaXaX} 0.U.B.k.q.9.e.h.:...e.P.W.9XpX@XU.-.W R ,.N.N.aXaXaXaX",
"aXaXaX:.k.Q.R.n.>.( ( 9.e..._ ..Y }.qX&XP.9.} >.k.N.}.aXaXaXaX",
"aXaXaX( n.Q.U.k.W V ) H Q W M.N.I.#X9X3XI.0.} >.h.W.}.aXaXaXaX",
"aXaXW.T B.Q.U.h.>.>.) ) ) Q 4.:.<.j.j.:.:.>. .0.U.W.{.aXaXaXaX",
"aXaXM.( N.Q.B.q.>.9.0.d.I.{.#X4X{.W.E.:.9.:. .0.U.W.aXaXaXaXaX",
"aXaX:.] U.U.k.0.>.9.0...w.{.4XpXpXpX0X}.M. .( 0.U.U.aXaXaXaXaX",
"aXaX .| U.U.k.0.>.0._ S S z.<.w.#XpX9X].j. . .h.W.W.aXaXaXaXaX",
"aXaX} | U.U.k.| ) H U U U O.i.A.D.3X9XW.0. . .h.W.I.aXaXaXaXaX",
"aXaX( q.U.B.q.0.m S U H @.4.' b.b.i.D.W.9.( | k.U.].aXaXaXaXaX",
"aXaXW q.U.B.0.>.H S S 9.e.D.} :.4.b.@.I.>.( >.N.N.N.aXaXaXaXaX",
"aXaXG q.U.n.,.|  ._ W ! O.A.T.M._ Q <.I.>.( 8.B.U.I.aXaXaXaXaX",
"aX9.( k.N.q.>.>.>.0.H U @.' b.z.W.{.}.M.:.( 0.B.N.@XaXaXaXaXaX",
"aX:.R k.k.h.>. .>.>.U S ! H b.T.}.0X}.h. .] 0.N.N.aXaXaXaXaXaX",
"aX( ] k.k.q.|  .>.9.U U @.' 4.T.3X9X{.j.}  .0.N.N.aXaXaXaXaXaX",
"aXG | k.k.,. . .>.0...` $.A.=XD.pX9XW.0.(  .h.U.U.aXaXaXaXaXaX",
"aXG N *.k.,. . .:.9.j.e.z.z.E.0XuX3XU.9.(  .k.U.].aXaXaXaXaXaX",
"aXG ,.;.F N A ( =.0.h.W.@X9XpXpX9X#XI.:.( ] k.U.}.aXaXaXaXaXaX",
"aXA ,.k.q. .( G A A G  .N.#X9XpX0X@XN.:.( >.N.N.aXaXaXaXaXaXaX",
"aXA ( q.,. .(  .T  .M.N.U.I.h.,.,.| G B v F ^ | aXaXaXaXaXaXaX",
"aXaXB A G G W  .:.:.h.0.0.U.k.B.4X].0. .( -.k.N.aXaXaXaXaXaXaX",
"aXaXaXa A ( }  .9.0.M.{.4XpX9X4X3XW.9.( ( 0.0.U.aXaXaXaXaXaXaX",
"aXaXaXW a n W } :.j.M.I.{.@X3X3X{.M. .W W  .>.W.aXaXaXaXaXaXaX",
"aXaXaXaXaX( W W } :.} ( L K K K K A n 0 r A :.aXaXaXaXaXaXaXaX",
"aXaXaXaXaXaXaXaXM.j.9.:.} ) K Z l r 5 r ) aXaXaXaXaXaXaXaXaXaX",
"aXaXaXaXaXaXaXaXaXaXaXaXaXaXM.9.} }  .aXaXaXaXaXaXaXaXaXaXaXaX"
};
