/* XPM */
static char *_5aba84781df4cc2e2f7428a2f909d84Cf66VkBvNQFDM5Ex_14[] = {
/* columns rows colors chars-per-pixel */
"24 62 256 2 ",
"   c #03064C",
".  c #080826",
"X  c #0C1362",
"o  c #181866",
"O  c #1B1B47",
"+  c #181C57",
"@  c #172168",
"#  c #222667",
"$  c #202877",
"%  c #2A2963",
"&  c #2B2981",
"*  c #2B2B4A",
"=  c #283176",
"-  c #283269",
";  c #343565",
":  c #393537",
">  c #2A3786",
",  c #313979",
"<  c #3E3C4E",
"1  c #1D41A0",
"2  c #374279",
"3  c #1E438F",
"4  c #374A90",
"5  c #504C51",
"6  c #4B4D72",
"7  c #665137",
"8  c #38549E",
"9  c #495590",
"0  c #5E5866",
"q  c #685851",
"w  c #425A9F",
"e  c #585A84",
"r  c #5A5B5A",
"t  c #575E78",
"y  c #3D6491",
"u  c #556494",
"i  c #3865AC",
"p  c #4565A8",
"a  c #676668",
"s  c #776752",
"d  c #656889",
"f  c #696876",
"g  c #766966",
"h  c #636A9A",
"j  c #736B86",
"k  c #736B97",
"l  c #746B75",
"z  c #687399",
"x  c #6B736A",
"c  c #6B7376",
"v  c #6F7389",
"b  c #7C7568",
"n  c #767678",
"m  c #8C7659",
"M  c #6C78A9",
"N  c #767999",
"B  c #7A7B86",
"V  c #857B79",
"C  c #5A7DBA",
"Z  c #828479",
"A  c #848488",
"S  c #9B8458",
"D  c #7686AA",
"F  c #878AA9",
"G  c #8A8A97",
"H  c #938A71",
"J  c #838BB8",
"K  c #8D8C8B",
"L  c #948C96",
"P  c #948CAF",
"I  c #A98F34",
"U  c #AD8F58",
"Y  c #8C9482",
"T  c #8C9499",
"R  c #9194A8",
"E  c #8895B8",
"W  c #959598",
"Q  c #9A9781",
"!  c #AF9768",
"~  c #879AC8",
"^  c #979AB9",
"/  c #C79B53",
"(  c #9C9CA4",
")  c #A59C9D",
"_  c #A79C88",
"`  c #BE9C62",
"'  c #A1A275",
"]  c #9CA5AC",
"[  c #A1A5BF",
"{  c #A4A589",
"}  c #A5A5A4",
"|  c #A5A5B5",
" . c #A6A5AD",
".. c #ADA5A1",
"X. c #ADA5B5",
"o. c #BAA550",
"O. c #C8A763",
"+. c #96A8CB",
"@. c #B7A873",
"#. c #D1A957",
"$. c #CAAC72",
"%. c #A3ADD2",
"&. c #A4ADA1",
"*. c #A4ADBD",
"=. c #A5ADAD",
"-. c #A5ADB5",
";. c #A9ADC7",
":. c gray68",
">. c #ADADB5",
",. c #ADADBD",
"<. c #AEADA3",
"1. c #B5ADB7",
"2. c #D6AD73",
"3. c #D7AD64",
"4. c #B4B089",
"5. c #CCB232",
"6. c #ABB5A5",
"7. c #ACB5C9",
"8. c #ADB5BA",
"9. c gray71",
"0. c #B5B5BD",
"q. c #B6B5C7",
"w. c #B9B5A9",
"e. c #BDB5B5",
"r. c #DCB567",
"t. c #E9B55D",
"y. c #A6B7D8",
"u. c #CAB767",
"i. c #C8B87A",
"p. c #8DB9DA",
"a. c #DBB975",
"s. c #B4BDB3",
"d. c #B5BDBD",
"f. c #B5BDCE",
"g. c #BBBDD6",
"h. c #BCBDC6",
"j. c #BDBDBC",
"k. c #BDBDCE",
"l. c #C6BDC9",
"z. c #C7BD91",
"x. c #E7BD70",
"c. c #B2BFE1",
"v. c #DBC24A",
"b. c #C3C385",
"n. c #BDC6D2",
"m. c #C1C6A2",
"M. c #C5C6C6",
"N. c #C6C6CE",
"B. c #C6C6D7",
"V. c #CEC6C3",
"C. c #EDC678",
"Z. c #EDC769",
"A. c #D7C87A",
"S. c #F9CA69",
"D. c #D5CBAF",
"F. c #EFCB53",
"G. c #F6CD79",
"H. c #C5CEF1",
"J. c #C6CEC6",
"K. c #C6CECE",
"L. c #CDCEE7",
"P. c #CECEC6",
"I. c #CECECE",
"U. c #CECED9",
"Y. c #ECCF28",
"T. c #D6D08F",
"R. c #CDD6E8",
"E. c #CED6CE",
"W. c #D6D6DB",
"Q. c #D6D6E8",
"!. c #ECD769",
"~. c #FCD869",
"^. c #C6D9F9",
"/. c #E9D97C",
"(. c #EED9AF",
"). c #F8D98F",
"_. c #FEDA7D",
"`. c #E8DDD5",
"'. c #D6DED6",
"]. c #D6DEDE",
"[. c #DEDED5",
"{. c gray87",
"}. c #DEDEE7",
"|. c #DEDEF7",
" X c #DFDEEF",
".X c #E0DE95",
"XX c #E4E4AB",
"oX c #EBE689",
"OX c #DEE7DE",
"+X c #DEE7EE",
"@X c #E7E7E6",
"#X c #E7E7EF",
"$X c #E7E7F7",
"%X c #E7E7FF",
"&X c #EFE7E5",
"*X c #EFE7EF",
"=X c #ECEA98",
"-X c #FDEA78",
";X c #F5EBD1",
":X c #FEEB8A",
">X c #FDED98",
",X c #E6EFF7",
"<X c #E7EFE7",
"1X c #E7EFEF",
"2X c #E7EFFF",
"3X c #EFEFEE",
"4X c #EFEFF7",
"5X c #EFEFFF",
"6X c #F7EFFA",
"7X c #F6F69E",
"8X c #EFF7FA",
"9X c gray97",
"0X c #F7F7FF",
"qX c #FFF7F5",
"wX c #FFF7FF",
"eX c #F9F8EA",
"rX c #FEFA89",
"tX c #FFFB97",
"yX c #FEFCAA",
"uX c #F7FFFF",
"iX c #FFFFF5",
"pX c white",
"aX c None",
"sX c black",
"dX c black",
"fX c black",
"gX c black",
"hX c black",
"jX c black",
"kX c black",
"lX c black",
"zX c black",
"xX c black",
"cX c black",
"vX c black",
"bX c black",
"nX c black",
"mX c black",
"MX c black",
"NX c black",
"BX c black",
"VX c black",
"CX c black",
"ZX c black",
"AX c black",
"SX c black",
"DX c black",
"FX c black",
"GX c black",
"HX c black",
"JX c black",
"KX c black",
"LX c black",
"PX c black",
"IX c black",
"UX c black",
/* pixels */
"aXaXaXaXaXaXaXaXaXaXaXaXaXaXaXaXaXaXaXaXaXaXaXaX",
"aXaXaX0.9X9XN. .M.M.} 9.W.3X3XE.j.K A U.W.aXaXaX",
"aXaX(  .{.{.}.W.k.0.h.I.@X3X3XM.h.( W 0.l. .aXaX",
"aXaX:.q.}.}.}.U.q.|  .0.M.U.I.h. .G A R | h.aXaX",
"aXaXR Q.R.+X4Xf.;.0.8.>.0.W.{.h.] ( L G ] ,.aXaX",
"aX>.,.}.Q.+X XL.q.-.>.h.U.W.U.I.0.( G T ( *.h.aX",
"aX0.9XuXpX9X4XQ.N.h.I.{.3X3X4X4X{.M.>. .>.N.B.aX",
"0.W.pXpX8X XU.U.U.U.{.}.9X9X0X9X#X].h.>.0.U.}.#X",
"..L.#X1X4XQ.U.U.U.U.W.#X9XP...w.4.].h.>.8.U.}.}.",
"4.I.9XpX2XQ.N.I.U.U.{.#X9Xw.4.4.{ <.h.>.>.N.}.W.",
"_ j.0X4X XQ.U.K.I.U.N.D.D.4.4.b.4._ >.>.>.U.}.}.",
"A w.4X9X}.h...N.I.U.e.C.).A.=XT.Q ..h.>.0.U.}.}.",
"Q j.9X9X}._ i.0.I.N.N.<.z.>XT.oXb.M.h.:.8.U.}.Q.",
"Q V.9X9XV.$.$.N.I.I.j.a.T.oXT.oXe.{.h.:.8.U.}.U.",
"' N.4X0X$X@.a.j.K._ w.! A.=XT.>Xm.].h. .0.N.W.].",
"K h.0X0XQ._ a.a._ 3.x.x.A.T.7X>Xm.N.H m  .N.Q.U.",
"_ N.0X0X$XB.$.$.a.r.3.G.).oX=XoXM.@.! S ( N.}.U.",
"A k.8X0X XU...a.O.O.x.a.i.T.Q I.#X$.S K >.U.}.}.",
"G h.4X4Xh.B.N.<.! 3.x.G./.>Xw.pX3X_ _  .8.U.Q.U.",
") h.#XU.T.z.w.4.x.x.$.u./.>Xm.pX3Xj.!  .>.U.}.W.",
"( B.$XK.T.a.a.C.x.2.2.@.:X:X.X@X9X].Q W 8.B.}.U.",
"G ^ %.^ z.Q $.! O.S 0 a H H Q B R G j t N E [ N.",
"2 4 p p 4 6 ; 6 G + f R R d d d 2 # # - > w M B.",
"v 9 p w D U.v h.W.( ( 9XpX] ( pXN.v 0.d > w h f.",
"B 9 p h D $X6 h.h.f M.9XpXU.2 9XW.G W.6 > D M k.",
"G 4 p p D ].6 B I.f @X{.{.9X% W.9X| N.- > w w n.",
"B > M w D #X6 + t M.@Xh.h.pXN | 9XW.0.- > w w B.",
"G > p p E #XI.0.G >.@XI.#XpXh.e 9X#XR - > w w B.",
"d 4 p M 9 F ,.I.6 U.{.+ v uX3X# @Xh.d - > w w n.",
"B 4 p M z d ; + 6 ( 0.+ + U.0.t # # # - > w w B.",
"d 4 M J h R G +         + + N o @ # # , 4 w w h.",
"v 9 M E 9 ] R G W G W >.( v G R R | ( v N h w f.",
"e d p M E N f G ( B (  .>.h.| ] h.R G v e w h B.",
"f e M E F = t ; A A t j ( R N R R d t e > w w n.",
"A z J M 9 , % + O O     + + X # - 2 - 2 9 M F h.",
"A _ (.(.(.z.z.z.z.z.A.(.(.7XXX=X(.T.4._ 4.D.D.N.",
"W ,.B.B.f.-.| -.>.0.M.I.W.].].{.I.M. .W ( q.N.W.",
"W q.U.}.I.0.9.j.j.j.j.P.P.I.4XpX3XW.9.} >.h.U.W.",
"( 0.Q.U.N.h.9.e.j.9._ 4.w.{ [.pX&XE.j. .>.k.Q.W.",
"W ,.Q.Q.N.0.) ) W 9.:.P.M.{.I.4XE.e.d. .>.N.W.U.",
">.>.Q.Q.B.>.H _ Q ! Q _ 4.M.z.M...4.0. .>.N.W.U.",
"W ,.Q.Q.n.0.8.0.0.h.N.{.#X9X4X9X4XW.d.}  .N.W.W.",
"( -.L.Q.n.0.>.9.9.h.I.@X9XpXpXpX9XW.0.}  .N.W.M.",
"( ,.U.U.h.0.8.0.:.S ! V.w.w.@XpX9XW.0. . .h.W.U.",
"( | U.U.k.0.>.>._ U U $.i.A.D.[.{.W.0.}  .k.B.U.",
"L | U.U.k.>.) ! U U ` @.! b.z.b.A.I.0. . .k.U.0.",
"W | B.U.k.0._ m S _ j.M.<.V.4.b.@.M.0.}  .N.W.U.",
"L | B.U.q.>.) U U ..@.a./.D.j.Q w.W.0. . .k.U.M.",
"A ] B.U.h.>.>.} } ! ! $.@.b.D.pX9XW.0.(  .0.N.U.",
"W ( U.B.q.>.>.>.:.! ! H ' T.T.9X9XW.0.(  .0.B.U.",
"W | k.h.q.>.=.>. .U U @.@.b.T.0X9XW.0.(  .h.U.U.",
"W ( k.B.q.>. .>.0.@.` $.A.oX[.pX9XW.0.(  .h.U.W.",
"A ( k.k.0.|  .:.9.9.4.@.i.P.9XpX4XW.9.( ( 0.U.U.",
"c ( k.k.0. . .:.9.j.K.{.4XpXpXpX3XW.0.( ] q.B.N.",
"A N P P R T W } :.0.N.{.4X9X9X3X}.h.( A N F [ ,.",
"n ( q.k.>.( T L W W ( :.h.M.N.h.N.0.( ( ( 8.h.I.",
"A W h.h.,.( }  .W } d.h.h.].k.U.3XU.9.( ( 0.h.U.",
"aXn G ] ( ( (  .>.j.I.{.4XpXpXpX3XI.>.W W  .] aX",
"aXaXn n K W ( :.9.M.U.{.#X3X@X{.M. .K n r x aXaX",
"aXaXaXx r A W } } } } } W W K A n a 5 5 a aXaXaX",
"aXaXaXaXA n A W ( :.9.:.} ) W K K n x A aXaXaXaX",
"aXaXaXaXaXaXaXaXaXaXaXaXaXaXaXaXaXaXaXaXaXaXaXaX"
};
