/* XPM */
static char *_77941ad851849d9a14b3aabdedf9675jm9We3XNlYlIcvEW_13[] = {
/* columns rows colors chars-per-pixel */
"64 64 256 2 ",
"   c None",
".  c #66493A",
"X  c #7D4E3F",
"o  c #754C39",
"O  c #634D45",
"+  c #6C4D43",
"@  c #7A4F41",
"#  c #6E5247",
"$  c #6D564C",
"%  c #645348",
"&  c #725246",
"*  c #78584A",
"=  c #715C52",
"-  c #7D5C51",
";  c #7D6053",
":  c #74655A",
">  c #666256",
",  c #7C766B",
"<  c #824E3B",
"1  c #8D4F3C",
"2  c #914E3D",
"3  c #904E37",
"4  c #855139",
"5  c #8B513B",
"6  c #9C5935",
"7  c #95543B",
"8  c #995639",
"9  c #95583E",
"0  c #9C5A3B",
"q  c #975537",
"w  c #A55C35",
"e  c #A25D3E",
"r  c #B25E2E",
"t  c #86673C",
"y  c #BA6A2E",
"u  c #B76629",
"i  c #BE702F",
"p  c #AB6233",
"a  c #A9623B",
"s  c #B56934",
"d  c #BC723B",
"f  c #BF6D17",
"g  c #CD771E",
"h  c #D47D1A",
"j  c #CC7523",
"k  c #CB762B",
"l  c #C77529",
"z  c #D47C23",
"x  c #D37B24",
"c  c #C67739",
"v  c #C7712E",
"b  c #845542",
"n  c #8C5B4B",
"m  c #895B45",
"M  c #935942",
"N  c #9B5B41",
"B  c #965B49",
"V  c #8B5E51",
"C  c #A15D40",
"Z  c #A25E49",
"A  c #866349",
"S  c #8A644B",
"D  c #896549",
"F  c #956749",
"G  c #9A7549",
"H  c #826454",
"J  c #8B6857",
"K  c #986A56",
"L  c #977257",
"P  c #A36243",
"I  c #A4634C",
"U  c #AB6947",
"Y  c #B36D44",
"T  c #B87347",
"R  c #A36952",
"E  c #A26450",
"W  c #B26E51",
"Q  c #A47559",
"!  c #A6795D",
"~  c #A57658",
"^  c #B57454",
"/  c #B87957",
"(  c #A2784A",
")  c #8F7362",
"_  c #987765",
"`  c #947C71",
"'  c #A27B63",
"]  c #A87B66",
"[  c #B37F64",
"{  c #C57A44",
"}  c #C97A40",
"|  c #7E8276",
" . c #DD841C",
".. c #DC8316",
"X. c #DD8104",
"o. c #E58A08",
"O. c #ED910A",
"+. c #EE9206",
"@. c #F49603",
"#. c #F79801",
"$. c #F99A01",
"%. c #F39509",
"&. c #E38914",
"*. c #F09619",
"=. c #FDA000",
"-. c #DC8528",
";. c #D6863D",
":. c #E78F23",
">. c #A88455",
",. c #B48657",
"<. c #87877A",
"1. c #9A8577",
"2. c #A68469",
"3. c #AA866A",
"4. c #AE896C",
"5. c #A68266",
"6. c #B5886A",
"7. c #B3966A",
"8. c #B8986A",
"9. c #AE8B71",
"0. c #A48879",
"q. c #B08D72",
"w. c #B59375",
"e. c #B99777",
"r. c #BE9A79",
"t. c #B89777",
"y. c #AF937F",
"u. c #C6845A",
"i. c #D58D4F",
"p. c #C09E6A",
"a. c #C19A7A",
"s. c #D19266",
"d. c #C6A366",
"f. c #C4A27A",
"g. c #CCA977",
"h. c #D0AC78",
"j. c #D5B37A",
"k. c #DCB77A",
"l. c #E3A27A",
"z. c #9A968B",
"x. c #998B80",
"c. c #A89789",
"v. c #BE9D83",
"b. c #B59786",
"n. c #A6968D",
"m. c #BEA387",
"M. c #BDA296",
"N. c #B7AA97",
"B. c #ACA298",
"V. c #BAADA2",
"C. c #BAB1AB",
"Z. c #C3A484",
"A. c #CCAB85",
"S. c #CBAD8B",
"D. c #C8A588",
"F. c #CDB18A",
"G. c #D2B48A",
"H. c #D8B888",
"J. c #C5AC9B",
"K. c #C7A994",
"L. c #CCB599",
"P. c #D1B696",
"I. c #D3BB9C",
"U. c #D8BA99",
"Y. c #D4AE9A",
"T. c #E0BC83",
"R. c #CEB9A6",
"E. c #CAB6A7",
"W. c #DABCA3",
"Q. c #D2BCAC",
"!. c #D3BAA3",
"~. c #C7BBB4",
"^. c #D6BEB4",
"/. c #DAC19A",
"(. c #E6C387",
"). c #ECC88B",
"_. c #E6C488",
"`. c #EECC92",
"'. c #E2C598",
"]. c #F1D39A",
"[. c #F0D097",
"{. c #DCC4A3",
"}. c #DBC6A9",
"|. c #CBC3BA",
" X c #DCCBBC",
".X c #D7C6B7",
"XX c #DFD1B9",
"oX c #E6CCA6",
"OX c #E9D1AA",
"+X c #F2D6A4",
"@X c #F7DBA9",
"#X c #E7D5B6",
"$X c #F5DDB6",
"%X c #E1CAB8",
"&X c #F2E1BD",
"*X c #FAE3BA",
"=X c #CBC6C5",
"-X c #DBCDC3",
";X c #D3CCC6",
":X c #DCD2CA",
">X c #DED1C6",
",X c #DAD7D5",
"<X c #E2D5CA",
"1X c #E8DAC9",
"2X c #E5DED9",
"3X c #F6DFC2",
"4X c #F9E6C5",
"5X c #F9E7C8",
"6X c #FAE9CC",
"7X c #F4E4C8",
"8X c #ECE3DA",
"9X c #E9E1D9",
"0X c #FAECD6",
"qX c #FAECD6",
"wX c #FAEBD3",
"eX c #FBEDDA",
"rX c #F2E8DC",
"tX c #FEF1DB",
"yX c #EBE0CF",
"uX c #EDECEB",
"iX c #E9E6E3",
"pX c #F6EDE3",
"aX c #F7EFE8",
"sX c #FAF2E4",
"dX c #F7F3EB",
"fX c #EEEEF1",
"gX c #EFF1F5",
"hX c #F3F4F6",
"jX c #F5F7F8",
"kX c #F7F8F9",
"lX c gray98",
"zX c #FBF6F3",
"xX c black",
"cX c black",
"vX c black",
"bX c black",
"nX c black",
"mX c black",
"MX c black",
"NX c black",
"BX c black",
"VX c black",
"CX c black",
"ZX c black",
"AX c black",
"SX c black",
"DX c black",
"FX c black",
"GX c black",
"HX c black",
"JX c black",
"KX c black",
"LX c black",
"PX c black",
"IX c black",
"UX c black",
/* pixels */
"                                                                                                                                ",
"                                                                                                                                ",
"                                              zXzX                                                                              ",
"                    sXsXpXpXeX0XwXwXwXwXwXwX0XeXeX0X0X0X0X0XeXpXpXsXsXsXdXhX                                                    ",
"              pXpXpX0X0X0X0XwX4X*X*X*X*X*X4X5X5X6X0XtXeX0X6XwX0X0X0X0X0X6X7X8XrXpX                                              ",
"        sXpX8X7X7X0X0XwX5X5X5X5X5X5X5X5X5X6X0XsXsXtXsXsXtXsXsXtXtXeXwX5X5X7X&X&X&X7XeXsX                                        ",
"        7X7X7X&X7X0X0XwX5X5X4X5XwX0X0X0X0X0XtXtXtXtXtXtXtXtXeX0X0XwX6X5X4X4X*X$X$X$X1XyXpX                                      ",
"      7X&X&X3X4X6XwX6X5X5X5X4X5XwX0X0X0X0X0X0X0X0X0X0X0X0X0XwXwX*X*X*X*X@X@X+X].].OXOX#X8X                                      ",
"    yX#X#X$X&X&X&X&X&X7XwX5X4X4X4X4X4X4X4X4X*X*X*X*X*X*X*X$X@X@X@X@X+X].[.`.`.`.).).'.oX%X                                      ",
"  2X1X}.oXOX$X$X&X7X&X&X$X+X+X@X@X@X+X+X+X+X+X+X+X].+X+X].].[.`.`.`.`.`.)._.(.(.(.(.T.H.{.1X8X                                  ",
"  2X1X}.}.}.OX#X$X$XOXOX+X].[.`.).).).)._._._._.(.(._.(.(.(.T.T.T.T.T.T.T.k.k.k.j.G.G.G./.<X2X                                  ",
"  9X<XI.I./.}.}.}.}././.U.H.k.k.j.j.j.j.j.j.h.h.h.j.j.j.j.h.h.h.h.h.h.h.h.h.g.g.f.f.Z.S.I.-X<X                                  ",
"    <XI.P.I.I.S.Z.Z.F.A.f.f.f.a.p.r.r.r.e.w.w.e.r.r.r.r.r.r.r.r.r.r.r.r.r.r.r.e.w.w.v.m.L.>X2X                                  ",
"      R.I.P.P.S.m.t.Z.r.w.w.w.w.w.q.4.q.4.4.4.3.2.3.4.4.4.q.w.w.q.q.q.w.w.w.w.w.e.r.v.K.R.                                      ",
"      }.I.P.P.P.P.P.D.Z.Z.r.e.w.r.w.q.4.3.2.2.2.2.2.2.2.2.4.3.2.2.3.4.4.4.4.q.w.t.v.Z.K.R.                                      ",
"      %X}.U.W.W.U.U.S.Z.Z.r.r.r.r.e.w.q.3.2.2.2.5.' 5.2.2.2.2.2.2.5.' 5.3.4.q.w.t.v.K.J.R.                                      ",
"      2X%XW.W.W.W.I.F.Z.r.r.r.r.w.w.q.4.3.2.2.2.2.2.2.2.2.2.2.2.2.2.2.2.4.q.q.q.w.v.K.J.R.                                      ",
"      ,X X{./.U.U.P.S.A.Z.r.r.r.w.w.q.q.4.4.4.3.2.2.4.3.2.4.3.2.2.3.4.4.3.3.9.q.q.b.b.J.Q.8XhX                                  ",
"      2XQ.K.U.G.G.G.A.A.f.a.r.r.w.w.w.q.4.4.4.4.3.2.4.4.4.4.4.4.4.4.4.q.9.q.w.q.q.w.v.K.Q.9XuX                                  ",
"      8XE.b.v.D.A.A.A.A.f.f.a.r.r.e.w.w.w.w.q.4.4.4.9.q.q.q.q.q.q.q.q.q.q.q.q.q.q.w.r.K.Q.1X8X                                  ",
"      8XE.9.! 4.e.f.f.f.f.r.r.r.r.r.t.w.w.w.w.q.4.4.q.q.q.q.q.q.q.q.q.w.w.w.w.w.w.w.v.m.J..X-X                                  ",
"      iXQ.w.~ Q ! 4.w.w.w.q.9.9.9.q.w.w.w.w.w.w.w.w.w.w.w.w.w.w.w.w.w.w.w.w.w.w.t.v.v.v.Z.L.}.1X      lXlXlXlX                  ",
"        Z.w.~ Q Q ~ 3.3.' K S A A S S L _ 3.9.9.q.w.w.w.w.w.w.w.w.e.r.r.r.r.r.r.r.v.Z.Z.a.A./.}.J.E.=X2XuXjXkXlXlX              ",
"        M.b.! Q Q Q Q L F m b b < < < b b n L ' 3.4.9.q.w.w.w.w.w.e.r.r.r.r.r.r.r.v.Z.Z.Z.F.G.A.Z.M.~.,XuXhXhXjXlXlX            ",
"        J.v.! Q Q Q Q K F 7 1 4 4 4 4 4 < X b n K L ' ' ' 5.3.q.w.e.r.r.r.r.r.r.v.v.A.A.A.G.G.L.Q.          hXhXjXkXlXlX        ",
"        J.v.! Q ! / Q E B M 7 1 4 4 4 4 4 4 < b m A m b m S L ' 3.q.w.r.r.r.r.v.v.Z.A.A.S.U..X>X              fXhXhXjXlXlX      ",
"        M.b.[ ^ ^ ^ ^ W C 8 7 2 2 5 4 b 4 4 4 < < 1 b b b b n n B F Q 3.q.e.r.v.v.Z.A.S.I.XX#X                    fXhXjXkX      ",
"        M.b.[ ^ W W ^ U e 8 q 8 9 7 2 1 < < < < < 2 5 4 < 4 4 b 5 2 M R ] q.w.t.a.Z.A.S.I.<X9X                    gXhXjXkXkX    ",
"        M.b./ ^ ^ ^ ^ Y w e 0 q 8 7 1 5 4 4 4 1 7 8 5 4 4 1 2 5 b 5 7 C I ! q.e.a.Z.A.P.}.8XaX                    hXgXhXhXhXjX  ",
"        M.b./ ^ ^ ^ ^ Y p w e e e 0 q q 3 3 2 7 6 p 6 8 M 8 9 M 5 4 5 q 0 I 5.q.t.Z.A.I..X                          gXhXhXhXjXkX",
"        J.v./ T T ^ ^ Y p w w w w w w e 0 q q w p y p w 8 e N 9 8 9 9 8 0 I ' 4.t.v.A.I.XX                          hXhXhXhXhXhX",
"        Y.D.u.{ { T ^ Y p p p p w w w w p p w r v -.v p e C 0 8 9 N C C P I R ' 4.r.A.!.>X                          hXhXhXhXhXhX",
"        Y.D.u.{ c c T d r r u y y y y i y u u y x ..k y w 9 9 7 M M M N B I I R ! q.S.I.                            hXhXhXhXhXhX",
"        R.D.u.{ } c s u u u y l l j k j g j k x ..o. .v w q q 8 9 M 8 s d { ;.i.,.4.R. X                          kXjXhXhXhXjXkX",
"        Q.K.u.{ c c v i y u j z .. .-.-. .&.&.&.*.+.&.j w q 9 9 8 M B M N I I I ] b.J.Q.                          kXjXhXhXhXjXkX",
"        .XY.u.c v k l l k l z &.@.#.$.$.#.@.#.#.#.$.#...p 6 9 M M N P 8 e I I K ] v.L.Q.                          kXjXhXhXjXlXlX",
"        .XY.i.l l k v k z k  .@.$.=.=.=.$.#.@.@.#.$.$.o.u w N M B M N P I E R K ] v.L.Q.                      lXlXkXjXhXhXjXlX  ",
"        .XY.i.k j z j h &.-.:.*.$.$.$.$.#.#.#.#.#.$.$.O...g u w e N N C Z E R R ] Z.Q.^.                      kXkXkXhXjXkXlXlX  ",
"         XU.i.-.z z z &.@.#.@.@.$.$.$.$.#.#.#.#.#.#.$.$.#.#.&.k d P C C P I R K ] v.Q. X                    kXkXkXkXjXhXhXhX    ",
"         XU.u.k g g x -.*.%.#.#.$.$.$.$.#.#.#.$.#.#.$.$.$.$.O.h s 0 M M B K K K ' v.Q. X                kXjXhXjXkXkXkXhXfX      ",
"        |.J.u.k g g z  .&.@.$.$.$.$.$.$.$.$.$.$.#.#.#.#.@.&.l e 8 M A n n V H J _ b.E.|.              hXhXkXkXkXkXjXhXuXuX      ",
"        =XE.u.k j k j h &.@.$.$.$.$.$.$.$.$.$.#.#.#.#.&.v w 8 M n V - - - - - ; ) b.E.:XuX      ,X2XuXhXkXkXkXkXjXhXiX,X        ",
"        =XR.u.c p 4 7 u X.@.$.$.$.$.$.$.$.$.$.$.$.#.o.f q 9 m b - * & - - - - ; L t.E.;X;X~.;XuXhXlXlXkXlXlXkXhXuX,X            ",
"         XW.s.I o . o 0 x O.$.@.&.O.$.$.$.$.$.$.$.+.l 6 4 b @ # # # # # $ = - ; ) b.-XuXdX9XuXlXlXlXlXlXlXlXhXiX,X              ",
"        :XQ.a.S . . * P k O.$.=.$.$.$.$.$.$.$.$.O.x w < X & + + + + # # $ = - ; ) b.:XhXlXlXlXlXlXlXlXjXhXiX,X                  ",
"        ;XC.1.: $ O o q l O.$.=.=.$.$.$.$.$.$.#.h 6 < @ # + + + + + + # $ = - ; ) b.:XhXlXlXlXlXlXlXhXiX,X=X                    ",
"        =XC.1.J ; = - m s -.*.=.=.=.$.$.$.$.#. .s b & + + + O O + + + # $ = - ; ) b.:XhXlXlXhXuXiX9X,X,X                        ",
"        ;XC.<._ K R F B a k -.:.O.@.@.@.@.O.&.u 5 o + O O O O O O O O # $ = - H J 0.|.uXlXuX,X~.=X                              ",
"        :X^.b._ Q W W Y p y y s a a e 6 6 8 9 5 X + O O O O O O O O O # $ = H Q 6.a.E.2XuX:X.X-X                                ",
"        1X%XD.6./ { c d T Y Y P B m b < @ & & + + + + + + + + # & * - b n F R ^ s.l.U..X|.                                      ",
"        9X-XD.6./ / / ^ T Y U P C C N M M M n M M M M M M M M M N P P a a Y T { s.U. X:X                                        ",
"        8X-XN.<., : = = = & & & - b @ & # & @ < < X & & & & & & @ b b b m S K _ y.J. X<X                                        ",
"        2X<XE.c.<., : > > % O O O + + + + + & * m b b b X X & & - A A A J ` c.b.f.G.#X1X                                        ",
"        2X;XB.n.n.n.N.b.5.K F F A A A D F m & * A n A A A A A S ( ,.d.F.I.S.8.p.g.S.<X9X                                        ",
"        2X=Xn.<.| | <.z.N.N.N.N.b.9._ S S D t t D S L 5.7.r.D.L.L.J.m.8.7.7.7.7.r.J.>X9X                                        ",
"            V.z.| , , <.<.z.n.n.B.C.Q.R.{././.}.}.{./.{.I.D.f.r.8.7.7.7.7.7.7.t.m.Y.<X8X                                        ",
"            2X:X;X.X.X.X.X.X}././././././.H.H.j.j.k.k.j.g.d.d.d.d.d.d.d.g.g.g.h.U..X                                            ",
"              :XE.9.9.6.,.! ! ~ G L L L ~ >.>.>.>.>.( ( G F F F F G G G L >.8.D.}.9X                                            ",
"                  V.b.0.) J H H A A ; H ; - - H H A A A A S S A A A S K L 2.M.                                                  ",
"                    -X|.V.b.1.` J : : : = = = = = = = = = ; J K ) ` 0.N.|.-X                                                    ",
"                              |.C.V.N.B.z.x.1.1.0.0.1.0.c.b.M.V.~.<XrX                                                          ",
"                                              9X8XrX                                                                            ",
"                                                                                                                                ",
"                                                                                                                                "
};
