/* XPM */
static char *_5aba84781df4cc2e2f7428a2f909d84Cf66VkBvNQFDM5Ex_11[] = {
/* columns rows colors chars-per-pixel */
"34 62 256 2 ",
"   c #03064C",
".  c #080826",
"X  c #0C1362",
"o  c #181866",
"O  c #1B1B47",
"+  c #181C57",
"@  c #172168",
"#  c #222667",
"$  c #202877",
"%  c #2A2963",
"&  c #2B2981",
"*  c #2B2B4A",
"=  c #283176",
"-  c #283269",
";  c #343565",
":  c #393537",
">  c #2A3786",
",  c #313979",
"<  c #3E3C4E",
"1  c #1D41A0",
"2  c #374279",
"3  c #1E438F",
"4  c #374A90",
"5  c #504C51",
"6  c #4B4D72",
"7  c #665137",
"8  c #38549E",
"9  c #495590",
"0  c #5E5866",
"q  c #685851",
"w  c #425A9F",
"e  c #585A84",
"r  c #5A5B5A",
"t  c #575E78",
"y  c #3D6491",
"u  c #556494",
"i  c #3865AC",
"p  c #4565A8",
"a  c #676668",
"s  c #776752",
"d  c #656889",
"f  c #696876",
"g  c #766966",
"h  c #636A9A",
"j  c #736B86",
"k  c #736B97",
"l  c #746B75",
"z  c #687399",
"x  c #6B736A",
"c  c #6B7376",
"v  c #6F7389",
"b  c #7C7568",
"n  c #767678",
"m  c #8C7659",
"M  c #6C78A9",
"N  c #767999",
"B  c #7A7B86",
"V  c #857B79",
"C  c #5A7DBA",
"Z  c #828479",
"A  c #848488",
"S  c #9B8458",
"D  c #7686AA",
"F  c #878AA9",
"G  c #8A8A97",
"H  c #938A71",
"J  c #838BB8",
"K  c #8D8C8B",
"L  c #948C96",
"P  c #948CAF",
"I  c #A98F34",
"U  c #AD8F58",
"Y  c #8C9482",
"T  c #8C9499",
"R  c #9194A8",
"E  c #8895B8",
"W  c #959598",
"Q  c #9A9781",
"!  c #AF9768",
"~  c #879AC8",
"^  c #979AB9",
"/  c #C79B53",
"(  c #9C9CA4",
")  c #A59C9D",
"_  c #A79C88",
"`  c #BE9C62",
"'  c #A1A275",
"]  c #9CA5AC",
"[  c #A1A5BF",
"{  c #A4A589",
"}  c #A5A5A4",
"|  c #A5A5B5",
" . c #A6A5AD",
".. c #ADA5A1",
"X. c #ADA5B5",
"o. c #BAA550",
"O. c #C8A763",
"+. c #96A8CB",
"@. c #B7A873",
"#. c #D1A957",
"$. c #CAAC72",
"%. c #A3ADD2",
"&. c #A4ADA1",
"*. c #A4ADBD",
"=. c #A5ADAD",
"-. c #A5ADB5",
";. c #A9ADC7",
":. c gray68",
">. c #ADADB5",
",. c #ADADBD",
"<. c #AEADA3",
"1. c #B5ADB7",
"2. c #D6AD73",
"3. c #D7AD64",
"4. c #B4B089",
"5. c #CCB232",
"6. c #ABB5A5",
"7. c #ACB5C9",
"8. c #ADB5BA",
"9. c gray71",
"0. c #B5B5BD",
"q. c #B6B5C7",
"w. c #B9B5A9",
"e. c #BDB5B5",
"r. c #DCB567",
"t. c #E9B55D",
"y. c #A6B7D8",
"u. c #CAB767",
"i. c #C8B87A",
"p. c #8DB9DA",
"a. c #DBB975",
"s. c #B4BDB3",
"d. c #B5BDBD",
"f. c #B5BDCE",
"g. c #BBBDD6",
"h. c #BCBDC6",
"j. c #BDBDBC",
"k. c #BDBDCE",
"l. c #C6BDC9",
"z. c #C7BD91",
"x. c #E7BD70",
"c. c #B2BFE1",
"v. c #DBC24A",
"b. c #C3C385",
"n. c #BDC6D2",
"m. c #C1C6A2",
"M. c #C5C6C6",
"N. c #C6C6CE",
"B. c #C6C6D7",
"V. c #CEC6C3",
"C. c #EDC678",
"Z. c #EDC769",
"A. c #D7C87A",
"S. c #F9CA69",
"D. c #D5CBAF",
"F. c #EFCB53",
"G. c #F6CD79",
"H. c #C5CEF1",
"J. c #C6CEC6",
"K. c #C6CECE",
"L. c #CDCEE7",
"P. c #CECEC6",
"I. c #CECECE",
"U. c #CECED9",
"Y. c #ECCF28",
"T. c #D6D08F",
"R. c #CDD6E8",
"E. c #CED6CE",
"W. c #D6D6DB",
"Q. c #D6D6E8",
"!. c #ECD769",
"~. c #FCD869",
"^. c #C6D9F9",
"/. c #E9D97C",
"(. c #EED9AF",
"). c #F8D98F",
"_. c #FEDA7D",
"`. c #E8DDD5",
"'. c #D6DED6",
"]. c #D6DEDE",
"[. c #DEDED5",
"{. c gray87",
"}. c #DEDEE7",
"|. c #DEDEF7",
" X c #DFDEEF",
".X c #E0DE95",
"XX c #E4E4AB",
"oX c #EBE689",
"OX c #DEE7DE",
"+X c #DEE7EE",
"@X c #E7E7E6",
"#X c #E7E7EF",
"$X c #E7E7F7",
"%X c #E7E7FF",
"&X c #EFE7E5",
"*X c #EFE7EF",
"=X c #ECEA98",
"-X c #FDEA78",
";X c #F5EBD1",
":X c #FEEB8A",
">X c #FDED98",
",X c #E6EFF7",
"<X c #E7EFE7",
"1X c #E7EFEF",
"2X c #E7EFFF",
"3X c #EFEFEE",
"4X c #EFEFF7",
"5X c #EFEFFF",
"6X c #F7EFFA",
"7X c #F6F69E",
"8X c #EFF7FA",
"9X c gray97",
"0X c #F7F7FF",
"qX c #FFF7F5",
"wX c #FFF7FF",
"eX c #F9F8EA",
"rX c #FEFA89",
"tX c #FFFB97",
"yX c #FEFCAA",
"uX c #F7FFFF",
"iX c #FFFFF5",
"pX c white",
"aX c None",
"sX c black",
"dX c black",
"fX c black",
"gX c black",
"hX c black",
"jX c black",
"kX c black",
"lX c black",
"zX c black",
"xX c black",
"cX c black",
"vX c black",
"bX c black",
"nX c black",
"mX c black",
"MX c black",
"NX c black",
"BX c black",
"VX c black",
"CX c black",
"ZX c black",
"AX c black",
"SX c black",
"DX c black",
"FX c black",
"GX c black",
"HX c black",
"JX c black",
"KX c black",
"LX c black",
"PX c black",
"IX c black",
"UX c black",
/* pixels */
"aXaXaXaXaXaXaXaXaXaXaXaXaXaXaXM.( 9.W.I.aXaXaXaXaXaXaXaXaXaXaXaXaXaX",
"aXaXaXaXaXaXaXaXaXaXW.@X9X3XI.9.B G 0.h.h.aXaXaXaXaXaXaXaXaXaXaXaXaX",
"aXaXaXaXaXaXN.{.I.) 9.{.#X3XN.j.( T R ] ,.aXaXaXaXaXaXaXaXaXaXaXaXaX",
"aXaXaX9X9X0.( 9.>.h.N.W.N.I.h.| G G G F ,.k.aXaXaXaXaXaXaXaXaXaXaXaX",
"aXaXB ].{.9X4XB.| ]  .-.k.}.U.,.( T G T | q.U.aXaXaXaXaXaXaXaXaXaXaX",
"aXaX .#X+X}.L.f.0.8.>.,.k.U.U.N.h.>. . .8.U.].3XaXaXaXaXaXaXaXaXaXaX",
"aXaX| L.n.4X Xf.,.| >.I.@X3X4X9X3XW.h.>.8.U.}.#XaXaXaXaXaXaXaXaXaXaX",
"aXN.,.Q.R. X XQ.N.h.U.}.4X9X9X3XV.W.M.>.>.N.Q.W.aXaXaXaXaXaXaXaXaXaX",
"aX>.B.4XpX0X#XU.U.U.W.{.9X3X) W 4.w.h.>.>.h.Q.Q.aXaXaXaXaXaXaXaXaXaX",
"aXh.9XpX0X XU.U.U.U.W.}.3X}.Q { b.A L 0.>.0.W.}.}.aXaXaXaXaXaXaXaXaX",
"aX0.4X#X0X XU.B.I.U.W.}.}.M.4.{ { Q ) j.:.0.U.}.}.aXaXaXaXaXaXaXaXaX",
"aXW #X#XuX$XU.N.I.I.U.:.x./.b.oXT.@.>.h.>.>.B.}.W.aXaXaXaXaXaXaXaXaX",
"aX4.W.0X4X XW.N.N.I.U.e.$.A.:XT.oX4.W.M.>.>.N.U.}.aXaXaXaXaXaXaXaXaX",
"aX<.w.9XpXQ.h.H w.N.N.W.<.z.>Xb.7XT.W.K.:.( h.B.W.aXaXaXaXaXaXaXaXaX",
"aXe.Q }.pX$X<.@.<.K.N.I.w.i.T..X=X>X0.1.m m 0.U.}.].aXaXaXaXaXaXaXaX",
"aXaX_ }.pX4Xw.2.4.N.>.! $.2.A.T.tX>X0.! S m | B.}.}.aXaXaXaXaXaXaXaX",
"aXaX4. X4X0XB.$.x.4._ r.r.x.:XoX.Xz.}.$.S W >.N.}.U.aXaXaXaXaXaXaXaX",
"aXaXW k.8X0XQ.:.$.a.$.3.3.a.@.b.Q }.4X<.! >.:.N.Q.].aXaXaXaXaXaXaXaX",
"aXaX} 1.8XuX$XU._ 2.! ` x.C._.oXb.4X4X}.Q L  .h.W.Q.aXaXaXaXaXaXaXaX",
"aXaXaX) ,XuX5XW.N.<.@.! x.x.@.:X>Xj.pX3XM.m W | ;.^ ].aXaXaXaXaXaXaX",
"aXaXaXG  X0XW.w.k.0.4.C.2.` $.:X:X.XM.k.R 6 - > w D B.aXaXaXaXaXaXaX",
"aXaXaXG W.#XN.T.$.2.C.x.2.! H ! b ; o @ # # - 2 8 p *.aXaXaXaXaXaXaX",
"aXaXaX} N.$XB.z.2.a.! ` s   + v G e U.W.- h.| , 4 E ^ aXaXaXaXaXaXaX",
"aXaXaXh.-.g.+.T d V + A B + @XpX@X+ W.pXN h.| = 4 w D W.aXaXaXaXaXaX",
"aXaXaXaXe p p w 9 F t W.W.* @X0XpX] d pXU.M.| = > w w W.aXaXaXaXaXaX",
"aXaXaXaXe w p w g.U.; U. .+ @XU.3X3X- N.9XW.| - > w w k.aXaXaXaXaXaX",
"aXaXaXaXN 9 p w E W.; B N.>.@Xh.>.pX| t 9X3X>.- > 9 w ;.aXaXaXaXaXaX",
"aXaXaXaXG 4 p p h  Xv + ; G @XW.W.pX9X6 k.W.v - , 4 w E aXaXaXaXaXaX",
"aXaXaXaX .2 M p 9 Q.N.8.>.B {.>.+ l.pXh.2 # # # 2 4 w M I.aXaXaXaXaX",
"aXaXaXaXM.e w p u 7.k.h. .W {.]   d T d o @ - t t N w w U.aXaXaXaXaX",
"aXaXaXaXaXd 8 p h > - % +   * ;   + + d N G | T N e w p k.aXaXaXaXaX",
"aXaXaXaXaXG 4 p M h F N +   t f ( R G ( ] | R G N 2 4 w ^ aXaXaXaXaX",
"aXaXaXaXaXG > p E u F N ( ( G ( ( R | | | | e - - 2 9 ^ e.aXaXaXaXaX",
"aXaXaXaXaXh.2 w ^ M R d G G f ( A j t ; X o 2 B V H z.D.j.}.aXaXaXaX",
"aXaXaXaXaXaXv 4 p w F - f ; ;     + f W m.XX(.z._ L ( k.N.}.aXaXaXaX",
"aXaXaXaXaXaXd h M M 9 - + 6 V Q 4.(.(.XXD.E.N.I.j. .>.q.W.].aXaXaXaX",
"aXaXaXaXaXaXA h ^ >..._ 4.z.$.4.e.N.W.9X9XpXeX[.e.}  .0.W.U.aXaXaXaX",
"aXaXaXaXaXaXW _ D.V.j.X.]  .0.N.N.j.e.) :.9X3X@XN.:. .0.U.W.aXaXaXaX",
"aXaXaXaXaXaXM.R k. XQ.k.0.e.j.h._ Q _ j.M.1X@Xj.} 9. .>.B.W.U.aXaXaX",
"aXaXaXaXaXaXaX( B.Q.W.h.9.0.>.9.9. .M.<.M.<.j.<.9.0.}  .N.W.W.aXaXaX",
"aXaXaXaXaXaXaX( k.U.B.k.,.L L K H H _ <.W.[.3X9X{.j. .] h.W.U.aXaXaX",
"aXaXaXaXaXaXaX .,.Q.Q.B.,.V L L :.j.{.9XpXpXpX0X{.M. .( 0.U.U.aXaXaX",
"aXaXaXaXaXaXaXM.] U.Q.B.q.>.0.0.d.I.{.1X{.{.pXpX@XN.:.( 0.N.h.M.aXaX",
"aXaXaXaXaXaXaXaXW B.Q.U.h.>.9.0.<.S _ w.4.b.M.P.E.U.9.( >.N.W.I.aXaX",
"aXaXaXaXaXaXaXaXW h.L.U.h.0.8.0.! S U O.@.A.b.b.i.M.0.}  .k.U.N.aXaX",
"aXaXaXaXaXaXaXaX} q.U.U.k.8.>.) ! S ! ..H { { b.{ M.j. . .h.U.U.aXaX",
"aXaXaXaXaXaXaXaX .| U.L.k.>.W U U ! 9.j.m.V.j.Q 9.{.M. .( 8.h.N.aXaX",
"aXaXaXaXaXaXaXaX0.( B.U.n.0.) S m H _ $.a.b.z.{.pX#XK.:.(  .N.U.].aX",
"aXaXaXaXaXaXaXaXaXT q.U.n.,.>.Q H ) ! ` @.' T.m.pX3XU.9.(  .k.U.].aX",
"aXaXaXaXaXaXaXaXaXW ,.U.B.0.>.>.9...U ! H @.b.m.pX9XW.0.( ] q.U.W.aX",
"aXaXaXaXaXaXaXaXaX( | B.B.q.>.>.>. .U S @.i.T.XXpX9X{.j.} ( -.B.U.aX",
"aXaXaXaXaXaXaXaXaX:.( B.N.q.>. .>.>._ ` O.i.T.@XpX9X@XM. .( >.[ ^ aX",
"aXaXaXaXaXaXaXaXaXj.T h.k.k.>. .:.>.0.<.w.m.@XpXpX9X#XK.( v N -.N.W.",
"aXaXaXaXaXaXaXaXaXaXK 0.k.k.,. . .>.9.h.U.@X9XpX1XN.*.R W ( ] 0.0.W.",
"aXaXaXaXaXaXaXaXaXaXL >.k.k.,. . . .9.9.0.>.>.0.N.].4XW.9.( ( >.8.N.",
"aXaXaXaXaXaXaXaXaXaXG G *.[ R N B A A W >.N.U.}.q.B.4X{.j.( G A W aX",
"aXaXaXaXaXaXaXaXaXaX} G *.7.,. . . .W T j.d.W.4XpXpX4XI.} A 5 n aXaX",
"aXaXaXaXaXaXaXaXaXaXaXA ,.k.0. .(  .:.9.h.U.@X9X3XW.:.K a 5 0 :.aXaX",
"aXaXaXaXaXaXaXaXaXaXaXG ( ,.| W G W } d.N.I.M.:.W A A n l A aXaXaXaX",
"aXaXaXaXaXaXaXaXaXaXaXaXK x A L ( :.:. .} } } ) ) W ( } aXaXaXaXaXaX",
"aXaXaXaXaXaXaXaXaXaXaXaXaXaXn r n A K W :.j.:.:.aXaXaXaXaXaXaXaXaXaX",
"aXaXaXaXaXaXaXaXaXaXaXaXaXaXaX .:.:.M.aXaXaXaXaXaXaXaXaXaXaXaXaXaXaX"
};
