/* XPM */
static char *_5aba84781df4cc2e2f7428a2f909d84Cf66VkBvNQFDM5Ex_9[] = {
/* columns rows colors chars-per-pixel */
"36 62 256 2 ",
"   c #03064C",
".  c #080826",
"X  c #0C1362",
"o  c #181866",
"O  c #1B1B47",
"+  c #181C57",
"@  c #172168",
"#  c #222667",
"$  c #202877",
"%  c #2A2963",
"&  c #2B2981",
"*  c #2B2B4A",
"=  c #283176",
"-  c #283269",
";  c #343565",
":  c #393537",
">  c #2A3786",
",  c #313979",
"<  c #3E3C4E",
"1  c #1D41A0",
"2  c #374279",
"3  c #1E438F",
"4  c #374A90",
"5  c #504C51",
"6  c #4B4D72",
"7  c #665137",
"8  c #38549E",
"9  c #495590",
"0  c #5E5866",
"q  c #685851",
"w  c #425A9F",
"e  c #585A84",
"r  c #5A5B5A",
"t  c #575E78",
"y  c #3D6491",
"u  c #556494",
"i  c #3865AC",
"p  c #4565A8",
"a  c #676668",
"s  c #776752",
"d  c #656889",
"f  c #696876",
"g  c #766966",
"h  c #636A9A",
"j  c #736B86",
"k  c #736B97",
"l  c #746B75",
"z  c #687399",
"x  c #6B736A",
"c  c #6B7376",
"v  c #6F7389",
"b  c #7C7568",
"n  c #767678",
"m  c #8C7659",
"M  c #6C78A9",
"N  c #767999",
"B  c #7A7B86",
"V  c #857B79",
"C  c #5A7DBA",
"Z  c #828479",
"A  c #848488",
"S  c #9B8458",
"D  c #7686AA",
"F  c #878AA9",
"G  c #8A8A97",
"H  c #938A71",
"J  c #838BB8",
"K  c #8D8C8B",
"L  c #948C96",
"P  c #948CAF",
"I  c #A98F34",
"U  c #AD8F58",
"Y  c #8C9482",
"T  c #8C9499",
"R  c #9194A8",
"E  c #8895B8",
"W  c #959598",
"Q  c #9A9781",
"!  c #AF9768",
"~  c #879AC8",
"^  c #979AB9",
"/  c #C79B53",
"(  c #9C9CA4",
")  c #A59C9D",
"_  c #A79C88",
"`  c #BE9C62",
"'  c #A1A275",
"]  c #9CA5AC",
"[  c #A1A5BF",
"{  c #A4A589",
"}  c #A5A5A4",
"|  c #A5A5B5",
" . c #A6A5AD",
".. c #ADA5A1",
"X. c #ADA5B5",
"o. c #BAA550",
"O. c #C8A763",
"+. c #96A8CB",
"@. c #B7A873",
"#. c #D1A957",
"$. c #CAAC72",
"%. c #A3ADD2",
"&. c #A4ADA1",
"*. c #A4ADBD",
"=. c #A5ADAD",
"-. c #A5ADB5",
";. c #A9ADC7",
":. c gray68",
">. c #ADADB5",
",. c #ADADBD",
"<. c #AEADA3",
"1. c #B5ADB7",
"2. c #D6AD73",
"3. c #D7AD64",
"4. c #B4B089",
"5. c #CCB232",
"6. c #ABB5A5",
"7. c #ACB5C9",
"8. c #ADB5BA",
"9. c gray71",
"0. c #B5B5BD",
"q. c #B6B5C7",
"w. c #B9B5A9",
"e. c #BDB5B5",
"r. c #DCB567",
"t. c #E9B55D",
"y. c #A6B7D8",
"u. c #CAB767",
"i. c #C8B87A",
"p. c #8DB9DA",
"a. c #DBB975",
"s. c #B4BDB3",
"d. c #B5BDBD",
"f. c #B5BDCE",
"g. c #BBBDD6",
"h. c #BCBDC6",
"j. c #BDBDBC",
"k. c #BDBDCE",
"l. c #C6BDC9",
"z. c #C7BD91",
"x. c #E7BD70",
"c. c #B2BFE1",
"v. c #DBC24A",
"b. c #C3C385",
"n. c #BDC6D2",
"m. c #C1C6A2",
"M. c #C5C6C6",
"N. c #C6C6CE",
"B. c #C6C6D7",
"V. c #CEC6C3",
"C. c #EDC678",
"Z. c #EDC769",
"A. c #D7C87A",
"S. c #F9CA69",
"D. c #D5CBAF",
"F. c #EFCB53",
"G. c #F6CD79",
"H. c #C5CEF1",
"J. c #C6CEC6",
"K. c #C6CECE",
"L. c #CDCEE7",
"P. c #CECEC6",
"I. c #CECECE",
"U. c #CECED9",
"Y. c #ECCF28",
"T. c #D6D08F",
"R. c #CDD6E8",
"E. c #CED6CE",
"W. c #D6D6DB",
"Q. c #D6D6E8",
"!. c #ECD769",
"~. c #FCD869",
"^. c #C6D9F9",
"/. c #E9D97C",
"(. c #EED9AF",
"). c #F8D98F",
"_. c #FEDA7D",
"`. c #E8DDD5",
"'. c #D6DED6",
"]. c #D6DEDE",
"[. c #DEDED5",
"{. c gray87",
"}. c #DEDEE7",
"|. c #DEDEF7",
" X c #DFDEEF",
".X c #E0DE95",
"XX c #E4E4AB",
"oX c #EBE689",
"OX c #DEE7DE",
"+X c #DEE7EE",
"@X c #E7E7E6",
"#X c #E7E7EF",
"$X c #E7E7F7",
"%X c #E7E7FF",
"&X c #EFE7E5",
"*X c #EFE7EF",
"=X c #ECEA98",
"-X c #FDEA78",
";X c #F5EBD1",
":X c #FEEB8A",
">X c #FDED98",
",X c #E6EFF7",
"<X c #E7EFE7",
"1X c #E7EFEF",
"2X c #E7EFFF",
"3X c #EFEFEE",
"4X c #EFEFF7",
"5X c #EFEFFF",
"6X c #F7EFFA",
"7X c #F6F69E",
"8X c #EFF7FA",
"9X c gray97",
"0X c #F7F7FF",
"qX c #FFF7F5",
"wX c #FFF7FF",
"eX c #F9F8EA",
"rX c #FEFA89",
"tX c #FFFB97",
"yX c #FEFCAA",
"uX c #F7FFFF",
"iX c #FFFFF5",
"pX c white",
"aX c None",
"sX c black",
"dX c black",
"fX c black",
"gX c black",
"hX c black",
"jX c black",
"kX c black",
"lX c black",
"zX c black",
"xX c black",
"cX c black",
"vX c black",
"bX c black",
"nX c black",
"mX c black",
"MX c black",
"NX c black",
"BX c black",
"VX c black",
"CX c black",
"ZX c black",
"AX c black",
"SX c black",
"DX c black",
"FX c black",
"GX c black",
"HX c black",
"JX c black",
"KX c black",
"LX c black",
"PX c black",
"IX c black",
"UX c black",
/* pixels */
"aXaXaXaXaXaXaXaXaXaXaXaXaXaXaX9.( U.].0.aXaXaXaXaXaXaXaXaXaXaXaXaXaXaXaX",
"aXaXaXaXaXaXaXaXaXaXaX3X9X@XM.K n >.h.0.aXaXaXaXaXaXaXaXaXaXaXaXaXaXaXaX",
"aXaXaXaXaXaXaXI.M.9.I.@X3XU.N.:.W T R  .U.aXaXaXaXaXaXaXaXaXaXaXaXaXaXaX",
"aXaXaXaX4Xj.M.j.>.j.W.@X}.N.0.( G G N ] ,.].aXaXaXaXaXaXaXaXaXaXaXaXaXaX",
"aXaX@X3XW.0.B.N.>. .0.h.N.{.q.| ( G G ( | h.}.aXaXaXaXaXaXaXaXaXaXaXaXaX",
"aXW >.@X9X4XU.q.| 8.| ,.N.U.B.h.0.:. .>.h.W.}.aXaXaXaXaXaXaXaXaXaXaXaXaX",
"aXj.0.Q.W.#XB.[ 0.| 0.N.}.1X4X3X@XI.0.>.0.U.}.#XaXaXaXaXaXaXaXaXaXaXaXaX",
"aXM.,.R.R.#XR.k.,.h.I.@X3X3XpX@XP.W.j.>.>.N.}.W.aXaXaXaXaXaXaXaXaXaXaXaX",
"aX,.B.Q. X1X4XU.N.U.{.}.9X@X} ) 4.j.h.>.>.N.Q.Q.aXaXaXaXaXaXaXaXaXaXaXaX",
"aX,.+XpXpX4XQ.U.U.U.W.@X9XI.Q { 4.A ) 9.>.h.W.}.aXaXaXaXaXaXaXaXaXaXaXaX",
"aXk.pXpX8X XU.U.U.U.W.}.4XN.4.{ { H  .0.:.0.U.}.].aXaXaXaXaXaXaXaXaXaXaX",
"aX0.4X}.0X XU.N.I.I.W.M.z.A.4.oXT.@.0.h.:.8.B.}.].aXaXaXaXaXaXaXaXaXaXaX",
"aXW #X9XuX$XW.B.N.I.U.w.a./.:XT.oX4.{.N.>.>.N.U.Q.aXaXaXaXaXaXaXaXaXaXaX",
"aX4.P.0X4XQ.L.:.h.I.N.I.( w.>Xb.7X.XU.I.] G h.U.W.].aXaXaXaXaXaXaXaXaXaX",
"aXw._ #XpX$Xq.! ..N.I.N.z.A.T..X.X>X9.0.m m | N.}.}.aXaXaXaXaXaXaXaXaXaX",
"aXaXV }.pX$X) $...N.h.....$.A.A.tXtX9._ ! m ] N.}.}.aXaXaXaXaXaXaXaXaXaX",
"aXaX_ W.9X9XU.$.2.w.:.O.x.a./.oX=XT.].z.! W >.k.W.U.aXaXaXaXaXaXaXaXaXaX",
"aXaX4.N.4X0X X@.2.C.@.r.O.x.@.i.4.0.9XN.` (  .0.U.}.}.aXaXaXaXaXaXaXaXaX",
"aXaXj.( 4XuX5XB...a.@.2.2.C._.:X=XN.pX@X:.H ( 8.U.Q.N.aXaXaXaXaXaXaXaXaX",
"aXaXaXQ $XuX5XQ.k._ $.S r.x.x.A.>Xz.9X9X}.W V G D p ;.aXaXaXaXaXaXaXaXaX",
"aXaXaXQ U.0X8XU.U.N.0.O.x.O.@./.:X>X<.k.R 6 - , 4 w *.aXaXaXaXaXaXaXaXaX",
"aXaXaX .0.4X#X<.4.<.$.C.2.2.H $.' 0 X o # 2 e 2 4 p h N.aXaXaXaXaXaXaXaX",
"aXaXaXh.( Q.}.D.a.a.a.x.2.5   + v t | @X,.N U.e > M M q.aXaXaXaXaXaXaXaX",
"aXaXaXaX:.Q.#Xh.z.H m 5 6 * G 3XpX| t 9X#Xd {.d , 9 p ^ aXaXaXaXaXaXaXaX",
"aXaXaXaX] ^ C p 9 2 - T W.>.B 9XpX9Xt | pX,.{.v , 4 w D aXaXaXaXaXaXaXaX",
"aXaXaXaXG > p p w B.| ( U.T A 3XN.uXU.# }.3X@Xv = 4 w w U.aXaXaXaXaXaXaX",
"aXaXaXaXaX2 w p 8 B.k.; h.0. .@X( W.9XG N 9X@XG - > 8 w q.aXaXaXaXaXaXaX",
"aXaXaXaXaXv w p w ^ U.% + j 0.{.].}.pX3X- N.] % - 2 4 w F aXaXaXaXaXaXaX",
"aXaXaXaXaXG 4 M p h #XR G W W @XR ; U.uX] @ # # - 2 9 w M W.aXaXaXaXaXaX",
"aXaXaXaXaX] 2 p p u  X].U. .( {.W   v v v o - d N d N w h U.aXaXaXaXaXaX",
"aXaXaXaXaXaXe w p u 9 e t ; 6 t 6   + + d G R | G N 2 8 w ;.aXaXaXaXaXaX",
"aXaXaXaXaXaXd 4 p p h k v +   ; t T R R ( | ,.R N d e 4 w R }.aXaXaXaXaX",
"aXaXaXaXaXaXR > p J u F v G T W ( ( G | ,.R N 2 # - t W D.D.}.aXaXaXaXaX",
"aXaXaXaXaXaX0.2 w +.9 R d R G t ] G t t % X 2 A _ _ Q _ 0.k.{.aXaXaXaXaX",
"aXaXaXaXaXaXaXe 8 M M P 2 v 6 f *   + j ..D.7X(.w. .(  .h.U.W.aXaXaXaXaX",
"aXaXaXaXaXaXaXG 9 M D M = + + 6 V _ T.(.D.P.W.{.@XM.:.} 0.B.W.#XaXaXaXaX",
"aXaXaXaXaXaXaXG 2 w M M A Q i.z.4.w.M.W.4X#X9XqX`.V.9. .8.B.W.W.aXaXaXaX",
"aXaXaXaXaXaXaXI.V D.(.(...)  . .h.M.M.e.{ Q @X9X3XM.0. .>.k.W.U.aXaXaXaX",
"aXaXaXaXaXaXaXaXA 0.B.B.B.h.0.j.h.<._ _ M.I.I.3X..) :. . .0.U.U.aXaXaXaX",
"aXaXaXaXaXaXaXaX .q.U.Q.N.9.9.e.>.j.:.:.<.M.) e.P.M.N.>.( 0.U.U.{.aXaXaX",
"aXaXaXaXaXaXaXaX9.| Q.B.n.h. .W L H H H w.U.@X0XpX3XI.9.( | k.W.{.aXaXaX",
"aXaXaXaXaXaXaXaXh.W B.Q.U.k.L V W W 9.I.#X0XpXpXpX9XW.d.}  .h.N.N.aXaXaX",
"aXaXaXaXaXaXaXaXaX .k.Q.L.k.| >.0.9.M.I.}.{.j.W.pX9X{.h. .( 0.U.N.aXaXaX",
"aXaXaXaXaXaXaXaXaX .,.Q.Q.n.0.>.9.d._ S 4.@.A.b.w.z.e.K.>.( 8.B.W.I.aXaX",
"aXaXaXaXaXaXaXaXaX9.( U.Q.B.q.,.9.>.U S ` $.@.b.b.b.@.N.9. . .N.U.N.aXaX",
"aXaXaXaXaXaXaXaXaXaX( k.U.B.q.,.>.) U U ! w.Q 9.{ { { W.d.}  .0.N.N.aXaX",
"aXaXaXaXaXaXaXaXaXaX( q.L.U.k.>.W U U _ j.m.T.m.j.V.@X}.M. .( >.B.U.aXaX",
"aXaXaXaXaXaXaXaXaXaX .| B.U.k.0.) m S Q ! $.i.b.z.[.pX#XI.:.(  .N.U.}.aX",
"aXaXaXaXaXaXaXaXaXaXM.W q.U.n.,. .Q H ) U ! ! ' T.m.pX4XW.9.(  .h.U.W.aX",
"aXaXaXaXaXaXaXaXaXaXaXW q.U.B.0.>.>.9...U U H @.b.T.pX9X{.j.( ( >.B.U.aX",
"aXaXaXaXaXaXaXaXaXaXaX( | B.B.q.>.:.>.:.U U ` i..XD.pX9X@XM. .( >.q.R aX",
"aXaXaXaXaXaXaXaXaXaXaX:.R n.B.q.>. .>.>...` ` i.z.3XpX9X@XI.>.G N R N.U.",
"aXaXaXaXaXaXaXaXaXaXaXM.W q.h.k.,. .=.>.9.9.e.P.4XpXpXpX}. .N G ( 8.0.U.",
"aXaXaXaXaXaXaXaXaXaXaXaXW ,.n.k.,. . .>.9.j.I.}.4X}.h.| k.U.0.( ( >.q.h.",
"aXaXaXaXaXaXaXaXaXaXaXaX( ] k.n.0. . . .>.:.( ( >.U.}.U.3X}.M.} W W K aX",
"aXaXaXaXaXaXaXaXaXaXaXaX} G q.f.| G B A A ( 0.I.q.U.W.@X9X@Xh.( l 5 :.aX",
"aXaXaXaXaXaXaXaXaXaXaXaXaXj F [ | ]  . .( W  .h.W.9XpX0X@Xj.K a < Z aXaX",
"aXaXaXaXaXaXaXaXaXaXaXaXaXK | k.q.| ] }  .>.0.M.{.@XW.9.K n x r K aXaXaX",
"aXaXaXaXaXaXaXaXaXaXaXaXaXW T 0.,.] G G ( 9.M.M.e.( L K K K W aXaXaXaXaX",
"aXaXaXaXaXaXaXaXaXaXaXaXaXaXK n n A W }  .} } }  .} } } 9.aXaXaXaXaXaXaX",
"aXaXaXaXaXaXaXaXaXaXaXaXaXaXaXaX) r a n A K :.0.9.aXaXaXaXaXaXaXaXaXaXaX",
"aXaXaXaXaXaXaXaXaXaXaXaXaXaXaXaXaXaX} :.M.aXaXaXaXaXaXaXaXaXaXaXaXaXaXaX"
};
