/* XPM */
static char *_77941ad851849d9a14b3aabdedf9675jm9We3XNlYlIcvEW_11[] = {
/* columns rows colors chars-per-pixel */
"64 64 256 2 ",
"   c None",
".  c #66493A",
"X  c #7D4E3E",
"o  c #754C39",
"O  c #634D45",
"+  c #6C4D43",
"@  c #7A4F41",
"#  c #6E5247",
"$  c #6E564C",
"%  c #66564C",
"&  c #725245",
"*  c #78584A",
"=  c #715C52",
"-  c #7D5C51",
";  c #7E6053",
":  c #74665A",
">  c #666256",
",  c #7B766B",
"<  c #BA6A17",
"1  c #824E3C",
"2  c #8D4F3C",
"3  c #914E3D",
"4  c #855139",
"5  c #8A513A",
"6  c #9C5A36",
"7  c #95543B",
"8  c #995639",
"9  c #95583F",
"0  c #9D593C",
"q  c #985637",
"w  c #975529",
"e  c #A55C35",
"r  c #A35D3D",
"t  c #AE5D30",
"y  c #B45F2D",
"u  c #86673C",
"i  c #BA6A2F",
"p  c #B7662B",
"a  c #AB6233",
"s  c #A8633B",
"d  c #B56935",
"f  c #BE7238",
"g  c #BE702F",
"h  c #CC761C",
"j  c #D37C19",
"k  c #CA762C",
"l  c #C87527",
"z  c #D47C23",
"x  c #D17B29",
"c  c #C77737",
"v  c #C9732F",
"b  c #835542",
"n  c #8C5B4C",
"m  c #895B45",
"M  c #935942",
"N  c #9B5B41",
"B  c #975A47",
"V  c #905E50",
"C  c #A15D41",
"Z  c #A15F4C",
"A  c #866349",
"S  c #8A644B",
"D  c #896548",
"F  c #956648",
"G  c #9A7549",
"H  c #826454",
"J  c #8A6A59",
"K  c #916452",
"L  c #976C56",
"P  c #987358",
"I  c #A66547",
"U  c #B26D46",
"Y  c #BA7345",
"T  c #A36952",
"R  c #A26250",
"E  c #B26F51",
"W  c #A47559",
"Q  c #A6795D",
"!  c #A67759",
"~  c #B57454",
"^  c #B77A58",
"/  c #A2784A",
"(  c #8F7363",
")  c #9A7764",
"_  c #947C71",
"`  c #A37C64",
"'  c #A87964",
"]  c #B37F64",
"[  c #C57A44",
"{  c #C97A40",
"}  c #C17C53",
"|  c #7E8376",
" . c #DD841C",
".. c #DB8314",
"X. c #DC8105",
"o. c #E58A0A",
"O. c #ED9109",
"+. c #F49602",
"@. c #F69801",
"#. c #F99A01",
"$. c #F29509",
"%. c #E48A14",
"&. c #ED9217",
"*. c #F59A13",
"=. c #FDA000",
"-. c #DD8527",
";. c #E58C23",
":. c #A98553",
">. c #B1895A",
",. c #8A8779",
"<. c #9B8578",
"1. c #A68469",
"2. c #AA866A",
"3. c #AE896C",
"4. c #A68265",
"5. c #B4896C",
"6. c #B3966A",
"7. c #B8986A",
"8. c #AE8B72",
"9. c #A4897A",
"0. c #B08D72",
"q. c #B59375",
"w. c #B99677",
"e. c #BD9A79",
"r. c #B89678",
"t. c #AF937F",
"y. c #C7845A",
"u. c #D48E52",
"i. c #C09B69",
"p. c #C19B79",
"a. c #D19168",
"s. c #C6A366",
"d. c #C5A37A",
"f. c #C9A675",
"g. c #D0AC78",
"h. c #D1AF77",
"j. c #D5B37A",
"k. c #DCB77A",
"l. c #E3A17A",
"z. c #9B988C",
"x. c #968C80",
"c. c #A7988B",
"v. c #BE9D83",
"b. c #B59886",
"n. c #A6968B",
"m. c #BDA386",
"M. c #ADA497",
"N. c #BDA296",
"B. c #B8AA97",
"V. c #BAADA2",
"C. c #BAB1AB",
"Z. c #C3A484",
"A. c #CCAB85",
"S. c #CCAE8B",
"D. c #C8A588",
"F. c #CEB28A",
"G. c #D2B38A",
"H. c #D6B686",
"J. c #C4AC9B",
"K. c #C8AA94",
"L. c #D6AE99",
"P. c #CAB59B",
"I. c #D1B695",
"U. c #D3BB9C",
"Y. c #D8BB98",
"T. c #D8AE8D",
"R. c #E0BC83",
"E. c #CEB9A6",
"W. c #CAB6A6",
"Q. c #DABCA2",
"!. c #D2BCAC",
"~. c #D2B6A6",
"^. c #C7BCB5",
"/. c #D6BEB4",
"(. c #D9C19B",
"). c #E6C387",
"_. c #ECC88B",
"`. c #E6C488",
"'. c #EECC92",
"]. c #E1C598",
"[. c #F2D399",
"{. c #F0D098",
"}. c #DBC4A3",
"|. c #DBC5A9",
" X c #CBC4B9",
".X c #DCCBBC",
"XX c #D7C5B7",
"oX c #E6CCA6",
"OX c #E8D3AC",
"+X c #F1D6A4",
"@X c #F6DBAA",
"#X c #E8D4B6",
"$X c #F4DDB7",
"%X c #E4CBB8",
"&X c #F2E1BC",
"*X c #FAE3BB",
"=X c #FAE0B5",
"-X c #CBC6C5",
";X c #DBCEC4",
":X c #D3CCC7",
">X c #DCD2CA",
",X c #DDD0C6",
"<X c #DAD7D5",
"1X c #E2D6CA",
"2X c #E9DAC9",
"3X c #E5DED9",
"4X c #F6DFC2",
"5X c #F9E6C6",
"6X c #F3E5CB",
"7X c #F9E7C8",
"8X c #F9E8CC",
"9X c #F3E3C5",
"0X c #ECE2DA",
"qX c #E8E2D9",
"wX c #FAECD6",
"eX c #FAEBD3",
"rX c #FBEDD9",
"tX c #F1E7DB",
"yX c #FEF1DB",
"uX c #EDECEB",
"iX c #E9E6E3",
"pX c #F6EDE2",
"aX c #F8EFE4",
"sX c #FAF2E7",
"dX c #FCF1E0",
"fX c #F7F3ED",
"gX c #EEEEF1",
"hX c #F3F4F6",
"jX c #F5F6F8",
"kX c #F7F8F9",
"lX c gray98",
"zX c #FBF6F3",
"xX c #EEF0F5",
"cX c black",
"vX c black",
"bX c black",
"nX c black",
"mX c black",
"MX c black",
"NX c black",
"BX c black",
"VX c black",
"CX c black",
"ZX c black",
"AX c black",
"SX c black",
"DX c black",
"FX c black",
"GX c black",
"HX c black",
"JX c black",
"KX c black",
"LX c black",
"PX c black",
"IX c black",
"UX c black",
/* pixels */
"                                                                                                                                ",
"                                                                                                                                ",
"                                              zXzX                                                                              ",
"                    sXsXsXpXpXpXwXeXeXeXwXwXwXrXyXyXyXyXyXyXdXsXsXsXsXsXfXzX                                                    ",
"              sXsXpXrXrXwX8X7X7X*X*X*X*X5X7X8XeXrXyXyXrXwX8XeXrXrXrXwXwXrXwXwXrXpX                                              ",
"        sXpX0X6X6XwXrXeX7X7X7X8X7X7X7X7X7X8XwXrXyXyXpXaXsXsXdXyXyXrXeX8X7X5X&X&X9X0XpXsX                                        ",
"        6X6X9X9X6XwXwXeX7X7X7X8XeXwXwXwXwXwXwXrXyXyXrXwXrXyXrXwXwX8X5X5X5X*X$X$X$X$X2XtXsX                                      ",
"      9X&X&X4X9X6XeX8X7X7X7X7X7X7XeXwXwXwXeXwXwXwXwXwXwXwXwX8X5X*X*X*X*X=X@X+X[.[.oXoX#X0X                                      ",
"    0XOXOX$X&X&X&X&X4X9X7X5X5X5X5X5X5X5X5X*X*X*X*X*X*X*X*X$X@X@X@X@X+X[.{.'.'.'._._.].oX%X                                      ",
"  qX2X|.oXOX$X$X&X&X$X$X$X@X@X@X@X@X+X+X+X+X+X+X+X[.+X+X[.[.{.'.'.'.'._._.`.).).).).R.Y.|.2X0X                                  ",
"  3X2X|.}.oXoXOXOX$X$XOXoX[.{.'._._._._.`.).).).).).).).).).R.R.R.R.R.R.R.k.k.k.j.G.G.G.U.1X3X                                  ",
"  qX1XU.U.(.}.}.}.}.(.Y.Y.H.k.k.j.j.j.j.j.j.h.h.h.j.j.j.j.h.g.g.h.h.h.h.h.g.g.f.d.d.Z.S.U.;X1X                                  ",
"    1XU.I.U.Q.S.D.A.G.F.A.d.d.d.i.i.i.e.i.i.e.w.w.w.w.w.w.w.w.w.w.w.w.w.w.w.w.w.w.w.w.m.P.>X3X                                  ",
"      E.U.I.I.S.m.r.Z.e.q.w.w.q.q.q.0.0.3.3.3.2.1.2.3.3.3.0.q.q.0.0.0.q.q.q.q.q.w.w.v.K.E.                                      ",
"      |.U.I.U.I.I.S.D.Z.v.e.w.q.q.0.3.3.2.1.1.1.1.1.1.1.2.3.2.1.1.2.3.3.3.3.0.q.r.v.Z.K.E.                                      ",
"      %X}.Y.Q.Q.Q.U.S.Z.v.w.w.w.w.q.0.3.2.1.1.1.4.` 1.1.1.1.1.1.1.4.` 1.2.3.0.q.r.v.K.J.E.                                      ",
"      3X%XQ.Q.Q.Q.I.F.Z.p.w.w.w.q.q.0.3.2.1.1.1.1.1.1.1.1.1.1.1.1.1.1.1.2.3.0.0.r.v.K.J.E.                                      ",
"      <X.X}.(.Y.Y.I.F.A.d.p.w.w.q.q.0.0.3.3.3.2.1.1.1.1.1.3.3.3.2.2.3.3.2.2.8.0.q.b.b.J.!.0XhX                                  ",
"      3X!.K.Y.G.G.F.F.A.d.p.w.w.q.q.q.0.3.3.3.3.2.1.3.3.3.3.3.3.3.3.3.0.0.0.0.0.0.q.v.K.!.qXuX                                  ",
"      0XP.q.v.D.A.A.A.A.d.d.p.w.w.w.q.q.q.q.0.3.3.3.3.3.3.8.0.0.0.0.0.0.0.0.q.q.q.q.e.K.!.2X0X                                  ",
"      0XW.8.Q 3.w.d.d.p.w.w.w.w.w.w.w.q.q.q.q.0.0.0.0.0.0.0.0.0.0.0.0.0.q.q.q.q.q.q.v.m.J.XX;X                                  ",
"      iX!.q.! W Q 3.q.q.q.0.3.3.3.0.q.q.q.q.q.q.q.0.q.q.q.q.q.q.q.q.q.q.q.q.q.w.w.w.v.v.Z.I.|.2X      hXlXlXlX                  ",
"        Z.r.! W W ! 2.2.` L K V V V K P ) 2.8.8.8.0.q.q.q.q.q.q.q.q.w.w.w.w.w.w.e.v.v.v.p.A.Y.}.P.W.-X3XuXkXkXlXlX              ",
"        N.b.Q W W W W P F m b b b 4 1 b b m K P ` 1.2.3.0.q.q.q.q.w.w.p.w.w.w.w.e.v.Z.Z.Z.F.G.S.Z.B.^.<XuXhXhXkXlXlX            ",
"        J.b.Q W W W W L F 7 2 4 4 4 4 4 1 1 b S L P P P ) ` 2.0.q.w.w.w.w.w.w.v.v.Z.A.A.A.G.G.L.XX          hXhXkXkXkXkX        ",
"        J.b.Q W Q ^ W F M M 7 3 4 4 4 4 4 1 1 b m n A A n K L ` ` 2.0.q.w.w.w.v.v.Z.A.A.S.(.%X2X              gXhXhXkXlXlX      ",
"        N.b.] ~ ~ ~ ~ I C 8 7 3 3 2 4 b 4 4 4 1 1 2 b b 1 b m F M F W 3.q.w.w.w.e.Z.A.F.U.#X2X                    gXhXkXkX      ",
"        N.b.] ~ E E E I r 8 6 8 7 7 3 2 5 4 1 1 1 3 5 1 1 4 4 b 4 2 M T ' 0.q.w.p.Z.A.F.U.1XqX                    xXhXkXkXlX    ",
"        N.v.^ ~ ~ ~ ~ U e r 0 8 8 7 2 5 4 4 4 2 7 8 5 4 4 2 3 2 4 2 7 C T Q 0.w.p.Z.A.I.|.tXaX                    hXxXhXhXhXkX  ",
"        N.v.^ ~ ~ ~ ~ U a e r r r 0 q q 7 3 3 7 6 e 6 8 9 8 7 M 7 2 5 8 r T 4.0.r.Z.A.U..X                          hXhXhXhXkXkX",
"        J.v.^ Y Y ~ ~ U a e e e e e e r 0 q 6 6 a i a e 8 r N 9 8 7 9 8 0 I ` 2.r.v.A.U.%X                          xXhXhXhXhXhX",
"        L.D.y.[ [ Y ~ U a a a a a a e e a a e t v -.v a r C 0 8 9 N r r I I T ` 3.w.Z.}.2X                          hXhXhXhXhXhX",
"        L.D.y.[ [ Y Y d y y p i i i i g i i a i z  .l i e 6 7 7 M 7 8 9 B R I T Q 0.J.!.                            hXhXhXhXhXhX",
"        ~.D.y.[ { { Y d p y p l l l x z z l k x  .%. .l e 6 8 M M 7 8 d d f x c ^ 0.E..X                          kXkXhXhXhXkXkX",
"        ~.K.y.[ c c c g g p h j %. .-.-. . .-.;.&.+.o.l e 6 7 9 8 M V Z C I I I ' b.J.!.                          kXkXhXhXhXkXkX",
"        XXL.y.c v k l l k v z %.+.@.@.@.+.+.+.+.+.+.+...a 6 7 M M N I N B Z R Z ' v.P.!.                          kXkXhXhXkXlXlX",
"        |.T.u.k l k l l z x  .+.@.#.=.#.@.+.+.+.+.@.@.o.p s N M M M N C Z R T L ' v.P.!.                      lXlXkXhXhXhXlXlX  ",
"        XXL.u.v l z z j %.-.;.&.#.#.#.#.@.+.+.+.+.+.@.O...h p e r N N C Z R T T ] Z.~./.                      kXkXkXhXkXkXlXlX  ",
"        .XY.u.x z z z %.+.+.+.+.#.#.@.@.@.+.+.+.+.@.@.@.@.+.%.x f I C C I I T L ' v.!..X                    kXkXkXkXkXhXhXhX    ",
"        XXL.y.k h z z -.&.@.@.@.#.#.@.@.+.+.+.+.+.@.@.@.@.@.O.j d 0 M F F F K K ` v.~.XX                kXkXhXkXkXkXkXhXgX      ",
"         XJ.y.k h z z  .%.+.@.@.#.@.@.@.@.+.+.@.+.+.@.+.O. .c r 8 5 b n n n A S ) b.W. X              gXhXkXkXkXkXkXhXuXuX      ",
"         XW.y.k l k l j %.+.@.@.@.#.@.@.@.@.@.+.+.@.+.%.k e 7 M n m b - - - - ; P 0.W.>XuX      <X3XuXhXkXkXkXkXkXhXiX<X        ",
"        -X~.y.c e 4 w < X.+.@.@.@.@.@.@.@.@.+.@.@.+.o.< 6 9 m b - * # - - - - ; P r.W.:X:X^.:XuXhXlXlXkXlXlXkXhXuX<X            ",
"        .XQ.a.I o . o 6 x O.@.+.&.O.@.@.@.@.@.@.@.O.l 6 4 b @ # # # # # $ = - - ( b.;XuXfXqXuXlXlXlXlXlXlXlXhXiX<X              ",
"        >X/.p.S . . * s x O.#.#.@.@.@.@.@.@.@.#.O.z e 2 X & + + + + # # $ = - ; ( b.>XhXlXlXlXlXlXlXlXkXhXiX<X                  ",
"        :XC.<.: % O . q l o.#.=.=.#.#.@.@.#.@.@.j w 4 @ # + + + + + + # = = - ; ( b.>XhXlXlXlXlXlXlXhXiX<X-X                    ",
"        -XC.<.J ; = - m d -.*.=.=.=.=.#.@.#.@. .d 4 & # + + O O + + + # $ = - ; J 9.:XhXlXlXhXuXiXqX<X<X                        ",
"        :XC.,.) L T K B s l  .%.O.+.+.+.O.O.%.p 5 o . O O O O O O O O # $ = - H J 9. XuXkXuX<X^.-X                              ",
"        >X/.b.) W ~ E U a i i i a e s r 6 6 9 5 X + O O O O O O O O O # $ = H W 5.p.W.3XuX,XXX:X                                ",
"        2X%XD.5.^ } f f Y U s C B m b 1 X o & + + + + + + + + # & * - b m K T ~ a.l.Y. X X                                      ",
"        qX;XD.5.^ Y E U U U I I C C N M M M n M M M M M M M M M N I I s s U Y [ a.T..X>X                                        ",
"        qX;XB.,., : = = = # & # - b @ & # & @ 1 1 X & & & & & & @ b b b m S L ) t.J..X1X                                        ",
"        3X1XW.c.,., : > > % O O O + + + + + & * m b b b X X & # - A S K L _ c.b.d.G.%X2X                                        ",
"        3X:XM.c.z.z.M.b.1.L F F A A A D F m & * A A A A A S A S / >.d.F.U.S.7.i.f.S.1XqX                                        ",
"        3X-Xn.,.| | ,.z.B.B.B.B.b.8.) S S D u u D S P 4.6.e.D.I.P.P.m.7.6.6.6.6.e.J.,XqX                                        ",
"            V.z.| , , ,.x.z.n.c.M.C.!.E.}.(.(.|.|.}.(.}.U.D.d.7.7.6.6.6.6.6.6.r.m.P.1XtX                                        ",
"            3X>X.X XXXXXXXXX|.(.(.(.(.(.(.Y.H.j.j.k.k.j.f.s.s.s.s.s.s.s.f.f.g.A.U.XX                                            ",
"              >XW.8.8.5.>.Q Q ! G P L P ! :.:.:.:.:./ / G F F F F G G G P P 6.Z.|.qX                                            ",
"                  V.b.9.( J H H A A ; H ; - - H H A A S K K S A A A S L P 1.N.                                                  ",
"                    ,X XV.b.<._ J : : : = = = = = = = = = ; J L ( _ 9.B. X;X                                                    ",
"                               XC.V.B.M.z.x.<.<.9.9.<.9.n.b.N.V.^.1XtX                                                          ",
"                                              qX0XtX                                                                            ",
"                                                                                                                                ",
"                                                                                                                                "
};
