/* XPM */
static char *_5aba84781df4cc2e2f7428a2f909d84Cf66VkBvNQFDM5Ex_0[] = {
/* columns rows colors chars-per-pixel */
"64 64 256 2 ",
"   c #03064C",
".  c #080826",
"X  c #0C1362",
"o  c #181866",
"O  c #1B1B47",
"+  c #181C57",
"@  c #172168",
"#  c #222667",
"$  c #202877",
"%  c #2A2963",
"&  c #2B2981",
"*  c #2B2B4A",
"=  c #283176",
"-  c #283269",
";  c #343565",
":  c #393537",
">  c #2A3786",
",  c #313979",
"<  c #3E3C4E",
"1  c #1D41A0",
"2  c #374279",
"3  c #1E438F",
"4  c #374A90",
"5  c #504C51",
"6  c #4B4D72",
"7  c #665137",
"8  c #38549E",
"9  c #495590",
"0  c #5E5866",
"q  c #685851",
"w  c #425A9F",
"e  c #585A84",
"r  c #5A5B5A",
"t  c #575E78",
"y  c #3D6491",
"u  c #556494",
"i  c #3865AC",
"p  c #4565A8",
"a  c #676668",
"s  c #776752",
"d  c #656889",
"f  c #696876",
"g  c #766966",
"h  c #636A9A",
"j  c #736B86",
"k  c #736B97",
"l  c #746B75",
"z  c #687399",
"x  c #6B736A",
"c  c #6B7376",
"v  c #6F7389",
"b  c #7C7568",
"n  c #767678",
"m  c #8C7659",
"M  c #6C78A9",
"N  c #767999",
"B  c #7A7B86",
"V  c #857B79",
"C  c #5A7DBA",
"Z  c #828479",
"A  c #848488",
"S  c #9B8458",
"D  c #7686AA",
"F  c #878AA9",
"G  c #8A8A97",
"H  c #938A71",
"J  c #838BB8",
"K  c #8D8C8B",
"L  c #948C96",
"P  c #948CAF",
"I  c #A98F34",
"U  c #AD8F58",
"Y  c #8C9482",
"T  c #8C9499",
"R  c #9194A8",
"E  c #8895B8",
"W  c #959598",
"Q  c #9A9781",
"!  c #AF9768",
"~  c #879AC8",
"^  c #979AB9",
"/  c #C79B53",
"(  c #9C9CA4",
")  c #A59C9D",
"_  c #A79C88",
"`  c #BE9C62",
"'  c #A1A275",
"]  c #9CA5AC",
"[  c #A1A5BF",
"{  c #A4A589",
"}  c #A5A5A4",
"|  c #A5A5B5",
" . c #A6A5AD",
".. c #ADA5A1",
"X. c #ADA5B5",
"o. c #BAA550",
"O. c #C8A763",
"+. c #96A8CB",
"@. c #B7A873",
"#. c #D1A957",
"$. c #CAAC72",
"%. c #A3ADD2",
"&. c #A4ADA1",
"*. c #A4ADBD",
"=. c #A5ADAD",
"-. c #A5ADB5",
";. c #A9ADC7",
":. c gray68",
">. c #ADADB5",
",. c #ADADBD",
"<. c #AEADA3",
"1. c #B5ADB7",
"2. c #D6AD73",
"3. c #D7AD64",
"4. c #B4B089",
"5. c #CCB232",
"6. c #ABB5A5",
"7. c #ACB5C9",
"8. c #ADB5BA",
"9. c gray71",
"0. c #B5B5BD",
"q. c #B6B5C7",
"w. c #B9B5A9",
"e. c #BDB5B5",
"r. c #DCB567",
"t. c #E9B55D",
"y. c #A6B7D8",
"u. c #CAB767",
"i. c #C8B87A",
"p. c #8DB9DA",
"a. c #DBB975",
"s. c #B4BDB3",
"d. c #B5BDBD",
"f. c #B5BDCE",
"g. c #BBBDD6",
"h. c #BCBDC6",
"j. c #BDBDBC",
"k. c #BDBDCE",
"l. c #C6BDC9",
"z. c #C7BD91",
"x. c #E7BD70",
"c. c #B2BFE1",
"v. c #DBC24A",
"b. c #C3C385",
"n. c #BDC6D2",
"m. c #C1C6A2",
"M. c #C5C6C6",
"N. c #C6C6CE",
"B. c #C6C6D7",
"V. c #CEC6C3",
"C. c #EDC678",
"Z. c #EDC769",
"A. c #D7C87A",
"S. c #F9CA69",
"D. c #D5CBAF",
"F. c #EFCB53",
"G. c #F6CD79",
"H. c #C5CEF1",
"J. c #C6CEC6",
"K. c #C6CECE",
"L. c #CDCEE7",
"P. c #CECEC6",
"I. c #CECECE",
"U. c #CECED9",
"Y. c #ECCF28",
"T. c #D6D08F",
"R. c #CDD6E8",
"E. c #CED6CE",
"W. c #D6D6DB",
"Q. c #D6D6E8",
"!. c #ECD769",
"~. c #FCD869",
"^. c #C6D9F9",
"/. c #E9D97C",
"(. c #EED9AF",
"). c #F8D98F",
"_. c #FEDA7D",
"`. c #E8DDD5",
"'. c #D6DED6",
"]. c #D6DEDE",
"[. c #DEDED5",
"{. c gray87",
"}. c #DEDEE7",
"|. c #DEDEF7",
" X c #DFDEEF",
".X c #E0DE95",
"XX c #E4E4AB",
"oX c #EBE689",
"OX c #DEE7DE",
"+X c #DEE7EE",
"@X c #E7E7E6",
"#X c #E7E7EF",
"$X c #E7E7F7",
"%X c #E7E7FF",
"&X c #EFE7E5",
"*X c #EFE7EF",
"=X c #ECEA98",
"-X c #FDEA78",
";X c #F5EBD1",
":X c #FEEB8A",
">X c #FDED98",
",X c #E6EFF7",
"<X c #E7EFE7",
"1X c #E7EFEF",
"2X c #E7EFFF",
"3X c #EFEFEE",
"4X c #EFEFF7",
"5X c #EFEFFF",
"6X c #F7EFFA",
"7X c #F6F69E",
"8X c #EFF7FA",
"9X c gray97",
"0X c #F7F7FF",
"qX c #FFF7F5",
"wX c #FFF7FF",
"eX c #F9F8EA",
"rX c #FEFA89",
"tX c #FFFB97",
"yX c #FEFCAA",
"uX c #F7FFFF",
"iX c #FFFFF5",
"pX c white",
"aX c None",
"sX c black",
"dX c black",
"fX c black",
"gX c black",
"hX c black",
"jX c black",
"kX c black",
"lX c black",
"zX c black",
"xX c black",
"cX c black",
"vX c black",
"bX c black",
"nX c black",
"mX c black",
"MX c black",
"NX c black",
"BX c black",
"VX c black",
"CX c black",
"ZX c black",
"AX c black",
"SX c black",
"DX c black",
"FX c black",
"GX c black",
"HX c black",
"JX c black",
"KX c black",
"LX c black",
"PX c black",
"IX c black",
"UX c black",
/* pixels */
"aXaXaXaXaXaXaXaXaXaXaXaXaXaXaXaXaXaXaXaXaXaXaXaXaXaXaXaXaXaXaXaXaXaXaXaXaXaXaXaXaXaXaXaXaXaXaXaXaXaXaXaXaXaXaXaXaXaXaXaXaXaXaXaX",
"aXaXaXaXaXaXaXaXaXaXaXaXaXaXaXaXaXaXaXaXaXaXaXaXaXaXaXaXaXaX( N.9X9X3XaXaXaXaXaXaXaXaXaXaXaXaXaXaXaXaXaXaXaXaXaXaXaXaXaXaXaXaXaX",
"aXaXaXaXaXaXaXaXaXaXaXaXaXaXaXaXaXaXaXaXaXaXaXaXaXaXaXaXaXaX( U.{.W.( :.W.W.M.aXaXaXaXaXaXaXaXaXaXaXaXaXaXaXaXaXaXaXaXaXaXaXaXaX",
"aXaXaXaXaXaXaXaXaXaXaXaXaXaXaXaXaXaXaXaXaXaXaXaXaXaXaXaXaXM.| R.#X4X4XU.>.>. .M.@X9X3XaXaXaXaXaXaXaXaXaXaXaXaXaXaXaXaXaXaXaXaXaX",
"aXaXaXaXaXaXaXaXaXaXaXaXaXaXaXaXaXaXaXaXaXaXaXaXaXaXaXaXN.|  XL.Q.}.B.k.| >.M.{.#X3X{.I.9.:.aXaXaXaXaXaXaXaXaXaXaXaXaXaXaXaXaXaX",
"aXaXaXaXaXaXaXaXaXaXaXaXaXaXaXaXaXaXaXaXaXaXaXaXaXaXaXN.0.Q.}.}.+X}.g.*.8. .>.h.N.@XI.M.W a h.{.aXaXaXaXaXaXaXaXaXaXaXaXaXaXaXaX",
"aXaXaXaXaXaXaXaXaXaXaXaXaXaXaXaXaXaXaXaXaXaXaXaXaXaXaXh.4XpXpXpX9X#Xg.,.| -.,.,.W.N.0.( W ( ,.l.>.aXaXaXaXaXaXaXaXaXaXaXaXaXaXaX",
"aXaXaXaXaXaXaXaXaXaXaXaXaXaXaXaXaXaXaXaXaXaXaXaXaXaXe.k.4X4X0X#X}.W.B.h.h.h.k.U.U.W.,.R G A R 0.I.aXaXaXaXaXaXaXaXaXaXaXaXaXaXaX",
"aXaXaXaXaXaXaXaXaXaXaXaXaXaXaXaXaXaXaXaXaXaXaXaXaXaX4.U.4X4X5XQ.U.I.I.U.W.{.#X3X1XW.h.] T G F ] W.aXaXaXaXaXaXaXaXaXaXaXaXaXaXaX",
"aXaXaXaXaXaXaXaXaXaXaXaXaXaXaXaXaXaXaXaXaXaXaXaXaXaXH @XpX0X$XW.N.I.U.U.].}.9X9X9X9X@XM.( G R ,.q.aXaXaXaXaXaXaXaXaXaXaXaXaXaXaX",
"aXaXaXaXaXaXaXaXaXaXaXaXaXaXaXaXaXaXaXaXaXaXaXaXaXV.H }.pX}.Q.U.K.I.U.W.{.3X9XP.P.}.#XW.j. .>.0.N.aXaXaXaXaXaXaXaXaXaXaXaXaXaXaX",
"aXaXaXaXaXaXaXaXaXaXaXaXaXaXaXaXaXaXaXaXaXaXaXaXaX<.w.4X0X#XN.>.N.I.I.W.W.4X}.Q K 4.w.U.0.>.0.U.W.aXaXaXaXaXaXaXaXaXaXaXaXaXaXaX",
"aXaXaXaXaXaXaXaXaXaXaXaXaXaXaXaXaXaXaXaXaXaXaXaXaX4.I.9X0XN._ @.0.I.U.j.2.A.4.{ b.4.) M.9.>.h.W.}.aXaXaXaXaXaXaXaXaXaXaXaXaXaXaX",
"aXaXaXaXaXaXaXaXaXaXaXaXaXaXaXaXaXaXaXaXaXaXaXaXaXK #X4X0Xe.$.@.N.I.K.e.$./.b..XQ 4.V :.>. .N.W.}.aXaXaXaXaXaXaXaXaXaXaXaXaXaXaX",
"aXaXaXaXaXaXaXaXaXaXaXaXaXaXaXaXaXaXaXaXaXaXaXaX0.) $X9X,X>.a.w.N.N.K.e.w.A.oX.XT.Z ) 0.>.>.U.}.].aXaXaXaXaXaXaXaXaXaXaXaXaXaXaX",
"aXaXaXaXaXaXaXaXaXaXaXaXaXaXaXaXaXaXaXaXaXaXaXaX..h.0XuX$X..2.a.d.Q ..4.A./.b.7XT...N.0.>.0.U.}.].aXaXaXaXaXaXaXaXaXaXaXaXaXaXaX",
"aXaXaXaXaXaXaXaXaXaXaXaXaXaXaXaXaXaXaXaXaXaXaXaXG W.0X0X|.k.$.a.! 3.a.2.A.:Xb.tXz.@XN.>.>.h.W.}.aXaXaXaXaXaXaXaXaXaXaXaXaXaXaXaX",
"aXaXaXaXaXaXaXaXaXaXaXaXaXaXaXaXaXaXaXaXaXaXaXaXG  X0X#XQ.B.$.@.x.O.r.x.A.T.=X>Xz.{.h.>.>.N.}.}.aXaXaXaXaXaXaXaXaXaXaXaXaXaXaXaX",
"aXaXaXaXaXaXaXaXaXaXaXaXaXaXaXaXaXaXaXaXaXaXaX0.9. X#X .w.B.:.O.S r.x.$.A.>X7X=X0.9.K G 0.N.Q.W.aXaXaXaXaXaXaXaXaXaXaXaXaXaXaXaX",
"aXaXaXaXaXaXaXaXaXaXaXaXaXaXaXaXaXaXaXaXaXaXaX>.B.#Xk.T.$.<.:.@.2.x.G.).T.4.{ j.j.` S V q.B.Q.#XaXaXaXaXaXaXaXaXaXaXaXaXaXaXaXaX",
"aXaXaXaXaXaXaXaXaXaXaXaXaXaXaXaXaXaXaXaXaXaXaXd h ~ ;.z.2.a.C.C.x.O.a.A.>X4.9X4X4.` m G h.W.U.aXaXaXaXaXaXaXaXaXaXaXaXaXaXaXaXaX",
"aXaXaXaXaXaXaXaXaXaXaXaXaXaXaXaXaXaXaXaXaXaXaXe p p w d H ! a.x.$.O.$.:XtXj.pX#X_ Q  .>.N.}.}.aXaXaXaXaXaXaXaXaXaXaXaXaXaXaXaXaX",
"aXaXaXaXaXaXaXaXaXaXaXaXaXaXaXaXaXaXaXaXaXaX] > p p h z 6 + ; q * 6 @./.:Xm.pX3X<.Q  .0.U.Q.}.aXaXaXaXaXaXaXaXaXaXaXaXaXaXaXaXaX",
"aXaXaXaXaXaXaXaXaXaXaXaXaXaXaXaXaXaXaXaXaXaXG 9 p h D #Xv >.W.A 6 v + + x Z W.@X9.H  .h.W.Q.W.aXaXaXaXaXaXaXaXaXaXaXaXaXaXaXaXaX",
"aXaXaXaXaXaXaXaXaXaXaXaXaXaXaXaXaXaXaXaXaXaXe h p w [ U.% I.U.G ] 9X4XG d - @ 2 d a ] N.Q.}.aXaXaXaXaXaXaXaXaXaXaXaXaXaXaXaXaXaX",
"aXaXaXaXaXaXaXaXaXaXaXaXaXaXaXaXaXaXaXaXaXaXt w p 8 B.q.+ 0.G 6 @XuXpXN ,.9XR - # - > h [ N.aXaXaXaXaXaXaXaXaXaXaXaXaXaXaXaXaXaX",
"aXaXaXaXaXaXaXaXaXaXaXaXaXaXaXaXaXaXaXaXaXG > p w h  X| + 6 M.M.3XN.pXG | pXG ( ,., 4 w M W.aXaXaXaXaXaXaXaXaXaXaXaXaXaXaXaXaXaX",
"aXaXaXaXaXaXaXaXaXaXaXaXaXaXaXaXaXaXaXaXaXN 4 p h h B.W.h.A G @XI.( pXR | pXG U.] , 4 w F aXaXaXaXaXaXaXaXaXaXaXaXaXaXaXaXaXaXaX",
"aXaXaXaXaXaXaXaXaXaXaXaXaXaXaXaXaXaXaXaXaXt w p M u - G h.; I.@XN.W.9XR ] 9Xh.W.6 2 4 E [ aXaXaXaXaXaXaXaXaXaXaXaXaXaXaXaXaXaXaX",
"aXaXaXaXaXaXaXaXaXaXaXaXaXaXaXaXaXaXaXaX0.2 w ~ w h G % + T {.>.+ W.pX] R 9X@X] - > w w k.aXaXaXaXaXaXaXaXaXaXaXaXaXaXaXaXaXaXaX",
"aXaXaXaXaXaXaXaXaXaXaXaXaXaXaXaXaXaXaXaXN d p E 9 F N t +   t f   ,.pX,.] 9X{.6 , 4 w M W.aXaXaXaXaXaXaXaXaXaXaXaXaXaXaXaXaXaXaX",
"aXaXaXaXaXaXaXaXaXaXaXaXaXaXaXaXaXaXaXaXt u w w E G B W G f +     t v e 6 e 6 - 2 4 p E aXaXaXaXaXaXaXaXaXaXaXaXaXaXaXaXaXaXaXaX",
"aXaXaXaXaXaXaXaXaXaXaXaXaXaXaXaXaXaXaXaXd w M M N - B B A B  .8.G ; N o @ # # - > 8 w ;.aXaXaXaXaXaXaXaXaXaXaXaXaXaXaXaXaXaXaXaX",
"aXaXaXaXaXaXaXaXaXaXaXaXaXaXaXaXaXaXaX( Q D.e.D , # ; t t  .G A | ,.R N G N 6 , 4 w w B.aXaXaXaXaXaXaXaXaXaXaXaXaXaXaXaXaXaXaXaX",
"aXaXaXaXaXaXaXaXaXaXaXaXaXaXaXaXaXaXaX .,.n.V.D.4.Q n %     6 G R ] q.| -.R G e h w M U.aXaXaXaXaXaXaXaXaXaXaXaXaXaXaXaXaXaXaXaX",
"aXaXaXaXaXaXaXaXaXaXaXaXaXaXaXaXaXaXaX .k.U.Q.f. ._ i.z.4.Q f + + X e R v N G e u p E aXaXaXaXaXaXaXaXaXaXaXaXaXaXaXaXaXaXaXaXaX",
"aXaXaXaXaXaXaXaXaXaXaXaXaXaXaXaXaXaXj.( U.Q.W.h.q.0.8.>.w.z.(.(.m.) e - = - e 2 8 p q.aXaXaXaXaXaXaXaXaXaXaXaXaXaXaXaXaXaXaXaXaX",
"aXaXaXaXaXaXaXaXaXaXaXaXaXaXaXaXaXaXj. .L.U.k.h.9.e.j.M.M.{.U.W.P.D.7XT._ n t 4 w w U.aXaXaXaXaXaXaXaXaXaXaXaXaXaXaXaXaXaXaXaXaX",
"aXaXaXaXaXaXaXaXaXaXaXaXaXaXaXaXaXaX .0.Q.Q.B.0. .>.0.j._ _ e.W.3X9XU.M.<.Q _ z.D.w.U.aXaXaXaXaXaXaXaXaXaXaXaXaXaXaXaXaXaXaXaXaX",
"aXaXaXaXaXaXaXaXaXaXaXaXaXaXaXaXaXaXW k.Q.L.k.( V Q W 9.:.w.<.Y W.9XeX{.h. .( | k.M.aXaXaXaXaXaXaXaXaXaXaXaXaXaXaXaXaXaXaXaXaXaX",
"aXaXaXaXaXaXaXaXaXaXaXaXaXaXaXaXaXM.( B.Q.U.h. .( W H H H w.M.I.3X9X&XP.e.} >.h.N.}.aXaXaXaXaXaXaXaXaXaXaXaXaXaXaXaXaXaXaXaXaXaX",
"aXaXaXaXaXaXaXaXaXaXaXaXaXaXaXaXaX:.| B.L.B.q.>.9.0.j.j.9.w.e...V.P.M.M.>. .8.N.W.}.aXaXaXaXaXaXaXaXaXaXaXaXaXaXaXaXaXaXaXaXaXaX",
"aXaXaXaXaXaXaXaXaXaXaXaXaXaXaXaXaX( 0.L.U.h.0.8.0.0.0.U.{.9X9X{.P.e.) <.:. .0.U.W.aXaXaXaXaXaXaXaXaXaXaXaXaXaXaXaXaXaXaXaXaXaXaX",
"aXaXaXaXaXaXaXaXaXaXaXaXaXaXaXaXaXW k.L.B.h.>.>.9._ S _ {.3XpXpXpX9XW.j. . .h.W.W.aXaXaXaXaXaXaXaXaXaXaXaXaXaXaXaXaXaXaXaXaXaXaX",
"aXaXaXaXaXaXaXaXaXaXaXaXaXaXaXaXj.W k.U.B.0.] _ Q U S ` _ 4.w.pXpX3XU.0.}  .N.W.U.aXaXaXaXaXaXaXaXaXaXaXaXaXaXaXaXaXaXaXaXaXaXaX",
"aXaXaXaXaXaXaXaXaXaXaXaXaXaXaXaX(  .B.U.h.,.) S U U S ` i.i.b.}.uX@XK.>.( >.B.W.{.aXaXaXaXaXaXaXaXaXaXaXaXaXaXaXaXaXaXaXaXaXaXaX",
"aXaXaXaXaXaXaXaXaXaXaXaXaXaXaXaX( ,.U.B.q.>.Q S S ) e.N.H 4.4.b.m.{.M. .( 0.U.U.aXaXaXaXaXaXaXaXaXaXaXaXaXaXaXaXaXaXaXaXaXaXaXaX",
"aXaXaXaXaXaXaXaXaXaXaXaXaXaXaXaX( q.B.n.0.|  .Q Q _ @.i.w.h.4.b.i.M.d.}  .h.B.W.aXaXaXaXaXaXaXaXaXaXaXaXaXaXaXaXaXaXaXaXaXaXaXaX",
"aXaXaXaXaXaXaXaXaXaXaXaXaXaXaX>.T q.k.q.>.-.>.9._ U @.$.T.m.{ Q 4.I.9.( >.N.B.N.aXaXaXaXaXaXaXaXaXaXaXaXaXaXaXaXaXaXaXaXaXaXaXaX",
"aXaXaXaXaXaXaXaXaXaXaXaXaXaXaX( ] k.n.q.>. .>.:.U U ! Q 4.z.].'.W.N.>.( 8.B.U.I.aXaXaXaXaXaXaXaXaXaXaXaXaXaXaXaXaXaXaXaXaXaXaXaX",
"aXaXaXaXaXaXaXaXaXaXaXaXaXaXaXG >.k.h.,.| =.>. .! S ! ' b.T.#X9X{.h. .] 0.U.N.aXaXaXaXaXaXaXaXaXaXaXaXaXaXaXaXaXaXaXaXaXaXaXaXaX",
"aXaXaXaXaXaXaXaXaXaXaXaXaXaXaXf *.n.k.>. .=.>.d.! ` $.i.T.m.pX4XW.0.(  .0.N.N.aXaXaXaXaXaXaXaXaXaXaXaXaXaXaXaXaXaXaXaXaXaXaXaXaX",
"aXaXaXaXaXaXaXaXaXaXaXaXaXaXW T ^ P | |  . .>.0.e.@.i.T..X@XpX1XI.>.(  .h.N.U.aXaXaXaXaXaXaXaXaXaXaXaXaXaXaXaXaXaXaXaXaXaXaXaXaX",
"aXaXaXaXaXaXaXaXaXaXaXaXaXaXW ( k.h.R v B ( >.j.M.W.I.[.9XpX9X@XM. .( >.N.U.}.aXaXaXaXaXaXaXaXaXaXaXaXaXaXaXaXaXaXaXaXaXaXaXaXaX",
"aXaXaXaXaXaXaXaXaXaXaXaXaXaXW R h.q. .] ( G A G 0.}.9XpXpXpX4X{.j.} ( 0.U.W.aXaXaXaXaXaXaXaXaXaXaXaXaXaXaXaXaXaXaXaXaXaXaXaXaXaX",
"aXaXaXaXaXaXaXaXaXaXaXaXaXaXaXn G  . .(  .W } 0.>. .,.N.@X0X3XU.9.( ( 8.U.W.aXaXaXaXaXaXaXaXaXaXaXaXaXaXaXaXaXaXaXaXaXaXaXaXaXaX",
"aXaXaXaXaXaXaXaXaXaXaXaXaXaXaXaXl K K G ( :. .j.0.8.#X}.B.-.| R T G ] h.N.W.aXaXaXaXaXaXaXaXaXaXaXaXaXaXaXaXaXaXaXaXaXaXaXaXaXaX",
"aXaXaXaXaXaXaXaXaXaXaXaXaXaXaXaXZ a W :.:.9.9.M.].#X#XN.h.3X{.j.( G F ^ ^ aXaXaXaXaXaXaXaXaXaXaXaXaXaXaXaXaXaXaXaXaXaXaXaXaXaXaX",
"aXaXaXaXaXaXaXaXaXaXaXaXaXaXaXaXaXK n K ( :.M.I.{.3XpXpXpX4XW.0.( ( >.0.U.aXaXaXaXaXaXaXaXaXaXaXaXaXaXaXaXaXaXaXaXaXaXaXaXaXaXaX",
"aXaXaXaXaXaXaXaXaXaXaXaXaXaXaXaXaXaXaX} W } } ) ) :.j.I.W.W.h. .W ( 0.h.W.aXaXaXaXaXaXaXaXaXaXaXaXaXaXaXaXaXaXaXaXaXaXaXaXaXaXaX",
"aXaXaXaXaXaXaXaXaXaXaXaXaXaXaXaXaXaXaXaXaXh.e.9.} W K A A Z B n l c K >.aXaXaXaXaXaXaXaXaXaXaXaXaXaXaXaXaXaXaXaXaXaXaXaXaXaXaXaX",
"aXaXaXaXaXaXaXaXaXaXaXaXaXaXaXaXaXaXaXaXaXaXaXaXaX:.} W A a r 5 < W aXaXaXaXaXaXaXaXaXaXaXaXaXaXaXaXaXaXaXaXaXaXaXaXaXaXaXaXaXaX",
"aXaXaXaXaXaXaXaXaXaXaXaXaXaXaXaXaXaXaXaXaXaXaXaXaXaXaXaXaX9.( } aXaXaXaXaXaXaXaXaXaXaXaXaXaXaXaXaXaXaXaXaXaXaXaXaXaXaXaXaXaXaXaX",
"aXaXaXaXaXaXaXaXaXaXaXaXaXaXaXaXaXaXaXaXaXaXaXaXaXaXaXaXaXaXaXaXaXaXaXaXaXaXaXaXaXaXaXaXaXaXaXaXaXaXaXaXaXaXaXaXaXaXaXaXaXaXaXaX"
};
