/* XPM */
static char *_77941ad851849d9a14b3aabdedf9675jm9We3XNlYlIcvEW_0[] = {
/* columns rows colors chars-per-pixel */
"64 64 256 2 ",
"   c None",
".  c #7E4D3E",
"X  c #774C38",
"o  c #634939",
"O  c #634D45",
"+  c #6C4D43",
"@  c #7A4F41",
"#  c #6E5247",
"$  c #6E564C",
"%  c #66564C",
"&  c #725246",
"*  c #79574A",
"=  c #715C52",
"-  c #7C5D51",
";  c #7E6053",
":  c #74665A",
">  c #666256",
",  c #7C766B",
"<  c #824E3C",
"1  c #8D4F3C",
"2  c #834E37",
"3  c #914F3D",
"4  c #855139",
"5  c #8A513B",
"6  c #8C5236",
"7  c #9C5936",
"8  c #95543B",
"9  c #995639",
"0  c #95583E",
"q  c #9C5A3C",
"w  c #985537",
"e  c #A55C35",
"r  c #A35D3D",
"t  c #AD5D30",
"y  c #86673B",
"u  c #B7672C",
"i  c #AB6233",
"p  c #A96339",
"a  c #B96A31",
"s  c #B46833",
"d  c #BE7132",
"f  c #BF6D17",
"g  c #CC771E",
"h  c #D47D1A",
"j  c #D47B0C",
"k  c #C36E2A",
"l  c #C4722C",
"z  c #CA7628",
"x  c #D37C24",
"c  c #D47E26",
"v  c #C57739",
"b  c #D27C3B",
"n  c #835442",
"m  c #8C5B4B",
"M  c #8A5B44",
"N  c #935941",
"B  c #9C5C41",
"V  c #975B47",
"C  c #8B5F51",
"Z  c #A25D40",
"A  c #A25E49",
"S  c #866349",
"D  c #8A644B",
"F  c #8A6648",
"G  c #966649",
"H  c #816454",
"J  c #8B6958",
"K  c #986B57",
"L  c #987358",
"P  c #9A7549",
"I  c #A36242",
"U  c #A3634B",
"Y  c #A96848",
"T  c #B36D44",
"R  c #BA7344",
"E  c #B87447",
"W  c #A36952",
"Q  c #A26250",
"!  c #B26F51",
"~  c #A6795C",
"^  c #A57659",
"/  c #B57454",
"(  c #BA7A56",
")  c #A2784A",
"_  c #8F7363",
"`  c #987766",
"'  c #947C71",
"]  c #A27C63",
"[  c #A87B66",
"{  c #B27D62",
"}  c #C57A44",
"|  c #C97A41",
" . c #C27D53",
".. c #7E8276",
"X. c #DD8419",
"o. c #DD820A",
"O. c #E58A07",
"+. c #ED910A",
"@. c #EE9205",
"#. c #F49603",
"$. c #F69801",
"%. c #F99A01",
"&. c #F2940A",
"*. c #E38814",
"=. c #EE941A",
"-. c #FDA000",
";. c #DD8628",
":. c #D18333",
">. c #E58D24",
",. c #A98553",
"<. c #B58556",
"1. c #87877B",
"2. c #9A8578",
"3. c #A68469",
"4. c #AA876A",
"5. c #AE896C",
"6. c #A78267",
"7. c #B58B6A",
"8. c #B3966A",
"9. c #B6986B",
"0. c #AE8B72",
"q. c #A4897A",
"w. c #B08D72",
"e. c #B59375",
"r. c #B99777",
"t. c #B59378",
"y. c #BE9A79",
"u. c #BA9978",
"i. c #AF937F",
"p. c #C7845A",
"a. c #D69056",
"s. c #C19C69",
"d. c #C19A7A",
"f. c #D29169",
"g. c #C6A366",
"h. c #C4A27A",
"j. c #CAA776",
"k. c #D0AC78",
"l. c #D0AC77",
"z. c #D5B27A",
"x. c #DCB77A",
"c. c #E3A17A",
"v. c #9A968B",
"b. c #998B80",
"n. c #A89789",
"m. c #BE9D83",
"M. c #B59886",
"N. c #A6968D",
"B. c #BEA388",
"V. c #BDA296",
"C. c #B7AA97",
"Z. c #ACA298",
"A. c #BAADA2",
"S. c #BAB1AB",
"D. c #C3A484",
"F. c #CCAC85",
"G. c #CBAD8B",
"H. c #C8A58A",
"J. c #CEB28A",
"K. c #D2B38A",
"L. c #DAB986",
"P. c #C5AC9B",
"I. c #C7A894",
"U. c #D6AE9A",
"Y. c #CBB49A",
"T. c #D2B695",
"R. c #D3BB9B",
"E. c #D7B99A",
"W. c #E0BC83",
"Q. c #CEB9A6",
"!. c #CAB6A7",
"~. c #DABCA3",
"^. c #D3BDAC",
"/. c #D3B6A4",
"(. c #C7BCB4",
"). c #D1BEB0",
"_. c #D9C19A",
"`. c #DFC08F",
"'. c #E6C387",
"]. c #E9C68A",
"[. c #EECC92",
"{. c #E1C69A",
"}. c #F2D39A",
"|. c #EFD19A",
" X c #DBC4A3",
".X c #DBC6A9",
"XX c #CBC3BA",
"oX c #DCCBBC",
"OX c #D7C6B8",
"+X c #DFD1B9",
"@X c #E5CCA6",
"#X c #E9D1AA",
"$X c #F1D6A4",
"%X c #F7DBA9",
"&X c #E7D5B5",
"*X c #F4DDB6",
"=X c #E1CAB8",
"-X c #F2E1BE",
";X c #FAE3BB",
":X c #CBC6C5",
">X c #DBCDC3",
",X c #D4CDC7",
"<X c #DCD2CA",
"1X c #DED1C6",
"2X c #DAD7D5",
"3X c #E2D6CA",
"4X c #E8D9C9",
"5X c #E9DFD9",
"6X c #E3DCD7",
"7X c #F6DEC2",
"8X c #F3E3C6",
"9X c #F9E6C4",
"0X c #F3E4C9",
"qX c #F9E7C8",
"wX c #F9E8CC",
"eX c #ECE3DB",
"rX c #EAE1D8",
"tX c #FAECD6",
"yX c #FAEBD3",
"uX c #FBEDD9",
"iX c #F3E9DD",
"pX c #FEF0DA",
"aX c #FDF1DC",
"sX c #EBE0CF",
"dX c #EDEBEB",
"fX c #E9E6E4",
"gX c #F6EDE3",
"hX c #F8EEE2",
"jX c #FAF2E6",
"kX c #EEEEF1",
"lX c #F3F4F6",
"zX c #F5F7F8",
"xX c #F7F8F9",
"cX c #FAFAFB",
"vX c #F8F7F7",
"bX c #F0F0F4",
"nX c black",
"mX c black",
"MX c black",
"NX c black",
"BX c black",
"VX c black",
"CX c black",
"ZX c black",
"AX c black",
"SX c black",
"DX c black",
"FX c black",
"GX c black",
"HX c black",
"JX c black",
"KX c black",
"LX c black",
"PX c black",
"IX c black",
"UX c black",
/* pixels */
"                                                                                                                                ",
"                                                                                                                                ",
"                                              jXjX                                                                              ",
"                    gXgXgXgXuXtXtXtXtXtXtXtXpXpXpXpXtXtXtXtXuXaXhXjXjXjXjXjX                                                    ",
"              gXiXtXtXtXtXtXyX9X;X;X;X;X;X;X;X9XyXtXpXuXtXwXyXtXpXuXtXtXwXqX0XsXeX                                              ",
"        jXgXeX0X0XtXtXtXtXwXqXqX9XwXyXwXyXtXtXjXjXjXjXjXpXpXpXpXpXuXtXwXqX9X-X-X-X0XiXgX                                        ",
"        0X0X0X-X8XtXtXyXqXqXqXqXqXyXtXtXtXtXpXpXpXpXpXpXpXpXpXpXtXtXyXwX9X9X;X*X*X*X4XsXgX                                      ",
"      8X-X-X8X8XwXtXwXqXqXqXqXwXyXuXpXpXpXuXtXtXtXtXtXtXtXtXtXyXwX9X;X;X%X%X$X}.|.#X#X&X8X                                      ",
"    sX&X&X*X*X*X-X-X*X9XyXqXwXyXqX9X;X;X9X9X;X;X;X;X;X;X;X*X%X%X%X%X$X}.|.[.[.[.[.].{.@X=X                                      ",
"  5X4X.X@X#X*X*X-X8X7X7X*X$X}.$X%X%X%X%X%X$X$X$X$X}.$X$X}.}.|.[.[.[.[.[.[.].'.'.'.'.W.L. X3X5X                                  ",
"  5X4X.X.X.X@X&X*X*X#X#X$X$X|.[.].].].].].'.'.'.'.'.'.'.'.'.W.W.W.W.W.W.W.x.x.x.z.K.K.K._.3X5X                                  ",
"  rX3XR.R._..X.X.X@X_.`.L.L.x.x.z.z.z.z.z.z.k.k.k.z.z.z.z.k.k.k.k.k.k.k.l.k.F.h.h.h.D.G.R.>X3X                                  ",
"    3XR.T.R.R.G.m.D.F.F.d.h.h.s.s.s.s.y.r.r.r.u.y.y.y.y.y.y.y.y.y.y.y.y.y.y.y.r.r.y.m.B.Y.<X5X                                  ",
"      Q.R.R.R.G.m.u.D.y.w.e.r.r.r.w.5.w.5.4.3.3.3.4.4.4.5.w.e.e.w.w.w.e.r.r.r.r.r.y.y.H.Q.                                      ",
"      .XR.T.R.T.T.T.G.D.m.y.r.r.y.e.w.5.4.3.3.3.3.3.3.3.3.4.4.3.3.4.4.4.4.5.w.e.r.m.D.G.Q.                                      ",
"      =X.XE.~.~.~.~.K.F.D.y.y.y.y.r.e.w.4.3.3.3.6.] 6.3.3.3.3.3.3.] ] 6.4.5.w.e.r.m.I.P.Q.                                      ",
"      6X=X~.~.~.~.R.J.D.y.y.y.y.r.e.w.5.4.4.3.3.3.3.3.3.3.3.3.3.3.6.3.3.5.w.w.w.t.m.I.P.Q.                                      ",
"      2XoX X_.E.E.T.G.D.D.y.y.y.r.e.w.w.0.5.4.4.4.3.4.4.4.4.4.3.3.4.4.4.4.4.w.w.t.M.M.P.^.eXlX                                  ",
"      6X).P.~.T.K.K.F.F.h.d.y.y.y.r.e.w.5.4.4.4.4.4.4.5.4.4.4.4.4.5.w.w.w.w.e.w.w.r.m.I.^.6XeX                                  ",
"      rXY.w.m.F.F.D.F.F.h.h.d.y.y.r.r.e.r.e.w.0.5.5.w.w.w.w.w.w.w.w.w.w.w.w.w.w.e.m.m.I.^.3X5X                                  ",
"      rX!.0.~ 4.u.h.h.h.h.y.y.y.y.y.u.r.r.r.e.w.0.5.0.w.w.e.e.w.e.e.w.w.e.r.e.e.e.t.m.B.P.OX>X                                  ",
"      fX^.e.^ ^ ~ 4.e.r.e.e.w.0.5.w.e.e.r.r.r.e.e.e.e.e.r.r.r.r.e.e.r.e.r.r.r.r.r.m.m.m.D.Y..X4X      zXxXcXcX                  ",
"        D.t.^ ^ ^ ^ 4.4.] K D S M m G L ] 5.e.e.e.e.e.e.r.r.r.r.e.r.u.r.r.y.y.y.y.m.D.D.d.F._..XP.!.,XdXlXlXlXzXxX              ",
"        V.M.~ ^ ^ ^ ] L G M n n < < < n n m L ] 4.0.0.w.e.e.e.e.e.r.y.y.y.y.y.y.y.m.D.D.D.J.K.F.D.V.(.2XdXlXlXlXlXlX            ",
"        P.M.~ ^ ~ { ~ K G 8 1 4 4 4 4 4 < . n m K L ] ] 6.4.5.w.e.r.y.y.y.m.y.m.m.m.F.F.F.K.K.T.).          bXlXbXlXzXxX        ",
"        P.M.~ ^ ~ { ^ G N N 8 1 4 4 4 4 4 < < n n n n n M D L ] 4.w.r.y.y.y.y.m.D.D.F.F.G.E.OX1X              kXbXlXlXzXxX      ",
"        V.M.{ / / / / Y r 9 8 3 3 5 4 4 4 4 4 < 2 1 < . < n m m V G ~ 4.w.r.y.m.D.D.F.F.K..X=X                    kXlXlXlX      ",
"        V.M.{ / ! ! ! Y r 9 w 9 0 8 1 4 2 < < . < 3 5 < < 2 4 n 5 3 N W [ w.e.u.d.D.F.J.R.oX3X                    bXlXlXlXzX    ",
"        V.m.( / / / / T e r q 9 9 8 1 4 4 4 4 1 8 9 6 4 4 1 3 5 n 5 8 Z W [ w.r.d.D.F.T..X4XeX                    lXbXlXlXlXlX  ",
"        V.m.( / / / / T i e r r r q w w 8 3 3 8 7 i 7 9 0 9 0 N 5 4 5 9 q W 6.w.u.D.F.R.OX                          lXlXlXlXlXlX",
"        P.m.( E E / / T i e e e e e e r q w 9 q p a i 7 9 r B N N N 0 9 q U ] 5.r.m.F.R.+X                          bXlXlXlXlXlX",
"        U.H.p.} } R / T i i i i e r r e i i e t k ;.l i e r q 9 0 B r r I U W ] 5.y.H.^.1X                          lXlXlXlXlXlX",
"        U.H.p.} } R R R s s u a a a a d d s i u g X.z u e 0 8 8 N 0 9 B V U Y Y ~ w.G.R.                            lXlXlXlXzXxX",
"        /.H.p.} | } a t u t u l l l z z z z l x X.O.X.l e 0 0 9 0 8 q R R v ;.:.<.5./.oX                          xXzXlXlXlXlXlX",
"        /.H.p.} | b k u d u z ;.X.X.;.;.X.*.*.*.=.&.*.z e w 0 0 9 8 8 N A U G W [ M.P.^.                          xXzXlXlXlXzXxX",
"        OXU.p.v l z k k z l x +.#.$.%.%.#.#.#.#.#.%.$.X.i w 0 N N B I q Z U U K [ m.Y.^.                          lXlXlXlXlXzXxX",
"        OXU.p.l k z l z c z X.#.%.-.-.-.%.#.#.=.=.%.%.*.a r q N N N B I U Q W W [ m.Y.^.                      xXzXlXlXzXxXzXlX  ",
"        OXU.a.v z :.z h *.;.>.=.%.%.%.%.%.#.#.#.%.%.%.+.X.g u r r B B Z A Q W W { D..XoX                      xXzXlXlXzXxXxXxX  ",
"        oXE.a.c g c c *.#.#.#.#.%.%.%.%.$.#.#.#.#.%.%.%.%.#.O.j a I Z Z I U W K [ m.^.oX                    xXxXxXxXzXlXlXlX    ",
"        oXE.p.z g g x *.#.%.%.%.%.%.%.%.#.#.#.$.%.%.%.%.%.%.+.h s q N N V G G D ` m.^.oX                xXzXlXzXxXxXxXlXkX      ",
"        XXP.p.z g g j o.*.#.%.%.%.%.%.%.%.%.%.%.#.#.$.$.#.*.l r 9 N m m m C H ; _ M.!.XX              bXlXzXxXxXxXzXlXdXdX      ",
"        :X!.p.z g g g h *.#.%.%.%.%.%.%.%.%.$.#.#.$.#.*.k e 9 N m m n - H H - ; _ M.!.<XdX      2X6XdXlXxXxXxXxXzXlXfX2X        ",
"        :X/.p.v i X 6 s ;.&.%.%.%.%.%.%.%.%.%.%.%.$.O.f w 0 M n - * & - - - - ; L t.!.,X:X(.,XdXlXcXcXxXcXcXxXlXdX2X            ",
"        oX~.f.Y . o X r x +.%.#.*.+.%.%.%.%.%.%.%.@.k 7 4 n @ # # # # # $ = - ; _ M.>XdXlXeXdXcXcXcXcXcXcXcXlXfX2X              ",
"        <X).d.D o o * I x +.%.-.%.%.%.%.%.%.%.%.+.x e 1 . & + + + + # # $ = - ; _ M.<XlXcXcXcXcXcXcXcXzXlXfX2X                  ",
"        ,XS.2.: % O # M l +.%.-.-.%.%.%.%.%.%.$.h 7 < @ # + + + + + + # $ = - ; _ M.<XlXcXcXcXcXcXcXlXfX2X:X                    ",
"        :XS.2.J ; = - M s *.%.-.-.-.%.%.%.%.$.X.s n & + + + + + + + + # $ = - ; J q.,XlXcXcXlXdXfXrX2X2X                        ",
"        ,XS.2.` K W G V p z >.=.+.#.#.#.#.@.O.u 5 X + + + O O O O O + # $ = - H J q.XXdXvXdX2X(.:X                              ",
"        <X).M.` W ! ! T i s a a i p r 7 q q 0 5 . + O O O O O O O O O # $ = H ^ 7.d.!.6XdX<XOX>X                                ",
"        4X=XH.7.<. .d d R T Y Z V M n < @ & & & + + + + + + + # & * - n m G W / p.c.E.XXXX                                      ",
"        rX>XH.7.( ( E E E T Y I B B B N N N m N N N N N N N N N B I I p p T R } f.U.oX<X                                        ",
"        rX>XC.1., : = = = & & & & @ @ & # & @ < < . & & & & & & @ n n n M D K ` i.P.oX3X                                        ",
"        5X3X!.n.1., : > > % O O O + + + + + & * M n n n . . & & - S S S J ' n.M.h.K.&X4X                                        ",
"        6X,XZ.N.N.N.C.M.3.K G G D S S F G M & * S m S S S S D F ) <.g.J.R.G.9.s.j.G.3XrX                                        ",
"        6X:XN.1.....1.v.C.C.C.C.M.0.] K F y y y F D L ] w.y.G.T.R.Y.B.9.8.8.8.9.y.P.1XrX                                        ",
"            A.v..., , 1.1.v.N.N.Z.S.).Q._._._..X.X X X~.Y.G.h.y.9.8.8.8.8.8.8.u.B.Y.3XeX                                        ",
"            2X2X,XOXOXOX.X.X.X_._._._._._.L.L.z.z.x.x.z.j.g.g.g.g.g.g.g.j.j.j.k.E.OX                                            ",
"              <X!.0.0.7.<.~ ~ ^ P L K L ~ ,.,.,.,.,.) ) P G G G G P P P L L 8.D..XrX                                            ",
"                  A.M.q._ J H H D S ; ; ; - - H H D S S S D D S S S D K L 3.V.                                                  ",
"                    >XXXA.M.2.' J : : : = = = = = = = = = ; J K _ ' q.C.XX>X                                                    ",
"                              XXS.A.C.Z.v.b.2.2.q.q.2.q.n.M.V.A.(.3XiX                                                          ",
"                                              rXeXiX                                                                            ",
"                                                                                                                                ",
"                                                                                                                                "
};
