/* XPM */
static char *_77941ad851849d9a14b3aabdedf9675jm9We3XNlYlIcvEW_12[] = {
/* columns rows colors chars-per-pixel */
"64 64 256 2 ",
"   c None",
".  c #7D4E3E",
"X  c #754C39",
"o  c #634839",
"O  c #634D45",
"+  c #6C4D43",
"@  c #7A4F41",
"#  c #6E5247",
"$  c #6D554C",
"%  c #645348",
"&  c #725246",
"*  c #79584A",
"=  c #715C52",
"-  c #7D5C51",
";  c #7E6053",
":  c #74655A",
">  c #666256",
",  c #7B766B",
"<  c #824E3B",
"1  c #8D4F3C",
"2  c #864D37",
"3  c #914E3C",
"4  c #855139",
"5  c #8B513A",
"6  c #965437",
"7  c #95543B",
"8  c #995639",
"9  c #95583F",
"0  c #9D5B3C",
"q  c #9A5736",
"w  c #A55C35",
"e  c #A35D3D",
"r  c #AE5D30",
"t  c #B45F2D",
"y  c #86673C",
"u  c #BA6A2F",
"i  c #B7652B",
"p  c #BE702F",
"a  c #AB6233",
"s  c #A9623B",
"d  c #B56934",
"f  c #BC723A",
"g  c #BF6D17",
"h  c #CC761C",
"j  c #D37C1B",
"k  c #CC7623",
"l  c #CB762B",
"z  c #CC792C",
"x  c #C57328",
"c  c #D47C24",
"v  c #D07723",
"b  c #C57638",
"n  c #C7712E",
"m  c #845542",
"M  c #8B5A44",
"N  c #8D5B4C",
"B  c #875B45",
"V  c #935942",
"C  c #9B5B41",
"Z  c #985A46",
"A  c #8E5E50",
"S  c #A25D41",
"D  c #A25E4A",
"F  c #866349",
"G  c #89644B",
"H  c #8A6648",
"J  c #956749",
"K  c #9A7549",
"L  c #826454",
"P  c #8B6A57",
"I  c #976A55",
"U  c #987358",
"Y  c #A46243",
"T  c #A4634B",
"R  c #AA6948",
"E  c #B26C43",
"W  c #B87447",
"Q  c #A46A51",
"!  c #A36450",
"~  c #B26E51",
"^  c #A47559",
"/  c #A6795D",
"(  c #A57658",
")  c #B57454",
"_  c #B77958",
"`  c #A2784A",
"'  c #8F7362",
"]  c #997764",
"[  c #947C71",
"{  c #A27B63",
"}  c #AA7C65",
"|  c #B37F64",
" . c #C57A44",
".. c #C97A40",
"X. c #7E8376",
"o. c #DD841D",
"O. c #DB8314",
"+. c #DB8006",
"@. c #E68B09",
"#. c #ED9108",
"$. c #F49603",
"%. c #F69801",
"&. c #F99A01",
"*. c #F39609",
"=. c #E38814",
"-. c #ED921C",
";. c #F39712",
":. c #FDA000",
">. c #DC8528",
",. c #D6873D",
"<. c #E58C22",
"1. c #A98553",
"2. c #B48657",
"3. c #898779",
"4. c #9B8578",
"5. c #A68469",
"6. c #AA866A",
"7. c #AE896C",
"8. c #A58166",
"9. c #B48A6B",
"0. c #B3956A",
"q. c #B6986B",
"w. c #AE8B72",
"e. c #A48879",
"r. c #B08D72",
"t. c #B59375",
"y. c #B99777",
"u. c #BD9A79",
"i. c #B79678",
"p. c #AF937F",
"a. c #C6845A",
"s. c #D58C4E",
"d. c #C19D69",
"f. c #C19C7A",
"g. c #D19366",
"h. c #C6A366",
"j. c #C4A27A",
"k. c #CAA775",
"l. c #D0AC78",
"z. c #D5B27A",
"x. c #DCB77A",
"c. c #E3A27A",
"v. c #9A978C",
"b. c #998B80",
"n. c #A89789",
"m. c #BE9D83",
"M. c #B59786",
"N. c #A6968B",
"B. c #BDA387",
"V. c #ADA497",
"C. c #BAA697",
"Z. c #BAADA5",
"A. c #B9B1AA",
"S. c #C3A484",
"D. c #CCAB84",
"F. c #CBAE8B",
"G. c #C8A588",
"H. c #CEB28A",
"J. c #D5B689",
"K. c #C5AC9B",
"L. c #C7A994",
"P. c #CBB599",
"I. c #D1B695",
"U. c #D4BB9C",
"Y. c #D8BA99",
"T. c #D4AD96",
"R. c #E0BC83",
"E. c #CEB9A6",
"W. c #CAB6A7",
"Q. c #D2BCAB",
"!. c #D7BAA4",
"~. c #C7BCB5",
"^. c #D5BFB3",
"/. c #D9C19B",
"(. c #E6C388",
"). c #ECC88B",
"_. c #E6C387",
"`. c #EECC92",
"'. c #E1C598",
"]. c #F2D399",
"[. c #F0D098",
"{. c #DBC4A3",
"}. c #DAC4A8",
"|. c #CBC4B9",
" X c #DCCBBC",
".X c #D7C6B7",
"XX c #DFD1B9",
"oX c #E7CCA6",
"OX c #F1D7A5",
"+X c #F6DAAA",
"@X c #E5CCB6",
"#X c #E8D4B6",
"$X c #F5DDB7",
"%X c #E9D1A9",
"&X c #F2E1BD",
"*X c #FAE3BB",
"=X c #CBC6C5",
"-X c #DBCDC3",
";X c #D3CCC6",
":X c #DCD2CA",
">X c #DED2C6",
",X c #DAD7D5",
"<X c #E2D6CA",
"1X c #E8DAC9",
"2X c #E9DFD9",
"3X c #E3DDD8",
"4X c #F5DFC3",
"5X c #F9E6C4",
"6X c #F3E4CA",
"7X c #F9E7C8",
"8X c #F9E8CB",
"9X c #F4E3C5",
"0X c #ECE2DB",
"qX c #E6E0DB",
"wX c #FAEBD5",
"eX c #FAECD6",
"rX c #FAEAD1",
"tX c #FBEDD9",
"yX c #F3E7DA",
"uX c #FEF1DB",
"iX c #EBE0CF",
"pX c #EDECEB",
"aX c #E9E5E3",
"sX c #F6EDE3",
"dX c #F5EFEB",
"fX c #FAF2E6",
"gX c #FAF3EB",
"hX c #EEEEF1",
"jX c #F3F4F6",
"kX c #F5F6F8",
"lX c #F7F8F9",
"zX c gray98",
"xX c #FBF6F3",
"cX c #EEF0F5",
"vX c black",
"bX c black",
"nX c black",
"mX c black",
"MX c black",
"NX c black",
"BX c black",
"VX c black",
"CX c black",
"ZX c black",
"AX c black",
"SX c black",
"DX c black",
"FX c black",
"GX c black",
"HX c black",
"JX c black",
"KX c black",
"LX c black",
"PX c black",
"IX c black",
"UX c black",
/* pixels */
"                                                                                                                                ",
"                                                                                                                                ",
"                                              xXxX                                                                              ",
"                    fXfXsXsXtXwXwXwXwXwXeXwXeXtXuXuXeXeXeXeXtXsXfXfXfXfXgXxX                                                    ",
"              sXsXsXeXeXeXeXrX9X*X*X*X*X*X5X7X7XrXuXuXtXeX8XrXeXeXeXeXeXeXeXeXtXsX                                              ",
"        fXsX0X6X6XeXeXrX7X7X7X7X7X7X7X7X5X8XeXtXuXuXfXfXfXfXfXuXuXtXrX7X7X9X&X&X&X6XtXfX                                        ",
"        6X6X6X9X7XeXeXrX7X7X7X7XwXeXeXeXeXeXeXtXuXuXuXtXeXeXeXeXeX8X5X5X5X5X$X$X$X$X1XyXfX                                      ",
"      9X&X&X4X9X6XwX8X7X7X7X5X7XwXeXwXeXeXeXeXeXeXeXeXeXeXwXwXrX*X*X*X*X$X+XOX].].oXoX#X0X                                      ",
"    iX#X#X$X&X&X&X&X&X9XrX7X5X5X5X5X*X5X7X5X*X*X*X*X*X*X*X$X+X+X+X+XOX].[.`.`.`.).).'.oX@X                                      ",
"  2X1X}.oX%X$X$X&X9X$X$X$X+X+X+X+X+XOXOXOXOXOXOXOXOXOXOX].].[.`.`.`.`.).)._.(.(.(.(.R.J.{.1X0X                                  ",
"  2X1X}.}.}.%X@X#X$XOX%XoX].[.`.).).).)._.(.(.(.(.(.(.(.(.(.R.R.R.R.R.R.R.x.x.x.z.J.H.J./.<X2X                                  ",
"  qX<XU.U./.}.}.}.}././.Y.J.x.x.z.z.z.z.z.z.l.l.l.z.z.z.l.l.l.l.l.l.l.l.l.l.l.k.j.j.S.F.U.-X<X                                  ",
"    <XU.I.Y.Y.F.S.S.H.D.j.j.j.j.d.d.d.y.y.y.u.u.u.u.u.u.u.u.u.u.u.u.u.u.u.u.u.y.y.u.m.B.P.:X2X                                  ",
"      E.U.I.I.F.B.i.S.u.t.y.y.t.t.r.7.r.7.7.7.6.5.6.7.7.7.r.t.t.r.r.r.t.t.t.t.t.y.u.m.L.E.                                      ",
"      }.U.I.I.Y.Y.I.G.S.S.u.y.t.t.r.7.7.6.5.5.5.5.5.5.5.5.7.6.5.5.6.7.7.7.7.r.t.i.m.S.L.E.                                      ",
"      @X}.Y.!.!.!.U.F.S.S.u.u.u.u.y.t.r.6.5.5.5.8.{ 8.5.5.5.5.5.5.8.{ 8.6.7.r.t.i.m.L.K.E.                                      ",
"      3X@XU./.!.!.U.H.S.u.u.u.u.t.t.r.7.6.5.5.5.5.5.5.5.5.5.5.5.5.5.5.5.6.7.r.r.i.m.L.K.E.                                      ",
"      ,X X{./.Y.Y.I.F.D.j.u.u.u.t.t.r.r.7.7.7.6.5.5.5.5.5.7.6.5.5.6.7.7.6.6.r.r.t.M.M.K.Q.0XjX                                  ",
"      3X^.L.Y.J.J.H.D.D.j.f.u.u.t.t.t.r.7.7.7.7.6.5.7.7.7.7.7.7.7.7.7.r.w.r.t.r.r.t.m.L.Q.qXpX                                  ",
"      3XW.M.m.G.D.D.D.D.j.j.f.u.u.y.t.t.t.t.r.7.7.7.w.r.r.r.r.r.r.r.r.r.r.r.r.t.t.t.u.L.Q.1X0X                                  ",
"      0XW.w./ 7.y.j.j.j.u.u.u.u.u.u.i.t.t.t.t.r.r.r.r.r.r.r.r.r.r.r.r.r.t.t.t.t.t.t.m.B.K..X-X                                  ",
"      aXQ.t.( ^ / 7.t.t.t.r.7.7.7.r.t.t.t.t.t.t.t.t.t.t.t.t.t.t.t.t.t.t.t.t.t.y.u.u.m.m.S.I.}.1X      jXzXzXzX                  ",
"        S.i.( ^ ^ ( 6.6.{ I G F N A I U ] 6.7.w.r.t.t.t.t.t.t.t.t.t.t.u.u.u.u.u.u.m.m.m.f.D.Y.{.K.W.=X3XpXlXlXzXzX              ",
"        C.M./ ^ ^ ^ ^ U J B m m < < < m m B I ] 5.5.6.r.t.t.t.t.t.y.u.u.u.u.u.u.u.m.S.S.S.H.H.D.S.C.~.,XpXjXjXlXzXzX            ",
"        K.m./ ^ ^ ^ ^ I J 7 1 4 4 4 4 4 < < m G I U U U { 8.6.r.t.y.u.u.u.u.u.u.m.m.G.D.D.H.H.I.Q.          jXjXlXlXlXlX        ",
"        K.m./ ^ / _ ^ ! Z V 7 1 4 4 4 4 4 < < m B N B B F P U { 6.r.t.t.y.u.u.m.m.S.D.D.H./.XX>X              hXjXjXlXlXlX      ",
"        C.M.| ) ) ) ) ~ S 8 7 3 3 1 4 m 4 4 < < 2 1 m m m m M V V J ^ 6.t.y.u.u.u.S.D.F.Y.#X1X                    hXjXkXjX      ",
"        C.M.| ) ~ ~ ) R e 8 q 8 9 7 3 1 2 < . < 2 3 5 4 < 4 4 m 4 1 V Q } r.t.y.f.S.D.H.U.<XqX                    jXjXlXlXzX    ",
"        C.M._ ) ) ) ) E w e S e 8 7 1 5 4 4 4 2 6 6 5 4 4 1 3 5 m 5 7 S Q / r.y.f.S.D.I.}.0XdX                    jXcXjXjXjXkX  ",
"        C.M._ ) ) ) ) E a w e e e 8 6 6 6 3 3 7 q w q 8 9 8 7 V 7 5 5 8 0 Q 8.r.i.S.D.U..X                          jXjXjXjXlXlX",
"        K.m._ W W ) ) E a w w w w w w e 8 6 q w a u a w 8 e C V V V 9 8 8 T { 6.i.m.D.U.XX                          cXjXjXjXjXjX",
"        T.G.a. . .W ) E a a a a w w w w a a w r n >.n a e S 0 8 9 C e e Y T Q { 7.u.D.!.>X                          jXjXjXjXjXjX",
"        T.G.a. .b b W f t t i u u u u p u d a u v o.k u w q 7 7 V 7 8 9 Z T R R / r.F.U.                            jXjXjXjXjXjX",
"        E.G.a. ...b d i i t u x x k l v h k l c o.=.o.x w q 6 8 9 7 8 d f  .,.s.2.7.E. X                          lXlXjXjXjXlXlX",
"        E.L.a. .b b b p u i h j O.o.>.>.o.=.=.-.-.*.=.k w q 7 V 8 7 V D T T Q Q } M.K.Q.                          lXlXjXjXjXlXlX",
"        .XT.a.b n l x x l n c @.$.%.&.&.$.$.$.$.$.%.$.O.a q 7 V V C Y S Y T T I } m.P.Q.                          lXlXjXjXlXzXzX",
"        }.T.s.x x l x k c z o.$.&.:.:.&.&.$.$.$.$.&.&.@.i w C V V V C Y T T Q I } m.P.Q.                      zXzXlXjXlXlXlXlX  ",
"        .XT.s.z k c v j =.>.<.-.&.&.&.&.&.$.$.$.$.$.%.#.O.h i w e C C S D ! Q Q } S.Q.^.                      lXlXlXjXlXlXzXzX  ",
"        .XT.s.>.c c c =.$.$.$.$.&.&.&.&.%.$.$.$.$.%.&.&.%.$.=.z f Y S S Y T Q I { m.Q. X                    lXlXlXlXlXjXjXjX    ",
"         XU.a.z h h c >.-.*.%.%.&.&.&.&.$.$.$.$.$.%.&.&.&.&.#.j d 0 V V Z I P P { m.Q..X                lXlXjXlXlXlXlXjXhX      ",
"        |.K.a.z j c c o.=.$.&.&.&.&.&.&.&.&.$.$.$.$.%.$.#.o.b e 8 V N N N A L P ] M.W.|.              hXjXlXlXlXlXlXjXpXpX      ",
"        |.W.a.z k l k j =.$.&.&.&.&.&.&.&.&.&.$.$.%.$.=.x w 7 V N B m - - - - ; ' M.W.:XpX      ,X3XpXjXlXlXlXlXlXjXaX,X        ",
"        =XE.a.b a 4 7 d >.*.&.&.&.&.&.&.&.&.&.&.&.%.@.g q 9 M m - * & * - - - ; U i.W.;X;X~.;XpXjXzXzXzXzXzXlXjXpX,X            ",
"         X!.g.T X o X e c #.&.$.-.;.&.&.&.&.&.&.&.#.x q 4 m @ # # # # # $ = - ; ' M.-XaXdXqXaXzXzXzXzXzXzXzXjXaX,X              ",
"        :X^.u.L o o * Y z #.&.&.&.&.&.&.&.&.&.&.#.c w 1 . & + + + + # # $ = - ; ' M.:XjXzXzXzXzXzXzXzXlXjXaX,X                  ",
"        ;XA.4.: $ O # M x @.&.:.:.&.&.&.&.&.&.%.j q < @ # + + + + + + # $ = - ; ' M.:XjXzXzXzXzXzXzXjXaX,X=X                    ",
"        =XA.4.P ; = - M d >.;.:.:.:.&.&.&.&.%.o.d m & + + + O O + + + # $ = - ; ' M.:XjXzXzXjXpXaXqX,X,X                        ",
"        =XA.3.] I Q J Z s l =.@.#.$.$.$.$.#.=.i 5 X + + + O O O O O O # $ = - L P e.|.pXzXpX,X~.=X                              ",
"        :X^.M.] ^ ) ~ E a d u u a w s e 0 9 9 5 . + O O O O O O O O O # $ = L ^ 9.f.W.3XpX:X.X-X                                ",
"        1X@XG.9._  .b f W E s S Z B m 4 . X & & + + + + + + + # & * - m B J Q ) g.c.Y.|.|.                                      ",
"        qX-XG.9.) W E E E E R Y S S C V V V N V V V V V V V V V C Y Y s s E W  .g.Y. X:X                                        ",
"        0X-XV.3., : = = = & & & * * @ & # & @ < < . & & & & & & @ m m m B G I ] p.K. X<X                                        ",
"        2X<XW.n.3., : > > % O O O O O + + + & * B m m m . . & & - F G G P [ n.M.j.J.@X1X                                        ",
"        3X;XV.N.v.v.V.M.8.I J J F F F H J B & * F N F F F G F H ` 2.h.H.U.F.q.d.k.F.<XqX                                        ",
"        3X=XN.3.X.X.3.v.C.C.C.C.M.w.{ U P H y y H G U 8.0.u.G.I.P.P.B.q.0.0.0.q.u.K.>XqX                                        ",
"            Z.v.X., , 3.3.v.N.N.V.Z.Q.E.{././.}.}.{./.{.U.G.j.y.q.0.0.0.0.0.0.i.B.P.<XyX                                        ",
"            3X:X X|..X.X.X.X}././.Y./././.Y.J.z.z.x.x.z.k.h.h.h.h.h.h.h.k.k.k.l.Y..X                                            ",
"              :XW.w.w.9.2./ / ( K I U U ( 1.1.1.1.1.` ` K J J J J K K K U U 0.S.}.iX                                            ",
"                  Z.M.e.' P L L F F L L ; - - L L F F G P P G F F F G I U 5.C.                                                  ",
"                    -X|.Z.M.4.[ P : : : = = = = = = = = = ; L P ' [ e.C.|.-X                                                    ",
"                              |.A.Z.V.V.v.b.4.4.e.e.4.e.n.M.C.Z.~.<XyX                                                          ",
"                                              qX0XyX                                                                            ",
"                                                                                                                                ",
"                                                                                                                                "
};
