/* XPM */
static char *_5aba84781df4cc2e2f7428a2f909d84Cf66VkBvNQFDM5Ex_6[] = {
/* columns rows colors chars-per-pixel */
"32 62 256 2 ",
"   c #03064C",
".  c #080826",
"X  c #0C1362",
"o  c #181866",
"O  c #1B1B47",
"+  c #181C57",
"@  c #172168",
"#  c #222667",
"$  c #202877",
"%  c #2A2963",
"&  c #2B2981",
"*  c #2B2B4A",
"=  c #283176",
"-  c #283269",
";  c #343565",
":  c #393537",
">  c #2A3786",
",  c #313979",
"<  c #3E3C4E",
"1  c #1D41A0",
"2  c #374279",
"3  c #1E438F",
"4  c #374A90",
"5  c #504C51",
"6  c #4B4D72",
"7  c #665137",
"8  c #38549E",
"9  c #495590",
"0  c #5E5866",
"q  c #685851",
"w  c #425A9F",
"e  c #585A84",
"r  c #5A5B5A",
"t  c #575E78",
"y  c #3D6491",
"u  c #556494",
"i  c #3865AC",
"p  c #4565A8",
"a  c #676668",
"s  c #776752",
"d  c #656889",
"f  c #696876",
"g  c #766966",
"h  c #636A9A",
"j  c #736B86",
"k  c #736B97",
"l  c #746B75",
"z  c #687399",
"x  c #6B736A",
"c  c #6B7376",
"v  c #6F7389",
"b  c #7C7568",
"n  c #767678",
"m  c #8C7659",
"M  c #6C78A9",
"N  c #767999",
"B  c #7A7B86",
"V  c #857B79",
"C  c #5A7DBA",
"Z  c #828479",
"A  c #848488",
"S  c #9B8458",
"D  c #7686AA",
"F  c #878AA9",
"G  c #8A8A97",
"H  c #938A71",
"J  c #838BB8",
"K  c #8D8C8B",
"L  c #948C96",
"P  c #948CAF",
"I  c #A98F34",
"U  c #AD8F58",
"Y  c #8C9482",
"T  c #8C9499",
"R  c #9194A8",
"E  c #8895B8",
"W  c #959598",
"Q  c #9A9781",
"!  c #AF9768",
"~  c #879AC8",
"^  c #979AB9",
"/  c #C79B53",
"(  c #9C9CA4",
")  c #A59C9D",
"_  c #A79C88",
"`  c #BE9C62",
"'  c #A1A275",
"]  c #9CA5AC",
"[  c #A1A5BF",
"{  c #A4A589",
"}  c #A5A5A4",
"|  c #A5A5B5",
" . c #A6A5AD",
".. c #ADA5A1",
"X. c #ADA5B5",
"o. c #BAA550",
"O. c #C8A763",
"+. c #96A8CB",
"@. c #B7A873",
"#. c #D1A957",
"$. c #CAAC72",
"%. c #A3ADD2",
"&. c #A4ADA1",
"*. c #A4ADBD",
"=. c #A5ADAD",
"-. c #A5ADB5",
";. c #A9ADC7",
":. c gray68",
">. c #ADADB5",
",. c #ADADBD",
"<. c #AEADA3",
"1. c #B5ADB7",
"2. c #D6AD73",
"3. c #D7AD64",
"4. c #B4B089",
"5. c #CCB232",
"6. c #ABB5A5",
"7. c #ACB5C9",
"8. c #ADB5BA",
"9. c gray71",
"0. c #B5B5BD",
"q. c #B6B5C7",
"w. c #B9B5A9",
"e. c #BDB5B5",
"r. c #DCB567",
"t. c #E9B55D",
"y. c #A6B7D8",
"u. c #CAB767",
"i. c #C8B87A",
"p. c #8DB9DA",
"a. c #DBB975",
"s. c #B4BDB3",
"d. c #B5BDBD",
"f. c #B5BDCE",
"g. c #BBBDD6",
"h. c #BCBDC6",
"j. c #BDBDBC",
"k. c #BDBDCE",
"l. c #C6BDC9",
"z. c #C7BD91",
"x. c #E7BD70",
"c. c #B2BFE1",
"v. c #DBC24A",
"b. c #C3C385",
"n. c #BDC6D2",
"m. c #C1C6A2",
"M. c #C5C6C6",
"N. c #C6C6CE",
"B. c #C6C6D7",
"V. c #CEC6C3",
"C. c #EDC678",
"Z. c #EDC769",
"A. c #D7C87A",
"S. c #F9CA69",
"D. c #D5CBAF",
"F. c #EFCB53",
"G. c #F6CD79",
"H. c #C5CEF1",
"J. c #C6CEC6",
"K. c #C6CECE",
"L. c #CDCEE7",
"P. c #CECEC6",
"I. c #CECECE",
"U. c #CECED9",
"Y. c #ECCF28",
"T. c #D6D08F",
"R. c #CDD6E8",
"E. c #CED6CE",
"W. c #D6D6DB",
"Q. c #D6D6E8",
"!. c #ECD769",
"~. c #FCD869",
"^. c #C6D9F9",
"/. c #E9D97C",
"(. c #EED9AF",
"). c #F8D98F",
"_. c #FEDA7D",
"`. c #E8DDD5",
"'. c #D6DED6",
"]. c #D6DEDE",
"[. c #DEDED5",
"{. c gray87",
"}. c #DEDEE7",
"|. c #DEDEF7",
" X c #DFDEEF",
".X c #E0DE95",
"XX c #E4E4AB",
"oX c #EBE689",
"OX c #DEE7DE",
"+X c #DEE7EE",
"@X c #E7E7E6",
"#X c #E7E7EF",
"$X c #E7E7F7",
"%X c #E7E7FF",
"&X c #EFE7E5",
"*X c #EFE7EF",
"=X c #ECEA98",
"-X c #FDEA78",
";X c #F5EBD1",
":X c #FEEB8A",
">X c #FDED98",
",X c #E6EFF7",
"<X c #E7EFE7",
"1X c #E7EFEF",
"2X c #E7EFFF",
"3X c #EFEFEE",
"4X c #EFEFF7",
"5X c #EFEFFF",
"6X c #F7EFFA",
"7X c #F6F69E",
"8X c #EFF7FA",
"9X c gray97",
"0X c #F7F7FF",
"qX c #FFF7F5",
"wX c #FFF7FF",
"eX c #F9F8EA",
"rX c #FEFA89",
"tX c #FFFB97",
"yX c #FEFCAA",
"uX c #F7FFFF",
"iX c #FFFFF5",
"pX c white",
"aX c None",
"sX c black",
"dX c black",
"fX c black",
"gX c black",
"hX c black",
"jX c black",
"kX c black",
"lX c black",
"zX c black",
"xX c black",
"cX c black",
"vX c black",
"bX c black",
"nX c black",
"mX c black",
"MX c black",
"NX c black",
"BX c black",
"VX c black",
"CX c black",
"ZX c black",
"AX c black",
"SX c black",
"DX c black",
"FX c black",
"GX c black",
"HX c black",
"JX c black",
"KX c black",
"LX c black",
"PX c black",
"IX c black",
"UX c black",
/* pixels */
"aXaXaXaXaXaXaXaXaXaXaXaXaXaX3X{.j.W M.{.I.aXaXaXaXaXaXaXaXaXaXaX",
"aXaXaXaXaXaXaXaXU.I.j.E.3X3X@XI.} n ( h.>.aXaXaXaXaXaXaXaXaXaXaX",
"aXaXaXaX9X9X0.9.j.9.>.K.@X3X@XM.9.( (  .| I.aXaXaXaXaXaXaXaXaXaX",
"aXaX} 0.{.W.W.W.N.0.0.0.h.I.K.0.R G A N R 0.aXaXaXaXaXaXaXaXaXaX",
"aXaX:.N.9X#X}.U.q.]  .-.,.U.}.N.-.( G G R ,.k.aXaXaXaXaXaXaXaXaX",
"aXaX>.q.L.Q.4Xf.*.,.| ,.N.U.U.B.h.9. .( -.h.U.}.aXaXaXaXaXaXaXaX",
"aXaX|  XB.Q. XL.q.,.h.I.}.3X1X9X4X}.N.8.>.k.Q.}.aXaXaXaXaXaXaXaX",
"aXaX*.Q.#XuX9X XB.N.U.}.3X9X9X#XW.E.I.9.>.h.W.}.aXaXaXaXaXaXaXaX",
"aXj. XpXpX4X}.U.U.U.W.{.3X9X) W 4.<.M.0.=.0.U.}.{.aXaXaXaXaXaXaX",
"aXh.#X9X9X$XW.U.U.U.W.{.3X9XQ { b.A K 0.:.0.U.}.].aXaXaXaXaXaXaX",
"aX}  X{.0X$XW.N.U.U.U.W.I.V.4.4.Q Q Q d.>.8.U.}.}.aXaXaXaXaXaXaX",
"aX<.I.0X9X$XQ.B.K.I.U.9.C.).A.oX.X' } M.>.>.N.}.Q.aXaXaXaXaXaXaX",
"aXw.w.0X9XW.U.} h.I.I.M.@.z.:XT.=Xz.U.N.>.>.N.Q.Q.aXaXaXaXaXaXaX",
"aXe.Q }.pX,X>.! w.K.N.U.w.A.=Xb.7XT.W.K.9. .h.N.}.aXaXaXaXaXaXaX",
"aXaX_ +XpX X4.$.w.N.j.d.<.@./.T.=X>Xh.0.V V h.U.W.}.aXaXaXaXaXaX",
"aXaX4.$X3X0Xh.a.i.h.) $.$.a.A..XtX=X0.! S b ,.U.}.}.aXaXaXaXaXaX",
"aXaXL Q.0X8Xq.$.x.$.` r.r.G.).oX.X4.U.2.S A 0.U.}.}.aXaXaXaXaXaX",
"aXaXW U.0X0X|.q.$.! x.O.x.a.@.T.Z 3X#X@.Q :.>.B.Q.U.aXaXaXaXaXaX",
"aXaX<.l.0X0X$XU...a.! ` x.G./.>Xw.pX3Xj.!  .>.N.Q.}.aXaXaXaXaXaX",
"aXaX} | 4X0XU.B.N.0.! r.x.x.@.>X.X}.0X@X) H >.N.W.B.aXaXaXaXaXaX",
"aXaXaX( $X4X<.z.<.4.C.x.` @.C.:X>Xm.}.N.R 0 e h p J aXaXaXaXaXaX",
"aXaXM.) Q.}.m.a.a.x.C.a.` f H H 0 % o # # # = 4 w ^ }.aXaXaXaXaX",
"aXaXaX>.Q.}.d.i.! S m q   % v R 6  .N.G v | e > p w K.aXaXaXaXaX",
"aXaXaXG u p p 4 6 % G j.t >.9XpXG T pXh.N U., > M p B.aXaXaXaXaX",
"aXaXaXd 9 p p D B.e N.W.T 9.9XpX{.# }.4XR W.- 2 8 w q.aXaXaXaXaX",
"aXaXaXR 4 p w h $Xv  .h.* M.3XN.pXN ( pXU.I.- 2 9 w 7.aXaXaXaXaX",
"aXaXaX>.2 p p 4 W.F %  .h.{.{.v pXI.# @X9XN.- 2 4 p ^ aXaXaXaXaX",
"aXaXaXN.2 M p 8 U.*.% t < {.{.U.9XpXv ,.9X8.- , 4 w D aXaXaXaXaX",
"aXaXaXaXt w p u B.}.I.M.t {.h.+ >.pXU.e e # # = 4 w M U.aXaXaXaX",
"aXaXaXaXd 8 p u z F ( W A I.=.  t | e o @ # # = 9 w w B.aXaXaXaX",
"aXaXaXaXN 4 p w h d 6 +         + + v e v R T v z h p k.aXaXaXaX",
"aXaXaXaXG 4 p J u F G ; ; v j ( R G R ] ] R G N 2 8 w q.aXaXaXaX",
"aXaXaXaXR > p E 9 F N ( ( B ( ( ( -.] ,.h.v e t 2 4 w R aXaXaXaX",
"aXaXaXaX| 6 w D M R 6 A G f T A B d 6 # o = # 6 j ) D.V.aXaXaXaX",
"aXaXaXaXaXe h M h z # 6 + O     + 6 A ..z.z.z._ Q ..h.k.aXaXaXaX",
"aXaXaXaXaX6 u p h > t j V Q _ z.(.>XXXD.D.V.0.] ( >.U.B.}.aXaXaX",
"aXaXaXaXaXW w.D.(.D.4.@.4.4.w.j.K.W.#X9XpX#XU.9.} >.h.W.].aXaXaX",
"aXaXaXaXaXW ,.B.B.q.| >.j.h.M.M.M.j...}.iX;XI.j. .>.N.W.W.aXaXaX",
"aXaXaXaXaX .0.U.Q.U.0.9.e.h.9._ Q <.:.W.pX@Xj.0. . .h.W.W.aXaXaX",
"aXaXaXaXaX9.| Q.U.N.h.0.8.:.j.:.:.M.I.} [.4.) :.:. .0.U.U.aXaXaX",
"aXaXaXaXaX9.( U.W.B.h.L H W H H H { M.e.P.@XW.N.:.( 0.U.U.aXaXaX",
"aXaXaXaXaXaX] B.Q.U.k.K W W } 9.I.1XpXpXpXpX#XI.>.( >.B.U.#XaXaX",
"aXaXaXaXaXaX( n.Q.U.k.0.0.0.0.N.W.#X4X1XpXpX3XI.9.( -.N.B.W.aXaX",
"aXaXaXaXaXaX( h.Q.L.k.0.>.0.>.H ! e.4.b.P.3X@XW.9.(  .k.B.h.aXaX",
"aXaXaXaXaXaX:.,.U.U.h.0.>.0._ S S O.$.b.z.b.A.N.j.}  .h.U.U.aXaX",
"aXaXaXaXaXaX:.| U.L.k.0.>.) Q S U @.H 4.Q T.i.e.h. . .h.U.h.aXaX",
"aXaXaXaXaXaX0.( B.L.n.0.( U S U w.M.w.e.j.{ Q I.M. .( 0.N.U.aXaX",
"aXaXaXaXaXaXN.T q.U.N.0.( S m H ..$.A.T.m.I.#X@XN.:.( >.N.N.aXaX",
"aXaXaXaXaXaXaXW k.U.B.,.>.Q H ) U ` @.4.T.V.pX3XI.:.(  .N.U.W.aX",
"aXaXaXaXaXaXaXW 0.U.B.0.>.>.9...U ! H @.b.m.pX3XU.9.(  .k.U.].aX",
"aXaXaXaXaXaXaX(  .B.B.0.>.:.>.) U U ! @.T.D.pX4XW.0.(  .0.U.W.aX",
"aXaXaXaXaXaXaX( >.B.h.q.-. .>.>.! ` O.i..X@XpX9X].0.} ( 8.B.B.aX",
"aXaXaXaXaXaXaX .( h.n.q.-. .:.9.9.4.@.z.{.pXpX4X{.h. .( ] ^ ,.aX",
"aXaXaXaXaXaXaXj.G h.k.q.-. .:.>.j.h.W.3XpXpXpX9XU.( B v R h.N.aX",
"aXaXaXaXaXaXaXaXG q.k.h.>. . .>.0.h.N.N.h.0.,.,.N.d.:.(  .q.h.aX",
"aXaXaXaXaXaXaXaXB F P F N B A A A T :.N.@X}.U.}.#XK.:.W ( >.>.aX",
"aXaXaXaXaXaXaXaXA | k.q.>. . .( ( ( 0.0.U.#X#X9X3XK. .K B B aXaX",
"aXaXaXaXaXaXaXaXK ( h.h.-.] }  .:.j.I.{.4XpX9X#XM.( B 5 5 aXaXaX",
"aXaXaXaXaXaXaXaX>.B W ( ( K L ( >.M.I.W.W.M.} K V x 5 a W aXaXaX",
"aXaXaXaXaXaXaXaXaXaXK n A W } :.:.:.} ( W W K A A K K aXaXaXaXaX",
"aXaXaXaXaXaXaXaXaXaXaX) r a B A L } 9.9.:.} } e.aXaXaXaXaXaXaXaX",
"aXaXaXaXaXaXaXaXaXaXaXaXaX9.:.9.j.I.aXaXaXaXaXaXaXaXaXaXaXaXaXaX"
};
