/* XPM */
static char *_77941ad851849d9a14b3aabdedf9675jm9We3XNlYlIcvEW_10[] = {
/* columns rows colors chars-per-pixel */
"64 64 256 2 ",
"   c None",
".  c #794D3C",
"X  c #634939",
"o  c #634D45",
"O  c #6C4D43",
"+  c #7A4F41",
"@  c #6E5247",
"#  c #6E564C",
"$  c #65564C",
"%  c #725246",
"&  c #79584A",
"*  c #715C52",
"=  c #7D5C51",
"-  c #7D6053",
";  c #75665A",
":  c #666256",
">  c #7B766B",
",  c #BA6A17",
"<  c #824E3C",
"1  c #8E4F3C",
"2  c #8C4E36",
"3  c #914E3D",
"4  c #85513A",
"5  c #8A523B",
"6  c #9C5A36",
"7  c #95543B",
"8  c #95583F",
"9  c #9C5A3C",
"0  c #985537",
"q  c #985529",
"w  c #A55C35",
"e  c #A35D3D",
"r  c #B15E2E",
"t  c #8E673C",
"y  c #BA692E",
"u  c #B6642A",
"i  c #AB6233",
"p  c #AA623B",
"a  c #B66A34",
"s  c #BE7239",
"d  c #BE702F",
"f  c #CD761B",
"g  c #D47D1A",
"h  c #CB7524",
"j  c #C4732C",
"k  c #CB762B",
"l  c #C87527",
"z  c #D47C24",
"x  c #D07A27",
"c  c #C87939",
"v  c #C46E29",
"b  c #835542",
"n  c #8D5B4D",
"m  c #895A44",
"M  c #935941",
"N  c #9B5B41",
"B  c #975A46",
"V  c #905E50",
"C  c #A25D40",
"Z  c #A25E4A",
"A  c #866349",
"S  c #8A644B",
"D  c #8A6648",
"F  c #956649",
"G  c #9A7549",
"H  c #826454",
"J  c #8B6957",
"K  c #956A54",
"L  c #987359",
"P  c #A4634B",
"I  c #A86646",
"U  c #B26D47",
"Y  c #B97446",
"T  c #A36952",
"R  c #A26350",
"E  c #B26E51",
"W  c #A47559",
"Q  c #A6795C",
"!  c #A67759",
"~  c #B57454",
"^  c #B77A58",
"/  c #A2784A",
"(  c #8F7362",
")  c #9A7665",
"_  c #947C71",
"`  c #A37B63",
"'  c #A97761",
"]  c #B47E63",
"[  c #C57A46",
"{  c #C17C53",
"}  c #7E8275",
"|  c #DD841C",
" . c #DB8314",
".. c #DC8105",
"X. c #E68B0A",
"o. c #EE9108",
"O. c #F49602",
"+. c #F79802",
"@. c #FA9A01",
"#. c #F69908",
"$. c #E58A14",
"%. c #F29818",
"&. c #FDA000",
"*. c #DD8527",
"=. c #D0802F",
"-. c #E58C23",
";. c #A98553",
":. c #B1895A",
">. c #8A8779",
",. c #9C8578",
"<. c #A68469",
"1. c #AB866A",
"2. c #AE896C",
"3. c #A58165",
"4. c #B4896C",
"5. c #B3956A",
"6. c #B6986B",
"7. c #AE8B72",
"8. c #A48779",
"9. c #B08D72",
"0. c #B59375",
"q. c #B99677",
"w. c #BE9A79",
"e. c #B89677",
"r. c #AF937F",
"t. c #C6835A",
"y. c #D48C4F",
"u. c #C49B6A",
"i. c #C2997A",
"p. c #D19169",
"a. c #C6A366",
"s. c #C4A27A",
"d. c #CBA877",
"f. c #D0AC78",
"g. c #D5B27A",
"h. c #DCB77A",
"j. c #E3A17A",
"k. c #9A948A",
"l. c #958B80",
"z. c #A6978B",
"x. c #BE9D83",
"c. c #B59786",
"v. c #A99389",
"b. c #BEA187",
"n. c #ADA396",
"m. c #BDA296",
"M. c #B8AA96",
"N. c #BAADA2",
"B. c #BDB1A9",
"V. c #B4B0AB",
"C. c #C3A484",
"Z. c #CCAB85",
"A. c #CDAE8B",
"S. c #C7A588",
"D. c #CEB28B",
"F. c #D6B689",
"G. c #C4AC9B",
"H. c #C7A994",
"J. c #D6AE99",
"K. c #CBB599",
"L. c #D1B695",
"P. c #D3BA9D",
"I. c #DABD99",
"U. c #D7B798",
"Y. c #E0BC82",
"T. c #CEB9A6",
"R. c #C9B5A6",
"E. c #DABCA2",
"W. c #D2BDAC",
"Q. c #D3B6A6",
"!. c #C7BBB4",
"~. c #D6BEB4",
"^. c #C09F84",
"/. c #DAC19B",
"(. c #E6C388",
"). c #ECC88B",
"_. c #E6C387",
"`. c #EECC93",
"'. c #E2C69A",
"]. c #F2D299",
"[. c #DBC3A3",
"{. c #DAC5A9",
"}. c #CBC4B9",
"|. c #DCCBBC",
" X c #D7C5B7",
".X c #E7CDA6",
"XX c #EAD3AA",
"oX c #F1D6A4",
"OX c #F6DBAA",
"+X c #E8D5B8",
"@X c #F4DCB4",
"#X c #E1CAB8",
"$X c #F2E1BB",
"%X c #FAE3BB",
"&X c #FAE1B7",
"*X c #CCC7C6",
"=X c #DBCEC4",
"-X c #D3CCC6",
";X c #DCD2CA",
":X c #DED1C6",
">X c #DAD7D5",
",X c #E2D5CA",
"<X c #E9DAC9",
"1X c #F5DFC0",
"2X c #E5DDD8",
"3X c #F5E4C6",
"4X c #F9E6C6",
"5X c #F9E7C8",
"6X c #F9E9CC",
"7X c #F4E3CB",
"8X c #EBE2DA",
"9X c #E8E2D9",
"0X c #FAECD6",
"qX c #FAECD6",
"wX c #FAEBD3",
"eX c #FAEDD8",
"rX c #FCEFD9",
"tX c #F2E7D9",
"yX c #FEF1DB",
"uX c #FDF1DC",
"iX c #FEF0CC",
"pX c #EDECEB",
"aX c #E9E6E4",
"sX c #F5EDE4",
"dX c #FAF2E5",
"fX c #FBF4ED",
"gX c #EEEEF1",
"hX c #F3F4F6",
"jX c #F5F6F8",
"kX c #F7F8F9",
"lX c gray98",
"zX c #FBF6F2",
"xX c #EFF1F5",
"cX c black",
"vX c black",
"bX c black",
"nX c black",
"mX c black",
"MX c black",
"NX c black",
"BX c black",
"VX c black",
"CX c black",
"ZX c black",
"AX c black",
"SX c black",
"DX c black",
"FX c black",
"GX c black",
"HX c black",
"JX c black",
"KX c black",
"LX c black",
"PX c black",
"IX c black",
"UX c black",
/* pixels */
"                                                                                                                                ",
"                                                                                                                                ",
"                                              zXzX                                                                              ",
"                    zXfXdXdXdXsX0XwX0X0X0X0X0XeXeXyXyXyXyXyXdXdXdXfXfXdXfXzX                                                    ",
"              dXdXsXeXeX0X6X6X4X%X%X%X5X5X6XiXwXeXyXyXrX0X6XwXeXeXeXeX0XeX0XwXeXsX                                              ",
"        dXdXsX7X7X0XeXwX5X5X5X5X5X5X5X5X5X6X0X0XrXyXyXuXdXuXyXyXyXrXwX6X5X3X$X1X7X8XsXdX                                        ",
"        0XwX7X3X6X0X0XwX5X4X5X6XwX0X0X0X0X0X0XrXyXyXeX0XeX0X0X0X0X6X5X4X%X%X@X@X@X@X<XtXdX                                      ",
"      3X$X$X$X1X5XwX6X5X5X5X5X5X5XwX0X0X0XwX0X0X0X0X0X0XwX6X4X4X%X%X%X%X@XOXoXoXoX.X.X+X8X                                      ",
"    tX+XXXOX$X1X3X3X3X4X4X4X4X3X4X4X4X4X%X%X%X%X%X%X%X%X%X%X&X@XOXOXoX].].].`.`.).).'..X#X                                      ",
"  9X<X{..XXX@X@X$X$XOX@X$XOXOXOXOXOXoXoXOXOXoXoXoX].oXoX].].].`.`.`.`.).)._.(.(.(.Y.Y.I.{.<X8X                                  ",
"  2X<X{./.'..X.XXX@X@XXX.X`.).).).).).)._.(.(.(.(.(.(.(.(.(.Y.Y.Y.Y.Y.Y.Y.h.h.h.g.g.F.D.P.,X2X                                  ",
"  9X,XP.U./.{.{.[.I.I.I.I.F.h.h.g.g.g.g.g.g.f.f.f.g.g.g.f.f.f.f.f.f.f.f.f.f.f.d.s.s.C.A.P.=X,X                                  ",
"    ,XP.L.P.E.L.Z.Z.L.L.Z.s.s.s.u.w.w.w.w.w.w.w.w.w.w.w.w.w.w.w.w.w.w.w.w.w.w.q.q.w.w.S.Q.,X9X                                  ",
"      T.P.L.L.D.C.e.C.b.q.w.q.0.0.0.9.9.2.2.2.1.<.1.2.2.2.9.0.0.9.9.9.0.0.0.0.0.q.w.x.H.T.                                      ",
"      {.P.L.L.L.L.H.S.C.x.w.q.0.0.9.2.9.1.<.<.<.<.<.<.<.<.<.<.<.<.1.2.2.2.2.9.0.e.x.C.H.T.                                      ",
"      #X{.I.E.E.E.P.A.C.x.w.w.w.w.0.7.2.1.<.<.<.3.` 3.<.<.<.<.<.<.3.` <.1.2.9.0.e.x.H.G.T.                                      ",
"      2X#XE.E.E.P.L.A.C.w.w.w.w.0.0.9.2.1.<.<.<.<.<.<.<.<.<.<.<.<.<.<.<.1.2.9.9.e.x.H.R.~.                                      ",
"      >X|.[./.I.U.L.A.S.x.w.w.w.0.0.9.9.2.2.2.1.<.<.<.<.<.2.1.<.<.1.2.2.1.1.7.9.9.c.c.G.W.8XhX                                  ",
"      2XW.H.U.F.F.D.Z.Z.s.w.w.w.0.0.0.9.2.2.2.2.1.<.2.2.2.2.2.2.2.2.9.9.9.9.9.9.9.0.x.H.W.9XpX                                  ",
"      9XR.c.x.S.Z.Z.Z.Z.s.w.w.w.w.q.0.0.0.0.9.2.2.2.7.2.2.7.9.9.2.2.9.9.9.9.0.0.0.0.w.H.W.<X8X                                  ",
"      8XR.7.Q 2.q.s.s.s.w.w.w.w.w.w.e.0.0.0.0.9.9.9.9.9.9.9.9.9.9.9.9.9.0.0.0.0.0.0.x.b.G. X=X                                  ",
"      aXW.0.! W Q 2.0.0.0.2.1.1.1.9.0.0.0.0.0.9.9.9.0.0.0.0.0.0.0.0.0.0.0.0.0.q.w.w.x.x.S.L.{.<X      jXlXlXlX                  ",
"        S.e.! W W ! 1.1.` K K V V V K L L ` 1.2.7.9.9.9.0.0.0.0.0.0.0.w.w.w.w.w.w.x.x.x.C.Z.U.E.K.R.*X2XpXjXkXlXlX              ",
"        m.c.Q W W W W L F m b b b 4 < b b m K L ` <.1.2.7.7.9.0.0.q.w.w.w.w.w.w.w.x.C.C.S.D.A.S.S.M.!.>XpXhXhXjXlXlX            ",
"        G.x.Q W W W W K F 7 1 4 4 4 4 4 < < b S K L L L ) ` <.9.0.q.w.w.w.w.w.x.C.C.C.S.Z.F.L.J. X          hXhXjXkXkXkX        ",
"        G.x.Q W Q ^ W F M M 7 3 4 4 4 4 4 < < b m n n n n K K ` ` 1.9.0.e.w.w.x.^.C.Z.Z.A./.#X2X              gXhXhXjXkXkX      ",
"        m.c.~ E ~ ~ ~ I C N 7 3 3 5 4 b 4 4 4 < < 1 b b b n F F F R W 1.0.q.w.w.w.C.Z.A.P.+X<X                    gXhXjXkX      ",
"        m.c.] ~ E E E I e 0 0 7 8 7 3 1 < < . < < 3 5 4 < 4 4 b 4 5 B T ' 9.0.q.i.S.Z.D.P.,X9X                    xXhXjXkXlX    ",
"        m.c.^ ~ ~ ~ ~ U w e 9 0 0 7 1 5 4 4 4 2 0 0 5 4 4 1 3 1 b 5 7 C T ` 7.q.w.S.Z.L.{.tXsX                    hXxXhXhXhXjX  ",
"        m.c.^ ~ ~ ~ ~ U i w e e e 9 0 0 7 3 3 7 6 i 6 7 8 7 8 M 7 5 5 7 N T 3.9.e.C.Z.L. X                          hXhXhXhXjXkX",
"        G.x.^ Y Y ~ ~ U i w w w w w w e 9 0 0 w i y i w 0 e N 8 7 8 N C e P ` 1.e.x.S.E.:X                          hXhXhXhXhXhX",
"        J.S.t.[ [ Y ~ U i i i i i w w w i i w r v *.j i w e 9 7 8 N C C I I T ` 2.w.Z.[.<X                          hXhXhXhXhXhX",
"        J.S.t.[ c j Y a u u u y y y y d d u u y x | z d w 0 7 7 M M M N B P I I Q 9.G.W.                            hXhXhXhXhXhX",
"        Q.S.t.[ [ c a r u u y v l l x x h k k h | $.| j w 0 8 M M M 9 a a s =.c ^ 9.T.|.                          kXjXhXhXhXjXkX",
"        Q.H.t.[ c x j d d u f g $.$.*.*.| | *.-.$.o.X.h w 0 8 8 7 7 M Z P I E T ' c.G.W.                          kXjXhXhXhXjXkX",
"         XJ.t.c j k l l k v z $.O.+.+.+.O.O.O.O.O.O.O. .i 6 8 M M N I C Z Z P Z ' x.K.W.                          kXjXhXjXjXlXlX",
"         XJ.y.j l k j h z x | O.+.@.@.@.+.O.O.O.O.O.+.X.u p N M M M N C Z R T T ' x.K.W.                      lXlXkXjXjXkXlXlX  ",
"         XJ.y.k h z x g $.*.-.%.@.@.@.+.O.O.O.O.O.O.+.o. .h u w e N N C Z R T T ' x.Q.~.                      kXkXkXjXjXkXlXlX  ",
"         XJ.y.x f z z $.O.O.O.O.+.@.@.+.O.O.O.O.O.+.+.+.+.O.$.x s I C C I I T K ` x.W.|.                    kXkXkXkXjXhXhXjX    ",
"        |.P.t.k f x z *.%.#.+.O.+.@.@.+.O.O.O.+.O.+.+.+.+.+.o.g a 9 M M B F K K ` x.Q. X                kXjXjXjXkXkXkXhXgX      ",
"        }.G.t.k f z z | $.O.+.+.@.+.+.+.O.O.+.O.O.O.+.O.o.-.j w 8 B n n n n A S ) c.R.}.              gXjXkXkXkXkXjXhXpXpX      ",
"        }.R.t.k h v h g $.O.+.+.@.+.+.+.+.+.+.O.O.+.O.$.k p N M n m b = = = = - L 9.R.;XpX      >X2XpXjXkXkXkXkXjXhXaX>X        ",
"        *XQ.t.s w 4 q , ..O.+.+.+.+.+.+.+.+.+.+.+.O.X., 6 8 m b = & % = = = = - L e.R.-X*X!.-XpXjXlXlXkXlXlXkXjXpX>X            ",
"        |.E.p.P . X . 6 x o.+.O.o.O.+.+.+.+.+.+.+.o.v 6 4 b + @ @ @ @ @ # * = = ( c.=XpXhX8XpXlXlXlXlXlXlXkXhXaX>X              ",
"        ;X~.i.S X X & e h o.+.@.+.+.+.+.+.+.+.@.o.z w 5 b % O O O O @ @ # * = - ( c.;XhXlXlXlXlXlXlXlXjXhXaX>X                  ",
"        -X!.8.; $ o @ 8 j X.@.&.&.@.+.+.+.@.@.+.g q 5 + @ O O O O O O @ # * = - ( c.;XjXlXlXlXlXlXlXhXaX;X*X                    ",
"        *XB.,.J - * = m a *.%.&.&.&.&.@.@.@.+.| a 4 % @ O O o o O O O @ # * = - ( c.;XhXlXlXjXpXpX9X>X>X                        ",
"        -XB.>.) L T F B p l | $.o.O.O.O.O.o.$.u 5 . X o o o o o o o o @ # * = H J 8.}.pXkXpX;X!.*X                              ",
"        ;X~.c.) L E E U i y y y i w p e 6 6 8 5 . O o o o o o o o o o @ # * H W 4.i.T.2XpX:X}.-X                                ",
"        <X#XS.4.^ { s s Y U p C B m b 4 . . % @ O O O O O O O @ % & = b m F T ~ p.j.U.}.}.                                      ",
"        9X=XS.4.^ Y E U U U I I N N N M M M n M M M M M M M M M N I I p p U Y { p.J.|.;X                                        ",
"        8X=XM.>.> ; * * * % % % % + + % @ % + < < . % % % % % % + b b b m S K ) r.G.|.,X                                        ",
"        2X,XR.z.>.> ; : : $ o o o o o O O O % & m b b b . . % % = A S S J _ z.c.s.D.+X<X                                        ",
"        2X-Xn.z.k.k.n.c.3.K F F A A A D F m % & A n A A A S A D / :.a.D.P.A.6.u.d.A.,X9X                                        ",
"        2X*Xz.>.} } >.k.n.M.M.M.c.7.) L J D t t D S L 3.5.w.S.L.K.K.b.6.5.5.5.5.w.G.:X9X                                        ",
"            V.k.} > > >.l.k.z.z.n.B.W.T.[././.{.{.[./.[.P.S.s.w.6.5.5.5.5.5.5.0.x.K.,X8X                                        ",
"            2X;X|.}. X X X X{././.I./././.I.F.g.g.h.h.g.d.a.a.a.a.a.a.a.d.d.d.f.P. X                                            ",
"              ;XR.7.7.4.:.Q Q ! G K L L ! ;.;.;.;.;./ / G F F F F G G G L L 5.S.{.9X                                            ",
"                  N.c.8.( J H H A A - H - = = H H A A S J K S A A A S K L <.m.                                                  ",
"                    :X}.N.v.,._ J ; ; ; * * * * * * * * * - J K ( _ 8.M.}.=X                                                    ",
"                              }.B.N.M.n.k.l.,.,.8.8.,.8.v.c.m.N.!.,XtX                                                          ",
"                                              9X8XtX                                                                            ",
"                                                                                                                                ",
"                                                                                                                                "
};
