/* XPM */
static char *_77941ad851849d9a14b3aabdedf9675jm9We3XNlYlIcvEW_14[] = {
/* columns rows colors chars-per-pixel */
"64 64 256 2 ",
"   c None",
".  c #7E4D3E",
"X  c #754B3A",
"o  c #644939",
"O  c #634D45",
"+  c #6C4D43",
"@  c #7A4F41",
"#  c #6E5247",
"$  c #6E564C",
"%  c #66564C",
"&  c #725246",
"*  c #79574A",
"=  c #715C52",
"-  c #7C5D51",
";  c #7E6053",
":  c #74665A",
">  c #666256",
",  c #7C766B",
"<  c #824E3C",
"1  c #8D4E3C",
"2  c #914E3D",
"3  c #855139",
"4  c #8B513B",
"5  c #9C5936",
"6  c #95543C",
"7  c #995639",
"8  c #95583E",
"9  c #9C5A3C",
"0  c #985537",
"q  c #A55C35",
"w  c #A35D3D",
"e  c #AD5D30",
"r  c #B45F2D",
"t  c #86673B",
"y  c #B7682C",
"u  c #AB6233",
"i  c #AA623A",
"p  c #B66933",
"a  c #BE7131",
"s  c #BF6D17",
"d  c #CC771D",
"f  c #D47D19",
"g  c #D47B0C",
"h  c #C4722C",
"j  c #CB762A",
"k  c #CA7626",
"l  c #D37C24",
"z  c #D47E26",
"x  c #C57738",
"c  c #C7712F",
"v  c #835442",
"b  c #8C5B4B",
"n  c #8A5B44",
"m  c #935941",
"M  c #9C5B41",
"N  c #975B47",
"B  c #8B5F51",
"V  c #A25D40",
"C  c #A25E49",
"Z  c #866349",
"A  c #89634B",
"S  c #8A6648",
"D  c #966649",
"F  c #9A7549",
"G  c #816454",
"H  c #8B6958",
"J  c #986A57",
"K  c #987358",
"L  c #A36243",
"P  c #A3634B",
"I  c #AA6848",
"U  c #B36D44",
"Y  c #BB7343",
"T  c #B87447",
"R  c #A36952",
"E  c #A26250",
"W  c #B26F51",
"Q  c #A6795C",
"!  c #A57659",
"~  c #B57454",
"^  c #B97956",
"/  c #A2784A",
"(  c #8F7363",
")  c #987766",
"_  c #947C71",
"`  c #A27C63",
"'  c #A87B66",
"]  c #B27D62",
"[  c #C57A44",
"{  c #C97A40",
"}  c #C27D53",
"|  c #7E8276",
" . c #DD8419",
".. c #DD8207",
"X. c #E58A07",
"o. c #ED910A",
"O. c #EE9205",
"+. c #F49603",
"@. c #F69801",
"#. c #F99A01",
"$. c #F0920A",
"%. c #E38814",
"&. c #EE941A",
"*. c #FDA000",
"=. c #DD8628",
"-. c #D18333",
";. c #E58D24",
":. c #A98553",
">. c #B58556",
",. c #87877B",
"<. c #9A8578",
"1. c #A68469",
"2. c #AA876A",
"3. c #AE896C",
"4. c #A78267",
"5. c #B48A6A",
"6. c #B3966A",
"7. c #B6986B",
"8. c #AE8B72",
"9. c #A4897A",
"0. c #B08D72",
"q. c #B59375",
"w. c #B99777",
"e. c #B59378",
"r. c #BD9A7A",
"t. c #BA9978",
"y. c #AF937F",
"u. c #C7845A",
"i. c #D69056",
"p. c #C19C69",
"a. c #C09E7B",
"s. c #C39176",
"d. c #D29169",
"f. c #C6A366",
"g. c #C4A27A",
"h. c #CAA776",
"j. c #D0AC78",
"k. c #D5B37A",
"l. c #DCB77A",
"z. c #E3A17A",
"x. c #9A968B",
"c. c #998B80",
"v. c #A89789",
"b. c #BE9D83",
"n. c #B59786",
"m. c #A6968D",
"M. c #BCA489",
"N. c #BDA296",
"B. c #B7AA97",
"V. c #ACA298",
"C. c #BAADA2",
"Z. c #BAB1AB",
"A. c #C3A484",
"S. c #CCAC85",
"D. c #CBAD8B",
"F. c #C8A58A",
"G. c #CEB28A",
"H. c #D2B38A",
"J. c #DAB986",
"K. c #C5AC9B",
"L. c #C7A894",
"P. c #D6AE9A",
"I. c #CBB59A",
"U. c #D2B695",
"Y. c #D3BB9B",
"T. c #D8BA9A",
"R. c #E0BC83",
"E. c #CEB9A6",
"W. c #CAB6A8",
"Q. c #DABCA3",
"!. c #D3BDAC",
"~. c #D3B5A5",
"^. c #C7BBB4",
"/. c #D1BEB1",
"(. c #DAC19A",
"). c #DFC08F",
"_. c #E6C387",
"`. c #E9C68A",
"'. c #EECC92",
"]. c #E1C69A",
"[. c #F2D399",
"{. c #EFD19A",
"}. c #DAC5A7",
"|. c #CBC3BA",
" X c #DCCBBC",
".X c #D7C6B8",
"XX c #DFD1B9",
"oX c #E5CCA6",
"OX c #E9D1A9",
"+X c #F2D6A3",
"@X c #F7DBA9",
"#X c #E7D5B5",
"$X c #F5DDB6",
"%X c #E1CAB8",
"&X c #F2E1BD",
"*X c #FAE3BB",
"=X c #CBC6C5",
"-X c #DBCDC3",
";X c #D3CCC7",
":X c #DCD2CA",
">X c #DED2C6",
",X c #DAD7D5",
"<X c #E2D6CA",
"1X c #E8D9C9",
"2X c #E9DFD9",
"3X c #E3DDD7",
"4X c #F6DEC2",
"5X c #F3E3C6",
"6X c #F9E6C4",
"7X c #F3E4C9",
"8X c #F9E7C8",
"9X c #F9E8CC",
"0X c #ECE3DA",
"qX c #EAE1D8",
"wX c #FAECD6",
"eX c #FAEBD3",
"rX c #FBEDD9",
"tX c #F2E8DD",
"yX c #FEF0DA",
"uX c #FEF1DC",
"iX c #EBE0CF",
"pX c #EDECEB",
"aX c #E9E6E4",
"sX c #F6EDE3",
"dX c #FAF2E6",
"fX c #EEEEF1",
"gX c #F3F4F6",
"hX c #F5F6F8",
"jX c #F7F8F9",
"kX c gray98",
"lX c #F8F7F7",
"zX c #EEF0F5",
"xX c black",
"cX c black",
"vX c black",
"bX c black",
"nX c black",
"mX c black",
"MX c black",
"NX c black",
"BX c black",
"VX c black",
"CX c black",
"ZX c black",
"AX c black",
"SX c black",
"DX c black",
"FX c black",
"GX c black",
"HX c black",
"JX c black",
"KX c black",
"LX c black",
"PX c black",
"IX c black",
"UX c black",
/* pixels */
"                                                                                                                                ",
"                                                                                                                                ",
"                                              dXdX                                                                              ",
"                    sXsXsXsXrXwXwXwXwXwXwXwXyXyXyXyXwXwXwXwXwXwXsXdXdXdXdXdX                                                    ",
"              sXtXwXwXwXwXwXeX6X*X*X*X*X*X*X*X6XeXwXyXrXwX9XeXwXyXrXwXwX9X8X7XiX0X                                              ",
"        dXsX0X7X7XwXwXwXwX9X8X8X6X9XeX9XeXwXwXdXdXdXdXdXyXyXyXyXyXrXeX9X8X6X&X&X&X7XtXsX                                        ",
"        7X7X7X&X5XwXwXeX8X8X8X8X8XeXwXwXwXwXyXyXyXyXyXyXyXyXyXyXwXwXeX9X6X6X*X$X$X$X1XiXsX                                      ",
"      5X&X&X5X5X9XwX9X8X8X8X8X9XeXrXyXyXyXrXwXwXwXwXwXwXwXwXwXeX9X6X*X*X$X@X+X[.{.OXOX#X5X                                      ",
"    iX#X#X$X$X&X&X&X$X6XeX8X9XeX8X6X*X*X6X6X*X*X*X*X*X*X*X$X@X@X@X+X[.[.{.'.'.'.'.`.].oX%X                                      ",
"  2X1X}.oXOX$X$X&X5X4X4X$X+X[.+X@X@X@X@X+X+X+X+X+X[.+X+X[.[.{.'.'.'.'.'.'.`._._._._.R.J.}.<X2X                                  ",
"  2X1X}.(.].oX#X$X$XOXOX+X+X{.'.`.`.`.`.`._._._._._._._._._.R.R.R.R.R.R.R.l.l.l.k.H.H.H.(.<X2X                                  ",
"  qX<XY.Y.(.}.}.}.oX].).J.J.l.l.k.k.k.k.k.k.j.j.j.k.k.k.k.j.j.j.j.j.j.j.j.j.S.g.g.g.A.D.Y.-X<X                                  ",
"    <XY.U.Y.Y.D.b.A.D.S.a.g.g.p.p.p.p.r.w.w.w.t.r.r.r.r.r.r.r.r.r.r.r.r.r.b.r.w.w.r.b.M.I.:X2X                                  ",
"      E.Y.Y.Y.D.b.t.A.r.0.q.w.w.w.0.3.0.3.2.1.1.1.2.2.2.3.0.q.q.0.0.0.q.w.w.w.w.w.r.r.F.E.                                      ",
"      }.Y.U.Y.U.U.U.F.A.b.r.w.w.r.q.0.3.2.1.1.1.1.1.1.1.1.2.2.1.1.2.2.2.2.3.0.q.t.b.A.D.E.                                      ",
"      %X}.T.Q.Q.Q.Q.H.S.A.r.r.r.r.w.q.0.2.1.1.1.4.` 4.1.1.1.1.1.1.` ` 4.2.3.0.q.t.b.L.K.E.                                      ",
"      3X%XQ.Q.Q.Q.Y.G.A.r.r.r.r.w.q.0.3.2.2.1.1.1.1.1.1.1.1.1.1.1.1.1.1.3.0.0.0.e.b.L.K.E.                                      ",
"      ,X X}.(.T.T.U.D.A.A.r.r.r.w.q.0.0.3.2.2.2.2.1.2.2.2.2.2.1.1.2.2.2.2.2.0.0.e.n.n.K.!.0XgX                                  ",
"      3X/.K.Q.U.H.H.S.S.g.a.r.r.r.w.q.0.3.2.2.2.2.2.2.3.2.2.2.2.2.3.8.8.0.0.q.0.0.e.b.L.!.1X0X                                  ",
"      qXW.n.b.S.S.A.S.S.g.g.a.r.r.w.w.q.w.q.0.8.3.3.0.0.0.0.0.0.0.0.0.8.0.0.0.0.q.b.b.L.!.<X2X                                  ",
"      qXW.8.Q 2.t.A.g.a.r.r.r.r.r.r.t.w.w.w.q.0.8.3.8.0.0.q.q.0.q.q.0.0.q.w.q.q.q.e.b.M.K..X-X                                  ",
"      aX!.q.! ! Q 2.q.w.q.q.0.8.3.0.q.q.w.t.w.q.q.q.q.q.w.w.w.w.q.q.q.q.w.w.w.w.t.b.b.b.A.U.}.1X      kXkXkXkX                  ",
"        A.e.! ! ! ! 2.2.` J A Z n b D K ` 3.q.q.q.q.q.q.w.w.w.w.q.w.w.w.w.r.r.r.r.b.A.A.a.S.(.}.K.W.=X3XpXhXjXkXkX              ",
"        N.n.Q ! ! ! ` K D n v v < < < v v b K ` 2.8.8.0.q.q.q.q.q.w.r.r.r.r.r.r.r.b.A.A.A.G.H.S.A.N.^.,XpXgXgXhXkXkX            ",
"        K.n.Q ! Q ] Q J D 6 1 3 3 3 3 3 < . v b J K ` ` 4.2.3.0.q.w.r.r.r.b.r.b.b.b.S.S.S.H.H.U./.          gXgXhXjXjXjX        ",
"        K.n.Q ! Q ] ! D m m 6 1 3 3 3 3 3 < < v v v v v n A K ` 2.0.w.r.r.r.r.b.A.A.S.S.D.T..X>X              fXgXgXhXjXjX      ",
"        N.n.] ~ ~ ~ ~ I V M 6 2 2 4 3 v 3 3 3 < < 1 < . < v b b N D Q 2.0.w.r.b.A.A.S.S.H.}.%X                    fXgXhXjX      ",
"        N.n.] ~ W W W I w 7 0 7 8 6 2 1 < < < < < 2 4 < < 3 3 v 4 2 m R ' 0.q.t.a.A.S.G.Y. X<X                    zXgXhXjXjX    ",
"        N.b.^ ~ ~ ~ ~ U q w 9 0 7 6 1 4 3 3 3 1 6 7 4 3 3 1 2 4 v 4 6 V R ' 0.w.a.A.S.U.}.1X0X                    gXzXgXgXgXhX  ",
"        N.b.^ ~ ~ ~ ~ U u q w w w 9 0 0 6 2 2 6 5 u 5 7 8 7 8 m 4 3 4 7 9 R 4.0.t.A.S.T. X                          gXgXgXgXhXjX",
"        K.b.^ T T ~ ~ U u q q q q q q w 9 0 0 9 i p u 5 7 w M m m m 8 7 9 P ` 3.t.b.S.Y.XX                          zXgXgXgXgXgX",
"        P.F.u.[ [ T ~ U u u u u q w w q u u q e h =.h u q w 9 7 8 M w w L P R ` 3.r.F.!.>X                          gXgXgXgXgXgX",
"        P.F.u.[ [ Y T Y p p y y y p p a a p u y d  .k y q 8 6 6 m 8 7 M N P I I Q 0.D.Y.                            gXgXgXgXgXgX",
"        ~.F.u.[ { { Y p y r y h h h j k k j h l  .X. .h q 8 8 7 8 6 9 Y Y x =.-.>.3.~. X                          jXhXgXgXgXhXjX",
"        ~.F.u.[ x x x a a y k z  . .=.=. .%.%.%.&.$.%.k q 0 8 8 7 6 6 m C P D R ' n.K.!.                          jXhXgXgXgXhXjX",
"        .XP.u.x h j h h j h l o.+.@.#.#.@.+.+.+.+.#.@. .u 0 8 m m M L 9 V P P J ' b.I.!.                          jXhXgXgXhXkXkX",
"        .XP.u.c h j h k z j  .+.#.*.*.*.#.+.+.&.&.#.#.%.y w M m m m M L P E R R ' b.I.!.                      kXkXjXgXhXjXkXkX  ",
"        .XP.i.j j -.k f %.=.;.&.#.#.#.#.#.+.+.+.#.#.#.o. .d y w w M M V C E R R ] A.}. X                      jXjXjXgXhXjXkXkX  ",
"         XT.i.z d z z %.+.+.+.+.#.#.#.#.@.+.+.+.+.#.#.#.#.+.X.g p L V V L P R J ' b.!. X                    jXjXjXjXhXgXgXgX    ",
"         XT.u.j d d l %.+.#.#.#.#.#.#.#.+.+.+.@.#.#.#.#.#.#.o.f p 9 m m N D D A ) b.!. X                jXhXgXhXjXjXjXgXfX      ",
"        |.K.u.j d d g ..%.+.#.#.#.#.#.#.#.#.#.#.+.+.@.@.+.%.h w 7 m b b b B G ; ( n.W.|.              gXgXjXjXjXjXhXgXpXpX      ",
"        =XW.u.j d d d f %.+.#.#.#.#.#.#.#.#.@.+.+.@.+.%.h q 7 m b b v - G G - ; ( n.W.:XpX      ,X3XpXgXjXjXjXjXhXgXaX,X        ",
"        =X~.u.x u 3 4 y ..+.#.#.#.#.#.#.#.#.#.#.#.@.X.s 0 8 n v - * & - - - - ; K e.W.;X;X^.;XpXgXkXkXjXkXkXjXgXpX,X            ",
"         XQ.d.I . o X 5 l o.#.+.%.o.#.#.#.#.#.#.#.O.h 5 3 v @ # # # # # $ = - ; ( n.-XpXgX0XpXkXkXkXkXkXkXkXgXaX,X              ",
"        :X/.s.A o o * L l o.#.*.#.#.#.#.#.#.#.#.o.l q 1 . & + + + + # # $ = - ; ( n.:XgXkXkXkXkXkXkXkXhXgXaX,X                  ",
"        ;XZ.<.: % O # n h o.#.*.*.#.#.#.#.#.#.@.f 5 < @ # + + + + + + # $ = - ; ( n.:XgXkXkXkXkXkXkXgXaX,X=X                    ",
"        =XZ.<.H ; = - n p %.#.*.*.*.#.#.#.#.@. .p v & + + + + + + + + # $ = - ; H 9.;XgXkXkXgXpXaXqX,X,X                        ",
"        ;XZ.<.) J R D N i j ;.&.o.+.+.+.+.O.X.y 4 X + + + O O O O O + # $ = - G H 9.|.pXlXpX,X^.=X                              ",
"        :X/.n.) R W W U u p y p u w w 5 9 9 8 4 X + O O O O O O O O O # $ = G ! 5.s.W.3XpX:X.X-X                                ",
"        1X%XF.5.>.} a a Y U U L N n v < @ & & & + + + + + + + # & * - v b D R ~ u.z.T.|.|.                                      ",
"        qX-XF.5.^ ^ T T T U I L M M M m m m b m m m m m m m m m M L L i i U Y [ d.P. X:X                                        ",
"        qX-XB.,., : = = = & & & & @ @ & # & @ < < . & & & & & & @ v v v n A J ) y.K..X<X                                        ",
"        2X<XW.v.,., : > > % O O O + + + + + & * n v v @ . . & & - Z A A H _ v.n.g.H.#X1X                                        ",
"        3X;XV.m.m.m.B.n.1.J D D Z Z Z S D n & * A b Z Z Z A Z S / >.f.G.Y.D.7.p.h.D.<XqX                                        ",
"        3X=Xm.,.| | ,.x.B.B.B.B.n.8.` K S t t t S S K 4.0.r.F.U.I.I.M.7.6.6.6.7.r.K.>XqX                                        ",
"            C.x.| , , ,.,.x.m.m.V.Z./.E.(.(.(.}.}.}.(.}.Y.F.g.r.7.6.6.6.6.6.6.t.M.I.<XtX                                        ",
"            ,X,X;X.X.X.X.X.X}.(.(.T.(.(.(.J.J.k.k.l.l.k.h.f.f.f.f.f.f.f.h.h.h.j.Y..X                                            ",
"              :XW.8.8.5.>.Q Q ! F K K K Q :.:.:.:.:./ / F D D D D F F F K K 6.A.}.qX                                            ",
"                  C.n.9.( H G G Z Z ; G ; - - G G Z Z Z Z A A Z Z Z A J K 1.N.                                                  ",
"                    -X|.C.n.<._ H : : : = = = = = = = = = ; H J ( _ 9.B.|.-X                                                    ",
"                              |.Z.C.B.V.x.c.<.<.9.9.<.9.v.n.N.C.^.<XtX                                                          ",
"                                              qX0XtX                                                                            ",
"                                                                                                                                ",
"                                                                                                                                "
};
