/* XPM */
static char *_77941ad851849d9a14b3aabdedf9675jm9We3XNlYlIcvEW_6[] = {
/* columns rows colors chars-per-pixel */
"64 64 256 2 ",
"   c None",
".  c #7D4E3E",
"X  c #754C38",
"o  c #6B4C3B",
"O  c #634D45",
"+  c #6C4D43",
"@  c #794F42",
"#  c #6E5247",
"$  c #6D564C",
"%  c #675148",
"&  c #725245",
"*  c #78584A",
"=  c #715C52",
"-  c #7D5C51",
";  c #6F5B51",
":  c #7E6052",
">  c #746459",
",  c #7B766B",
"<  c #834E3B",
"1  c #8D4E3C",
"2  c #864D37",
"3  c #914E3C",
"4  c #85513A",
"5  c #8A523A",
"6  c #8E5E3F",
"7  c #965437",
"8  c #9C5936",
"9  c #95553B",
"0  c #985639",
"q  c #95583F",
"w  c #9C5A3C",
"e  c #995637",
"r  c #9D5825",
"t  c #A55D35",
"y  c #A35D3D",
"u  c #86673B",
"i  c #BA6A2E",
"p  c #B6662A",
"a  c #AB6233",
"s  c #A8623B",
"d  c #B56934",
"f  c #BE7237",
"g  c #BE702F",
"h  c #BF6E17",
"j  c #CB751C",
"k  c #D37D1A",
"l  c #D67C09",
"z  c #C47224",
"x  c #CB7423",
"c  c #C5732B",
"v  c #CC772B",
"b  c #D37C24",
"n  c #D07722",
"m  c #C67739",
"M  c #C56F28",
"N  c #845542",
"B  c #8D5C4D",
"V  c #895B45",
"C  c #935942",
"Z  c #9B5B41",
"A  c #965B48",
"S  c #87584A",
"D  c #A15D41",
"F  c #A15F4B",
"G  c #86634A",
"H  c #8A654B",
"J  c #886547",
"K  c #956749",
"L  c #9B744A",
"P  c #826354",
"I  c #8A6858",
"U  c #946B54",
"Y  c #976854",
"T  c #987357",
"R  c #A4634A",
"E  c #A86646",
"W  c #B26D45",
"Q  c #BA7345",
"!  c #A36A52",
"~  c #A26250",
"^  c #B26F51",
"/  c #A47659",
"(  c #A6795C",
")  c #A57659",
"_  c #B57454",
"`  c #B67A59",
"'  c #A2784A",
"]  c #8F7362",
"[  c #987665",
"{  c #957D72",
"}  c #A37C63",
"|  c #A97B65",
" . c #B37F64",
".. c #C57A45",
"X. c #C87B47",
"o. c #C17C53",
"O. c #7E8376",
"+. c #DD841D",
"@. c #DC8315",
"#. c #DC8106",
"$. c #E78B08",
"%. c #EE9109",
"&. c #F49602",
"*. c #F79801",
"=. c #F99A01",
"-. c #F59609",
";. c #E38916",
":. c #EF9419",
">. c #FDA000",
",. c #DB8428",
"<. c #CC802F",
"1. c #E28920",
"2. c #A98553",
"3. c #B1895B",
"4. c #8A8779",
"5. c #9C8578",
"6. c #A48165",
"7. c #A68469",
"8. c #AA866A",
"9. c #AE896C",
"0. c #AC8466",
"q. c #B4896B",
"w. c #B3956A",
"e. c #B6986B",
"r. c #AE8B71",
"t. c #A38679",
"y. c #B08D72",
"u. c #B08F78",
"i. c #B59375",
"p. c #B99676",
"a. c #BE9A79",
"s. c #B69679",
"d. c #AF937F",
"f. c #C7845A",
"g. c #D7894B",
"h. c #C19C7A",
"j. c #CA9868",
"k. c #C6A366",
"l. c #C4A27A",
"z. c #CAA776",
"x. c #D0AD78",
"c. c #D5B27A",
"v. c #DBB67A",
"b. c #E3A27A",
"n. c #99988C",
"m. c #989185",
"M. c #A79689",
"N. c #BE9C83",
"B. c #B59786",
"V. c #AC8D80",
"C. c #BDA387",
"Z. c #ADA496",
"A. c #BDA295",
"S. c #B7A996",
"D. c #BEB39B",
"F. c #BAADA2",
"G. c #BDB1AA",
"H. c #B4B0AB",
"J. c #C09F85",
"K. c #C4A484",
"L. c #CCAB85",
"P. c #CDAE8A",
"I. c #C7A58A",
"U. c #CDB28A",
"Y. c tan",
"T. c #D8B886",
"R. c #C4AB9B",
"E. c #C8A994",
"W. c #D5AE9B",
"Q. c #CBB59A",
"!. c #D1B595",
"~. c #D3BB9D",
"^. c #D9BC9A",
"/. c #D7B798",
"(. c #E0BC83",
"). c #CBB6A7",
"_. c #DABCA3",
"`. c #D2BDAB",
"'. c #D2B6A6",
"]. c #C8BCB3",
"[. c #D8BFB4",
"{. c #D8C19A",
"}. c #E5C387",
"|. c #ECC98B",
" X c #E8C589",
".X c #EACA95",
"XX c #F2D399",
"oX c #F0D096",
"OX c #DBC5A7",
"+X c #CBC3BA",
"@X c #D8C6B9",
"#X c #DFD1B9",
"$X c #E6CDA5",
"%X c #E9D2A9",
"&X c #F5D9A8",
"*X c #E8D5B6",
"=X c #F1DBB6",
"-X c #F7DEB4",
";X c #E1CBB9",
":X c #FAE2BA",
">X c #F3E1BB",
",X c #CCC7C6",
"<X c #DBCDC3",
"1X c #D3CCC6",
"2X c #DCD2CA",
"3X c #DED2C6",
"4X c #D9D6D4",
"5X c #E2D6CA",
"6X c #E8DACA",
"7X c #E5DDD8",
"8X c #F5E2C4",
"9X c #F9E5C6",
"0X c #F9E7C8",
"qX c #F9E8CC",
"wX c #F5E5C9",
"eX c #EBE2DA",
"rX c #E8E2D9",
"tX c #FAECD7",
"yX c #FAEBD4",
"uX c #FBEEDA",
"iX c #F2E8DB",
"pX c #FEF0DA",
"aX c #FEF1DC",
"sX c #EDECEB",
"dX c #E9E6E4",
"fX c #F5EDE5",
"gX c #FAF2E7",
"hX c #FBF2E3",
"jX c #FAF3E8",
"kX c #EEEEF1",
"lX c #EEF0F5",
"zX c #F3F4F6",
"xX c #F5F6F8",
"cX c #F7F8F9",
"vX c gray98",
"bX c #FBF6F3",
"nX c black",
"mX c black",
"MX c black",
"NX c black",
"BX c black",
"VX c black",
"CX c black",
"ZX c black",
"AX c black",
"SX c black",
"DX c black",
"FX c black",
"GX c black",
"HX c black",
"JX c black",
"KX c black",
"LX c black",
"PX c black",
"IX c black",
"UX c black",
/* pixels */
"                                                                                                                                ",
"                                                                                                                                ",
"                                              bXbX                                                                              ",
"                    gXgXgXgXuXtXtXtXtXtXtXtXtXuXaXaXgXhXpXtXuXgXjXgXgXgXgXgX                                                    ",
"              gXgXfXuXtXtXqX0X0X0X0X0X0X0XqXyXtXuXpXaXaXpXuXtXuXpXaXpXuXtXtXtXuXfX                                              ",
"        jXhXtXqXqXtXuXyX0X0X0X9X8X9X0X0X0X0XqXyXuXpXpXpXpXuXtXtXtXuXyXqX0X9X8X8X0XyXuXfX                                        ",
"        tXyXwX9XqXyXtXyX0X0X0X0X0XqXtXtXtXtXpXpXpXpXpXpXpXpXpXpXtXqX0X9X:X:X-X&X&X=X8XyXfX                                      ",
"      8X>X>X>X>X8XwX0X0X0X9XqXyXyXqXqXyXtXyXqX0X0X0X0X0X0X0X0X9X:X:X:X-X&X&X&XXXXXXX$X*XeX                                      ",
"    rX*X%X&X>X8X9X9X8X8X9X:X:X:X9X9X:X:X:X:X:X:X:X:X:X:X:X-X-X-X&X&X&XXXXXoX.X|.|.|..X$X;X                                      ",
"  rX6XOX$X%X=X=X=X=X=X=X>X-X&X&X&X&X&X&X&X&XXXXXXXXXXXXXXXXXoX.X.X|.|.|. X}.}.}.}.(.^.{.OX6XeX                                  ",
"  7X6XOXOXOX%X*X=X=X%X$X$XoX|.|.|. X X X X}.}.}.}.}.}.}.}.}.(.(.(.(.(.(.(.T.c.c.c.Y.Y.Y.~.5XrX                                  ",
"  7X5XOX{.{.OX{.{.^.^.^.^.T.v.c.x.c.c.c.x.x.x.x.x.c.c.c.x.x.x.x.x.x.x.x.L.L.L.l.l.l.K.P.~.<X5X                                  ",
"    5X~.!.~._.W.E.I.U.L.h.l.l.l.l.h.a.a.a.a.a.a.a.a.a.a.a.a.a.a.a.a.a.a.a.a.a.p.p.a.N.I.'.5XrX                                  ",
"      '.~.!.!.!.E.J.K.K.l.h.p.i.i.i.y.y.9.9.9.8.7.8.9.9.9.y.i.i.y.y.y.i.i.i.i.i.p.a.N.E.'.                                      ",
"      OX~.!.!.!.!.L.I.K.a.a.p.i.i.y.9.y.8.7.7.7.7.7.} } 7.7.7.7.7.8.9.9.9.9.y.i.s.N.K.E.).                                      ",
"      ;XOX^._._.~.!.I.l.a.a.a.a.a.i.y.9.8.7.7.7.7.} 6.7.7.7.7.7.7.6.} 7.8.9.y.i.s.N.E.).].                                      ",
"      7X;X_._._.~.!.P.I.N.a.a.a.i.i.y.9.8.7.7.7.7.7.7.7.7.7.7.7.7.7.7.7.8.9.y.y.u.B.A.).[.                                      ",
"      3X@XOX{.^.^.!.P.K.a.a.a.a.i.i.y.9.9.9.9.8.7.7.7.8.9.9.8.7.7.7.8.9.8.8.r.y.u.B.B.R.`.7XsX                                  ",
"      7X`.E./.Y.Y.Y.L.L.l.a.a.a.i.i.i.y.9.9.9.9.8.7.8.9.9.9.9.9.9.9.9.y.y.y.y.y.u.B.N.E.`.6XeX                                  ",
"      eX).d.N.I.L.L.I.K.l.a.a.a.a.p.i.i.y.y.y.9.9.9.9.9.9.9.9.y.9.9.y.y.y.y.i.i.i.i.a.E.`.6XeX                                  ",
"      eX).9.( 8.p.l.l.h.a.a.a.a.a.a.a.i.i.i.i.y.9.9.r.y.y.y.y.y.y.y.y.y.i.i.i.i.p.a.N.C.R.@X<X                                  ",
"      dX`.i.( / ( 9.i.i.i.9.8.7.8.y.i.i.i.i.y.y.y.y.y.y.i.i.i.i.i.i.i.i.i.i.i.p.a.a.N.C.I.!.OX6X      xXvXvXvX                  ",
"        I.s.( / / / 0.8.} U Y B B B Y T T } 8.9.9.9.r.r.y.i.i.i.i.i.i.a.p.p.a.a.a.N.N.K.I.L.Y.^.'.`.1X7XsXxXcXvXvX              ",
"        A.B.( / / / / T K V N N < < < N N V T T } 7.7.7.7.r.i.i.i.p.a.a.a.a.a.a.a.N.K.K.I.L.L.L.I.E.@X7XsXzXzXxXvXvX            ",
"        R.N.( / / / / Y K 9 1 4 4 4 4 4 < < N H U T T T / 6.8.9.y.i.i.a.a.a.a.N.K.K.I.I.L.Y.Y.W.].          zXzXxXcXcXcX        ",
"        R.N.( / ( ` ) K C C 9 1 4 4 4 4 4 < < N V B B H U T T / } 7.y.a.a.a.a.N.K.I.L.L.P.~.;X7X              kXzXzXxXvXvX      ",
"        A.B. ._ _ _ _ E D Z 9 3 3 1 4 N 4 4 < < 2 1 < . N N V U L L ( 8.y.p.a.N.N.K.L.P.~.*X6X                    kXzXxXcX      ",
"        A.B. ._ ^ ^ _ E y 0 e 0 q 9 3 1 2 < . < 2 3 5 < < 4 4 4 4 5 A ! } y.i.a.h.I.L.P.~.5XrX                    lXzXxXcXvX    ",
"        A.B.` _ _ _ _ W t y w e 0 7 1 5 4 4 4 2 7 7 5 4 4 1 3 5 N 4 5 Z ! } y.p.a.K.L.!.OXeXfX                    zXlXzXzXzXxX  ",
"        A.B.` _ _ _ _ W a t y y y w 7 7 7 3 3 7 8 a 8 0 q 0 q C 9 5 5 0 Z ! 7.y.a.K.L.!.@X                          lXzXzXzXxXcX",
"        R.J.` Q Q _ _ W a t t t t t t y w 7 e t a i a t 0 y Z q 0 q q 0 w R } 9.s.N.I.~.#X                          lXzXzXzXzXzX",
"        W.I.f.X...Q _ W a a a a a t t t a a t a j l z a t y w 0 q Z D y E R ! } 9.a.I.`.3X                          zXzXzXzXzXzX",
"        W.I.f.X...Q Q d p p p i i i i g i d a i n @.b i t w q 9 C q 0 w A R E ! ( u.R.`.                            zXzXzXzXzXzX",
"        '.I.f.X...m d p i i i M z x v n x v c b +.;.+.c t e 7 0 q C w d d Q m X.` y.'.#X                          cXxXzXzXzXxXcX",
"        '.I.f.X.m v c g g i j #.;.;.,.,.+.@.;.1.:.&.$.x t e q q 0 7 C F R E W E | V.R.`.                          cXxXzXzXzXxXcX",
"        @XW.f.m c v z z v v ,.:.&.*.*.*.&.&.&.:.:.&.&.@.a 8 q C C Z E D F F R Y | N.Q.`.                          cXxXzXxXxXvXvX",
"        @XW.f.c z v c x b v +.&.*.=.=.=.*.&.&.&.&.*.*.;.i s Z C C C Z D F ~ ! ! | N.Q.`.                      vXvXcXxXxXcXvXvX  ",
"        @XW.g.v x j j k @.#.$.&.=.=.=.*.*.*.&.&.&.*.*.%.@.x i t y Z Z D R ! ! Y | N.'.[.                      cXcXcXxXxXcXvXvX  ",
"        @XW.g.,.b b b ;.&.&.&.&.*.=.*.*.*.&.&.&.&.*.*.*.*.&.;.v f E D F R R R Y 6.N.`.#X                    cXcXcXcXxXzXzXxX    ",
"        @XW.f.v j j b ;.&.*.*.&.*.=.*.*.*.*.*.*.*.*.*.*.*.*.%.k d w C C A Y Y Y } N.'.@X                cXxXxXxXcXcXcXzXkX      ",
"        +XR.f.v j b b ,.:.-.*.*.=.*.*.*.*.*.*.*.&.&.*.&.%.1.m y 0 C B B B B B H [ B.).+X              kXxXcXcXcXcXxXzXsXsX      ",
"        +X).f.v x M x k ;.&.*.*.=.*.*.*.*.*.*.&.&.*.&.;.c t q C B S - - P P - : ] V.).2XsX      4X7XsXxXcXcXcXcXxXzXdX4X        ",
"        +X).f.f t 4 Z i #.&.*.*.*.*.*.*.*.*.*.*.*.&.$.h 8 q V N - * & - - - - : T s.).1X,X].1XsXxXvXvXcXvXvXcXxXsX4X            ",
"        #X_.j.R X o . s b %.*.*.&.&.*.*.*.*.*.*.*.%.z 8 4 N @ # # # # # $ = - : ] B.<XsXzXeXsXvXvXvXvXvXvXvXzXdX4X              ",
"        2X@Xa.I o o . w x %.*.=.*.&.*.*.*.*.*.=.%.b t 1 . & + + + + # # $ = - : ] B.2XzXvXvXvXvXvXvXvXxXzXdX4X                  ",
"        ,X].t.> % O % 6 c $.=.>.>.=.*.*.*.=.*.*.l r 4 @ # + + + + + + # $ = - : ] B.2XxXvXvXvXvXvXvXzXdX4X,X                    ",
"        ,XG.5.I : = - V d ,.:.=.>.>.>.=.=.=.&.+.d 4 & + + + O O + + + # $ = - : ] B.2XzXvXvXxXsXsXrX4X4X                        ",
"        1XG.4.[ Y ! Y A s z +.;.%.&.&.&.&.%.;.p 5 X + O O O O O O O O # $ = - P I t.+XsXcXsX4X].,X                              ",
"        2X].B.[ T ^ ^ W a d i i a t s y 8 8 q 5 . + O O O O O O O O O # $ = P / q.h.).7XsX2X@X<X                                ",
"        6X;XI.q.` o.f f Q W s D A V N < . X & + + + + + + + + # & * - N V K ! _ f.b.^.@X+X                                      ",
"        rX<XI.q.` Q ^ W W W E R D w 0 C C C B C C C C C C C C C Z R R s s W Q ..j.^.#X2X                                        ",
"        eX<XS.4., > = = ; & & & - * . & # & @ < < . & & & & & & @ N N N V H U [ d.R.@X5X                                        ",
"        7X3XD.M.4., > = ; % O O O + + + + + & * V N N N . . & & - G H H I { M.B.l.Y.*X6X                                        ",
"        7X1XZ.n.n.n.Z.B.6.U K K H G G K K V & * G G G G H H H H ' 3.k.U.~.U.e.k.z.P.5XrX                                        ",
"        7X,XM.4.O.O.4.n.Z.S.S.S.B.t.} T J u u u J H T 6.w.a.I.!.Q.Q.C.e.w.w.w.e.a.R.3XrX                                        ",
"            H.m.O., , 4.m.n.M.M.Z.G.`.).{.{.{.OXOXOX{._.Q.I.l.a.e.w.w.w.w.w.w.p.C.Q.5XiX                                        ",
"            4X2X+X].@X@X@X@XOX{.{.^.{.{.{.^.T.c.c.v.v.c.z.k.k.k.k.k.k.k.z.z.z.x.~.@X                                            ",
"              2X).r.r.q.3.6.} ( L U T T ( 2.2.2.2.2.' ' L K K K K L L L T T w.I.OXrX                                            ",
"                  F.B.t.] I P P H G P P : - - P P H G G G H H G G G H U T 7.A.                                                  ",
"                    <X+XF.B.5.{ ] I > > = = = = = = = = = : P I ] { t.S.+X<X                                                    ",
"                              +XG.F.S.Z.n.m.5.5.t.t.5.t.V.B.A.F.].5XiX                                                          ",
"                                              rXeXiX                                                                            ",
"                                                                                                                                ",
"                                                                                                                                "
};
