/* XPM */
static char *_685fc5cc274499caaa8cb546505c41etfvrQINQ7V76uC8a[] = {
/* columns rows colors chars-per-pixel */
"64 64 136 2 ",
"   c #1B110E",
".  c #231A16",
"X  c #271D19",
"o  c #291F1D",
"O  c #2B221D",
"+  c #2F2521",
"@  c #302722",
"#  c #332A25",
"$  c #362D29",
"%  c #382F2B",
"&  c #3B322D",
"*  c #3E3531",
"=  c #403733",
"-  c #433A35",
";  c #463D39",
":  c #483F3B",
">  c #4B423D",
",  c #4E4541",
"<  c #504743",
"1  c #544945",
"2  c #544B44",
"3  c #544947",
"4  c #564847",
"5  c #554A46",
"6  c #544B46",
"7  c #564B47",
"8  c #534C46",
"9  c #554C45",
"0  c #554C47",
"q  c #544D47",
"w  c #574E47",
"e  c #534A45",
"r  c #534948",
"t  c #574948",
"y  c #544A48",
"u  c #554A48",
"i  c #544A49",
"p  c #554B49",
"a  c #554B4A",
"s  c #574C48",
"d  c #564D48",
"f  c #554E48",
"g  c #574E49",
"h  c #564C4A",
"j  c #574C4A",
"k  c #574D4B",
"l  c #574D4C",
"z  c #564D49",
"x  c #584A49",
"c  c #594B4A",
"v  c #584D49",
"b  c #584F48",
"n  c #5A4C4B",
"m  c #594E4A",
"M  c #584F4A",
"N  c #5A4F4B",
"B  c #584E4C",
"V  c #594E4C",
"C  c #584E4D",
"Z  c #594F4D",
"A  c #5A4F4D",
"S  c #594F4E",
"D  c #5D4F4E",
"F  c #584F4B",
"G  c #595049",
"H  c #5B5249",
"J  c #59504B",
"K  c #58514B",
"L  c #5A514A",
"P  c #5B524B",
"I  c #5B504C",
"U  c #5A514C",
"Y  c #5B524D",
"T  c #5A534D",
"R  c #5A504E",
"E  c #5B504E",
"W  c #5A504F",
"Q  c #5B514F",
"!  c #5C514D",
"~  c #5C534C",
"^  c #5E504F",
"/  c #5D524E",
"(  c #5C534E",
")  c #5E534F",
"_  c #5D544F",
"`  c #5B524D",
"'  c #5C5250",
"]  c #5D5250",
"[  c #5D5351",
"{  c #5E5351",
"}  c #5D5352",
"|  c #5E5550",
" . c #5F5651",
".. c #5E5751",
"X. c #5E5452",
"o. c #5F5452",
"O. c #5E5453",
"+. c #5F5553",
"@. c #5E5551",
"#. c #615352",
"$. c #605551",
"%. c #605752",
"&. c #625753",
"*. c #605654",
"=. c #615755",
"-. c #605753",
";. c #615853",
":. c #605953",
">. c #635854",
",. c #625954",
"<. c #635A55",
"1. c #625856",
"2. c #635856",
"3. c #635957",
"4. c #645B56",
"5. c #655C57",
"6. c #635955",
"7. c #645A58",
"8. c #655E58",
"9. c #675E59",
"0. c #665C5A",
"q. c #665D59",
"w. c #685E5C",
"e. c #695F5D",
"r. c #685F5A",
"t. c #69605B",
"y. c #6A615C",
"u. c #6A605E",
"i. c #6B625D",
"p. c #6F6661",
"a. c #6E6462",
"s. c #6F6661",
"d. c #706762",
"f. c #716863",
"g. c #857C77",
"h. c #918883",
/* pixels */
"n n < , c : #.t : : c : 4 #.n ^ L e ; = _ q = & ;.> L n ~ % > H > - > > & H > w W , r W a r 1.Z : n _ _ e L +.e < * & - q _ g & ",
"< #.4 x = 4 c 4 : n D D t : > : > K ( - > e q _ > q q = > > q w * H > > > > q b , r W r : i r u., < +.e > L e e > w L L > g Y L ",
", - x c ; : ^ x - x : : t t >.^ > > ^ - & = - > _ = > _ e > - > > > ~ > > e : > : ; ; a r , l - 4.e > q ;., > ; < > > e > < ; & ",
": 4 : 4 , : = > 4 D 4 : H 9 t : > % e 9 e _ L 8 * L ;.w e :.> > w > H H e < n < i i i C O.O.r } * w e > e e q > 8 > > q ;.+._ e ",
": , 4 ^ 4 , c : : > = w w = > > e : 5.;.> 9 > e ..> 2 q > e > < > L q q L 8 , l , i , , , i = : > q ^ e e +.e +.L _ =.g q q ~ _ ",
"4 > ^ 4 , $ 4 % > = H > : #.: H ;.e q 9 e 4.q * L > e > L _ ^ ;.~ P 2 L L < Y g C } W W O.a O.; L L < e e g ; = > , * * > ;.e = ",
"- c : 4 c , $ 4 @ = @ ; ; > > = > > g 9 : > > > e > _ > - & : & > # > > * p , , , r 1.; O.a r O.=.Z , 1.+.> e l * ' O.l : : - > ",
"= = = = = , = ; H = O = = > > H > , > 9 e q e L q e > - g q _ > > > ; ; , e r , i , = 1.i , * * 8.=.} : , t.a.} ; , r < Z : , e ",
"& = t $ * ] - L ; : = - > w @ - > 5.< > e > > e q q n e ..L _ = $ > > > O.= a r : : i = = i } ; , , r : l ; $ , } =.1.* : r r = ",
"#.; = 2.: ^ % > > : > > : = > > - ; > > > 2 L q n L q 9 q - > q > > > > , * * , , , C O.r , , i : $ i r : C 0.: < , } r > ; , > ",
"; = > = < : > # 4 - > w > > - = > > _ g - - > > L g e _ i.g & & ~ > > > @ : l < a W r $ i = * = , , W r l r r l =.} : > , : a : ",
"= ; > = 4 > , * H = > H : > > > , , e , q K > e e ; & & q e e > = > = > } - > r = : : r r r r r } = r r l , , , - - $ r S r C a ",
"> $ = 4 , l Y e O > * 2 H > > H g L g g _ Y q g q e > > - > > > H > = & 2 > l , , r : = } r i i , = C r ; ; r r , , r C % ; i r ",
"D : 2.: +.p Y e e w > > >.> H H 9 q Y Y > > g g q L L ,.& > - Y > > H > = & - < $ ; = O.* i r : r i r = S W : i W r l $ : u.$ r ",
"- - r : 7.Z q t.K - :...2 2 ;.= > = > > e ^ L L ;., ; e q L & # = H > & e L , > } r ; : r = : : = ; : ; ; ; * r % , r w.r * : * ",
"#.r t 4 ,.%._ 2 - :.< 8 t.H 2 > g K Y > q L * > = e y.g _ , > ( > > = > = @ Z : , r S * , $ C r } C i r : r * : r } r . % u.: * ",
"W r , Y e = L , e _ e q n _ ;.+.< , W l r r %.e w n = - 2 - > - : a % * * i ; : , : , * * , o r = = r r : r r 4 r = ; , r W : : ",
"= ; = Y g : +.Y = > : e ;.e e L 8.+.; $ r Z * Y 2 q L _ K e L - : , % ; W = , : r 0., i , , r r r 1.r r S i i S i O.; O.W , O.W ",
", r > n Y - L g P %.q 9 _ L < e Z , l ] < ] > > q ;.> = L L * % % % = o % : : : , ; i O.O.$ % = * #.r r w.i r S i = O.= , ; = l ",
"t r W p Y ; L , > - = > & ..L > Z ] , < Z < < Y 2 > 2 5.@ q , $ ; * + + * * , i C , W : * w.W S l r , r : S , , l C 4 C O.1.O.1.",
"> = n q q g Y e ;.q q _ > _ Y e } , , W p : ' Y _ = ..> 2 > b > a a - * $ % = ; % $ r , * * ; : O.#.S $ 0.l i i O.S l r , O.S 7.",
"_ q w w - 8 > = - e 9 > e > K n > l 1.l ' , * * = - > - - = & ; * @ ; , , , * ; : = % , - } , r ; r ; O.= i O.i l l S i 1.: l $ ",
"e L > > > q q e > q w > K > %.L - > * @ , Y , > = - > q ;.;.> > g ' : % ; C 1.; } , a : > a > , r O.r 0.: S O.O., W i O.; * W #.",
"q y._ > _ & - % ;.e e _ +.> Y > C < * r , ; , ; > 2 > > - - e  .= , O.l : O.W } , l l r < a < < r r : r l #.: = r $ : i , O., , ",
"L q n Y 8 q n < > e ( > > e > > % > , = r l p = - - > q q > > > ( K <.H ..> w ~ n 8 = , w.l r : r : r r r r C a l & : ; ; , r W ",
"L - e = * g K +.;.L +.L ;.g q _ a r r S } : ; - ; - < > > > = q & = > <.t.2 ;.2 & Y Y * Y l * , r r r W S r W : , S r , ,   1.1.",
"8.L Y _ L L g e ;.q ( 2 e _ > q a t r , , : , ; - > = > e e L > H :.> H ~ q b > _ 9 > e e > ] , = S = = ^ , : a r = ; o $ i , = ",
"e K Y 5.Y > ;.y.( q _ < > i.e L r , , r p < e : - L - ; > e L & = > > = > ..L b _ e +.e , e , , r i , r a : : = ; r ; % = o = ; ",
";.e e > > K , , e > e < K e _ e a } O.} , , Z Z & & L w > f.f.y.H > s.H > > ..9 e , Z > t S r i r r S i : : a } ; ; = * r % r r ",
": q L > > e L e _ > ^ ;.- ..# > } C , : , W W : _ e ..5.< 4...^ > > = = 5.w 2 w W ; ; < : = l r r = : r } } a : r r r % : r r ; ",
"> K - , e > ;.L e q _ q L & e & * : , } r : ; r > ; & > > 2 q : > > > 9.> > H > t 4 w.a : , , : #., S S = * r = r = r % r : = r ",
"n > - L Y > > ;.> > L Y > e g L < } : ; : C l r q ;.e > - e & @ > # > > > H > > , = & r t = l } , : ; r i , } a r r = = + : + % ",
"; L Y = L 2 y.> q > e L - & % # > < ..> w w > > > - - - 2 e < > > & > 8.> > - > = > 2 2 > L e = q Y < ] < = : a } 3.a , C , C r ",
"; 5.> > ; q > ~ : e q & :.;.K L > > ;.K > > > > - ;.e L ..> > > > > > > H <.> > > > e > > > q e & e > = > ; : r O.S r : : : r C ",
"q > g , Y L e & e > > y.q > > e > H > % w > > - q L ;.> q 2 > > > H H > H > %.<.> = & > q 8 > > O.; - % , > > - = * i r W : : : ",
"= ;.i.L , > < L > > > - L q K 2 * @ 2 * > w > 2 ,.= > e q > ^ q > > > > > %.> H > - > q e > L +., = } > r l } : @ + : r : W r O.",
"e L & > < ^ q > > e > > % w O % > > > > > & > > = = = > O - 8 e > w w H > > > > 5.- > < e - q > * ; } : , r : , * < , W W : 3., ",
"e > e Y P > ;.q > q > P 2 = & > < > & # > > > > > e > & & 4.e - H = > > > ~ > i...e +.y.> > > > O.; = % - - # % = - , > * W : i ",
"e > * > b e > > > e > < > - t.> - > & > = = e & > > - 2 q & - & > = > i.> > > = Y , > e - ~ > - 1.C W p r Y < = ; > n r l C = = ",
"= e +.y.- > > _ & _  .q & b # & - & % * - = & q b > & - - , > O O > > > > H 8.:.g > L & L H > > < , , , ] < ; Y , } * > ; = : ; ",
"2 - @ > 8 L e e ;.> > > > - ~ > % O O - - > 8 & > > ..- & ;.& L - = = > > > & O e L # L - > e e g ;.; & e ;.> = l ; e K Y e , _ ",
"e > q > ;.> > < > y.2 ..> > - & * & & - > > % * = > L > - < L > > - > > > & > 8 & & = < 2 = e e K = > f.2 ; e e W , e - > - e _ ",
"& > w & > > q e - > > _ t.> > O O O % # & & > ..> L - - > > > - > > = > K 8 H < > % q > ~ > > > L > > L > +.e , : = e L _ e > e ",
"> e 2 > e > - e > ;.= e > - * > w ..> 9 > > 9 % > & = q = q w 2 > > & = & > < - 8 & > > e q > > & > - 8 q L g L : +.+.> - L _ q ",
"& & 2 > _ 2 - e = - = & # : 9 > > q & > 2 > K > > - > e > L > e > & & > > 2 > K ;.q Y ;., e > e L & > > > L q _ n q q e q < > > ",
"> 4.e - > > ;._ > - = e - > # & q q L q > w > > g L > > - > e 2 H H H > - i.( > 2 q > L 9 8 _ _ > > +.( > > L , L q q > ^ 2 _ > ",
"% > % q e - > > - L q - _ = # e _ - > & > 8 H 8 O e > _ _ e = e > > > > w w w 2 ^ _ e L +.q +.^ L ; 8 e n L > _ = - > > e & > > ",
"> @ - O # & O = & : - L # L ,.- > e ;.8 i.> ;.g.h.> w e > > ;.> 9 > > @ > > ..2 > L q _ ;.e q q e q _ L q 2 ; q _ y.Y Y q _ L > ",
"> * > - > 2 > > * & K - & * H ..= e > > ..> 9 e _ - * +.; > e e > w ;.w e ^ , W r } } C r W * : ; : - = q e L _ L , n q ;.q q > ",
"# > O = # > > > & = > > > > > ..> q & > - - - e * L e # - > > > # 2 ~ - > e +., l O.l , , O., , e q > > q - - n ; q q q e L i.4.",
"=   > 2 % > ..:.H O 2 > > 8 H < , # e = > & _ > > e = 5.q y.e q 2 = P 2 ..L ; > , r ; r i O.r r = # # > @ O > > 5.;.q ^ > w < # ",
"- H > # > > * # > - - # & > < > > = > L > q b w > e > ..q L - > _ 2 q e ; > r C , e , O.O.W a W _ Y L e > # q e q X # P L _ > _ ",
"O O - & 2 * > 8 @ _ q _ > 2 K > e , q > e 8 < ( t.q w > q > L ^ > b 5.5.l l r ; < ] r Y C W O.W > ;.L +.e = & $ = # q ;.g ( > > ",
"2 & > O > * > 2 & e e > > > % & L > e g - 2 e e 2  ...> > 5.> # > @ > > < S < r , p < l C C S r ,._ > _ > q e L ;.* & e ^ 2 q - ",
"& % & 2 > > & * i.- L - % e 8 > L > > w = 2 e - # - > & > q > 5.l e n q * - r > r < < W W i r r e L +.> 5.q > , > q _ L - & > - ",
"> * > - 9 t.t.> # e - L O & q q ..5.> = q > & > - $ e _ 2 ^ ~ q , , ] 4.* } r < r r r > ; : , : * : , g > y._ L e > > > > g q - ",
"- > - q L _ > L ;.L < * ( & > e - = L _ > e > e = L ( > L Y q < O.O.] Z p ' O.l 0.l } > * - = = e > > L > e > e e e H > * > L e ",
"- e L - e - > & & & g L 8 ;.> # L > > > , L _ 2 2 e = > g L , > Z , e Y ' 1.* * * ; } l r O.C } X < t...> ( K > L > > f.y.4.K ; ",
"e q > ( q - - q L e > > = > ..8 ;.- > ..> < * > = > > ( g , e L , L g +.l - - > : W , , - , ; * O.> & * < _ 8 , q ^ q i.> > e , ",
"> e > , _ > < > & @ = e - e > L & ;.q 2 e & - q > 8 > , < 8 _ _ Y < ,.e r , , r , ' l ' ; a ; ; . > L < > 2 > > 2 = O > e Y L 8 ",
"- > > = > 2 > # 5.& e & O & q > > > - # - O < ( > e > , P L n = H > t.H : % & $ e = , , * ' = : L e e Y 8.^ > e &  .;.> & - > q ",
"> e > - # e < e e q > L > ;.n > L * > . @ ..w - L L L > q 2 K L ..> - <.r , , * , > > p , ] 7.+.> q g e L 8 e ( > < > - q e > q ",
"- > L & & 8 _ L - - e > L t.* w = > O O e > = > < < g e _ ;.2 H ~ > > > = - $ > # K e L g * p , q q g > L L < > > > < e L Y n < ",
"..- e q _ ( - > > e e = > 8 > _ _ > 8 e ..@ _ L & > , > e ..> 2 > > > > 2 e ; - > g +.= ,.=., , , e ^ q 8 > > ^ L L q _ q > ;.L "
};
