/* XPM */
static char *b9645340fad3472ea9b3fe73553e757cqQIG9NzBL0nNLmAz[] = {
/* columns rows colors chars-per-pixel */
"64 64 80 1 ",
"  c None",
". c #292519",
"X c #2D291D",
"o c #332C1D",
"O c #382F1F",
"+ c #273127",
"@ c #283225",
"# c #26362D",
"$ c #3D3322",
"% c #253D34",
"& c #2B3E33",
"* c #243F38",
"= c #433623",
"- c #463924",
"; c #4C3C26",
": c #4B3E2A",
"> c #314527",
", c #2A4137",
"< c #254138",
"1 c #29453D",
"2 c #274839",
"3 c #294B39",
"4 c #2D543A",
"5 c #2F593B",
"6 c #3E5F37",
"7 c #315D3C",
"8 c #34643C",
"9 c #366A3D",
"0 c #386E3E",
"q c #3B743E",
"w c #3D7A3F",
"e c #55432A",
"r c #5A452B",
"t c #534A2D",
"y c #5A492F",
"u c #644C2E",
"i c #674E31",
"p c #684E31",
"a c #6C5232",
"s c #725635",
"d c #785937",
"f c #2C4740",
"g c #2E4941",
"h c #314C44",
"j c #3D6647",
"k c #3E7442",
"l c #3F7E40",
"z c #407F40",
"x c #815E3B",
"c c #85613D",
"v c #89633E",
"b c #8C6640",
"n c #8C6844",
"m c #418241",
"M c #488647",
"N c #468942",
"B c #498D43",
"V c #4D9244",
"C c #509646",
"Z c #539B46",
"A c #589A50",
"S c #56A047",
"D c #57A148",
"F c #5AA549",
"G c #5EAB4A",
"H c #60AE4B",
"J c #64B44C",
"K c #67B84D",
"L c #6BBD4E",
"P c #63AE50",
"I c #68B552",
"U c #6EBF53",
"Y c #6EC14F",
"T c #6FC350",
"R c #71C650",
"E c #74CA51",
"W c #78CD56",
"Q c #76C45A",
"! c #7ACE5A",
"~ c #82D262",
/* pixels */
"                               EE                               ",
"                               EE                               ",
"                               EE                               ",
"                          <  RREE     !W                        ",
"                           11kVLWWW  W                          ",
"                           1*48CFFGQ!!                          ",
"                          <*<*<0lNCR!                           ",
"                        11<<<<20NLR  W                          ",
"                         1<59qqwNYEWEEEW                        ",
"                         2%8mlmVFREEEEEE                        ",
"                      f1<<28lNBJYEEEEERY                        ",
"                        <4wwlFYVVYEEREFNKWW!                    ",
"                      g1<5mmmBSGJRYZCCFHYE                      ",
"                      1**38kmllFJEYZZZKEEE                      ",
"               11<h f<*<3<<8lmNmVYEEREEERTEW                    ",
"                h<11<<*3qqwwmSYLYREEREREFBYEW!                  ",
"                 <**<<*<58mlmVFYYSZSJREEJGSFR!                  ",
"                 g1<*<44<3009wmFJZVlZEERERZSY!                  ",
"                  h<<2qq2<2<<8mmBYKmZYREEERREW  W               ",
"                 1<<8042<3qqqwmHKVBlNBJEERZZYW!!                ",
"                 <<<572<70lmmmmSSmllBFFFLRNNTEEW!               ",
"                h<*<33<30qlwqwllllmVFESlHRZZJLEW!               ",
"               1<*<<0w3<<5l8<9llllBYEESmHERLNVE!                ",
"                g<<<0wq0qqlq0wl75wVREEYJYEERKHVZ                ",
"                1<<<5889ww8qmll87lNFKEREERHHRYFH                ",
"               <<<<**<24w0<5qqwwllmNSREERRZVKYRYLQ              ",
"               <<<<<*2qwl0<<<22qllBYREEEEERKNVEHmHW             ",
"             11*4999324453<499957lmZGEEEEEERHKEYJDC             ",
"             1<*49993***<**49wl85lmlVGYRREEERWREEGZI            ",
"           1<**<*<<<*<*<<*<%<5wlllllmmSYLYYYRREEEEEEW           ",
"           1**<<<<<<<*<*<<*<<<2qmllmmmmNNNNVREEEE               ",
"          <1<*3888883**285**<<<48lmmBGVmlmSJREEEEWE             ",
"          <<<<39qmmm4*<2lq43<***>9qlZEHZNmYREEREEEEE            ",
"             <<*7wll4**2www5*<2<**3wVYRRZmJYYYEEEYRREEW         ",
"           1<<<*<39l4**<2222*8w3**2wmNHEZlNNBZEERFBKEE!         ",
"            g1<<**372*<*****<8l9889wmmVFBlmmmmSJEJFSFQ          ",
"             <<<242***<******5qqqlmml000wmmmVVVGEYYVm           ",
"           32*<<7w5***<2***<<<<<3qll92220mmBYRYRYSB  NM         ",
"        m51k923q822<*2002*<*****224l9<5qlmHJBZRJBGKRTNm         ",
"        j77888884%*<*27874*<*<*<<<284<48qmFSmNFFSLERRGG         ",
"        <802298****<*<*2w9<<<<<<<%<<****9llmBBBFEEEEREYLU       ",
"        <<2**<2*<<<*<*<2w9<<<<<<<<<<****9llBYYRRRREEEELNCEW     ",
"    1211<*<*****4q4**<<<33<**7qq9*298***23qmVSRHVJEEEERLLEEW    ",
"    **<**<*<**25894*<*<<***<*49wq229872*2280lBHVlZHYRJJREEEE    ",
"    <<*<<*<*225l8**<*<*<<*<*<<<9042*4q4*<<24qqqwmlmGKNVYRRTL    ",
"  11<*<**<*<2qwl8***<*<**<*<<<<<3q92<22*%2002228lmlNNmVYEWGMKW  ",
"11<*<**<<***<4543*****%<<*<**<<*2432<*****34*29qmmmlmlNVFEU     ",
"ff<<*<*122***%*****<**<<*<*%#%*<%###%*252****4lw999wmllwBJG     ",
"  11<<1  g*<<1<*<<11<1<*<*%+.+*&&...@<8m72<*<3k8<<<9lkwzzzmm    ",
"    <g   g<<f  1<<h   1<<%X...XtyX..>wlmzq3<<22<<<<2224mzzzmmMmM",
"        g1<                X.=euapppt>6     <<*g      jmmwM     ",
"        <1g                X.;rpaxcnsX      f11        Mmqk     ",
"        1                  X..Xepasvn                    1      ",
"                           X...o$usvxs                          ",
"                           X....ousssa                          ",
"                           X.oo.Xrupas                          ",
"                           X.;uo..Ousv                          ",
"                           X.oOX...O;s                          ",
"                           X...=-...o;                          ",
"                          .....erX....=                         ",
"                        X......XX.....;a                        ",
"                      XX..............o$                        ",
"                       .......X.....X...:                       ",
"                          ...        ...eaas                    "
};
